<svg width="17" height="16" viewBox="0 0 17 16" fill="none" xmlns="http://www.w3.org/2000/svg">
<path d="M8.44318 11.3736C10.2814 11.3736 11.7716 9.86334 11.7716 8.0003C11.7716 6.13725 10.2814 4.62695 8.44318 4.62695C6.60494 4.62695 5.11475 6.13725 5.11475 8.0003C5.11475 9.86334 6.60494 11.3736 8.44318 11.3736Z" fill="black"/>
<path d="M12.4111 0.0413476C10.4276 -0.0137825 6.45758 -0.0137825 4.47408 0.0413476C3.44189 0.0700692 2.27174 0.330491 1.53631 1.1266C0.772105 1.95413 0.483322 2.95393 0.454032 4.0724C0.402552 6.03549 0.454032 11.9276 0.454032 11.9276C0.48757 13.0459 0.772105 14.0459 1.53631 14.8734C2.27174 15.6698 3.44189 15.9299 4.47408 15.9587C6.45758 16.0138 10.4276 16.0138 12.4111 15.9587C13.4433 15.9299 14.6134 15.6695 15.3489 14.8734C16.1131 14.0459 16.4019 13.0461 16.4312 11.9276V4.0724C16.4019 2.95393 16.1131 1.95413 15.3489 1.1266C14.6132 0.330234 13.443 0.0700692 12.4111 0.0413476ZM8.44234 13.2287C7.42197 13.2287 6.42452 12.922 5.57611 12.3475C4.72771 11.773 4.06645 10.9563 3.67598 10.0009C3.2855 9.04551 3.18333 7.9942 3.3824 6.97993C3.58146 5.96567 4.07281 5.03401 4.79432 4.30276C5.51583 3.57152 6.43509 3.07353 7.43585 2.87178C8.43662 2.67003 9.47393 2.77358 10.4166 3.16933C11.3593 3.56507 12.1651 4.23525 12.732 5.0951C13.2988 5.95495 13.6014 6.96586 13.6014 8C13.6014 9.38673 13.0579 10.7167 12.0904 11.6972C11.1228 12.6778 9.81061 13.2287 8.44234 13.2287ZM13.6233 3.85059C13.4193 3.85054 13.2198 3.78917 13.0502 3.67423C12.8805 3.55929 12.7483 3.39595 12.6703 3.20486C12.5922 3.01378 12.5718 2.80352 12.6116 2.60069C12.6515 2.39785 12.7498 2.21154 12.8941 2.06532C13.0384 1.91909 13.2223 1.81952 13.4224 1.77919C13.6225 1.73886 13.83 1.75959 14.0185 1.83875C14.207 1.9179 14.3682 2.05194 14.4815 2.2239C14.5949 2.39587 14.6554 2.59804 14.6554 2.80486C14.6554 2.94221 14.6287 3.07821 14.5768 3.2051C14.525 3.33199 14.449 3.44728 14.3531 3.54439C14.2573 3.6415 14.1435 3.71853 14.0183 3.77106C13.8931 3.8236 13.7589 3.85063 13.6233 3.85059Z" fill="black"/>
</svg>
