<svg width="17" height="16" viewBox="0 0 17 16" fill="none" xmlns="http://www.w3.org/2000/svg">
<path d="M5.4314 13.2188H3.2439V6.15625H5.4314V13.2188ZM5.64966 3.90613C5.64966 3.19897 5.07593 2.625 4.36914 2.625C3.65967 2.625 3.0874 3.19897 3.0874 3.90613C3.0874 4.61353 3.65967 5.1875 4.36914 5.1875C5.07593 5.1875 5.64966 4.61353 5.64966 3.90613ZM13.6187 9.33325C13.6187 7.43738 13.2181 6.03125 11.0034 6.03125C9.93921 6.03125 9.22485 6.56348 8.93323 7.11694H8.93115V6.15625H6.80615V13.2188H8.93115V9.71216C8.93115 8.79382 9.16492 7.90417 10.3032 7.90417C11.426 7.90417 11.4624 8.95435 11.4624 9.77051V13.2188H13.6187V9.33325ZM16.4312 14.125V1.875C16.4312 0.841064 15.5901 0 14.5562 0H2.30615C1.27222 0 0.431152 0.841064 0.431152 1.875V14.125C0.431152 15.1589 1.27222 16 2.30615 16H14.5562C15.5901 16 16.4312 15.1589 16.4312 14.125ZM14.5562 1.25C14.9008 1.25 15.1812 1.5304 15.1812 1.875V14.125C15.1812 14.4696 14.9008 14.75 14.5562 14.75H2.30615C1.96155 14.75 1.68115 14.4696 1.68115 14.125V1.875C1.68115 1.5304 1.96155 1.25 2.30615 1.25H14.5562Z" fill="black"/>
</svg>
