<svg width="17" height="13" viewBox="0 0 17 13" fill="none" xmlns="http://www.w3.org/2000/svg">
<path d="M16.4312 3.68644V10.2C16.4312 10.8641 16.1772 11.503 15.721 11.9858C15.2649 12.4685 14.6414 12.7584 13.9783 12.796L13.8311 12.8H3.03115C2.36704 12.8 1.72808 12.546 1.24537 12.0898C0.762642 11.6338 0.472742 11.0102 0.435147 10.3472L0.431152 10.2V3.68644L8.15279 7.73124C8.23868 7.77614 8.33416 7.79968 8.43119 7.79968C8.52812 7.79968 8.62361 7.77614 8.70959 7.73124L16.4312 3.68644ZM3.03115 2.13684e-08H13.8311C14.4756 -8.25593e-05 15.0971 0.239195 15.5751 0.671411C16.0532 1.10363 16.3537 1.698 16.4184 2.33924L8.43119 6.52319L0.443952 2.33924C0.50597 1.7234 0.785588 1.15001 1.23255 0.721971C1.6795 0.293925 2.26449 0.0393497 2.88235 0.00399487L3.03115 2.13684e-08Z" fill="black"/>
</svg>
