<svg width="17" height="16" viewBox="0 0 17 16" fill="none" xmlns="http://www.w3.org/2000/svg">
<path d="M15.9557 9.68619C17.116 4.48719 12.5547 -0.231917 7.19312 0.667912C4.29228 -1.13175 0.431152 0.907866 0.431152 4.36721C0.431152 5.16705 0.651216 5.92691 1.03133 6.56679C-0.0289818 11.7858 4.55235 16.4449 9.91392 15.4651C13.695 17.4647 17.8562 13.4855 15.9557 9.68619ZM10.8742 12.8256C9.47379 13.4055 7.15311 13.4055 5.7527 12.6656C3.75212 11.6058 3.41202 9.20629 5.13252 9.20629C6.4329 9.20629 6.01278 10.726 7.33316 11.3259C7.93334 11.6058 9.23372 11.6258 9.97393 11.1259C10.7141 10.626 10.6541 9.84616 10.254 9.48623C9.19371 8.50642 6.13281 8.88635 4.73241 7.16667C4.13223 6.42682 4.0122 5.10707 4.75241 4.14725C6.05279 2.46757 9.87391 2.36759 11.5144 3.62735C13.0348 4.80712 12.6147 6.34683 11.3943 6.34683C9.93392 6.34683 10.6941 4.4272 8.31345 4.4272C6.59295 4.4272 5.91275 5.64696 7.13311 6.24685C8.77358 7.08669 12.9548 6.80674 12.9548 10.0061C12.9548 11.3259 12.1346 12.3057 10.8742 12.8256Z" fill="black"/>
</svg>
