<svg width="17" height="14" viewBox="0 0 17 14" fill="none" xmlns="http://www.w3.org/2000/svg">
<path d="M1.73504 5.73407C6.05002 3.85457 8.92672 2.61537 10.365 2.01667C14.4765 0.307067 15.3298 0.0101472 15.8871 8.7179e-05C16.0097 -0.00187282 16.2825 0.0284165 16.4606 0.172367C16.6086 0.293767 16.6502 0.457967 16.671 0.573267C16.6895 0.688367 16.715 0.950867 16.6941 1.15577C16.4721 3.49587 15.5079 9.17477 15.0176 11.796C14.8118 12.905 14.4025 13.2768 14.0071 13.3131C13.1469 13.3922 12.4948 12.7452 11.6623 12.1997C10.3604 11.3457 9.62502 10.8143 8.36012 9.98117C6.89872 9.01827 7.84682 8.48887 8.67932 7.62407C8.89662 7.39767 12.6844 3.95327 12.7561 3.64087C12.7653 3.60187 12.7746 3.45617 12.6867 3.37937C12.6011 3.30237 12.474 3.32877 12.3815 3.34957C12.2496 3.37917 10.1708 4.75457 6.13792 7.47557C5.54822 7.88117 5.01412 8.07897 4.53312 8.06847C4.00582 8.05717 2.98838 7.76977 2.23222 7.52417C1.30724 7.22287 0.569581 7.06357 0.634331 6.55177C0.666701 6.28537 1.03438 6.01277 1.73504 5.73407Z" fill="black"/>
</svg>
