<svg width="109" height="86" viewBox="0 0 109 86" fill="none" xmlns="http://www.w3.org/2000/svg">
<path d="M40.4014 29.8646C39.8554 29.7817 39.4069 29.6969 38.9547 29.6509C35.1882 29.2659 31.9198 30.3767 29.2397 33.0479C26.6331 35.6472 25.5081 38.8526 25.8188 42.5131C26.2857 48.0286 30.6239 52.4867 36.0944 53.1793C36.69 53.2549 37.2856 53.2696 37.8812 53.2696C42.7524 53.2714 47.6237 53.2696 52.495 53.2696C52.5722 53.2696 52.6494 53.2622 52.7248 53.2696C52.9343 53.2899 53.0446 53.2162 53.0226 52.9877C53.0115 52.8662 53.0226 52.7427 53.0226 52.6193C53.0226 45.9874 53.0226 39.3537 53.0226 32.7218C53.0226 32.1065 52.9711 32.1692 53.5538 32.1673C55.4233 32.1673 57.2909 32.1747 59.1604 32.1581C59.4949 32.1544 59.6732 32.2668 59.846 32.5523C62.9839 37.7878 66.1327 43.0178 69.2797 48.2496C69.3422 48.3546 69.4084 48.456 69.4819 48.572C69.6731 48.5057 69.7154 48.327 69.7926 48.1925C71.4966 45.2984 73.1951 42.4007 74.8937 39.5029C76.2521 37.1873 77.6142 34.8753 78.9616 32.5542C79.1252 32.2705 79.3054 32.1526 79.6436 32.1563C81.5278 32.1747 83.4119 32.1655 85.2961 32.1655C85.388 32.1655 85.4799 32.1691 85.5719 32.1655C85.7318 32.1599 85.7888 32.2465 85.7851 32.3939C85.7833 32.4713 85.7851 32.5468 85.7851 32.6242C85.7998 39.7627 85.8145 46.903 85.831 54.0415C85.8366 56.1453 85.8494 58.2472 85.8605 60.351C85.8605 60.4283 85.8549 60.5039 85.8605 60.5813C85.8715 60.7618 85.7832 60.8281 85.6105 60.8189C85.4891 60.8115 85.366 60.8189 85.2428 60.8189C83.2061 60.8189 81.1675 60.8189 79.1307 60.8189C79.0388 60.8189 78.9469 60.8207 78.855 60.8189C78.5333 60.8097 78.5278 60.8097 78.5223 60.4855C78.5076 59.3654 78.491 58.2435 78.4855 57.1235C78.4671 53.4391 78.4561 49.7547 78.4414 46.0685C78.4414 45.9782 78.4414 45.8879 78.4414 45.7608C78.2484 45.8308 78.2153 45.9948 78.1455 46.1127C75.9414 49.8523 73.7393 53.592 71.5371 57.3335C71.2993 57.7375 70.9464 57.9402 70.4783 57.9414C69.6823 57.9414 68.8845 57.9248 68.0886 57.9488C67.7595 57.958 67.5665 57.8603 67.3937 57.5711C65.3313 54.141 63.2541 50.7182 61.1806 47.2935C60.9618 46.9306 60.7394 46.5714 60.4434 46.2232C60.4361 46.3816 60.4232 46.5401 60.4232 46.6985C60.4232 51.2119 60.4232 55.7271 60.4214 60.2405C60.4214 60.8742 60.4949 60.8171 59.8681 60.8171C52.4693 60.8171 45.0704 60.8281 37.6698 60.8152C28.9971 60.7986 21.3648 54.9036 19.1314 46.5327C18.4623 44.0236 18.2472 41.4704 18.6442 38.9116C19.7288 31.9333 23.4879 26.9152 29.8427 23.859C30.4107 23.5864 30.4254 23.5974 30.3868 22.9582C30.1882 19.6736 30.6515 16.4903 31.9437 13.4599C34.4014 7.69197 38.5815 3.71652 44.4601 1.55379C47.2487 0.527693 50.1458 0.166624 53.0942 0.407951C58.7872 0.874025 63.5537 3.26519 67.3643 7.5317C69.3312 9.73496 70.7411 12.2661 71.651 15.0773C71.822 15.606 71.7356 15.5231 72.2632 15.5765C75.3348 15.8879 78.0738 17.0208 80.4414 19.0067C82.9506 21.1105 84.5994 23.7688 85.4138 26.9447C85.4487 27.0792 85.4763 27.2137 85.5038 27.3481C85.5094 27.3739 85.491 27.4052 85.4836 27.4347C85.3549 27.5066 85.2134 27.4771 85.0792 27.4771C83.1178 27.4789 81.1583 27.4716 79.1969 27.4845C78.8991 27.4863 78.7484 27.4089 78.6124 27.1197C77.1988 24.1077 74.822 22.3908 71.5279 22.0518C69.3569 21.8289 67.3754 22.4516 65.6254 23.7743C65.4912 23.8756 65.3588 23.9806 65.2246 24.0819C65.2154 24.0893 65.1952 24.0838 65.1235 24.0893C65.6824 20.6868 65.1805 17.4648 63.414 14.4915C61.653 11.5256 59.1254 9.47153 55.8571 8.38095C50.8608 6.71193 45.28 7.99041 41.4988 11.9622C39.1808 14.3957 37.9051 17.3119 37.6918 20.6739C37.4786 24.0304 38.4143 27.0644 40.4014 29.8572V29.8646Z" fill="white"/>
<path d="M9.38823 77.6474C9.56286 77.4668 9.66212 77.2421 9.78528 77.0358C11.2393 74.582 12.6952 72.1282 14.1272 69.6615C14.3349 69.3041 14.5591 69.188 14.9599 69.1973C16.0463 69.2267 17.1345 69.2065 18.2227 69.2083C18.6179 69.2083 18.6216 69.2138 18.6216 69.6154C18.6271 72.5021 18.6271 75.3889 18.6381 78.2737C18.6455 80.453 18.6675 82.6324 18.6823 84.8135C18.6823 84.8743 18.6786 84.9369 18.6823 84.9977C18.6988 85.2059 18.6216 85.3017 18.3955 85.2998C17.1859 85.2925 15.9746 85.2888 14.765 85.3017C14.4783 85.3054 14.4856 85.1396 14.4856 84.9461C14.4838 83.8721 14.4783 82.7963 14.4746 81.7223C14.4691 80.2025 14.4635 78.6827 14.4562 77.1629C14.4562 77.1039 14.4488 77.0468 14.4415 76.9473C14.2577 77.0155 14.2154 77.1703 14.1455 77.2863C12.9911 79.2225 11.8404 81.1623 10.6897 83.1003C10.3257 83.7137 10.3276 83.7156 9.63087 83.7156C9.30919 83.7156 8.98566 83.699 8.66581 83.7211C8.40111 83.7377 8.25405 83.6382 8.11802 83.4116C7.03164 81.6136 5.93055 79.823 4.83313 78.0306C4.6585 77.745 4.48019 77.4595 4.28718 77.1463C4.15299 77.2826 4.2063 77.4245 4.2063 77.5442C4.20262 79.9243 4.20262 82.3044 4.20262 84.6827C4.20262 84.7748 4.20446 84.8669 4.20262 84.959C4.19343 85.2851 4.19343 85.2925 3.86807 85.2925C2.81109 85.2962 1.75412 85.2925 0.697144 85.2925C0.544572 85.2925 0.390161 85.2869 0.23759 85.2925C0.0850176 85.298 0.00965111 85.2317 0.00965111 85.0788C0.00965111 84.9719 0.0078125 84.8632 0.0078125 84.7564C0.0078125 79.7512 0.0078125 74.7459 0.0078125 69.7407C0.0078125 69.6946 0.0078125 69.6486 0.0078125 69.6025C0.0151654 69.2065 0.015165 69.2028 0.419573 69.2028C1.55375 69.2009 2.68609 69.2138 3.82027 69.1936C4.12358 69.188 4.28534 69.2912 4.43791 69.5454C5.97282 72.095 7.5206 74.6354 9.06654 77.1776C9.16029 77.3324 9.23198 77.5074 9.38639 77.64L9.38823 77.6474Z" fill="white"/>
<path d="M71.9395 76.1682C71.9358 80.3407 70.0406 83.2643 66.8734 84.5428C63.9984 85.7033 61.1143 85.6075 58.3551 84.143C55.4838 82.6177 53.8147 79.5541 54.1474 76.0318C54.4783 72.5261 57.129 69.3981 61.1951 68.7202C63.2503 68.3775 65.2686 68.5157 67.1638 69.4368C70.2796 70.9511 71.8384 73.4951 71.9395 76.1682ZM67.3513 76.7374C67.3642 76.4003 67.3017 75.8808 67.1381 75.3815C66.5738 73.6628 65.4175 72.5962 63.6087 72.3788C61.8348 72.1651 60.3551 72.7527 59.3992 74.3186C58.5077 75.7776 58.4544 77.3582 59.0867 78.9222C60.3551 82.0558 64.3458 82.2013 66.1455 80.2173C66.9929 79.2851 67.3476 78.1706 67.3513 76.7374Z" fill="white"/>
<path d="M38.6755 76.8975C38.7491 80.4529 36.4164 83.9217 32.4293 84.9478C29.8742 85.6055 27.3723 85.4231 25.0396 84.1207C22.6555 82.7888 21.2566 80.7421 20.9037 78.0065C20.3393 73.6165 23.0709 69.8069 27.3815 68.8324C29.7528 68.2963 32.091 68.451 34.2583 69.6208C37.1296 71.1719 38.5763 73.6386 38.6737 76.8975H38.6755ZM34.0745 76.9067C34.0782 76.5069 34.0414 76.1109 33.9568 75.7203C33.5469 73.8063 31.9808 72.4486 30.0525 72.3436C28.001 72.2312 26.3319 73.3347 25.6922 75.2321C25.3393 76.2803 25.3172 77.347 25.626 78.4007C26.0893 79.9758 27.0984 81.0442 28.7289 81.3998C30.3135 81.7443 31.7436 81.4053 32.887 80.195C33.7491 79.2794 34.0818 78.1502 34.0763 76.9085L34.0745 76.9067Z" fill="white"/>
<path d="M99.5843 68.5838C101.645 68.5672 103.57 69.0535 105.22 70.3283C107.639 72.1963 108.698 74.6888 108.461 77.7376C108.2 81.0886 105.748 84.3437 101.537 85.1156C99.4244 85.5025 97.3417 85.3477 95.3932 84.3898C92.362 82.8976 90.7572 80.4438 90.669 77.0376C90.5587 72.8337 93.5476 69.4441 97.7093 68.7256C98.0862 68.6612 98.4667 68.6206 98.849 68.5875C99.0917 68.5672 99.338 68.5838 99.5825 68.5838H99.5843ZM95.259 76.8921C95.2149 79.064 96.5182 81.2673 99.1744 81.4975C100.669 81.6265 101.97 81.1715 102.915 79.9556C103.963 78.6071 104.149 77.0615 103.707 75.457C103.27 73.869 102.231 72.8061 100.601 72.4542C98.9593 72.1005 97.4906 72.4745 96.3454 73.7732C95.5605 74.6667 95.248 75.7425 95.259 76.8921Z" fill="white"/>
<path d="M74.0938 76.9105C74.1121 72.714 76.9724 69.3723 81.0992 68.7165C82.9631 68.4199 84.7922 68.523 86.5661 69.2046C87.7296 69.6505 88.7315 70.3413 89.5605 71.2771C89.8326 71.5848 89.8344 71.5884 89.5458 71.8519C88.7535 72.5759 87.9539 73.2906 87.169 74.0201C86.9925 74.1841 86.8841 74.1749 86.726 73.9999C86.1083 73.3183 85.3896 72.7711 84.4907 72.5298C82.9907 72.1282 81.5661 72.2958 80.3088 73.2611C79.4301 73.9354 78.954 74.8786 78.772 75.9563C78.5698 77.1684 78.6985 78.3438 79.3216 79.4306C79.9926 80.6023 81.0202 81.2489 82.3382 81.4534C84.0275 81.7168 85.4447 81.1899 86.6212 79.9686C86.6635 79.9243 86.7131 79.8838 86.748 79.8359C86.8785 79.6517 86.9944 79.6701 87.1543 79.8193C87.748 80.3738 88.3546 80.9136 88.9557 81.4607C89.1708 81.656 89.3767 81.8642 89.6046 82.0447C89.794 82.1958 89.7976 82.3137 89.6359 82.4924C89.1929 82.9861 88.7057 83.4264 88.1561 83.7966C86.8969 84.644 85.5036 85.0972 83.9944 85.2391C82.4135 85.3883 80.8657 85.2593 79.3915 84.668C76.2298 83.4006 74.4669 81.0536 74.1305 77.6456C74.114 77.4779 74.1048 77.3084 74.0956 77.1408C74.0919 77.0634 74.0956 76.9879 74.0956 76.9105H74.0938Z" fill="white"/>
<path d="M40.8621 77.2588C40.8621 74.7423 40.8621 72.2259 40.8621 69.7095C40.8621 69.1642 40.8199 69.2029 41.3474 69.2029C42.5423 69.2029 43.7353 69.201 44.9301 69.2029C45.3823 69.2029 45.408 69.1126 45.408 69.6726C45.408 73.416 45.408 77.1611 45.408 80.9045C45.408 81.4105 45.6568 81.6634 46.1544 81.6634C48.2518 81.6634 50.3492 81.6634 52.4466 81.6634C52.5385 81.6634 52.6304 81.6616 52.7223 81.6634C53.0569 81.6745 53.0679 81.6745 53.0679 81.9932C53.0734 82.9898 53.0642 83.9883 53.0734 84.9849C53.0752 85.2262 52.9925 85.3055 52.7554 85.2999C52.1745 85.287 51.5918 85.2963 51.0109 85.2963C47.7959 85.2963 44.5808 85.2963 41.3658 85.2963C40.8291 85.2963 40.864 85.346 40.864 84.8062C40.864 82.2898 40.864 79.7734 40.864 77.2569L40.8621 77.2588Z" fill="white"/>
</svg>
