<svg width="82" height="82" viewBox="0 0 82 82" fill="none" xmlns="http://www.w3.org/2000/svg">
<path fill-rule="evenodd" clip-rule="evenodd" d="M41 82C63.6437 82 82 63.6437 82 41C82 18.3563 63.6437 0 41 0C18.3563 0 0 18.3563 0 41C0 63.6437 18.3563 82 41 82ZM41.5 74C60.0015 74 75 59.2254 75 41C75 22.7746 60.0015 8 41.5 8C22.9985 8 8 22.7746 8 41C8 59.2254 22.9985 74 41.5 74Z" fill="white"/>
<path d="M14 29.5V52H18V37.5L24 52H27L33 37.5V52H37V29.5H32L25.5 44.5L19 29.5H14Z" fill="white"/>
<path d="M41 49V35H50.5L49.5 38.5H45V48C45.0765 48.8666 45.7059 49.0426 49.5 48L48.5 52C43.4258 52.8406 41 52 41 49Z" fill="white"/>
<path d="M41 32.5V28.5H45V32.5H41Z" fill="white"/>
<path fill-rule="evenodd" clip-rule="evenodd" d="M64.499 50.3753C63.0961 51.3971 61.3684 52 59.5 52C54.8056 52 51 48.1944 51 43.5C51 38.8056 54.8056 35 59.5 35C61.3689 35 63.0969 35.6031 64.5 36.6254V35.5H68.5V52.5C65.9624 59.3181 61.7655 59.6694 52 56.5L53.5 53C60.8229 54.8635 64.4005 55.3475 64.499 50.3753ZM64 43.5C64 45.9853 61.9853 48 59.5 48C57.0147 48 55 45.9853 55 43.5C55 41.0147 57.0147 39 59.5 39C61.9853 39 64 41.0147 64 43.5Z" fill="white"/>
</svg>
