<svg width="125" height="43" viewBox="0 0 125 43" fill="none" xmlns="http://www.w3.org/2000/svg">
<path d="M35.155 32.7073C34.6354 33.0269 34.0997 33.3736 33.5533 33.6932C28.8608 36.4341 24.1682 39.1697 19.481 41.9052C19.3953 41.9539 19.315 42.0027 19.2346 42.0623C18.6936 42.474 18.1847 42.3819 17.6276 42.046C15.9938 41.0602 14.3385 40.1122 12.694 39.148C9.1478 37.0733 5.60697 34.9987 2.05542 32.9294C1.94293 32.8644 1.83044 32.8048 1.77151 32.6531C1.73402 32.4094 1.96971 32.3498 2.11435 32.2631C3.72674 31.3097 5.34984 30.3618 6.96759 29.4247C8.05502 28.7963 8.06037 28.8017 9.14779 29.4409C10.7923 30.4051 12.4369 31.3747 14.0814 32.3444C14.2475 32.4419 14.4135 32.5556 14.5903 32.6315C14.8849 32.7561 15.1045 32.664 15.1581 32.3281C15.1902 32.1385 15.1903 31.9381 15.1903 31.7431C15.1903 29.0942 15.1688 26.4508 15.2063 23.8019C15.217 23.0544 14.9706 22.594 14.3278 22.231C12.078 20.9526 9.85489 19.6255 7.62112 18.32C7.50862 18.255 7.39077 18.2009 7.27292 18.1467C6.61939 17.8433 6.46405 17.9246 6.45333 18.645C6.43726 20.606 6.38905 22.5669 6.4694 24.5278C6.51762 25.6003 6.23371 26.2341 5.22664 26.7379C3.50175 27.6046 1.87329 28.6663 0.218043 29.6359C-0.0926503 29.3976 0.0198447 29.1105 0.0198447 28.8667C0.0144879 22.854 0.0198453 16.8412 0.00377496 10.8285C0.00377496 10.2434 0.159121 9.89676 0.689442 9.588C5.33913 6.90663 9.96738 4.18735 14.6064 1.48432C15.2974 1.08347 15.9348 0.585115 16.7009 0.335938C16.9098 0.55803 16.8241 0.796374 16.8241 1.01305C16.8294 3.00647 16.8133 4.99988 16.8401 6.9933C16.8455 7.54583 16.7062 7.86542 16.192 8.15252C14.3278 9.18714 12.4958 10.2868 10.6638 11.3756C9.88167 11.836 9.87097 12.0581 10.6102 12.486C13.01 13.8944 15.4206 15.2812 17.8151 16.695C18.2543 16.955 18.6186 16.9712 19.0686 16.7058C21.463 15.292 23.8736 13.9053 26.2681 12.4969C26.9859 12.0744 26.9912 11.836 26.2895 11.4135C24.3985 10.2868 22.5023 9.17631 20.6006 8.07668C20.2953 7.90334 20.0703 7.74625 20.0756 7.35082C20.0863 5.03238 20.0756 2.71937 20.0756 0.352188C20.5738 0.363021 20.9059 0.639284 21.2488 0.839709C26.0002 3.60233 30.741 6.38119 35.4871 9.15464C36.4799 9.73244 36.9763 10.61 36.9763 11.7873C36.9763 17.41 36.9763 23.0273 36.9763 28.65C36.9763 28.9642 37.0834 29.3001 36.8424 29.6359C35.8728 29.2838 35.0532 28.6446 34.1532 28.1625C33.098 27.5992 32.0962 26.9383 31.0517 26.3641C30.591 26.1149 30.4249 25.8008 30.4303 25.2753C30.4571 23.1844 30.441 21.0935 30.441 19.0026C30.441 18.775 30.441 18.5475 30.4303 18.3146C30.4142 18.0004 30.2107 17.9246 29.9642 18.0059C29.7232 18.0871 29.4875 18.2009 29.2625 18.3309C27.0555 19.6201 24.8699 20.9364 22.6415 22.1877C21.9505 22.5777 21.7041 23.0544 21.7094 23.829C21.7416 26.44 21.7202 29.0563 21.7202 31.6727C21.7202 31.7052 21.7202 31.7377 21.7202 31.7702C21.7416 32.7994 21.8916 32.8806 22.7701 32.366C24.5593 31.326 26.3591 30.3022 28.1269 29.2242C28.6733 28.8884 29.1072 28.9263 29.6321 29.2459C31.3517 30.2805 33.0926 31.2718 34.8228 32.2794C34.9621 32.3606 35.1068 32.4419 35.1603 32.6965L35.155 32.7073Z" fill="#FBFBFB"/>
<path d="M63.9942 17.9878C63.9942 19.7336 64.005 21.4742 63.9942 23.22C63.9833 24.6029 63.7125 25.9228 62.9486 27.1217C62.1794 28.3311 61.0905 29.1725 59.7308 29.63C56.9192 30.5765 54.0806 30.5712 51.2744 29.6142C48.6579 28.7203 47.0815 26.4381 47.0273 23.4776C46.9786 20.5592 47.0111 17.6408 47.0056 14.7224C47.0056 13.8337 47.0002 12.945 47.0056 12.0563C47.0111 11.3517 47.0219 11.3465 47.7803 11.3412C48.9234 11.3359 50.0664 11.3359 51.2149 11.3412C52.0437 11.3412 52.0491 11.3517 52.0545 12.2036C52.0545 14.4542 52.0545 16.71 52.0545 18.9606C52.0545 20.2595 52.06 21.5636 52.0545 22.8624C52.0545 23.4093 52.1304 23.9351 52.2821 24.4557C52.4121 24.8921 52.645 25.276 53.008 25.56C54.2919 26.5591 55.7491 26.5696 57.1738 26.0437C58.474 25.56 58.9669 24.4452 58.9724 23.1358C58.9832 19.5811 58.9724 16.0317 58.9724 12.477C58.9724 12.2562 58.9832 12.03 58.9724 11.8092C58.9561 11.4989 59.0699 11.3359 59.4112 11.3359C60.7817 11.3359 62.1577 11.3412 63.5283 11.3359C64.0321 11.3359 63.9996 11.662 63.9996 11.9827C63.9996 13.3131 63.9996 14.6487 63.9996 15.9791C63.9996 16.6469 63.9996 17.3095 63.9996 17.9773H63.9942V17.9878Z" fill="#FBFBFB"/>
<path d="M108.218 19.6507C108.278 19.4498 108.332 19.2489 108.392 19.0479C108.414 19.0367 108.457 19.0256 108.457 19.0144C108.457 18.9698 108.446 18.9195 108.435 18.8749C108.723 17.8758 109.016 16.8822 109.293 15.8831C109.413 15.4478 109.673 15.3305 110.097 15.3361C111.21 15.364 112.323 15.3361 113.436 15.3473C114.011 15.3529 114.093 15.4478 113.919 16.0003C113.468 17.4348 112.98 18.8637 112.507 20.2926C111.378 23.6918 110.26 27.0911 109.119 30.4847C108.886 31.1824 108.598 31.8578 108.289 32.522C107.469 34.2858 106.09 35.2291 104.184 35.3017C103.201 35.3407 102.218 35.3017 101.241 35.3351C100.769 35.3463 100.508 35.2458 100.541 34.6709C100.584 33.8672 100.568 33.0578 100.541 32.2485C100.525 31.7741 100.693 31.5675 101.16 31.5843C101.648 31.5954 102.148 31.601 102.631 31.534C103.717 31.3833 104.097 30.8643 103.994 29.7368C103.918 28.8939 103.603 28.1125 103.31 27.3255C101.963 23.7253 100.611 20.1252 99.2649 16.525C99.1943 16.3352 99.1346 16.1455 99.0803 15.9501C98.9282 15.4198 98.9554 15.3529 99.4875 15.3473C100.731 15.3305 101.974 15.3585 103.218 15.3361C103.668 15.3305 103.842 15.5426 103.967 15.9501C104.526 17.8088 105.118 19.6563 105.672 21.515C105.9 22.2853 106.215 23.0332 106.301 23.8425C106.258 24.2891 106.377 24.6798 106.605 25.1263C106.996 24.7803 107.121 24.4565 107.002 24.0379C107.018 23.9207 107.04 23.8035 107.056 23.6918C107.376 23.223 107.469 22.6871 107.469 22.1234C107.507 21.9894 107.539 21.8499 107.577 21.7159C108.066 21.1131 108.131 20.3763 108.223 19.6452L108.218 19.6507Z" fill="#FBFBFB"/>
<path d="M70.5811 17.4873C71.179 17.0275 71.5668 16.4649 72.1594 16.1024C74.9443 14.4201 79.7061 15.3992 79.9216 20.1164C80.067 23.308 79.9593 26.5051 79.9916 29.7022C79.997 30.2594 79.76 30.3459 79.2859 30.3351C78.2786 30.308 77.2713 30.3351 76.264 30.3243C75.4075 30.3243 75.3968 30.3135 75.3968 29.475C75.3968 27.1272 75.3968 24.7794 75.3968 22.4317C75.3968 21.9773 75.3752 21.5229 75.2998 21.0684C75.1382 20.0893 74.5726 19.4943 73.6299 19.2562C72.7573 19.0399 71.7984 19.4348 71.2328 20.2029C70.6996 20.9224 70.5918 21.7555 70.5918 22.6102C70.5918 24.8281 70.5918 27.0461 70.5918 29.264C70.5918 30.4595 70.6565 30.3189 69.5522 30.3243C68.6742 30.3243 67.7961 30.3243 66.9181 30.3243C66.0078 30.3243 66.0024 30.3189 66.0024 29.4371C66.0024 26.992 66.0024 24.5468 66.0024 22.0963C66.0024 20.2354 65.997 18.3799 66.0024 16.519C66.0024 15.767 66.0186 15.7562 66.7565 15.7508C67.7315 15.74 68.7065 15.74 69.6815 15.7508C70.4248 15.7616 70.4248 15.7779 70.4572 16.5244C70.4679 16.8111 70.3925 17.1086 70.5864 17.4819L70.5811 17.4873Z" fill="#FBFBFB"/>
<path d="M90.9491 11.3413C92.3285 11.3413 93.6071 11.3519 94.8857 11.3359C95.3313 11.3359 95.4056 11.5592 95.4003 11.9366C95.3844 12.9944 95.3844 14.0522 95.4003 15.11C95.4056 15.8011 95.4215 15.8117 96.09 15.8329C96.5356 15.8489 96.9866 15.8489 97.4322 15.8329C97.846 15.8223 98.0052 16.0084 97.9999 16.4123C97.9893 17.2788 97.9893 18.1452 97.9999 19.0064C98.0052 19.421 97.8195 19.5858 97.4216 19.5751C96.9759 19.5645 96.525 19.5858 96.0793 19.5751C95.6072 19.5592 95.3844 19.7187 95.3897 20.2343C95.4109 21.93 95.3791 23.6309 95.4056 25.3319C95.4215 26.3472 95.8035 26.7193 96.7956 26.7831C97.5984 26.8363 97.9999 27.2527 97.9999 28.0323C97.9999 28.5745 97.9999 29.122 97.9999 29.6642C97.9999 29.9725 97.8726 30.1373 97.5595 30.1798C96.2173 30.3605 94.875 30.4403 93.554 30.1054C91.8988 29.6854 91.0393 28.6117 90.9756 26.8522C90.9279 25.5711 90.9544 24.2901 90.9544 23.009C90.9544 22.0788 90.9385 21.1486 90.9597 20.2236C90.9703 19.7878 90.8324 19.5805 90.3708 19.5751C89.9676 19.5751 89.4689 19.7612 89.1771 19.4423C88.8588 19.1021 89.071 18.5811 89.0498 18.1452C89.0233 17.5712 89.0551 16.9918 89.0392 16.4177C89.0286 16.0137 89.1771 15.8117 89.5963 15.8489C89.6281 15.8489 89.6599 15.8489 89.6917 15.8489C90.5335 15.8064 90.9544 15.374 90.9544 14.5519C90.9544 13.5313 90.9544 12.5054 90.9544 11.3519L90.9491 11.3413Z" fill="#FBFBFB"/>
<path d="M83.1182 30.3359C82.9499 29.9409 83.0107 29.6016 83.0107 29.2678C83.0107 24.9728 83.0107 20.6833 83.0107 16.3883C83.0107 16.2548 83.02 16.1213 83.0107 15.9878C82.978 15.5371 83.0995 15.3201 83.5295 15.3368C84.5159 15.3702 85.5022 15.3591 86.4885 15.3368C86.8391 15.3368 87.0214 15.4759 86.998 15.9154C86.9887 16.1157 86.998 16.316 86.998 16.5163C86.998 20.739 86.998 24.9672 86.998 29.1899C86.998 29.3902 86.9887 29.5904 86.998 29.7907C87.0167 30.1746 86.8718 30.3304 86.5492 30.3248C85.3993 30.3137 84.2447 30.3248 83.1229 30.3248L83.1182 30.3359Z" fill="#FBFBFB"/>
<path d="M124.994 19.4766C125.029 22.0817 122.754 23.3814 120.974 23.3347C118.698 23.2706 116.959 21.5222 117.001 19.2609C117.036 17.0463 118.905 15.257 121.139 15.3386C122.99 15.4027 125.129 16.7257 124.994 19.4766ZM121.098 22.3498C122.789 22.3206 124.098 20.9685 124.074 19.2842C124.051 17.6116 122.671 16.2886 120.991 16.3236C119.323 16.3585 117.967 17.7398 118.003 19.395C118.032 21.0618 119.418 22.3848 121.098 22.3498Z" fill="#FBFBFB"/>
<path d="M83.0048 10.3359C84.2427 10.3359 85.3962 10.3446 86.5544 10.3359C86.8826 10.3359 87.0046 10.4609 86.9999 10.7497C86.9905 11.4997 86.9952 12.254 86.9999 13.004C86.9999 13.2325 86.892 13.3359 86.6482 13.3359C85.5463 13.3359 84.449 13.3359 83.3471 13.3359C83.0986 13.3359 82.9955 13.2368 83.0002 13.0127C83.0048 12.1377 83.0002 11.2584 83.0002 10.3359H83.0048Z" fill="#FBFBFB"/>
<path d="M121.996 21.2057C121.664 21.4571 121.439 21.3503 121.298 20.835C121.241 20.6276 121.18 20.4266 121.115 20.2255C121.035 19.993 120.894 19.9679 120.757 19.9867C120.57 20.0118 120.574 20.2695 120.562 20.4894C120.555 20.6402 120.558 20.791 120.555 20.9418C120.551 21.2434 120.425 21.3063 120.276 21.3126C120.124 21.3188 120.002 21.2434 120.002 20.9481C120.002 19.8924 119.998 18.8305 120.002 17.7748C120.002 17.5109 120.101 17.3538 120.265 17.3538C120.608 17.3538 120.959 17.2973 121.294 17.3852C121.79 17.5109 122.16 18.3404 121.916 18.931C121.558 19.7982 121.775 20.4643 122 21.1995L121.996 21.2057ZM120.555 18.7237C120.536 19.0756 120.585 19.3144 120.844 19.3081C121.172 19.2955 121.356 19.0441 121.333 18.5917C121.306 18.089 121.081 18.0073 120.837 18.0011C120.517 17.9885 120.574 18.4095 120.555 18.73V18.7237Z" fill="#FBFBFB"/>
</svg>
