<svg width="94" height="95" viewBox="0 0 94 95" fill="none" xmlns="http://www.w3.org/2000/svg">
<g clip-path="url(#clip0_383_27575)">
<path d="M41.9145 0.335938H52.2357C52.8863 0.404756 53.5339 0.503292 54.1908 0.454806C54.5317 0.492343 54.8727 0.497036 55.2137 0.470447C55.4968 0.504856 55.7799 0.533009 56.0661 0.501728C56.2475 0.570546 56.4336 0.568982 56.6213 0.547086C56.7199 0.586187 56.82 0.584623 56.9216 0.559598C57.1515 0.597135 57.3815 0.603392 57.6129 0.576803C58.0071 0.636237 58.4012 0.708184 58.8032 0.681595C58.9862 0.730081 59.1707 0.726952 59.3569 0.70662C59.5086 0.742593 59.6618 0.770746 59.8183 0.736337C59.9199 0.797335 60.0278 0.803591 60.1405 0.78013C60.1858 0.81454 60.2327 0.816104 60.2828 0.791079C60.458 0.83018 60.6347 0.838001 60.813 0.81454C61.0241 0.877102 61.2337 0.950613 61.4605 0.906819C61.6154 0.970946 61.7749 0.961561 61.936 0.944357C62.0361 0.98033 62.1362 1.00379 62.2425 0.970946C62.4646 1.07261 62.6977 1.05853 62.9323 1.04758C63.1153 1.10233 63.2952 1.17897 63.4938 1.13986C63.6221 1.20243 63.755 1.19773 63.8911 1.17897C63.9896 1.2212 64.0897 1.24778 64.1976 1.21963C64.3634 1.30253 64.5402 1.29783 64.7185 1.28532C64.8514 1.34632 64.9812 1.4167 65.1361 1.38073C65.2127 1.42609 65.294 1.42452 65.3769 1.40888C65.4504 1.44329 65.5255 1.45737 65.6037 1.43234C65.7695 1.52775 65.9509 1.52775 66.1339 1.5168C66.2653 1.56842 66.392 1.64193 66.5421 1.61847C66.6188 1.6607 66.7001 1.66382 66.783 1.64818C66.8299 1.68259 66.8784 1.69041 66.9332 1.66539C66.9676 1.68416 66.9989 1.71231 67.0348 1.72013C67.6323 1.84369 68.2266 1.97664 68.8225 2.11115C70.2177 2.42396 71.5862 2.8181 72.9376 3.28106C74.4625 3.80189 75.9375 4.42908 77.3701 5.16888C80.2511 6.6563 82.7943 8.58635 84.9996 10.9622C86.6982 12.7921 88.1121 14.8176 89.2648 17.0338C90.3049 19.0327 91.1073 21.1207 91.7298 23.2823C91.9534 24.0565 92.1474 24.8369 92.3319 25.6205C92.54 26.5058 92.7245 27.3957 92.8731 28.2919C93.017 29.1506 93.1343 30.014 93.2563 30.8773C93.3845 31.7798 93.4815 32.687 93.5613 33.591C93.6895 35.0424 93.8068 36.497 93.8569 37.9563C93.8819 38.7101 93.8882 39.4672 93.932 40.221C93.9351 40.6136 93.8772 41.0078 93.9898 41.3941V52.4207C93.9898 52.6397 94.0133 52.8618 93.9836 53.076C93.9085 53.6391 93.9226 54.2022 93.9288 54.7668C93.9241 54.8184 93.9148 54.87 93.9132 54.9216C93.8678 57.2662 93.7255 59.6029 93.4799 61.9364C93.3486 63.1783 93.1984 64.4155 93.0076 65.6511C92.8184 66.871 92.5806 68.0801 92.3069 69.2844C91.9863 70.6905 91.5937 72.0731 91.1245 73.437C90.6083 74.9353 89.9843 76.3837 89.257 77.7929C87.8963 80.4252 86.1523 82.7713 84.0362 84.839C82.3829 86.4546 80.5561 87.8404 78.5463 88.9868C77.123 89.7986 75.6465 90.4946 74.1153 91.0796C72.4637 91.7114 70.7714 92.2041 69.0525 92.6061C68.4581 92.7453 67.8606 92.8689 67.2616 92.9877C66.6626 93.1081 66.062 93.2114 65.4598 93.3068C64.5229 93.4554 63.5783 93.5617 62.6383 93.6868C61.6169 93.8214 60.5925 93.9105 59.5696 93.984C57.8303 94.1107 56.088 94.2327 54.3425 94.2546C54.2643 94.2546 54.1876 94.2702 54.111 94.2781C53.6668 94.2624 53.2211 94.2468 52.7815 94.3391H41.0527C40.6413 94.2218 40.2206 94.2671 39.8014 94.2734C39.7623 94.2671 39.7248 94.2562 39.6857 94.2546C37.6946 94.1811 35.7067 94.0857 33.7204 93.9058C32.333 93.7807 30.9504 93.6368 29.5725 93.4382C28.2477 93.2474 26.9308 93.019 25.6232 92.7281C24.4189 92.4591 23.2271 92.1509 22.0478 91.7834C20.4227 91.2782 18.8446 90.662 17.3149 89.9143C15.4521 89.0041 13.7066 87.917 12.0894 86.6189C9.12082 84.2337 6.74188 81.3668 4.95416 78.0009C3.79832 75.8253 2.93027 73.5433 2.26867 71.1753C2.04188 70.362 1.85107 69.5393 1.66182 68.7166C1.44754 67.7782 1.26767 66.8335 1.11909 65.8857C0.967375 64.9222 0.85007 63.9525 0.728074 62.9859C0.598257 61.9521 0.524746 60.9135 0.424646 59.8781C0.337059 58.9851 0.315162 58.0842 0.271368 57.1864C0.232267 56.3809 0.177525 55.5754 0.141551 54.7699C0.175961 54.4368 0.141551 54.1021 0.135295 53.7689C0.135295 53.6798 0.135295 53.5781 -0.00390625 53.5969V41.4754C0.108706 41.4504 0.125911 41.3659 0.127475 41.2689C0.132167 40.8951 0.174397 40.5198 0.138423 40.146C0.183781 39.3014 0.229139 38.4552 0.269804 37.6122C0.362084 35.6477 0.510669 33.6895 0.743714 31.736C0.875095 30.6255 1.02994 29.5197 1.2145 28.4155C1.40688 27.2612 1.65087 26.1195 1.92302 24.9824C2.29839 23.4152 2.76917 21.8809 3.34005 20.3731C4.18934 18.1302 5.27323 16.0125 6.63866 14.0402C9.13333 10.4366 12.3146 7.5963 16.1481 5.48482C18.1095 4.40406 20.1725 3.56259 22.3137 2.91194C23.3319 2.60226 24.361 2.33011 25.3996 2.0955C26.5789 1.82961 27.7628 1.59813 28.9562 1.40575C29.3379 1.34319 29.732 1.33537 30.1027 1.1993C30.1809 1.22902 30.256 1.21494 30.3279 1.18053C30.439 1.19617 30.5484 1.20399 30.6501 1.1383C30.8472 1.17897 31.027 1.10076 31.21 1.05071C31.3133 1.07261 31.4149 1.06635 31.5135 1.03194C31.5635 1.05384 31.6104 1.05541 31.6558 1.01787C31.7434 1.03507 31.8278 1.02882 31.9014 0.970946C32.0061 1.00223 32.1062 0.983458 32.2063 0.945921C32.3674 0.963126 32.5301 0.975638 32.6834 0.905255C32.9086 0.953741 33.1182 0.875538 33.3293 0.817668C33.5076 0.841129 33.6859 0.834873 33.8627 0.794207C33.9112 0.819232 33.9597 0.817668 34.0034 0.783259C34.1426 0.808284 34.2772 0.794207 34.4054 0.731645C34.5352 0.767618 34.6619 0.747285 34.787 0.711312C34.9998 0.728517 35.2125 0.741029 35.4205 0.673774C35.7724 0.712876 36.1165 0.644057 36.4606 0.583059C36.7421 0.609648 37.0236 0.600264 37.3021 0.561162C37.4021 0.587751 37.5022 0.589315 37.5992 0.547086C37.8151 0.570546 38.0293 0.565854 38.2374 0.495472C38.4704 0.528317 38.7019 0.512676 38.9318 0.476703C39.3259 0.500164 39.7201 0.503292 40.1111 0.450114C40.7195 0.507984 41.3154 0.395372 41.9145 0.335938ZM18.6913 47.4423C18.6913 53.0588 18.6913 58.6754 18.6913 64.2919C18.6913 64.4608 18.685 64.6313 18.6991 64.8002C18.732 65.1725 18.8852 65.3336 19.2559 65.393C19.3451 65.4071 19.4374 65.4071 19.5281 65.4071C21.8992 65.4071 24.2719 65.4071 26.643 65.4071C26.7728 65.4071 26.9011 65.4024 27.0309 65.3695C27.3046 65.2992 27.4594 65.1302 27.4798 64.8503C27.4938 64.6688 27.4923 64.4859 27.4923 64.3029C27.4923 55.5457 27.4923 46.7885 27.4923 38.0298C27.4923 37.8468 27.486 37.6638 27.5079 37.4839C27.5439 37.1836 27.7144 37.0178 28.0147 36.9819C28.1695 36.9631 28.3275 36.9678 28.4823 36.9678C32.5614 36.9678 36.6389 36.9662 40.718 36.9678C41.9551 36.9678 43.1923 36.9631 44.4232 37.1351C45.2897 37.2556 46.1437 37.4088 46.9648 37.7201C48.2943 38.2253 49.1873 39.1465 49.6738 40.4885C50.0742 41.5896 50.2462 42.7313 50.3307 43.8872C50.4151 45.0305 50.4339 46.177 50.4323 47.325C50.4276 52.9931 50.4308 58.6629 50.4308 64.331C50.4308 64.4874 50.4261 64.6438 50.4355 64.8002C50.4542 65.1271 50.595 65.3007 50.9156 65.3711C51.0408 65.3993 51.1737 65.404 51.3035 65.404C53.6496 65.4055 55.9941 65.4055 58.3402 65.404C58.47 65.404 58.5999 65.3946 58.7281 65.3742C59.0268 65.3289 59.1801 65.1334 59.2255 64.8487C59.2458 64.722 59.2396 64.5891 59.2396 64.4593C59.2396 62.9077 59.2442 61.3577 59.2396 59.8062C59.2239 54.9592 59.2865 50.1106 59.2036 45.2636C59.1645 42.9441 59.0503 40.6292 58.5889 38.3457C58.3668 37.2446 58.0602 36.1748 57.6161 35.1441C56.7402 33.1139 55.2403 31.736 53.2007 30.9211C51.815 30.3675 50.3682 30.0515 48.8964 29.8544C47.14 29.6198 45.371 29.4994 43.5974 29.4978C35.5581 29.4916 27.5173 29.4884 19.478 29.4853C19.3998 29.4853 19.3216 29.4853 19.2434 29.49C18.94 29.5166 18.7632 29.6652 18.7163 29.9671C18.6882 30.1454 18.6929 30.3299 18.6929 30.5129C18.6929 36.156 18.6929 41.7992 18.6929 47.4407L18.6913 47.4423ZM74.913 47.4141C74.913 41.7726 74.913 36.131 74.913 30.4894C74.913 30.333 74.9193 30.1766 74.9067 30.0202C74.8833 29.7184 74.6846 29.5244 74.3812 29.4931C74.278 29.4822 74.1732 29.4853 74.0684 29.4853C71.6973 29.4853 69.3262 29.4853 66.9551 29.4853C66.8643 29.4853 66.7721 29.4884 66.6814 29.49C66.4483 29.4916 66.2997 29.6136 66.184 29.8091C66.0682 30.0046 66.0995 30.2126 66.098 30.4175C66.0964 41.7663 66.098 53.1136 66.098 64.4624C66.098 64.5531 66.0948 64.6454 66.0995 64.7361C66.1199 65.1224 66.306 65.3336 66.6892 65.3899C66.8174 65.4086 66.9488 65.4055 67.0786 65.4055C69.3715 65.4055 71.6644 65.4055 73.9574 65.4055C74.7597 65.4055 74.9114 65.2538 74.9114 64.4546C74.9114 58.7739 74.9114 53.0932 74.9114 47.4126L74.913 47.4141ZM43.5583 54.3742C43.5583 51.7294 43.5583 49.0846 43.5583 46.4413C43.5583 45.6468 43.5395 44.8506 43.5645 44.0577C43.5786 43.6166 43.3284 43.2835 42.8247 43.3319C42.7856 43.3351 42.7465 43.3319 42.7074 43.3319C40.219 43.3319 37.7322 43.3319 35.2437 43.3319C35.139 43.3319 35.0342 43.3304 34.9309 43.3398C34.6259 43.3695 34.4336 43.5493 34.3866 43.8543C34.3726 43.9435 34.3773 44.0358 34.3773 44.128C34.3773 50.9536 34.3773 57.7807 34.3773 64.6063C34.3773 65.2006 34.5743 65.404 35.1765 65.4055C37.704 65.4102 40.23 65.4055 42.7575 65.4102C43.2236 65.4102 43.6115 65.2476 43.5583 64.6157C43.5489 64.4999 43.5583 64.3811 43.5583 64.2638C43.5583 60.9683 43.5583 57.6728 43.5583 54.3758V54.3742Z" fill="white"/>
<path d="M54.1894 0.335938V0.454806C53.5325 0.503292 52.885 0.404756 52.2344 0.335938H54.1894Z" fill="#FFFEFD"/>
<path d="M40.1129 0.443858C40.1129 0.407884 40.1129 0.371911 40.1129 0.335938C40.7119 0.335938 41.3125 0.335938 41.9116 0.335938C41.3125 0.395372 40.7182 0.507984 40.1113 0.443858H40.1129Z" fill="#FFFEFD"/>
<path d="M0 40.1414C0.0469218 40.1414 0.0954076 40.1414 0.142329 40.1414C0.178303 40.5167 0.136073 40.8905 0.131381 41.2644C0.131381 41.3613 0.112612 41.4458 0 41.4708L0 40.1414Z" fill="#FFFEFD"/>
<path d="M0.145458 54.7653C0.0969717 54.7653 0.0484859 54.7653 0 54.7653V53.5923C0.139201 53.5751 0.137637 53.6752 0.139201 53.7643C0.143894 54.0975 0.179867 54.4306 0.145458 54.7653Z" fill="#FFFEFD"/>
<path d="M93.9921 54.7653C93.9717 54.7653 93.9514 54.7653 93.9311 54.7653C93.9248 54.2007 93.9107 53.6376 93.9858 53.0745C94.014 52.8603 93.9921 52.6382 93.9921 52.4192V54.7653Z" fill="#FFFEFD"/>
<path d="M54.1127 94.2748C54.1127 94.2952 54.1127 94.3155 54.1127 94.3358H52.7832C53.2227 94.2436 53.6685 94.2592 54.1127 94.2748Z" fill="#FFFEFD"/>
<path d="M39.8027 94.3359C39.8027 94.314 39.8027 94.2921 39.8027 94.2702C40.2219 94.2639 40.6426 94.2186 41.054 94.3359H39.8027Z" fill="#FFFEFD"/>
<path d="M93.9326 40.2195C93.9514 40.2195 93.9717 40.2195 93.9905 40.2195V41.3925C93.8779 41.0062 93.9342 40.6105 93.9326 40.2195Z" fill="#FFFEFD"/>
<path d="M57.6129 0.575142C57.8929 0.573578 58.1744 0.57045 58.4544 0.57045C58.581 0.57045 58.714 0.554809 58.8016 0.679934C58.3996 0.708087 58.007 0.634576 57.6113 0.575142H57.6129Z" fill="#FFFEFD"/>
<path d="M35.4219 0.667619C35.5298 0.542494 35.6768 0.573776 35.8129 0.572212C36.0287 0.570648 36.2446 0.57534 36.4604 0.578468C36.1163 0.637902 35.7738 0.706721 35.4219 0.669183V0.667619Z" fill="#FFFEFD"/>
<path d="M55.2129 0.470455C55.5007 0.398508 55.7869 0.350022 56.0653 0.501736C55.7791 0.534581 55.496 0.504864 55.2129 0.470455Z" fill="#FFFEFD"/>
<path d="M38.2383 0.489263C38.4666 0.367266 38.6997 0.392291 38.9327 0.470494C38.7012 0.506467 38.4713 0.523672 38.2383 0.489263Z" fill="#FFFEFD"/>
<path d="M60.8145 0.812896C61.0319 0.833229 61.2665 0.728437 61.462 0.905176C61.2352 0.950534 61.0256 0.877023 60.8145 0.812896Z" fill="#FFFEFD"/>
<path d="M32.6855 0.899072C32.8826 0.731718 33.1141 0.831817 33.3315 0.811485C33.1204 0.869355 32.9123 0.947558 32.6855 0.899072Z" fill="#FFFEFD"/>
<path d="M62.9336 1.0444C63.1228 1.0616 63.3309 0.972453 63.4951 1.13668C63.2965 1.17422 63.1166 1.09758 62.9336 1.0444Z" fill="#FFFEFD"/>
<path d="M30.6523 1.13204C30.8197 0.977194 31.0246 1.06165 31.2123 1.04445C31.0293 1.0945 30.8494 1.1727 30.6523 1.13204Z" fill="#FFFEFD"/>
<path d="M59.3574 0.705039C59.517 0.636221 59.6734 0.606504 59.8188 0.734756C59.6624 0.769166 59.5091 0.741013 59.3574 0.705039Z" fill="#FFFEFD"/>
<path d="M64.7188 1.28212C64.8642 1.28525 65.0237 1.23207 65.1364 1.37753C64.9815 1.4135 64.8501 1.34312 64.7188 1.28212Z" fill="#FFFEFD"/>
<path d="M66.1367 1.51524C66.2806 1.51993 66.437 1.46832 66.5449 1.61691C66.3948 1.64037 66.2681 1.56686 66.1367 1.51524Z" fill="#FFFEFD"/>
<path d="M34.4082 0.725485C34.5302 0.631642 34.6585 0.63477 34.7898 0.705152C34.6647 0.741126 34.538 0.761459 34.4082 0.725485Z" fill="#FFFEFD"/>
<path d="M61.9375 0.94125C62.0454 0.873995 62.1502 0.863047 62.2441 0.967839C62.1393 1.00068 62.0376 0.977223 61.9375 0.94125Z" fill="#FFFEFD"/>
<path d="M63.8926 1.17594C64.0052 1.10868 64.11 1.09617 64.1991 1.2166C64.0912 1.24476 63.9911 1.21973 63.8926 1.17594Z" fill="#FFFEFD"/>
<path d="M31.9043 0.964715C31.9981 0.864616 32.1014 0.874 32.2093 0.939691C32.1108 0.977228 32.0091 0.994433 31.9043 0.964715Z" fill="#FFFEFD"/>
<path d="M56.623 0.545515C56.7263 0.484516 56.8264 0.484516 56.9233 0.558027C56.8217 0.583052 56.7216 0.584616 56.623 0.545515Z" fill="#FFFEFD"/>
<path d="M37.3047 0.554938C37.4001 0.484555 37.5002 0.484555 37.6019 0.540861C37.5049 0.583091 37.4064 0.581527 37.3047 0.554938Z" fill="#FFFEFD"/>
<path d="M30.1074 1.19156C30.1762 1.11492 30.2529 1.11335 30.3326 1.17279C30.2591 1.2072 30.1856 1.22127 30.1074 1.19156Z" fill="#FFFEFD"/>
<path d="M65.3789 1.40724C65.4618 1.34781 65.5384 1.34781 65.6057 1.4307C65.5259 1.45573 65.4524 1.44165 65.3789 1.40724Z" fill="#FFFEFD"/>
<path d="M31.5176 1.02572C31.5614 0.981923 31.6083 0.975667 31.6599 1.01164C31.6161 1.04918 31.5676 1.04761 31.5176 1.02572Z" fill="#FFFEFD"/>
<path d="M66.7852 1.64671C66.8415 1.60135 66.8915 1.60917 66.9353 1.66391C66.8821 1.68894 66.8321 1.67955 66.7852 1.64671Z" fill="#FFFEFD"/>
<path d="M60.1406 0.778539C60.1907 0.742566 60.2392 0.747258 60.283 0.789488C60.2329 0.814513 60.186 0.812949 60.1406 0.778539Z" fill="#FFFEFD"/>
<path d="M33.8652 0.787899C33.909 0.748798 33.9559 0.744106 34.006 0.776951C33.9622 0.81136 33.9137 0.812924 33.8652 0.787899Z" fill="#FFFEFD"/>
</g>
<defs>
<clipPath id="clip0_383_27575">
<rect width="94" height="94" fill="white" transform="translate(0 0.335938)"/>
</clipPath>
</defs>
</svg>
