<svg width="121" height="29" viewBox="0 0 121 29" fill="none" xmlns="http://www.w3.org/2000/svg">
<path d="M58.4637 3.63745V16.6324C58.4637 24.8496 52.2007 27.5254 49.3536 28.289C48.5942 28.4799 47.4556 28.0981 47.0764 26.9516C46.8867 25.9961 47.4556 25.0405 48.4046 24.6587C51.2517 23.8941 54.6676 21.792 54.6676 16.6324V3.63745C54.6676 2.6819 55.427 1.72634 56.5656 1.72634C57.5147 1.72634 58.4637 2.49099 58.4637 3.63745ZM26.7686 19.4981C27.528 21.0274 26.0091 23.1294 24.1111 21.9819C24.1111 21.9819 16.8991 17.2042 11.5851 15.1021L8.35882 21.2173C8.16921 21.79 6.84097 22.7456 5.70134 21.9819C-3.21812 16.8233 -1.50967 6.69503 9.68805 10.1344L14.2426 1.34452C15.1916 -0.183771 17.0897 0.198051 17.6585 1.34452L26.7686 19.4991V19.4981ZM7.97961 13.7658C0.767594 11.6637 4.5637 16.6324 6.08155 17.588L7.97961 13.7658ZM20.316 15.1031L15.7614 6.50412L13.2946 11.6637C15.003 12.2365 18.7981 14.3395 20.317 15.1031M48.7848 11.8546C48.7848 17.588 44.2293 22.1738 38.5361 22.1738H32.4627C31.3241 22.1738 30.5647 21.2183 30.5647 20.2627V3.63745C30.5647 2.49099 31.5137 1.72634 32.4627 1.72634H38.5361C44.2303 1.72634 48.7848 6.31221 48.7848 11.8546ZM44.9887 11.8546C44.9887 8.41524 42.1416 5.54857 38.7257 5.54857H34.5504V18.3516H38.7257C42.1416 18.3516 44.9887 15.485 44.9887 11.8546ZM78.3923 3.63745V13.192C78.3923 16.2496 76.3046 18.3516 73.2679 18.3516C70.2312 18.3516 68.1436 16.2496 68.1436 13.192V3.63745C68.1436 1.15361 64.3475 1.15361 64.3475 3.63745V13.192C64.3475 18.3516 68.1436 22.1738 73.2679 22.1738C78.3923 22.1738 82.1884 18.3516 82.1884 13.192V3.63745C82.1884 1.15361 78.3923 1.15361 78.3923 3.63745ZM119.007 1.72634H104.962C102.495 1.72634 102.495 5.54857 104.962 5.54857H110.086V20.2627C110.086 22.7466 113.883 22.7466 113.883 20.2627V5.54857H119.007C121.663 5.54857 121.663 1.72634 119.007 1.72634ZM89.7796 6.69503C89.9692 4.97483 93.3861 4.01928 96.2322 6.50412C98.1303 8.03241 100.597 5.73948 98.8897 3.63745C95.6634 0.00614011 85.9835 0.198052 85.9835 7.07686C85.9835 14.3385 97.1812 12.8092 96.0426 17.0142C95.4728 18.9254 91.1078 19.69 89.0202 16.8233C87.3117 14.3395 84.275 16.8233 85.7939 18.9254C90.1588 25.2314 100.028 22.5567 100.028 16.4415C100.028 9.37079 89.59 10.7082 89.7796 6.69603" fill="white"/>
</svg>
