<svg width="137" height="20" viewBox="0 0 137 20" fill="none" xmlns="http://www.w3.org/2000/svg">
<path d="M136.488 15.7242C136.3 15.7174 136.271 15.8418 136.278 15.9844C136.296 16.3578 136.192 16.6745 135.877 16.9053C135.845 16.928 135.834 16.9868 135.83 17.0321C135.8 17.281 135.61 17.4054 135.443 17.5502C135.257 17.7109 135.085 17.8896 134.904 18.0526C134.836 18.1137 134.743 18.1476 134.682 18.2132C134.488 18.4214 134.144 18.3716 133.972 18.6228C133.951 18.6522 133.886 18.6499 133.841 18.659C133.639 18.6975 133.456 18.7156 133.255 18.8445C132.988 19.0142 132.625 19.0799 132.3 19.098C131.594 19.1342 130.888 19.1161 130.179 19.107C129.994 19.107 129.774 19.1613 129.654 18.935C129.65 18.9283 129.639 18.9237 129.63 18.9215C129.299 18.8377 128.969 18.7608 128.641 18.6658C128.53 18.6341 128.433 18.5572 128.329 18.5029C128.29 18.4825 128.243 18.444 128.209 18.4531C127.944 18.5142 127.853 18.2449 127.666 18.1589C127.469 18.0661 127.297 17.901 127.136 17.7448C126.991 17.6045 126.867 17.4371 126.745 17.2742C126.645 17.1429 126.561 16.9981 126.471 16.8601C126.412 16.7696 126.333 16.6813 126.308 16.5818C126.267 16.4256 126.222 16.2899 126.147 16.1428C126.032 15.9165 126.088 15.5997 126.086 15.3191C126.086 15.2988 126.197 15.2626 126.256 15.2626C126.926 15.2603 127.595 15.2626 128.263 15.2626C128.462 15.2626 128.532 15.3508 128.586 15.5522C128.65 15.783 128.808 15.998 128.955 16.1948C129.111 16.403 129.304 16.584 129.483 16.7764C129.501 16.7967 129.519 16.8329 129.537 16.8329C129.879 16.8397 130.118 17.1769 130.492 17.1067C130.603 17.0864 130.736 17.2153 130.863 17.2312C131.121 17.2606 131.435 17.3534 131.625 17.2425C131.867 17.1022 132.103 17.1294 132.338 17.0728C132.619 17.0072 132.881 16.8895 133.096 16.6881C133.286 16.5094 133.476 16.3283 133.666 16.1473C133.698 16.1156 133.739 16.0749 133.741 16.0364C133.748 15.6699 133.77 15.301 133.741 14.9367C133.73 14.8145 133.596 14.6765 133.481 14.5996C133.23 14.4276 133.01 14.2262 132.718 14.0859C132.449 13.957 132.2 13.9615 131.944 13.9004C131.863 13.8823 131.788 13.828 131.709 13.794C131.625 13.7601 131.544 13.7171 131.456 13.7013C131.139 13.6379 130.779 13.785 130.51 13.4863C130.471 13.4456 130.36 13.4795 130.29 13.4569C130.148 13.4116 130.017 13.3392 129.872 13.303C129.718 13.2646 129.559 13.2578 129.401 13.2351C129.252 13.2125 129.068 13.2736 128.996 13.0654C128.989 13.0473 128.946 13.0247 128.926 13.0292C128.568 13.1175 128.338 12.7894 128.014 12.7486C127.919 12.7373 127.84 12.6151 127.749 12.5495C127.518 12.3798 127.265 12.235 127.057 12.0404C126.921 11.9137 126.846 11.7168 126.747 11.5516C126.613 11.3344 126.475 11.1217 126.353 10.8977C126.315 10.8276 126.312 10.7348 126.31 10.6511C126.303 10.1804 126.294 9.7075 126.306 9.23684C126.31 9.03772 126.231 8.79108 126.498 8.67115C126.514 8.66436 126.512 8.61911 126.518 8.59195C126.629 8.18239 126.874 7.8724 127.147 7.54882C127.405 7.24335 127.752 7.10758 128.037 6.87225C128.347 6.6143 128.738 6.54868 129.084 6.39481C129.483 6.21605 129.912 6.33824 130.243 6.16853C130.659 5.95357 131.096 5.94 131.458 6.04408C131.951 6.18664 132.465 6.10744 132.924 6.27036C133.162 6.35408 133.449 6.35861 133.628 6.48758C133.904 6.68671 134.261 6.73875 134.483 7.05101C134.689 7.33838 135.035 7.52167 135.271 7.79546C135.397 7.94254 135.569 8.06247 135.61 8.30685C135.649 8.53991 135.875 8.73903 135.922 8.9721C135.988 9.3002 135.97 9.64414 135.968 9.98129C135.968 10.0039 135.802 10.0424 135.714 10.0424C135.158 10.0492 134.601 10.0469 134.047 10.0446C133.816 10.0446 133.551 9.82516 133.56 9.60341C133.571 9.27757 133.393 9.08976 133.173 8.89516C132.976 8.72093 132.807 8.51276 132.625 8.32042C132.614 8.30685 132.603 8.28648 132.589 8.28196C132.309 8.19597 132.03 8.07604 131.743 8.03984C131.399 7.99685 131.046 8.01042 130.698 8.02626C130.489 8.03531 130.286 8.01269 130.08 8.19371C129.955 8.30232 129.697 8.32268 129.523 8.45619C129.376 8.57159 129.139 8.6259 129.068 8.76845C128.863 9.18932 128.663 9.63735 128.82 10.1284C128.865 10.2709 128.976 10.3999 129.077 10.5176C129.2 10.6579 129.342 10.78 129.476 10.9113C129.489 10.9249 129.501 10.9452 129.514 10.9475C129.702 10.9724 129.851 11.09 130.012 11.1625C130.358 11.3163 130.756 11.348 131.132 11.4408C131.268 11.4747 131.392 11.5449 131.526 11.5879C131.621 11.6173 131.725 11.6263 131.824 11.6444C132.044 11.6829 132.282 11.6014 132.472 11.83C132.54 11.9114 132.759 11.8639 132.908 11.8797C133.076 11.8978 133.239 11.8549 133.384 12.0381C133.458 12.1332 133.705 12.0789 133.865 12.1196C133.988 12.1513 134.101 12.2237 134.218 12.278C134.268 12.3006 134.323 12.3074 134.368 12.3346C134.553 12.4432 134.737 12.5563 134.918 12.6672C134.963 12.6943 134.999 12.7351 135.044 12.76C135.214 12.8573 135.404 12.9297 135.551 13.0519C135.712 13.1854 135.911 13.346 135.959 13.5293C136.035 13.8167 136.332 14.0113 136.269 14.3507C136.244 14.4887 136.287 14.6222 136.481 14.5951V15.7264L136.488 15.7242Z" fill="white"/>
<path d="M16.2682 14.1854C16.189 14.3778 16.1506 14.5 16.0917 14.6131C15.9741 14.8417 15.8473 15.0679 15.7252 15.2942C15.7161 15.31 15.6935 15.3168 15.6867 15.3327C15.5962 15.5657 15.5238 15.8101 15.4106 16.0319C15.3043 16.24 15.1346 16.4165 15.0305 16.627C14.8879 16.9166 14.5417 17.0569 14.4942 17.4189C14.4784 17.5321 14.3449 17.6384 14.2498 17.7335C13.9534 18.0321 13.6479 18.324 13.347 18.6159C13.3402 18.6227 13.3334 18.6295 13.3244 18.6318C13.046 18.7223 12.7541 18.7811 12.4962 18.9078C12.1771 19.064 11.9011 19.1115 11.573 18.9146C11.4191 18.8218 11.1679 18.9305 11.0322 18.7087C11.005 18.6635 10.8715 18.6816 10.7901 18.668C10.652 18.6431 10.4823 18.6951 10.4167 18.4937C10.4054 18.4598 10.3013 18.4553 10.238 18.444C9.97321 18.3964 9.69489 18.4756 9.44825 18.2516C9.3419 18.1543 9.08621 18.2154 8.8984 18.2222C8.70154 18.229 8.50694 18.1838 8.33045 18.3761C8.24899 18.4643 8.02724 18.4168 7.86884 18.4372C7.72176 18.4575 7.53848 18.3874 7.46833 18.6069C7.46154 18.6318 7.38687 18.6363 7.34162 18.6499C7.04067 18.7359 6.69221 18.7562 6.45462 18.9282C6.21703 19.1002 5.98396 19.1341 5.75542 19.0821C5.49068 19.021 5.25083 18.8603 4.99966 18.7404C4.95893 18.7223 4.92273 18.6838 4.88426 18.6793C4.61046 18.6567 4.47696 18.4575 4.3163 18.2743C4.14433 18.0774 3.92032 17.9303 3.74383 17.738C3.61485 17.5977 3.5266 17.4167 3.41799 17.256C3.33427 17.127 3.25507 16.9935 3.1623 16.8736C2.96317 16.6202 2.73237 16.3894 2.56266 16.1178C2.43142 15.9097 2.38617 15.6495 2.27756 15.4232C2.17799 15.2127 2.04675 15.0181 1.92909 14.819C1.92004 14.8054 1.89062 14.8009 1.8861 14.7851C1.79559 14.509 1.71413 14.233 1.61909 13.9592C1.58289 13.8551 1.52179 13.76 1.48106 13.6582C1.44486 13.5655 1.41771 13.4704 1.3996 13.3731C1.35435 13.1468 1.45617 12.8844 1.20953 12.7033C1.15749 12.6649 1.18917 12.5246 1.17106 12.4318C1.1145 12.1399 1.25479 11.805 0.985518 11.5539C0.949314 11.5199 0.967416 11.4271 0.967416 11.3615C0.967416 10.7958 0.960628 10.2301 0.971942 9.66445C0.971942 9.56489 1.04888 9.46759 1.0715 9.3635C1.10997 9.1938 1.1507 9.01956 1.15749 8.84759C1.17559 8.43351 1.32493 8.07373 1.56026 7.7411C1.58968 7.69811 1.60778 7.63475 1.60552 7.58271C1.5942 7.26139 1.80011 7.07585 2.00829 6.86994C2.27077 6.61198 2.46763 6.27936 2.75047 6.05082C2.99033 5.85622 3.16682 5.57111 3.52434 5.50323C3.74383 5.4625 3.9339 5.27016 4.13528 5.14798C4.15791 5.1344 4.1828 5.10951 4.20543 5.10951C4.66703 5.10951 5.06075 4.75425 5.54272 4.8606C5.66944 4.88776 5.80747 4.87418 5.93871 4.86513C6.38447 4.83119 6.75556 5.01674 7.11308 5.25206C7.15607 5.28148 7.21943 5.28374 7.27374 5.29505C7.45476 5.329 7.64257 5.28374 7.79191 5.48739C7.85979 5.5779 8.11322 5.52133 8.2784 5.55527C8.40738 5.58243 8.52504 5.64805 8.65176 5.68878C8.70606 5.70688 8.77168 5.71819 8.82599 5.70235C8.98665 5.6571 9.14051 5.58921 9.30343 5.54622C9.47993 5.4987 9.71073 5.60505 9.80803 5.34936C9.81482 5.33352 9.85781 5.33126 9.88496 5.32447C10.1859 5.23849 10.5117 5.20002 10.7855 5.05973C11.573 4.65243 12.3944 4.91265 13.1976 4.89907C13.4217 4.89454 13.6479 5.10725 13.872 5.22039C13.8968 5.2317 13.9127 5.26111 13.9376 5.27016C14.1752 5.36294 14.4603 5.4014 14.6436 5.55754C14.9196 5.7906 15.3676 5.85622 15.4491 6.30199C15.4581 6.34724 15.5192 6.37892 15.5464 6.42191C15.5871 6.49206 15.655 6.57352 15.6437 6.63914C15.6301 6.72286 15.5645 6.84052 15.4944 6.86541C15.1617 6.98308 14.9739 7.26366 14.759 7.50577C14.6028 7.68227 14.4467 7.86329 14.3268 8.06468C14.2114 8.25927 14.1819 8.51044 14.0484 8.68694C13.8063 9.00372 13.8923 9.37482 13.7995 9.70971C13.7498 9.8862 13.5914 10.0355 13.6411 10.2437C13.666 10.3455 13.7294 10.4383 13.7498 10.5401C13.7882 10.7212 13.8312 10.9044 13.8312 11.0855C13.8335 11.4882 13.9851 11.8231 14.2385 12.1241C14.2657 12.1558 14.2611 12.2123 14.2815 12.253C14.3765 12.4273 14.4535 12.6174 14.5779 12.7667C14.7725 12.9975 14.9852 13.217 15.216 13.4116C15.3631 13.536 15.5668 13.5926 15.7229 13.7103C15.9288 13.8641 16.1143 14.0452 16.2682 14.1809V14.1854Z" fill="white"/>
<path d="M20.4883 14.1515C20.8096 14.1515 21.1287 14.156 21.45 14.1515C21.6446 14.147 21.7329 14.2239 21.7645 14.423C21.8347 14.8575 22.018 15.2354 22.3664 15.5295C22.5542 15.6879 22.6945 15.8983 22.8755 16.0658C23.0362 16.2151 23.2331 16.3215 23.4163 16.4391C23.715 16.6292 24.0499 16.541 24.3124 16.6722C25.0772 17.0569 25.8714 16.7967 26.6476 16.8578C26.8625 16.8759 27.116 16.9234 27.2857 16.6813C27.3173 16.6337 27.4463 16.6383 27.5301 16.6451C27.8876 16.679 28.1297 16.4912 28.3718 16.2626C28.5076 16.1337 28.6931 16.0567 28.8515 15.9481C29.037 15.8214 29.1864 15.6811 29.2611 15.4435C29.3335 15.2195 29.4919 15.0227 29.6073 14.81C29.6412 14.7489 29.6706 14.6742 29.6706 14.6063C29.6774 14.3054 29.7295 13.9886 29.6525 13.7057C29.5869 13.4613 29.51 13.1921 29.2927 12.9952C29.0936 12.8165 28.9556 12.5698 28.7542 12.3956C28.6003 12.2621 28.3922 12.1919 28.2066 12.1014C27.9283 11.9657 27.65 11.8231 27.3626 11.7077C27.2268 11.6534 27.0662 11.6715 26.9214 11.6353C26.7765 11.5991 26.643 11.5176 26.4982 11.486C26.3263 11.4475 26.1452 11.4543 25.9733 11.4158C25.8398 11.3864 25.7153 11.314 25.5841 11.2687C25.5162 11.2438 25.4438 11.2212 25.3736 11.2167C25.1677 11.2031 24.9573 11.2144 24.7536 11.1873C24.6473 11.1737 24.5523 11.09 24.4436 11.0606C24.2943 11.0198 24.1359 10.9746 23.9843 10.9768C23.5521 10.9814 23.1991 10.7958 22.8439 10.5763C22.6312 10.4451 22.3687 10.3976 22.1401 10.289C21.9252 10.1871 21.7283 10.0514 21.5224 9.92918C21.4839 9.90655 21.4523 9.86356 21.4138 9.85903C21.1536 9.8183 21.0156 9.62597 20.8594 9.44495C20.6988 9.2594 20.511 9.09874 20.3413 8.92225C20.2779 8.85436 20.2281 8.76838 20.1806 8.68692C20.0516 8.46064 19.9226 8.23437 19.8005 8.00356C19.7642 7.93342 19.7439 7.8497 19.7303 7.7705C19.6851 7.52386 19.7914 7.23649 19.5357 7.04189C19.5108 7.02152 19.5199 6.95138 19.5199 6.90613C19.5199 6.52824 19.4271 6.12095 19.5425 5.78379C19.6669 5.42628 19.624 5.03935 19.771 4.72256C19.9113 4.42161 20.0471 4.10709 20.2123 3.81745C20.3345 3.60249 20.5562 3.4441 20.735 3.26308C20.9273 3.06848 21.1129 2.86257 21.3188 2.68381C21.4591 2.55936 21.6288 2.46885 21.7894 2.36929C22.0044 2.23805 22.2216 2.11359 22.4366 1.98688C22.4524 1.97783 22.4615 1.94841 22.4728 1.94841C22.681 1.94615 22.8303 1.7855 23 1.73345C23.4571 1.5909 23.9413 1.54564 24.4142 1.45287C24.5251 1.43024 24.6269 1.36462 24.7333 1.32615C24.8102 1.299 24.8917 1.26958 24.9731 1.26958C25.5388 1.26506 26.1045 1.2628 26.6702 1.27185C26.7698 1.27185 26.8693 1.34652 26.9711 1.3782C27.0752 1.40987 27.1793 1.43703 27.2857 1.45966C27.5097 1.50717 27.7857 1.38498 27.9464 1.65425C27.9554 1.67009 27.9984 1.67009 28.0256 1.67462C28.2541 1.70404 28.4736 1.80812 28.6773 1.86017C28.976 1.93484 29.2249 2.10228 29.5145 2.17921C29.6503 2.21542 29.7838 2.31498 29.8811 2.41907C30.0553 2.60688 30.2522 2.73812 30.4739 2.87162C30.7138 3.01644 30.8631 3.31286 31.0509 3.54592C31.1256 3.63643 31.2025 3.72694 31.2681 3.82198C31.4084 4.02789 31.5465 4.2338 31.6732 4.4465C31.7094 4.5076 31.6958 4.59358 31.7207 4.66373C31.7501 4.74292 31.7954 4.81533 31.8361 4.89C31.8655 4.94431 31.9175 4.99862 31.9198 5.05518C31.9379 5.4308 31.9492 5.80869 31.956 6.1843C31.9605 6.36985 31.8655 6.43773 31.6754 6.43547C31.0826 6.42416 30.4875 6.44905 29.8946 6.41963C29.7476 6.41284 29.5846 6.26576 29.4738 6.14357C29.3719 6.0327 29.3267 5.86752 29.2679 5.7227C29.1728 5.48737 29.0981 5.24526 28.9963 5.01446C28.9465 4.90358 28.8628 4.79949 28.7723 4.71351C28.5211 4.46913 28.2949 4.16139 27.9917 4.01884C27.6726 3.8695 27.3445 3.6387 26.9372 3.71563C26.772 3.74731 26.582 3.7541 26.4575 3.56855C26.4281 3.52556 26.3172 3.52782 26.2448 3.52782C25.9235 3.52329 25.6022 3.51424 25.2831 3.53235C25.1587 3.53914 25.041 3.6387 24.9143 3.66585C24.7423 3.70205 24.5658 3.70884 24.3916 3.73373C24.2468 3.7541 24.0612 3.67943 23.9866 3.89665C23.9752 3.92833 23.887 3.94643 23.835 3.94643C23.5069 3.93964 23.2896 4.10935 23.1018 4.36278C23.0158 4.48044 22.8642 4.54833 22.7466 4.64563C22.7149 4.67052 22.6877 4.71125 22.6742 4.74971C22.5859 4.98957 22.561 5.28372 22.4026 5.45569C22.1628 5.71591 22.2533 5.99423 22.2329 6.26803C22.2216 6.43773 22.1854 6.62554 22.3845 6.74547C22.4275 6.77262 22.432 6.8835 22.4343 6.95591C22.4434 7.2478 22.6085 7.44014 22.8258 7.60532C22.8982 7.65963 22.9412 7.75692 23.0136 7.81123C23.2014 7.95605 23.3982 8.09181 23.5951 8.22758C23.6313 8.25247 23.6856 8.25021 23.7309 8.257C23.8644 8.27736 24.0047 8.25473 24.0771 8.43123C24.0974 8.48327 24.2649 8.47422 24.3667 8.49232C24.5771 8.52853 24.8306 8.42896 24.9709 8.68692C24.9777 8.69823 25.0048 8.7005 25.0229 8.70276C25.4596 8.78422 25.9009 8.85889 26.3353 8.95166C26.4869 8.98334 26.6272 9.06706 26.7765 9.11458C26.8648 9.14173 26.9598 9.14173 27.0503 9.15984C27.3536 9.22093 27.6952 9.05575 27.9645 9.36122C28.0414 9.44721 28.2813 9.36575 28.4284 9.41779C28.7067 9.51283 28.9737 9.64859 29.243 9.76852C29.2679 9.77983 29.2814 9.81151 29.3041 9.82056C29.553 9.90881 29.8132 9.96991 30.0462 10.0853C30.3155 10.2188 30.5644 10.393 30.8111 10.5673C30.9943 10.6963 31.1663 10.8479 31.3338 10.9972C31.5012 11.1488 31.6686 11.2823 31.7433 11.5312C31.8112 11.7552 31.9945 11.943 32.1257 12.1467C32.1393 12.1693 32.1529 12.1987 32.1551 12.2236C32.2072 12.7961 32.5059 13.3346 32.3973 13.932C32.3362 14.2692 32.4991 14.6425 32.2117 14.9457C32.1619 14.9978 32.2004 15.129 32.1823 15.2218C32.1438 15.4164 32.2547 15.6675 31.9832 15.7807C31.9673 15.7875 31.9673 15.8327 31.9605 15.8576C31.861 16.274 31.6686 16.6292 31.3338 16.9121C31.2274 17.0026 31.2093 17.1949 31.1052 17.2899C30.7816 17.5909 30.4354 17.8692 30.0983 18.1566C30.0847 18.1679 30.0711 18.1837 30.0553 18.1905C29.8109 18.281 29.4715 18.2991 29.3403 18.4734C29.0981 18.7924 28.6682 18.5231 28.4668 18.849C28.4397 18.892 28.322 18.8716 28.2519 18.8942C28.1025 18.944 27.9577 19.0074 27.8084 19.0594C27.7382 19.0843 27.6636 19.1024 27.5911 19.1069C27.3649 19.1205 27.1363 19.1092 26.9146 19.1409C26.7607 19.1612 26.6136 19.2404 26.4598 19.2857C26.3896 19.3061 26.3149 19.3242 26.2425 19.3264C26.0072 19.331 25.7696 19.3468 25.5366 19.3242C25.3917 19.3106 25.2514 19.2337 25.1089 19.1884C25.0387 19.1658 24.9641 19.1477 24.8917 19.1431C24.6473 19.1296 24.4006 19.1386 24.1585 19.1069C24.025 19.0911 23.8961 19.0142 23.7671 18.9621C23.7512 18.9553 23.7377 18.935 23.7218 18.9304C23.3915 18.8467 23.0566 18.7698 22.7285 18.677C22.6176 18.6453 22.5203 18.5684 22.4139 18.5164C22.3664 18.4937 22.3121 18.4621 22.2623 18.4621C21.9252 18.4711 21.7102 18.2765 21.4885 18.057C21.355 17.9258 21.1468 17.8783 20.9975 17.7583C20.7825 17.5864 20.5924 17.385 20.3933 17.1926C20.2779 17.0818 20.167 16.9664 20.0516 16.8532C20.0267 16.8283 19.986 16.8148 19.9724 16.7876C19.8842 16.6089 19.8095 16.4233 19.7122 16.2491C19.5968 16.0454 19.4339 15.8644 19.3411 15.6517C19.2755 15.5046 19.3072 15.3191 19.2687 15.1562C19.2393 15.0294 19.1646 14.9163 19.1284 14.7919C19.0945 14.6787 19.0311 14.5181 19.0809 14.4502C19.1737 14.3257 19.3298 14.1877 19.4746 14.1719C19.8095 14.1311 20.1512 14.1583 20.4906 14.1583L20.4883 14.1515Z" fill="white"/>
<path d="M121.557 1.69727H124.052C124.052 1.83077 124.052 1.94164 124.052 2.05252C124.052 7.51935 124.052 12.9862 124.052 18.453C124.052 18.8716 124.041 18.8852 123.632 18.8852C123.066 18.8852 122.5 18.8875 121.935 18.8852C121.582 18.8829 121.557 18.8535 121.554 18.4915C121.554 18.134 121.559 17.7742 121.554 17.4167C121.554 17.0478 121.545 17.0456 121.14 17.1157C121.106 17.5343 120.76 17.7335 120.489 17.9869C120.378 18.091 120.274 18.2041 120.167 18.3127C120.149 18.3331 120.142 18.3716 120.12 18.3806C119.898 18.4802 119.674 18.5775 119.452 18.6748C119.156 18.8015 118.859 18.9305 118.561 19.0527C118.493 19.0798 118.418 19.1002 118.346 19.1002C117.771 19.1047 117.196 19.1092 116.622 19.1002C116.524 19.1002 116.429 19.021 116.334 18.978C116.302 18.9621 116.275 18.9305 116.241 18.9214C115.934 18.8332 115.608 18.7857 115.318 18.6544C115.033 18.5254 114.782 18.3218 114.524 18.1408C114.345 18.0163 114.171 17.8873 114.013 17.738C113.87 17.6045 113.746 17.4484 113.628 17.2922C113.535 17.17 113.474 17.0275 113.386 16.9008C113.259 16.7175 113.096 16.5568 112.994 16.3622C112.877 16.1382 112.856 15.8531 112.711 15.654C112.447 15.2919 112.626 14.8258 112.444 14.5068C112.207 14.0859 112.284 13.6763 112.27 13.2645C112.245 12.5314 112.27 11.7937 112.288 11.0606C112.291 10.9474 112.381 10.8366 112.422 10.7234C112.451 10.6374 112.469 10.5492 112.487 10.4587C112.535 10.2188 112.397 9.92467 112.693 9.75496C112.705 9.74818 112.709 9.71876 112.705 9.70066C112.626 9.35445 112.947 9.1327 112.985 8.81818C112.997 8.73219 113.107 8.65752 113.173 8.57606C113.447 8.23212 113.621 7.81804 113.997 7.53972C114.293 7.32023 114.528 7.02154 114.791 6.75906C114.805 6.74549 114.811 6.7206 114.825 6.71834C115.001 6.66856 115.187 6.51469 115.309 6.49885C115.796 6.43323 116.223 6.11418 116.744 6.19337C116.904 6.21826 117.083 6.09608 117.26 6.05987C117.375 6.03498 117.552 5.99425 117.61 6.05082C117.819 6.25673 118.067 6.17527 118.301 6.21148C118.581 6.25221 118.871 6.16622 119.135 6.41513C119.31 6.58031 119.624 6.5871 119.864 6.69345C119.984 6.74775 120.09 6.84958 120.183 6.94914C120.5 7.29308 120.803 7.65286 121.127 7.99227C121.181 8.04658 121.324 8.03753 121.419 8.02169C121.466 8.0149 121.518 7.92892 121.532 7.86782C121.552 7.78862 121.541 7.70037 121.541 7.61439C121.541 5.73856 121.539 3.86273 121.539 1.9869C121.539 1.89413 121.55 1.80362 121.554 1.69953L121.557 1.69727ZM121.539 12.4906C121.468 12.1558 121.634 11.7281 121.369 11.3027C121.183 11.0063 121.183 10.5967 121.081 10.2437C121.048 10.1261 120.95 10.0265 120.882 9.91788C120.776 9.74365 120.69 9.54905 120.559 9.39518C120.389 9.19832 120.163 9.04898 119.993 8.85212C119.814 8.64621 119.649 8.45161 119.341 8.47424C119.278 8.47876 119.174 8.4765 119.154 8.4403C118.991 8.16877 118.724 8.26606 118.497 8.25475C118.187 8.23891 117.871 8.22081 117.567 8.26607C117.253 8.31132 116.95 8.42898 116.642 8.51949C116.622 8.52628 116.612 8.56475 116.592 8.58285C116.384 8.77066 116.167 8.95168 115.965 9.14628C115.787 9.32051 115.59 9.49022 115.465 9.70066C115.334 9.92241 115.282 10.1872 115.194 10.4338C115.187 10.4519 115.18 10.47 115.169 10.4836C114.886 10.7483 114.859 11.1533 114.816 11.4656C114.721 12.1874 114.782 12.9319 114.786 13.665C114.786 13.742 114.825 13.8234 114.852 13.8981C114.891 13.9976 114.949 14.0882 114.979 14.19C115.074 14.5158 115.162 14.8462 115.253 15.1743C115.255 15.1833 115.259 15.1924 115.264 15.1992C115.483 15.4979 115.692 15.8033 115.927 16.0884C116.026 16.2106 116.164 16.3328 116.309 16.3803C116.542 16.4573 116.787 16.584 116.959 16.6971C117.192 16.851 117.4 16.851 117.626 16.8623C118.002 16.8827 118.384 16.9008 118.755 16.8578C119.077 16.8193 119.389 16.6949 119.703 16.6089C119.712 16.6066 119.722 16.6021 119.728 16.5953C120.029 16.2966 120.335 16.0025 120.629 15.6992C120.722 15.6042 120.842 15.4888 120.857 15.3711C120.898 15.0566 121.222 14.8394 121.143 14.4932C121.138 14.4728 121.17 14.4457 121.179 14.4185C121.233 14.2895 121.294 14.1651 121.335 14.0316C121.362 13.9433 121.326 13.8008 121.378 13.7623C121.602 13.5903 121.527 13.355 121.539 13.1401C121.55 12.9522 121.541 12.7644 121.541 12.4906H121.539Z" fill="white"/>
<path d="M102.581 1.67236C103.253 1.67236 103.902 1.67236 104.552 1.67236C104.739 1.67236 104.93 1.67236 105.117 1.67236C105.488 1.67236 105.581 1.86017 105.746 2.16338C105.912 2.46207 105.828 2.849 106.127 3.08885C106.183 3.13411 106.14 3.29024 106.172 3.38754C106.21 3.50973 106.278 3.6206 106.335 3.73827C106.346 3.76316 106.38 3.78805 106.375 3.80615C106.287 4.15688 106.565 4.39899 106.645 4.7022C106.724 5.00089 106.9 5.27242 107.025 5.56205C107.057 5.63672 107.059 5.72497 107.07 5.80643C107.09 5.96709 107.038 6.15716 107.253 6.23862C107.271 6.24541 107.278 6.28614 107.285 6.31103C107.371 6.62103 107.437 6.93781 107.55 7.2365C107.634 7.45825 107.783 7.65737 107.903 7.86781C107.912 7.88365 107.928 7.89722 107.932 7.91533C108.023 8.24116 108.106 8.56926 108.204 8.8951C108.238 9.00824 108.303 9.11233 108.355 9.22094C108.371 9.25488 108.392 9.28656 108.403 9.3205C108.491 9.61014 108.496 9.97897 108.681 10.1736C108.941 10.4428 108.742 10.8411 109.052 11.0741C109.145 11.1443 109.088 11.3977 109.125 11.5606C109.15 11.6783 109.217 11.7869 109.267 11.8978C109.281 11.9317 109.308 11.9589 109.317 11.9928C109.403 12.2938 109.43 12.6287 109.589 12.8844C109.738 13.1265 109.697 13.4274 109.831 13.6016C109.998 13.8211 109.966 14.0406 110.041 14.2533C110.143 14.5475 110.319 14.8145 110.433 15.1041C110.541 15.3824 110.609 15.6789 110.702 15.9662C110.727 16.0454 110.779 16.1178 110.822 16.1903C110.844 16.2265 110.894 16.2559 110.899 16.2943C110.933 16.541 110.953 16.7695 111.114 17.0026C111.281 17.2492 111.249 17.6294 111.41 17.8805C111.544 18.0887 111.6 18.281 111.616 18.5073C111.639 18.858 111.609 18.892 111.249 18.892C110.627 18.892 110.005 18.8943 109.383 18.892C109.098 18.892 108.903 18.6929 108.883 18.41C108.871 18.2471 108.916 18.0593 108.702 17.9801C108.695 17.9778 108.688 17.9665 108.686 17.9575C108.602 17.6837 108.525 17.4099 108.437 17.1383C108.405 17.041 108.349 16.9505 108.299 16.8578C108.287 16.8351 108.249 16.8216 108.242 16.7989C108.154 16.464 108.075 16.1292 107.98 15.7965C107.948 15.6834 107.88 15.5816 107.828 15.473C107.812 15.4413 107.774 15.4051 107.781 15.3779C107.851 15.0408 107.584 14.8032 107.507 14.509C107.471 14.3665 107.242 14.1764 107.097 14.1741C105.07 14.1515 103.045 14.1606 101.017 14.1583C100.85 14.1583 100.816 14.276 100.723 14.3778C100.465 14.6606 100.633 15.0973 100.325 15.344C100.307 15.3576 100.313 15.3983 100.304 15.4232C100.221 15.7264 100.209 16.0839 100.033 16.3147C99.8157 16.5953 99.9605 16.9709 99.7908 17.1519C99.5351 17.4257 99.7003 17.7991 99.4265 18.0616C99.2409 18.2403 99.216 18.582 99.1029 18.8943C98.6956 18.8943 98.2747 18.8943 97.8516 18.8943C97.6253 18.8943 97.399 18.8943 97.1728 18.8943C96.8997 18.8943 96.6787 18.7962 96.5098 18.6001C96.5731 18.4326 96.5867 18.2245 96.6908 18.1566C97.0325 17.9348 96.727 17.4483 97.089 17.256C97.1049 17.247 97.1117 17.2017 97.1049 17.1768C97.0189 16.8216 97.2814 16.5546 97.3945 16.2694C97.4782 16.059 97.4828 15.7988 97.6072 15.6449C97.7928 15.4164 97.7068 15.12 97.8403 14.9457C98.0122 14.724 97.9851 14.4932 98.0575 14.2692C98.1299 14.0451 98.3019 13.8528 98.4037 13.6356C98.4557 13.5225 98.4467 13.3799 98.4716 13.2532C98.5055 13.0812 98.4263 12.8708 98.6549 12.7576C98.7001 12.735 98.6911 12.6015 98.7046 12.52C98.7273 12.3617 98.6684 12.1693 98.8879 12.0924C98.906 12.0856 98.9241 12.0403 98.9173 12.02C98.8268 11.6625 99.1165 11.4136 99.1889 11.099C99.2568 10.8094 99.4468 10.5492 99.5713 10.2709C99.6075 10.1894 99.5871 10.0831 99.6165 9.9948C99.6618 9.86583 99.7274 9.74138 99.784 9.61692C99.7953 9.59203 99.827 9.56714 99.8224 9.54904C99.7274 9.18926 100.024 8.94262 100.094 8.6281C100.16 8.3362 100.343 8.07146 100.47 7.79314C100.494 7.73657 100.488 7.66416 100.51 7.60533C100.553 7.5035 100.621 7.41073 100.655 7.30891C100.698 7.17767 100.716 7.03964 100.743 6.90387C100.775 6.73869 100.694 6.53051 100.927 6.44453C100.945 6.43774 100.958 6.39927 100.961 6.37438C101.004 6.01913 101.185 5.7295 101.375 5.43986C101.415 5.3765 101.4 5.27468 101.411 5.19096C101.431 5.05067 101.379 4.88096 101.576 4.81534C101.599 4.80855 101.615 4.75198 101.619 4.71804C101.648 4.47593 101.685 4.25644 101.83 4.03016C101.988 3.78578 101.938 3.38527 102.124 3.18841C102.377 2.91914 102.189 2.52316 102.499 2.28557C102.603 2.20638 102.556 1.93032 102.585 1.68141L102.581 1.67236ZM106.67 12.0879C106.552 11.624 106.507 11.185 106.319 10.8162C106.233 10.6465 106.197 10.4949 106.158 10.3252C106.136 10.2279 106.068 10.1441 106.025 10.0514C105.995 9.98802 105.968 9.9224 105.948 9.85451C105.862 9.56488 105.862 9.18247 105.672 9.00598C105.382 8.73897 105.602 8.35883 105.31 8.0873C105.135 7.92438 105.278 7.51255 105.061 7.22971C104.939 7.07131 104.993 6.79978 104.841 6.5803C104.674 6.33592 104.653 5.99424 104.567 5.69329C104.561 5.66614 104.567 5.61862 104.552 5.61183C104.285 5.48512 104.411 5.22038 104.337 5.02804C104.28 4.88549 104.135 4.77687 104.029 4.65242C103.979 4.74972 103.927 4.84476 103.877 4.94205C103.864 4.96695 103.861 4.99636 103.85 5.02125C103.721 5.33578 103.574 5.64351 103.47 5.96709C103.389 6.2273 103.463 6.50336 103.253 6.76811C103.124 6.93103 103.117 7.22971 103.024 7.4673C102.911 7.75693 102.658 8.02846 102.744 8.38372C102.748 8.39956 102.737 8.42897 102.723 8.4335C102.483 8.52401 102.558 8.73671 102.533 8.90868C102.522 8.98335 102.538 9.09196 102.495 9.12364C102.176 9.36123 102.318 9.77079 102.115 10.074C101.929 10.3478 101.916 10.737 101.825 11.0764C101.82 11.0945 101.814 11.1149 101.8 11.1262C101.481 11.4045 101.658 11.7507 101.635 12.0879H106.661H106.67Z" fill="white"/>
<path d="M90.9866 18.8783C90.1969 18.8783 89.4434 18.8828 88.6921 18.8715C88.6356 18.8715 88.5541 18.7719 88.5315 18.704C88.4998 18.609 88.5111 18.5004 88.5111 18.3963C88.5088 15.8213 88.5088 13.2485 88.4953 10.6735C88.4953 10.5354 88.3957 10.3974 88.3505 10.2571C88.3233 10.1689 88.2939 10.0761 88.2939 9.9856C88.2939 9.70728 88.1106 9.53983 87.9386 9.35881C87.9024 9.32261 87.8707 9.27283 87.8572 9.22531C87.787 8.9402 87.5902 8.79312 87.3322 8.68225C87.0969 8.58268 86.8797 8.43561 86.6489 8.32021C86.5764 8.284 86.4882 8.27042 86.4045 8.26816C85.9994 8.26137 85.5944 8.25232 85.1894 8.26816C85.0785 8.27269 84.9699 8.35867 84.859 8.40619C84.8183 8.42429 84.7708 8.46502 84.7346 8.45597C84.3906 8.37451 84.1802 8.68451 83.8838 8.74334C83.7638 8.76823 83.6597 8.90173 83.5602 8.99677C83.4154 9.13706 83.2706 9.27735 83.1461 9.43349C83.0375 9.56699 83.0465 9.74801 82.9176 9.9064C82.7456 10.1146 82.6913 10.4449 82.6483 10.7323C82.6008 11.0559 82.6189 11.3908 82.6166 11.7211C82.6166 13.8889 82.6166 16.0589 82.6166 18.2266C82.6166 18.7651 82.4944 18.8896 81.9604 18.8896C81.4422 18.8896 80.9241 18.8805 80.4059 18.8918C80.209 18.8964 80.1321 18.8194 80.1276 18.6384C80.1276 18.5728 80.123 18.5072 80.123 18.4415C80.123 12.9905 80.123 7.54181 80.123 2.09082C80.123 1.67673 80.1231 1.67447 80.5303 1.67447C81.096 1.67447 81.6617 1.66995 82.2274 1.679C82.5827 1.68352 82.6076 1.71973 82.6076 2.07498C82.6076 3.77205 82.6098 5.46912 82.6008 7.1662C82.6008 7.32006 82.499 7.46941 82.4741 7.62554C82.456 7.74546 82.4356 7.93101 82.5012 7.98079C82.5962 8.05773 82.7433 8.09167 82.8881 7.93101C83.2208 7.55992 83.5986 7.22955 83.9539 6.87882C84.2232 6.61182 84.5875 6.55299 84.9088 6.40138C85.3206 6.20905 85.7347 6.27467 86.1307 6.16832C86.3275 6.11401 86.5108 5.98277 86.7281 6.02124C86.8932 6.05065 87.0494 6.12985 87.2145 6.15927C87.4272 6.19547 87.6445 6.19547 87.8572 6.22036C88.0246 6.24073 88.2305 6.17058 88.3165 6.40138C88.321 6.41496 88.3482 6.41948 88.364 6.42627C88.6129 6.51226 88.8664 6.58919 89.1107 6.69102C89.2013 6.72722 89.2737 6.81547 89.3415 6.89014C89.595 7.17072 90.0611 7.24087 90.138 7.70473C90.1539 7.79298 90.2715 7.8586 90.3304 7.94233C90.4707 8.14371 90.6268 8.33604 90.7286 8.55553C90.7942 8.70035 90.7626 8.89042 90.7965 9.05334C90.8214 9.171 90.8915 9.27962 90.9323 9.39502C90.9617 9.481 90.9979 9.56925 91.0001 9.6575C91.0137 10.0625 91.0228 10.4676 91.0228 10.8726C91.025 13.4001 91.025 15.9276 91.0228 18.4529C91.0228 18.5818 91.0001 18.7131 90.9866 18.8805V18.8783Z" fill="white"/>
<path d="M49.472 10.0447C48.8724 10.0447 48.2049 10.0447 47.5374 10.0424C47.4808 10.0424 47.4039 10.0108 47.3722 9.9655C47.2658 9.81842 47.345 9.27988 47.4785 9.13507C47.5034 9.11018 47.5374 9.06945 47.5328 9.04456C47.4604 8.70514 47.7297 8.48113 47.8179 8.19828C47.8587 8.06252 47.9718 7.94259 48.0714 7.83398C48.2818 7.6077 48.4922 7.37916 48.7276 7.18004C48.8724 7.05785 49.0647 6.9945 49.2276 6.89267C49.4426 6.75917 49.6485 6.60982 49.8657 6.48085C49.9246 6.44464 50.0106 6.45369 50.0852 6.44464C50.2549 6.42654 50.4473 6.48311 50.5491 6.26815C50.5649 6.23421 50.669 6.23194 50.7346 6.22968C50.97 6.2161 51.2076 6.22515 51.4406 6.19347C51.5968 6.17311 51.7461 6.09844 51.8977 6.05545C51.9678 6.03508 52.0425 6.01924 52.1172 6.01924C52.3819 6.01472 52.6467 6.00567 52.9092 6.02377C53.02 6.03056 53.1241 6.1007 53.235 6.13691C53.3119 6.1618 53.3934 6.18442 53.4726 6.20026C53.8075 6.25909 54.1876 6.09844 54.4659 6.41523C54.475 6.42654 54.5044 6.42654 54.5202 6.42202C54.871 6.32698 55.1334 6.58946 55.3891 6.71844C55.6652 6.85873 56.0023 6.97865 56.1924 7.30675C56.3169 7.52172 56.5726 7.65748 56.7694 7.82945C56.783 7.84077 56.7988 7.85434 56.8056 7.87018C56.8984 8.09646 56.9867 8.32274 57.0817 8.54675C57.2084 8.84543 57.3442 9.14186 57.4686 9.44054C57.4958 9.50616 57.4935 9.58762 57.4935 9.66229C57.498 12.622 57.498 15.5839 57.5048 18.5436C57.5048 18.8016 57.3939 18.8921 57.1496 18.8876C56.5839 18.8808 56.0182 18.8876 55.4525 18.8853C55.2443 18.8853 55.0362 18.6636 55.0339 18.4463C55.0294 18.0594 55.0339 17.6725 55.0271 17.2878C55.0271 17.2177 54.9683 17.1475 54.9389 17.0796C54.8845 17.1271 54.8325 17.1769 54.7782 17.2244C54.5791 17.4077 54.3754 17.5865 54.1831 17.7766C53.9953 17.9598 53.8143 18.1499 53.631 18.3377C53.6174 18.3513 53.6106 18.3739 53.597 18.3807C53.3436 18.4803 53.0902 18.5731 52.8367 18.6726C52.7327 18.7133 52.6331 18.7676 52.5313 18.8174C52.4996 18.8333 52.4724 18.8717 52.4408 18.874C51.9226 18.9147 51.4497 19.227 50.9021 19.1252C50.6826 19.0844 50.4495 19.1161 50.2255 19.1048C50.0649 19.098 49.8771 19.1523 49.7843 18.9419C49.7775 18.9238 49.7345 18.9193 49.7096 18.9125C49.4087 18.8242 49.0692 18.7993 48.8203 18.6364C48.5443 18.4554 48.1958 18.3807 47.9899 18.0662C47.8474 17.8467 47.6052 17.6951 47.4061 17.5118C47.3925 17.5005 47.3722 17.4915 47.3654 17.4779C47.2726 17.2516 47.2251 16.9914 47.0803 16.8058C46.8495 16.5049 46.9106 16.1632 46.8495 15.8396C46.8178 15.6767 46.7069 15.5274 46.6888 15.3645C46.6752 15.2536 46.7703 15.1359 46.7997 15.016C46.8359 14.8621 46.8698 14.706 46.8744 14.5499C46.8879 14.1946 47.0486 13.9095 47.2681 13.647C47.2952 13.6153 47.3088 13.5633 47.3133 13.518C47.345 13.2691 47.5215 13.1356 47.7048 12.9999C47.7908 12.9342 47.8609 12.846 47.9469 12.7804C48.2094 12.5722 48.4719 12.3663 48.7434 12.1717C48.8045 12.1264 48.9018 12.1287 48.9855 12.1151C49.1417 12.088 49.3227 12.1513 49.4154 11.9341C49.4358 11.8843 49.6055 11.9002 49.7073 11.8821C49.9268 11.8459 50.1803 11.9409 50.3477 11.6988C50.3771 11.658 50.4903 11.6694 50.5649 11.6671C51.0084 11.6558 51.4519 11.6535 51.8932 11.6354C52.1466 11.6241 52.4204 11.7101 52.6354 11.477C52.6716 11.4363 52.7802 11.4567 52.8548 11.4544C53.4205 11.4453 53.9862 11.4431 54.5519 11.4295C54.8144 11.4227 55.0158 11.2055 55.018 10.9453C55.018 10.7099 55.0339 10.4724 55.0067 10.2393C54.9909 10.0967 54.9049 9.96324 54.8574 9.82521C54.837 9.76638 54.8099 9.6985 54.8144 9.63966C54.8416 9.30704 54.6537 9.10565 54.4116 8.91784C54.294 8.82507 54.208 8.6893 54.1107 8.5739C54.0994 8.56033 54.0948 8.53317 54.0835 8.52865C53.8278 8.43814 53.5767 8.28879 53.3164 8.27069C52.7259 8.22996 52.1308 8.24354 51.5357 8.25938C51.3207 8.2639 51.1012 8.22091 50.8998 8.44493C50.8025 8.55354 50.5287 8.56938 50.3907 8.72551C50.2617 8.87032 50.1463 9.02872 50.0354 9.18711C49.9404 9.32288 49.8635 9.47222 49.773 9.61025C49.6915 9.7347 49.6055 9.85689 49.472 10.0492V10.0447ZM53.2825 13.2194C53.2825 13.2307 53.2825 13.242 53.2825 13.2556C52.83 13.2556 52.3797 13.2556 51.9271 13.2556C51.8457 13.2556 51.7597 13.2714 51.6805 13.294C51.5266 13.337 51.3795 13.4049 51.2257 13.4388C51.0718 13.475 50.8976 13.4502 50.7595 13.5113C50.5333 13.6108 50.3409 13.8145 50.1101 13.8733C49.61 14 49.558 14.4571 49.4087 14.801C49.2955 15.0612 49.3815 15.412 49.3906 15.722C49.3906 15.7876 49.4426 15.8532 49.4743 15.9166C49.5127 15.9912 49.5693 16.0591 49.5942 16.1383C49.6757 16.3872 49.8205 16.5705 50.083 16.6406C50.135 16.6542 50.2074 16.6542 50.2368 16.6904C50.436 16.9303 50.7392 17.005 50.9994 17.0502C51.4203 17.1204 51.8615 17.0728 52.2959 17.0683C52.3684 17.0683 52.4724 17.0661 52.5064 17.0208C52.7236 16.7334 53.1196 16.9325 53.3843 16.6655C53.5178 16.5298 53.7645 16.4438 53.9274 16.2741C54.1107 16.084 54.3392 15.9279 54.4886 15.7152C54.613 15.5364 54.8325 15.4052 54.8121 15.1246C54.7986 14.9572 54.8619 14.7829 54.9049 14.6132C54.9298 14.5137 55.0067 14.4209 55.0135 14.3213C55.0316 14.1064 55.0226 13.8891 55.0226 13.6719C55.0226 13.2442 55.0022 13.2194 54.5859 13.2171C54.1537 13.2126 53.7192 13.2171 53.287 13.2171L53.2825 13.2194Z" fill="white"/>
<path d="M45.0268 13.2283C44.9205 13.2283 44.8096 13.2283 44.6987 13.2283C42.0875 13.2283 39.4763 13.2351 36.8628 13.2169C36.58 13.2169 36.3627 13.321 36.2835 13.5224C36.2111 13.708 36.1794 13.9637 36.3854 14.1741C36.4781 14.2691 36.4397 14.4931 36.4646 14.6561C36.4872 14.8099 36.408 15.0113 36.6456 15.0724C36.6569 15.0747 36.6727 15.1064 36.6705 15.1199C36.6297 15.3575 36.8085 15.4933 36.9194 15.6562C37.0755 15.887 37.2497 16.1042 37.4194 16.326C37.4398 16.3531 37.4805 16.3645 37.5145 16.378C37.7385 16.4731 38.0213 16.5115 38.1707 16.6722C38.3721 16.8894 38.6481 16.7763 38.811 16.9007C39.2002 17.1971 39.6188 17.041 40.0239 17.0682C40.2253 17.0817 40.4561 17.1361 40.6122 16.9053C40.6439 16.8577 40.7729 16.8804 40.8543 16.8645C40.9991 16.8396 41.1869 16.9053 41.248 16.6835C41.2526 16.6631 41.3114 16.645 41.3453 16.645C41.6282 16.645 41.7662 16.4346 41.9246 16.2558C42.083 16.0793 42.2527 15.9096 42.402 15.7264C42.4993 15.6087 42.5717 15.4684 42.6781 15.3032H44.9748C44.9228 15.5793 44.9047 15.8237 44.8255 16.0454C44.7463 16.2604 44.6037 16.4504 44.4883 16.6518C44.4566 16.7061 44.434 16.765 44.3978 16.8147C44.2756 16.9867 44.1625 17.1677 44.0244 17.3261C43.8547 17.5253 43.6737 17.7198 43.4791 17.8918C43.3343 18.0208 43.1578 18.1181 42.9904 18.2199C42.7731 18.3534 42.5514 18.4779 42.3319 18.6046C42.2934 18.6272 42.2504 18.6453 42.2074 18.6521C41.9947 18.6906 41.8047 18.7268 41.5965 18.8422C41.2865 19.0141 40.8905 19.0685 40.5262 19.0979C40.0012 19.1386 39.4718 19.125 38.9445 19.1069C38.6888 19.0979 38.3947 19.1997 38.1933 18.9236C38.1661 18.8874 38.0688 18.9033 38.0032 18.8965C37.8335 18.8784 37.6502 18.9191 37.5326 18.7223C37.5009 18.6702 37.3583 18.686 37.2656 18.6679C37.1298 18.6408 36.9488 18.7087 36.899 18.4937C36.8967 18.4801 36.8741 18.4643 36.8583 18.4575C36.6343 18.367 36.4035 18.2855 36.1862 18.1815C36.055 18.1181 35.9305 18.0276 35.8242 17.928C35.521 17.6384 35.2155 17.3465 34.9394 17.032C34.8105 16.8849 34.7516 16.679 34.6521 16.5047C34.5322 16.2988 34.4032 16.0974 34.2787 15.8961C34.2697 15.8802 34.2516 15.8666 34.247 15.8508C34.1565 15.5385 34.0728 15.2263 33.9778 14.9163C33.9393 14.7918 33.8714 14.6787 33.8262 14.5565C33.799 14.4886 33.7719 14.4162 33.7719 14.3461C33.7673 13.2237 33.7651 12.1014 33.7719 10.9813C33.7719 10.8954 33.8624 10.8139 33.885 10.7234C33.928 10.5559 33.9348 10.3772 33.9936 10.2165C34.1 9.93142 34.2335 9.65762 34.3557 9.3793C34.3624 9.36346 34.3896 9.35667 34.3941 9.3431C34.4869 9.11003 34.5684 8.87018 34.6724 8.64391C34.7313 8.51493 34.8218 8.39727 34.9123 8.28865C35.1273 8.03296 35.349 7.78179 35.5775 7.53515C35.6477 7.46048 35.7427 7.40844 35.8242 7.34282C35.9079 7.27493 35.9848 7.19574 36.0731 7.13238C36.2835 6.9853 36.4894 6.81786 36.718 6.70924C36.9691 6.58932 37.2497 6.52822 37.5145 6.43319C37.6276 6.39246 37.7294 6.32231 37.8403 6.27706C37.915 6.24764 37.9987 6.23406 38.0802 6.21822C38.4105 6.15939 38.7341 6.1956 39.078 6.0553C39.3699 5.93538 39.8044 5.88334 40.1483 6.14808C40.2366 6.21596 40.4018 6.18881 40.5307 6.19786C40.7185 6.20917 40.9312 6.16166 41.0896 6.23406C41.4313 6.38793 41.8454 6.34946 42.1328 6.6391C42.1554 6.66173 42.2074 6.65268 42.2391 6.66851C42.4224 6.76355 42.6238 6.83822 42.7822 6.9672C42.9632 7.11428 43.0944 7.31114 43.3456 7.3745C43.4497 7.40165 43.5425 7.508 43.6149 7.59851C43.7348 7.74559 43.8366 7.90398 43.9385 8.06238C44.1285 8.35654 44.3095 8.65522 44.4974 8.95164C44.52 8.99011 44.5743 9.01953 44.5788 9.05573C44.6082 9.28879 44.7123 9.49018 44.7938 9.70514C44.9657 10.1554 44.9906 10.66 45.0721 11.142C45.1287 11.4837 45.0223 11.8321 45.2305 12.1761C45.3323 12.3435 45.3549 12.6648 45.1332 12.8843C45.063 12.9522 45.063 13.0902 45.0223 13.2237L45.0268 13.2283ZM39.5238 11.4339C40.2954 11.4339 41.0693 11.4429 41.8409 11.4316C42.6577 11.4203 42.6328 11.6013 42.5785 10.6442C42.565 10.4224 42.6079 10.1984 42.3839 10.0084C42.2459 9.89069 42.2074 9.6531 42.1237 9.47208C42.1101 9.4404 42.0875 9.41325 42.0626 9.38836C41.9427 9.26617 41.8318 9.13492 41.7006 9.02857C41.4494 8.82945 41.2888 8.49909 40.9199 8.46288C40.8837 8.45836 40.8272 8.44705 40.8204 8.42668C40.7502 8.19588 40.5534 8.27281 40.3995 8.25019C40.2343 8.2253 40.0669 8.22077 39.904 8.18456C39.7682 8.15515 39.6347 8.05333 39.5057 8.06238C39.3541 8.07369 39.2138 8.19135 39.0599 8.22303C38.759 8.28639 38.4694 8.28413 38.1594 8.42894C37.8516 8.5715 37.6525 8.81135 37.3923 8.98106C37.1773 9.12135 37.0664 9.40872 36.8764 9.59879C36.6705 9.8047 36.5867 10.074 36.4985 10.3229C36.4148 10.5605 36.4646 10.8433 36.4464 11.1081C36.4283 11.366 36.537 11.4429 36.7904 11.4384C37.7045 11.4248 38.6164 11.4339 39.5306 11.4339H39.5238Z" fill="white"/>
<path d="M78.1321 10.5197H75.8331C75.7539 10.2595 75.686 9.99251 75.5842 9.73908C75.5344 9.61463 75.4326 9.50375 75.3375 9.40193C75.1362 9.18697 74.9438 8.9539 74.7085 8.78193C74.5433 8.65974 74.3487 8.55113 74.1654 8.44931C73.4866 8.07369 72.7829 8.31354 72.095 8.25697C71.957 8.24566 71.7895 8.2185 71.7149 8.4131C71.7035 8.44478 71.613 8.44704 71.5633 8.46741C71.2148 8.61901 70.8754 8.77741 70.64 9.09872C70.4387 9.37251 70.1852 9.61236 70.0155 9.902C69.8752 10.1396 69.83 10.4315 69.7349 10.6985C69.6942 10.8116 69.6286 10.9157 69.5833 11.0266C69.5562 11.0945 69.5268 11.1691 69.5268 11.2393C69.5222 12.1263 69.52 13.011 69.5268 13.898C69.5268 13.984 69.606 14.0677 69.6512 14.1515C69.6671 14.1831 69.7146 14.2148 69.7078 14.2397C69.6444 14.5837 69.8662 14.8461 69.9771 15.1358C70.0608 15.353 70.2214 15.5431 70.3663 15.7309C70.5246 15.9391 70.6876 16.1495 70.8776 16.326C71.0179 16.4572 71.2012 16.55 71.3754 16.6405C71.5519 16.731 71.7375 16.8102 71.9276 16.8623C72.1267 16.9166 72.3303 16.8623 72.5317 17.0207C72.6471 17.1134 72.9073 17.0433 73.0974 17.0161C73.2445 16.9958 73.3825 16.9166 73.5296 16.8826C73.7355 16.8374 73.9867 16.946 74.1247 16.6835C74.1428 16.6518 74.2288 16.645 74.2854 16.6473C74.5954 16.6541 74.7832 16.4708 74.9551 16.2423C75.1543 15.9753 75.3986 15.7399 75.5819 15.4639C75.7086 15.2693 75.7584 15.0272 75.858 14.8122C75.8942 14.7353 75.9734 14.6266 76.0345 14.6244C76.711 14.6108 77.3876 14.6153 78.0891 14.6153C78.0891 14.9615 78.1818 15.3281 78.0596 15.5996C77.9578 15.8282 77.9691 16.1042 77.8402 16.2717C77.6297 16.5409 77.5845 16.9007 77.2586 17.1202C76.9622 17.3216 76.7993 17.7153 76.5119 17.9371C76.2675 18.1271 76.082 18.4009 75.7199 18.4666C75.4235 18.5186 75.1543 18.72 74.8714 18.8558C74.8624 18.8603 74.8556 18.8648 74.8465 18.8648C74.4573 18.9485 74.0704 19.0798 73.6789 19.1047C73.0589 19.1454 72.4367 19.1205 71.8144 19.1092C71.6289 19.1069 71.4071 19.168 71.2917 18.9327C71.2804 18.9123 71.2216 18.9168 71.1854 18.9055C70.8822 18.8241 70.5699 18.7652 70.2803 18.6498C70.063 18.5639 69.8843 18.3874 69.6738 18.2787C69.5041 18.1905 69.3163 18.1679 69.176 18.0004C69.0154 17.8058 68.7891 17.6678 68.6058 17.4913C68.3931 17.2831 68.1827 17.0727 68.0039 16.8374C67.8749 16.6677 67.8025 16.4572 67.703 16.2649C67.6509 16.1653 67.5944 16.0658 67.5378 15.9685C67.5287 15.9549 67.5016 15.9481 67.4971 15.9345C67.4088 15.6653 67.3274 15.396 67.2391 15.1267C67.2052 15.0272 67.1554 14.9321 67.1169 14.8326C67.0852 14.7488 67.0513 14.6651 67.0377 14.5791C66.9925 14.3234 67.0966 14.0338 66.8431 13.8234C66.8024 13.7894 66.8205 13.6785 66.8205 13.6039C66.8182 13.0472 66.8115 12.4906 66.816 11.9362C66.8182 11.7303 66.8092 11.5402 66.9585 11.3366C67.0762 11.1737 67.0015 10.8795 67.04 10.6487C67.0626 10.5152 67.1396 10.3908 67.1916 10.264C67.2029 10.2392 67.2187 10.2143 67.2255 10.1894C67.3138 9.89069 67.3771 9.58069 67.4948 9.29332C67.5831 9.08062 67.7392 8.89507 67.8659 8.69821C67.875 8.68237 67.9044 8.67106 67.9021 8.65974C67.8931 8.28639 68.2121 8.09179 68.418 7.89493C68.719 7.60982 68.9317 7.18442 69.4091 7.1007C69.486 7.08712 69.5381 6.96267 69.6173 6.91063C69.8277 6.76807 70.0472 6.63683 70.2644 6.50333C70.2803 6.49428 70.2984 6.48523 70.3165 6.4807C70.769 6.39019 71.2216 6.30421 71.6719 6.20691C71.8008 6.17975 71.9208 6.1164 72.0475 6.07567C72.1267 6.05078 72.2081 6.02815 72.2896 6.02589C72.534 6.0191 72.7806 6.00779 73.025 6.02589C73.154 6.0372 73.2762 6.10961 73.4029 6.14808C73.4821 6.17297 73.5635 6.19333 73.645 6.20012C73.8803 6.2137 74.1179 6.20238 74.351 6.23632C74.4822 6.25443 74.6067 6.34041 74.7334 6.39472C74.7583 6.40603 74.7854 6.43545 74.8035 6.43092C75.1633 6.33362 75.3941 6.65946 75.7154 6.70698C75.8421 6.72508 75.953 6.8699 76.0707 6.95362C76.1612 7.01698 76.254 7.07807 76.3467 7.14143C76.4576 7.21836 76.5866 7.27946 76.6771 7.37676C76.797 7.50574 76.8853 7.66186 76.9848 7.80668C77.0776 7.94471 77.1432 8.11215 77.2654 8.21624C77.4691 8.39274 77.5641 8.6258 77.7021 8.83397C77.8605 9.07156 77.7904 9.37025 77.9307 9.51959C78.2226 9.83186 78.0664 10.1667 78.1366 10.5243L78.1321 10.5197Z" fill="white"/>
<path d="M66.3434 6.29064V8.4742C66.2166 8.4742 66.108 8.4742 65.9994 8.4742C65.5944 8.4742 65.1893 8.47873 64.7843 8.4742C64.3974 8.46741 64.0896 8.63938 63.8023 8.87471C63.6823 8.97201 63.5285 9.02858 63.4063 9.12588C63.1393 9.33632 63.0918 9.71646 62.8972 9.92916C62.6302 10.2165 62.8542 10.6238 62.5396 10.8524C62.4876 10.8908 62.517 11.0492 62.517 11.1533C62.517 13.5654 62.517 15.9775 62.5148 18.3896C62.5148 18.5458 62.4944 18.7019 62.4831 18.8852C61.759 18.8852 61.0621 18.9101 60.3697 18.8671C60.2 18.8558 60.0212 18.6544 60.0235 18.3942C60.0302 16.9234 60.028 15.4548 60.028 13.984C60.028 11.59 60.028 9.19603 60.028 6.80429C60.028 6.43319 60.2203 6.24086 60.5914 6.24086C61.0349 6.24086 61.4762 6.24086 61.9197 6.24086C62.3247 6.24086 62.4876 6.41056 62.4899 6.82238C62.4899 7.15275 62.4899 7.48085 62.4989 7.81121C62.4989 7.87683 62.5532 7.94019 62.5804 8.00581C62.6324 7.96508 62.6799 7.91304 62.7388 7.88589C62.913 7.80443 62.9379 7.65961 62.9718 7.4899C62.9945 7.36998 63.1053 7.2591 63.1981 7.16406C63.4312 6.92874 63.6416 6.621 63.929 6.50107C64.291 6.34947 64.6553 6.11867 65.0966 6.19108C65.212 6.21144 65.3455 6.10509 65.4745 6.07341C65.5785 6.04852 65.7007 6.01684 65.7958 6.04626C65.9723 6.10057 66.1374 6.1956 66.3456 6.2929L66.3434 6.29064Z" fill="white"/>
<path d="M12.2829 1.00476C12.2241 1.28534 12.3395 1.58403 12.0725 1.79899C12.0204 1.83972 12.0612 1.98454 12.0318 2.07052C11.9956 2.17461 11.9322 2.26964 11.8779 2.36694C11.8643 2.38957 11.8213 2.4122 11.8258 2.42578C11.9028 2.71767 11.5837 2.84891 11.5521 3.10008C11.5453 3.15438 11.4932 3.20869 11.448 3.24942C11.1063 3.54358 10.7669 3.84453 10.4116 4.12285C10.2691 4.23372 10.079 4.26766 9.91381 4.35817C9.61965 4.52109 9.24629 4.54598 8.90462 4.61613C8.73265 4.65007 8.63761 4.5573 8.63761 4.3808C8.63987 4.07985 8.53579 3.69971 8.6806 3.49833C8.89104 3.20643 8.73717 2.82176 9.04717 2.56607C9.16031 2.47329 9.16936 2.1995 9.32549 2.04563C9.5133 1.86235 9.67622 1.65644 9.85498 1.4641C9.9749 1.33512 10.1061 1.21746 10.2329 1.09301C10.251 1.07491 10.2645 1.04549 10.2872 1.03644C10.5202 0.941403 10.7646 0.866731 10.9886 0.755855C11.2036 0.647243 11.3891 0.468485 11.6109 0.384762C11.7851 0.319142 12.0001 0.328194 12.1879 0.362135C12.2377 0.371186 12.258 0.588412 12.2761 0.712864C12.2897 0.814688 12.2784 0.918776 12.2784 1.00476H12.2829Z" fill="white"/>
</svg>
