<svg width="93" height="80" viewBox="0 0 93 80" fill="none" xmlns="http://www.w3.org/2000/svg">
<path d="M65.784 44.6908C65.1319 44.4768 64.5383 44.3718 63.9507 44.2405C60.9402 43.5762 57.8913 43.1805 54.8223 42.9221C52.8961 42.7585 50.9678 42.6374 49.0335 42.5889C46.4087 42.5223 43.7858 42.5404 41.1671 42.6717C37.8073 42.8393 34.4596 43.132 31.1381 43.6853C29.7773 43.9114 28.4285 44.1941 27.0939 44.5454C26.7365 44.6383 26.7324 44.6504 26.9364 44.9654C27.528 45.878 27.9883 46.8432 28.1559 47.9274C28.5779 50.6552 27.8046 52.9853 25.7835 54.8752C22.7952 57.6716 17.9655 57.4617 15.1528 54.429C11.9223 50.946 12.6471 45.3854 16.6732 42.8635C18.6237 41.6419 20.7195 41.4057 22.9224 42.0316C23.0031 42.0538 23.0839 42.0801 23.1627 42.1063C23.5443 42.2234 23.5463 42.2255 23.7442 41.8701C24.6023 40.3275 25.4604 38.7829 26.3165 37.2403C28.382 33.5211 30.4456 29.7999 32.5091 26.0786C34.5403 22.418 36.5716 18.7553 38.6048 15.0947C39.0288 14.3294 39.4427 13.5581 39.889 12.807C40.0747 12.4941 40.0626 12.2679 39.8748 11.9469C38.2494 9.18676 38.2313 6.39837 39.9798 3.70892C41.3468 1.60702 43.3598 0.50055 45.8857 0.349117C49.7523 0.118938 53.2514 2.92752 53.7784 6.9193C54.0207 8.75064 53.6411 10.4709 52.6093 12.0176C52.4014 12.3305 52.4014 12.5546 52.5811 12.8757C55.4906 18.089 58.3901 23.3064 61.2895 28.5258C63.2319 32.0249 65.1702 35.5281 67.1106 39.0272C67.6416 39.9822 68.1727 40.9393 68.7077 41.8923C68.9177 42.2679 68.8995 42.2557 69.3336 42.1205C71.9767 41.2886 74.4299 41.652 76.6045 43.4006C78.3167 44.7756 79.2737 46.5908 79.3807 48.7956C79.5281 51.8364 78.2823 54.2028 75.6938 55.7757C72.5481 57.6878 68.8814 56.868 66.6704 54.8146C64.3263 52.636 63.5953 49.0723 64.9603 46.1001C65.1783 45.6277 65.4428 45.1814 65.7881 44.6928L65.784 44.6908ZM28.0489 40.9494C40.1636 38.7162 52.2823 38.7102 64.3989 40.9797C64.4333 40.7858 64.3384 40.6788 64.2737 40.5657C63.3692 38.9323 62.4646 37.3008 61.558 35.6674C59.1311 31.3021 56.7041 26.9388 54.2792 22.5714C52.8839 20.0576 51.4928 17.5398 50.0976 15.026C49.8573 14.5919 49.8492 14.5919 49.4515 14.7656C47.2789 15.7145 45.1144 15.6984 42.958 14.707C42.6148 14.5495 42.6107 14.5495 42.4229 14.8867C41.1549 17.1643 39.8869 19.4418 38.621 21.7214C37.1349 24.3967 35.6549 27.0761 34.1708 29.7514C32.18 33.3394 30.1871 36.9253 28.1983 40.5133C28.1276 40.6425 28.0126 40.7596 28.0529 40.9474L28.0489 40.9494ZM16.2533 49.2883C16.2573 51.7314 18.2421 53.7041 20.6973 53.7021C23.1788 53.7021 25.1555 51.7193 25.1474 49.2439C25.1373 46.7927 23.1162 44.7998 20.6529 44.814C18.238 44.8281 16.2492 46.8512 16.2553 49.2883H16.2533ZM71.799 53.7021C74.2825 53.7122 76.2854 51.7415 76.2935 49.2802C76.3016 46.8391 74.2764 44.814 71.8272 44.814C69.4124 44.814 67.4155 46.7947 67.4034 49.2015C67.3913 51.7133 69.3235 53.692 71.799 53.7021ZM50.6952 7.87434C50.7921 5.73408 48.8922 3.43836 46.2693 3.45855C43.8 3.47672 41.7829 5.46352 41.8132 7.91674C41.8455 10.5093 43.9938 12.3346 46.2613 12.3386C48.7145 12.3426 50.7942 10.2306 50.6932 7.87434H50.6952Z" fill="white"/>
<path d="M6.23807 66.2993C6.59142 66.2993 6.94476 66.3134 7.29811 66.2952C7.56261 66.2811 7.68578 66.3841 7.76856 66.6304C8.11585 67.648 8.48534 68.6596 8.84273 69.6752C9.94718 72.8149 11.0537 75.9546 12.152 79.0964C12.3943 79.7889 12.4468 79.7667 11.6715 79.7627C11.201 79.7607 10.7286 79.7485 10.2581 79.7667C9.97545 79.7788 9.83815 79.6839 9.75537 79.4053C9.54134 78.6986 9.29501 78 9.05473 77.3014C8.90936 76.8794 8.9033 76.8774 8.44496 76.8774C6.94678 76.8774 5.45062 76.8774 3.95244 76.8774C3.5042 76.8774 3.50218 76.8814 3.36286 77.3196C3.14682 78.0081 2.92068 78.6966 2.7228 79.3912C2.64608 79.6617 2.52291 79.7768 2.23014 79.7667C1.62441 79.7465 1.01868 79.7647 0.412943 79.7607C-0.05549 79.7566 -0.0655868 79.7445 0.0898847 79.3124C0.624949 77.8243 1.16203 76.3403 1.69912 74.8542C2.67636 72.1506 3.65563 69.4471 4.63288 66.7435C4.73922 66.4487 4.95325 66.3006 5.27496 66.2993C5.59398 66.2993 5.91502 66.2993 6.23404 66.2993H6.23807ZM6.22192 69.3481C5.88877 70.0568 4.45116 74.1839 4.40069 74.5453C4.91354 74.6341 7.67568 74.618 8.08354 74.511C7.46973 72.8089 6.85592 71.1088 6.22192 69.3481Z" fill="white"/>
<path d="M26.8696 73.0613C26.8696 71.026 26.8696 68.9928 26.8696 66.9575C26.8696 66.8404 26.8756 66.7213 26.8696 66.6042C26.8615 66.4063 26.9645 66.3336 27.1482 66.3417C27.2492 66.3457 27.3501 66.3417 27.4511 66.3417C28.9816 66.3417 30.51 66.3417 32.0405 66.3417C32.6685 66.3417 33.2803 66.4325 33.8719 66.6425C34.9925 67.0383 35.6628 67.8358 35.8021 69.0049C35.9435 70.1901 35.9495 71.3915 35.7981 72.5767C35.6467 73.7659 34.9501 74.5594 33.8093 74.9512C33.1652 75.1733 32.4948 75.2217 31.8204 75.2338C31.1138 75.2459 30.4091 75.2338 29.7024 75.2379C29.1976 75.2399 29.1936 75.2439 29.1916 75.7346C29.1895 76.8612 29.1996 77.9879 29.1875 79.1146C29.1794 79.9404 29.1794 79.7788 28.501 79.791C28.081 79.799 27.6611 79.797 27.2411 79.791C26.8837 79.7849 26.8756 79.7788 26.8736 79.4194C26.8676 78.5613 26.8736 77.7052 26.8716 76.8471C26.8716 75.5872 26.8716 74.3252 26.8716 73.0653L26.8696 73.0613ZM29.1734 70.7292C29.1734 71.4016 29.1774 72.0759 29.1714 72.7483C29.1714 72.9704 29.234 73.0976 29.4843 73.0936C30.4757 73.0774 31.4691 73.14 32.4585 73.037C33.2076 72.9583 33.5064 72.6473 33.5286 71.8962C33.5508 71.1411 33.5488 70.3819 33.5266 69.6268C33.5064 68.9524 33.2681 68.6919 32.618 68.5566C32.4867 68.5284 32.3515 68.5062 32.2182 68.5041C31.3096 68.4981 30.401 68.5041 29.4924 68.492C29.2562 68.49 29.1633 68.5728 29.1673 68.8131C29.1774 69.4531 29.1714 70.0912 29.1714 70.7312L29.1734 70.7292Z" fill="white"/>
<path d="M15.2546 73.0876C15.2546 71.0543 15.2546 69.0191 15.2546 66.9858C15.2546 66.8506 15.2546 66.7173 15.2567 66.582C15.2567 66.4144 15.3435 66.3377 15.507 66.3417C15.5414 66.3417 15.5737 66.3417 15.608 66.3417C17.3222 66.3417 19.0385 66.3276 20.7527 66.3518C21.3564 66.3599 21.952 66.4932 22.5154 66.7395C23.3795 67.1171 23.9065 67.7693 24.1307 68.6758C24.2155 69.0191 24.2659 69.3684 24.2639 69.7238C24.2619 70.4123 24.2639 71.1028 24.2639 71.7913C24.2639 71.8256 24.2639 71.858 24.2639 71.8923C24.2134 73.8145 23.1696 74.9512 21.2534 75.1632C20.8193 75.2117 20.3832 75.244 19.945 75.2379C19.3393 75.2299 18.7356 75.2359 18.1299 75.2379C17.5746 75.2379 17.5726 75.2379 17.5726 75.777C17.5726 76.9199 17.5726 78.0627 17.5726 79.2075C17.5726 79.3085 17.5665 79.4094 17.5726 79.5104C17.5887 79.7345 17.4777 79.7991 17.2677 79.7971C16.6963 79.789 16.1249 79.789 15.5535 79.7971C15.3374 79.7991 15.2446 79.7103 15.2546 79.4983C15.2607 79.3812 15.2546 79.262 15.2546 79.1449C15.2546 77.1278 15.2546 75.1107 15.2546 73.0936V73.0876ZM17.5726 70.7495C17.5726 71.4218 17.5746 72.0942 17.5726 72.7645C17.5726 72.9543 17.6049 73.0937 17.8411 73.0916C18.8487 73.0775 19.8582 73.1421 20.8617 73.0351C21.6391 72.9523 21.9197 72.6313 21.9359 71.8479C21.948 71.1593 21.944 70.4708 21.9359 69.7823C21.9278 68.9121 21.6471 68.6072 20.783 68.5123C20.7002 68.5022 20.6154 68.4961 20.5306 68.4961C19.6563 68.4961 18.7841 68.5022 17.9098 68.4881C17.6493 68.484 17.5584 68.5708 17.5665 68.8353C17.5827 69.4734 17.5726 70.1114 17.5726 70.7495Z" fill="white"/>
<path d="M91.2421 77.4953C91.3289 77.2893 91.2945 77.1056 91.2945 76.9319C91.2966 73.6024 91.2966 70.2729 91.2945 66.9434C91.2945 66.2549 91.2824 66.3437 91.8922 66.3437C92.6857 66.3437 92.6029 66.2569 92.6029 67.0322C92.6029 71.0341 92.6029 75.038 92.6029 79.0399C92.6029 79.1247 92.6029 79.2075 92.6029 79.2923C92.6002 79.622 92.4333 79.7883 92.1022 79.791C91.866 79.791 91.6277 79.7647 91.3975 79.797C91.0321 79.8475 90.8584 79.6698 90.7009 79.369C89.4026 76.8814 88.0922 74.3979 86.7859 71.9144C86.2226 70.8443 85.6612 69.7722 85.0939 68.702C85.0272 68.5748 84.9848 68.4254 84.8112 68.3245C84.7264 68.5122 84.7587 68.694 84.7587 68.8676C84.7567 72.2981 84.7587 75.7285 84.7567 79.159C84.7567 79.8778 84.7991 79.791 84.1429 79.7869C83.3756 79.7829 83.4584 79.9101 83.4584 79.0823C83.4564 75.0622 83.4584 71.0442 83.4584 67.0242C83.4584 66.907 83.4685 66.7879 83.4584 66.6708C83.4321 66.3962 83.5634 66.3255 83.8158 66.3356C84.2519 66.3518 84.69 66.3518 85.1262 66.3356C85.3786 66.3255 85.5179 66.4164 85.633 66.6446C86.3942 68.1609 87.1715 69.6712 87.9428 71.1835C88.9504 73.1602 89.9579 75.1369 90.9654 77.1136C91.0301 77.2408 91.0725 77.3903 91.2421 77.4932V77.4953Z" fill="white"/>
<path d="M60.69 73.0473C60.69 73.9902 60.7041 74.9311 60.6859 75.874C60.6678 76.8372 60.4497 77.7377 59.8036 78.4948C59.2928 79.0905 58.6466 79.4721 57.9056 79.678C56.5488 80.0556 55.1798 80.0738 53.8189 79.7023C52.0098 79.2076 50.974 77.9053 50.9437 76.0275C50.9114 74.0265 50.9074 72.0236 50.9437 70.0206C50.9801 68.0157 52.1895 66.6629 54.2813 66.2449C55.3797 66.0248 56.4902 66.0289 57.5846 66.3055C59.634 66.8203 60.6718 68.1489 60.688 70.273C60.694 71.1978 60.688 72.1245 60.688 73.0493L60.69 73.0473ZM59.4886 73.0372C59.4886 72.7848 59.4886 72.5324 59.4886 72.28C59.4846 71.5067 59.5108 70.7334 59.4704 69.9621C59.3957 68.5305 58.6527 67.6603 57.2595 67.3352C56.3287 67.1192 55.3878 67.1252 54.461 67.3352C53.0194 67.6603 52.2582 68.6234 52.2521 70.1095C52.244 72.0761 52.242 74.0427 52.2521 76.0093C52.2602 77.4489 53.0093 78.3838 54.4085 78.719C55.1516 78.8966 55.9006 78.9067 56.6598 78.8341C58.5154 78.6564 59.4745 77.6286 59.4866 75.761C59.4926 74.8544 59.4866 73.9458 59.4866 73.0392L59.4886 73.0372Z" fill="white"/>
<path d="M68.4349 78.2162C68.8387 77.1016 69.2304 76.0295 69.6181 74.9573C70.6054 72.2234 71.5907 69.4875 72.5781 66.7537C72.7255 66.3458 72.7295 66.3276 73.1394 66.3478C73.4463 66.364 73.8643 66.1782 74.0339 66.4488C74.1691 66.6668 73.9046 67.0081 73.8037 67.2887C72.362 71.3047 70.9143 75.3207 69.4687 79.3347C69.3596 79.6363 69.149 79.7877 68.8367 79.789C68.5681 79.789 68.2976 79.7931 68.029 79.789C67.4697 79.781 67.5323 79.9001 67.29 79.258C67.076 78.6927 66.8822 78.1192 66.6803 77.5498C65.4123 73.9881 64.1422 70.4264 62.8742 66.8667C62.6885 66.3438 62.6865 66.3357 63.2276 66.3438C64.2614 66.3599 64.011 66.1722 64.3664 67.1555C65.6445 70.695 66.9084 74.2405 68.1805 77.782C68.2289 77.9193 68.241 78.0829 68.4369 78.2162H68.4349Z" fill="white"/>
<path d="M41.2305 73.0755C41.2305 71.0402 41.2305 69.007 41.2305 66.9717C41.2305 66.8365 41.2305 66.7032 41.2365 66.5679C41.2406 66.4306 41.3092 66.3499 41.4526 66.3438C41.4687 66.3438 41.4869 66.3438 41.503 66.3398C42.5974 66.2126 42.6257 66.2348 42.6257 67.321V77.6609C42.6257 77.7275 42.6257 77.7962 42.6257 77.8628C42.6277 78.412 42.6277 78.414 43.1749 78.414C44.8568 78.414 46.5367 78.414 48.2186 78.414C48.3357 78.414 48.4548 78.4181 48.572 78.414C48.7658 78.408 48.8405 78.5049 48.8365 78.6927C48.8304 78.9612 48.8284 79.2318 48.8365 79.5003C48.8445 79.7244 48.7315 79.7911 48.5275 79.789C48.0228 79.783 47.518 79.789 47.0152 79.789C45.2828 79.789 43.5524 79.789 41.8201 79.789C41.1861 79.789 41.2325 79.8395 41.2325 79.1793C41.2325 77.144 41.2325 75.1108 41.2325 73.0755H41.2305Z" fill="white"/>
<path d="M76.8883 73.0492C76.8883 71.0321 76.8883 69.013 76.8883 66.9959C76.8883 66.8606 76.8903 66.7274 76.8923 66.5921C76.8943 66.4286 76.9751 66.3438 77.1407 66.3438C77.4435 66.3438 77.7464 66.3438 78.0493 66.3438C78.1946 66.3438 78.2673 66.4124 78.2714 66.5558C78.2754 66.6567 78.2774 66.7577 78.2774 66.8586C78.2774 70.9958 78.2774 75.1309 78.2774 79.2681C78.2774 79.3529 78.2734 79.4357 78.2774 79.5205C78.2855 79.7082 78.2047 79.7971 78.0109 79.793C77.7424 79.785 77.4718 79.7829 77.2032 79.793C76.9549 79.8052 76.8741 79.682 76.8883 79.4558C76.8943 79.3387 76.8883 79.2196 76.8883 79.1025C76.8883 77.0854 76.8883 75.0663 76.8883 73.0492Z" fill="white"/>
</svg>
