<svg width="123" height="37" viewBox="0 0 123 37" fill="none" xmlns="http://www.w3.org/2000/svg">
<path d="M27.9368 12.0651C27.9888 12.8595 27.4903 13.4047 27.062 13.9759C26.6803 14.4847 26.265 14.965 25.8704 15.4634C25.3745 16.0891 24.8579 16.6991 24.3958 17.3507C23.7182 18.3087 22.8979 19.1524 22.2333 20.1207C21.9399 20.5465 21.6388 20.9697 21.2701 21.3435C21.104 21.5122 21.0235 21.7485 20.7795 21.8705C20.3044 22.1041 19.8812 21.9743 19.6216 21.4941C19.24 20.7853 18.7961 20.1078 18.4638 19.3757C18.1289 18.6358 17.7031 17.9426 17.3371 17.2209C16.984 16.52 16.5842 15.8346 16.1948 15.1493C15.8703 14.5807 15.5744 13.9836 15.281 13.3917C14.9202 12.6648 14.4762 11.9769 14.1284 11.2448C13.7701 10.4945 13.7649 9.71571 14.2867 9.02256C14.741 8.41768 15.2836 7.8751 15.712 7.25204C16.1455 6.6212 16.6491 6.04487 17.0983 5.42701C17.402 5.01424 17.7343 4.61184 18.0666 4.21724C18.4897 3.7162 18.8298 3.15286 19.2504 2.65181C19.6087 2.22346 19.9202 1.75877 20.2732 1.32782C20.4212 1.14869 20.5588 0.969562 20.6938 0.780049C21.1014 0.203722 21.5479 0.224491 22.0541 0.63467C22.3423 0.868316 22.3813 1.21619 22.5526 1.50175C22.9057 2.08587 23.2665 2.67258 23.5391 3.29564C23.7805 3.8486 24.1492 4.32887 24.3413 4.9078C24.4555 5.25048 24.7333 5.53864 24.8891 5.87353C25.1279 6.38495 25.4524 6.84446 25.699 7.35589C25.8885 7.74789 26.1092 8.1373 26.3377 8.51892C26.5999 8.95247 26.7946 9.43274 27.0542 9.87147C27.3631 10.3933 27.6097 10.9462 27.8745 11.4888C27.9628 11.6705 27.9135 11.873 27.9316 12.0626L27.9368 12.0651Z" fill="white"/>
<path d="M12.7943 23.0881C11.0757 23.0881 9.35714 23.057 7.63854 23.1011C6.69357 23.1244 5.97965 22.7402 5.50457 22.0004C5.18785 21.5071 4.85556 21.0009 4.67903 20.4116C4.56999 20.0507 4.29481 19.7418 4.11568 19.3965C3.71848 18.6333 3.23821 17.9167 2.93447 17.099C2.75794 16.6265 2.47756 16.1956 2.23872 15.7464C1.82855 14.9728 1.3976 14.2148 1.03415 13.4152C0.779735 12.8544 0.411093 12.343 0.141103 11.7874C-0.170425 11.1488 0.0216832 10.5257 0.839444 10.5257C4.41682 10.5257 7.9942 10.5128 11.5742 10.5076C12.6697 10.5076 13.3681 11.1125 13.8509 12.0315C14.2377 12.7687 14.622 13.506 15.0088 14.2407C15.2891 14.7729 15.5565 15.3129 15.8317 15.8477C16.0368 16.2449 16.2159 16.6577 16.4392 17.0393C16.6002 17.3145 16.7897 17.5974 16.9506 17.8778C17.1142 18.1634 17.1817 18.506 17.3764 18.7864C17.7346 19.2978 17.9371 19.8872 18.2383 20.4271C18.5264 20.9438 18.7082 21.5071 19.0249 22.0081C19.326 22.4858 19.0379 23.0595 18.4745 23.0621C16.582 23.0751 14.6921 23.0673 12.7995 23.0673C12.7995 23.0751 12.7995 23.0803 12.7995 23.0881H12.7943Z" fill="white"/>
<path d="M33.1453 19.5729C33.1453 17.766 33.1323 15.9592 33.1531 14.1549C33.1583 13.6149 33.3686 13.1087 33.5737 12.6076C33.9553 11.6809 34.6225 10.9643 35.3312 10.2997C35.6817 9.97264 36.1516 9.74419 36.6059 9.56766C37.4262 9.24834 38.2881 9.09257 39.176 9.17565C39.6978 9.22497 40.2196 9.2769 40.6817 9.58064C40.8712 9.70525 41.1127 9.74159 41.3281 9.82467C41.9512 10.0713 42.3951 10.5412 42.8858 10.9514C43.2674 11.2707 43.4439 11.7613 43.7191 12.1715C43.9086 12.4545 43.9709 12.7868 44.0722 13.1061C44.5498 14.617 44.3577 16.1669 44.3759 17.7011C44.4045 20.1336 44.3837 22.5688 44.3837 25.0013C44.3837 25.3881 44.3214 25.4556 43.9372 25.4556C43.4829 25.4556 43.0286 25.4374 42.5742 25.4634C42.2523 25.4815 42.1485 25.3803 42.1511 25.0506C42.1667 23.1139 42.1589 21.1799 42.1589 19.2432C42.1589 18.994 42.1485 18.7448 42.1589 18.4981C42.1667 18.2619 42.0732 18.184 41.8344 18.1866C40.2118 18.1944 38.5893 18.1788 36.9667 18.1918C36.6682 18.1918 36.5773 18.1087 36.5929 17.8128C36.6163 17.3169 36.6007 16.8185 36.5981 16.32C36.5981 16.063 36.6838 15.9384 36.9771 15.941C38.5659 15.9514 40.1573 15.9384 41.7461 15.9488C42.055 15.9488 42.2134 15.8943 42.1641 15.5438C42.1329 15.3205 42.1511 15.0895 42.1641 14.8636C42.2134 14.0069 41.8967 13.2671 41.3878 12.6128C40.8141 11.8782 40.069 11.4264 39.1059 11.4212C38.7061 11.4187 38.3063 11.4368 37.9065 11.4446C37.5716 11.4498 37.3224 11.6835 37.042 11.8107C36.6396 11.9924 36.2995 12.3013 36.027 12.6751C35.4766 13.4306 35.2326 14.2639 35.2352 15.1959C35.2481 18.4722 35.2403 21.751 35.2378 25.0272C35.2378 25.4608 35.2378 25.4608 34.7912 25.4608C34.3811 25.4608 33.9683 25.44 33.5581 25.466C33.2388 25.4867 33.1297 25.3907 33.1349 25.0584C33.1531 23.7811 33.1401 22.5065 33.1401 21.2292C33.1401 20.6788 33.1401 20.1259 33.1401 19.5755H33.1453V19.5729Z" fill="white"/>
<path d="M45.6244 24.6614C45.6244 22.9428 45.5933 21.2216 45.64 19.503C45.6582 18.7891 45.9385 18.1167 46.2345 17.4547C46.411 17.0575 46.803 16.8083 46.8783 16.3514C46.9172 16.1125 47.221 16.0476 47.3923 15.9282C47.7921 15.6504 48.114 15.2818 48.5398 15.0378C48.9396 14.8067 49.3575 14.6588 49.7963 14.5134C50.4167 14.3057 51.0268 14.3862 51.6421 14.3602C52.195 14.3368 52.7298 14.4043 53.2283 14.7029C53.6956 14.9833 54.2719 15.0404 54.6976 15.422C55.3389 15.9957 55.949 16.5954 56.341 17.3768C56.9017 18.4905 57.0211 19.6899 56.8498 20.8919C56.7511 21.5773 56.4578 22.2393 56.1021 22.8597C55.7231 23.5191 55.1623 23.9942 54.6042 24.4771C54.3654 24.6848 54.0694 24.786 53.7968 24.9314C53.3788 25.1546 52.9219 25.2793 52.478 25.435C52.4001 25.4636 52.3067 25.4584 52.221 25.461C51.7122 25.4662 51.2033 25.4506 50.6971 25.4766C50.3025 25.4973 49.9183 25.4324 49.5756 25.2663C49.3134 25.1391 48.9993 25.1728 48.763 24.9599C48.68 24.8847 48.5969 24.8379 48.5969 24.7159C48.5969 23.9916 48.5969 23.2673 48.5969 22.543C48.5969 22.4703 48.5839 22.3795 48.6878 22.3639C48.7682 22.3509 48.8279 22.3639 48.911 22.4288C49.3887 22.8026 49.869 23.1687 50.4998 23.2777C50.7153 23.314 50.9308 23.366 51.154 23.3945C51.5538 23.4438 51.9173 23.3011 52.2833 23.2024C52.7558 23.0726 53.2049 22.8987 53.5684 22.53C54.0512 22.0394 54.4251 21.502 54.6431 20.8348C54.7755 20.4324 54.8482 20.0352 54.7833 19.6406C54.6457 18.7865 54.3913 17.9635 53.6826 17.3872C53.2542 17.0393 52.7973 16.7642 52.2392 16.598C51.6732 16.4293 51.1255 16.4033 50.5959 16.5227C49.5029 16.7719 48.6748 17.4054 48.1919 18.4542C47.9557 18.9656 47.857 19.4822 47.857 20.0456C47.8674 23.3218 47.8622 26.6007 47.8596 29.8769C47.8596 30.3208 47.8596 30.3234 47.4235 30.3234C46.938 30.3234 46.45 30.3026 45.9645 30.3286C45.6582 30.3442 45.6088 30.217 45.6114 29.9548C45.6192 28.192 45.6166 26.4293 45.6166 24.6666H45.6244V24.6614Z" fill="white"/>
<path d="M60.0067 24.7055C60.0067 26.4475 59.999 28.1869 60.0119 29.9288C60.0119 30.2352 59.9315 30.3468 59.6147 30.3286C59.1397 30.3026 58.6646 30.3208 58.1869 30.3156C57.7689 30.313 57.7637 30.3104 57.7637 29.8769C57.7637 27.7248 57.7689 25.5726 57.7689 23.4205C57.7689 22.1873 57.7767 20.9542 57.7637 19.7237C57.7611 19.4225 57.8286 19.1448 57.9273 18.8748C58.1194 18.3478 58.2129 17.7922 58.4257 17.2678C58.7139 16.5539 59.2799 16.097 59.8276 15.6141C60.3494 15.1546 60.9673 14.8431 61.5955 14.6016C61.972 14.4563 62.4003 14.3213 62.8468 14.3524C63.3738 14.3862 63.9112 14.3317 64.433 14.3914C64.8874 14.4433 65.3365 14.5783 65.7622 14.773C66.6812 15.1935 67.4107 15.8374 68.0104 16.637C68.431 17.1977 68.688 17.8182 68.8801 18.5061C69.0748 19.2071 69.0021 19.8872 69.0203 20.5752C69.0385 21.258 68.7841 21.8758 68.4128 22.4392C68.309 22.5949 68.2882 22.7741 68.1636 22.935C67.5457 23.7294 66.8578 24.4278 65.9543 24.8899C65.2586 25.2455 64.5369 25.4999 63.7321 25.4844C63.0987 25.4714 62.4626 25.4921 61.85 25.2922C61.5047 25.178 61.1672 25.0404 60.8271 24.908C60.7181 24.8665 60.7129 24.7549 60.7129 24.6614C60.7129 23.9371 60.7129 23.2128 60.7181 22.4885C60.7181 22.3898 60.7051 22.26 60.8349 22.2159C60.9491 22.177 60.9907 22.2782 61.0608 22.3457C61.5644 22.8364 62.1693 23.1894 62.8442 23.3426C63.2804 23.4412 63.7425 23.4101 64.2072 23.3037C65.0249 23.1141 65.6091 22.6209 66.1542 22.0394C66.4242 21.7512 66.5722 21.3904 66.7461 21.0477C66.9824 20.5804 66.9642 20.069 66.9253 19.5679C66.8604 18.7631 66.5021 18.0856 65.9569 17.4963C65.6324 17.1458 65.2404 16.8836 64.8173 16.7019C64.1605 16.4215 63.4336 16.3332 62.7456 16.4942C61.8837 16.6967 61.1308 17.164 60.609 17.9064C60.4247 18.166 60.3339 18.4906 60.1937 18.7839C59.9574 19.2798 60.0093 19.8093 60.0067 20.3312C60.0067 21.7901 60.0067 23.2517 60.0067 24.7107V24.7055Z" fill="white"/>
<path d="M110.06 25.466C109.688 25.466 109.405 25.4816 109.125 25.4634C108.723 25.4374 108.346 25.3076 107.962 25.1804C107.523 25.035 107.139 24.8222 106.76 24.5911C106.519 24.4457 106.332 24.2147 106.103 24.0433C105.667 23.7162 105.361 23.2801 105.096 22.8258C104.823 22.3611 104.699 21.8159 104.491 21.3253C104.291 20.8554 104.33 20.3933 104.333 19.9623C104.333 19.5028 104.231 19.0122 104.483 18.5293C104.652 18.2022 104.743 17.805 104.896 17.4467C105.078 17.021 105.319 16.6342 105.615 16.2863C105.908 15.941 106.269 15.6632 106.604 15.3621C106.918 15.0791 107.31 14.9519 107.671 14.765C108.567 14.3029 109.533 14.3366 110.498 14.36C111.116 14.3756 111.661 14.617 112.235 14.8117C112.78 14.996 113.201 15.3465 113.65 15.6503C114.063 15.9306 114.343 16.3798 114.629 16.7977C114.849 17.1196 115.057 17.4441 115.127 17.8439C115.174 18.1035 115.052 18.2489 114.86 18.358C114.4 18.6202 113.948 18.8902 113.499 19.1653C113.125 19.3938 112.721 19.5937 112.318 19.7884C111.991 19.9467 111.703 20.2115 111.358 20.3491C110.74 20.5984 110.259 21.0682 109.655 21.3486C109.322 21.5018 108.982 21.7043 108.689 21.9509C108.598 22.0288 108.479 22.0574 108.346 21.8912C108.115 21.6004 108.066 21.2292 107.845 20.941C107.71 20.7645 107.627 20.5438 107.482 20.3751C107.326 20.1934 107.448 20.0506 107.554 19.9987C108.003 19.7754 108.419 19.5002 108.852 19.251C109.32 18.9836 109.782 18.7084 110.259 18.4618C110.742 18.2126 111.178 17.8803 111.679 17.6622C111.814 17.6051 111.986 17.5194 112.007 17.3273C112.03 17.1274 111.835 17.0729 111.731 17.021C111.378 16.8393 111.043 16.6394 110.615 16.59C110.317 16.5537 110.008 16.4447 109.706 16.4888C108.608 16.6497 107.7 17.1041 107.069 18.0906C106.742 18.5994 106.602 19.1394 106.493 19.6949C106.404 20.1466 106.591 20.588 106.721 21.0267C106.851 21.4758 107.168 21.8133 107.336 22.2313C107.373 22.3221 107.45 22.3196 107.502 22.3663C108.042 22.844 108.676 23.101 109.374 23.2853C110.163 23.4956 110.81 23.2334 111.5 22.9348C111.866 22.7765 112.152 22.5169 112.43 22.291C112.687 22.0807 112.933 21.7302 113.019 21.3668C113.063 21.1747 113.273 21.0812 113.242 20.8606C113.229 20.7723 113.362 20.7931 113.429 20.7931C114.044 20.7879 114.662 20.7827 115.278 20.7879C115.47 20.7879 115.55 20.993 115.457 21.2214C115.298 21.6056 115.148 21.9976 114.969 22.3741C114.647 23.049 114.26 23.6695 113.632 24.1238C113.307 24.3575 113.035 24.6482 112.663 24.8429C111.812 25.292 110.94 25.5828 110.057 25.4686L110.06 25.466Z" fill="white"/>
<path d="M101.097 18.0648C101.097 16.9407 101.103 15.814 101.092 14.6899C101.09 14.451 101.155 14.3628 101.396 14.368C101.946 14.3784 102.499 14.3784 103.05 14.368C103.281 14.3628 103.341 14.4614 103.341 14.6795C103.335 16.8654 103.366 19.0487 103.325 21.232C103.309 22.0887 103.021 22.8805 102.554 23.6411C102.12 24.3447 101.539 24.8405 100.872 25.2429C100.586 25.4142 100.272 25.6245 99.9059 25.6427C99.6619 25.6557 99.7138 25.8322 99.7138 25.9724C99.7138 27.2159 99.7138 28.4594 99.7138 29.7029C99.7138 29.799 99.706 29.8976 99.7138 29.9937C99.7372 30.2403 99.6463 30.3338 99.3841 30.3208C98.8986 30.2974 98.4106 30.313 97.9251 30.313C97.5824 30.313 97.4786 30.2144 97.4786 29.8535C97.4786 28.6308 97.4786 27.4106 97.4786 26.1879C97.4786 25.6712 97.4293 25.5908 96.9516 25.4688C96.3311 25.3104 95.8586 24.9236 95.3887 24.5186C94.8462 24.0513 94.6021 23.4101 94.2854 22.7948C93.9999 22.2418 93.9531 21.6863 93.9531 21.097C93.9531 18.9994 93.9531 16.9017 93.9531 14.8015C93.9531 14.3654 93.9531 14.3654 94.4048 14.3654C94.8488 14.3654 95.2927 14.3835 95.734 14.3602C96.0326 14.3446 96.1001 14.4692 96.0975 14.7366C96.0897 16.694 96.1053 18.6515 96.0819 20.6089C96.0767 21.0554 96.1156 21.5201 96.2584 21.9018C96.518 22.5845 96.9308 23.1868 97.7434 23.4231C98.1172 23.5321 98.4755 23.61 98.8441 23.5736C99.6567 23.4931 100.285 23.1115 100.726 22.3898C101.014 21.9225 101.105 21.4448 101.097 20.9153C101.085 19.9625 101.095 19.0123 101.092 18.0596L101.097 18.0648Z" fill="white"/>
<path d="M28.2957 30.3285C27.3325 30.3285 26.372 30.3259 25.4088 30.3285C24.6145 30.3311 24.0849 29.9547 23.7552 29.2407C23.5916 28.8851 23.3735 28.558 23.1918 28.2101C22.8595 27.5741 22.5402 26.9276 22.2027 26.2916C21.9016 25.7257 21.5771 25.1701 21.2707 24.6094C21.0734 24.2511 20.8787 23.8902 20.7022 23.5216C20.5334 23.1633 20.7126 22.8466 21.102 22.7584C21.2837 22.7168 21.4654 22.7168 21.6497 22.7142C23.5527 22.709 25.4582 22.7298 27.3585 22.6805C28.1088 22.6623 28.5968 22.9583 28.9317 23.5813C29.1913 24.0642 29.4379 24.5522 29.6846 25.0403C29.9727 25.6114 30.2479 26.1878 30.5439 26.7563C30.7723 27.195 30.9722 27.6597 31.2708 28.0465C31.6186 28.5009 31.7251 29.0642 32.0626 29.5185C32.2884 29.8248 31.9665 30.2999 31.5382 30.3025C30.4556 30.3103 29.3756 30.3051 28.2931 30.3051C28.2931 30.3129 28.2931 30.3181 28.2931 30.3259L28.2957 30.3285Z" fill="white"/>
<path d="M23.4687 30.435C23.5258 30.8893 23.2636 31.2216 22.9936 31.5513C22.4017 32.273 21.8021 32.9973 21.2543 33.7449C20.6987 34.5004 20.1276 35.2429 19.5694 35.9957C19.1437 36.5695 18.7153 36.3618 18.4194 35.788C18.0585 35.0923 17.7081 34.3888 17.3394 33.6956C16.9993 33.057 16.6644 32.4132 16.3036 31.7875C15.9739 31.2138 15.6416 30.6271 15.3664 30.0404C15.1094 29.4952 15.1328 28.7865 15.6026 28.275C16.1712 27.6572 16.6229 26.951 17.1707 26.3176C17.6587 25.7491 18.0144 25.0715 18.5596 24.5523C18.8945 24.233 19.1047 23.8202 19.4448 23.5087C19.6395 23.3295 19.8654 23.3685 19.9952 23.5969C20.4833 24.464 20.9869 25.3207 21.4672 26.1904C21.6852 26.585 21.8644 27.003 22.0694 27.408C22.1681 27.6001 22.2849 27.7818 22.3888 27.9713C22.7289 28.5944 23.0741 29.2174 23.4012 29.8483C23.4921 30.0222 23.4817 30.2273 23.4765 30.4376L23.4687 30.435Z" fill="white"/>
<path d="M73.2339 25.4555C72.2059 25.4555 71.1804 25.4555 70.1524 25.4555C69.9836 25.4555 69.859 25.4452 69.8538 25.2271C69.8383 24.604 69.9006 23.9784 69.8175 23.3553C69.7993 23.2255 69.9395 23.2281 70.0304 23.2255C70.2796 23.2177 70.5262 23.2203 70.7754 23.2203C72.4629 23.2203 74.1477 23.2203 75.8352 23.2203C76.0481 23.2203 76.2505 23.2177 76.4375 23.0672C76.6607 22.8854 76.6945 22.6258 76.4946 22.4104C76.3258 22.2286 76.1078 22.1248 75.8923 22.0313C75.4146 21.8236 74.9629 21.5666 74.4904 21.3538C73.9245 21.0993 73.3663 20.8242 72.79 20.5853C72.4343 20.4373 72.0761 20.253 71.7152 20.1232C71.1726 19.9311 70.7469 19.5936 70.3056 19.2561C69.9058 18.9498 69.6539 18.5422 69.5527 18.0568C69.5137 17.8802 69.371 17.7764 69.358 17.5713C69.3061 16.6315 69.711 15.9124 70.3393 15.266C70.643 14.9545 71.0091 14.8272 71.4063 14.6948C71.884 14.5339 72.359 14.5702 72.8367 14.5702C74.4904 14.565 76.1441 14.5754 77.8004 14.5599C78.1379 14.5573 78.2339 14.6845 78.2261 14.9908C78.2158 15.4866 78.2184 15.9851 78.2287 16.4835C78.2339 16.7328 78.1457 16.8132 77.8861 16.8106C76.0922 16.8003 74.2957 16.8054 72.5018 16.8054C72.3928 16.8054 72.2838 16.7925 72.1773 16.8132C71.967 16.8522 71.6737 16.7302 71.6321 17.1066C71.5802 17.5531 71.6918 17.657 72.0371 17.8698C72.4992 18.1528 73.034 18.2722 73.4753 18.5708C73.6493 18.6902 73.818 18.6383 73.9764 18.698C74.4255 18.8719 74.8694 19.0562 75.2744 19.3314C75.6249 19.5703 76.0299 19.7312 76.4141 19.9259C76.8632 20.1518 77.3331 20.3283 77.7874 20.5412C78.0886 20.6814 78.1768 21.0448 78.3689 21.3018C78.831 21.9197 78.8336 22.6388 78.7038 23.3501C78.6285 23.7577 78.4209 24.116 78.1535 24.4664C77.7355 25.0142 77.1384 25.1778 76.5699 25.4296C76.4868 25.4659 76.3778 25.4529 76.2817 25.4529C75.2666 25.4529 74.249 25.4529 73.2339 25.4529V25.4581V25.4555Z" fill="white"/>
<path d="M80.6374 19.4147C80.6374 17.6105 80.6478 15.8036 80.6322 13.9993C80.627 13.4671 80.8321 12.9973 81.0216 12.5326C81.3124 11.8186 81.7589 11.2008 82.3327 10.6712C82.7714 10.2662 83.2646 9.95986 83.7916 9.67948C84.7184 9.18623 85.6997 9.14469 86.707 9.16806C87.3457 9.18363 87.9817 9.17844 88.6203 9.16806C88.8644 9.16287 88.9682 9.22517 88.9526 9.49257C88.9293 9.94428 88.9215 10.4012 88.9526 10.8529C88.976 11.1852 88.8618 11.2839 88.5424 11.2787C87.787 11.2631 87.0289 11.2657 86.2735 11.2787C85.7698 11.289 85.2818 11.4214 84.8379 11.6499C84.6431 11.7511 84.4355 11.8316 84.2408 11.9381C83.6229 12.2755 83.3347 12.8415 83.031 13.4308C82.5949 14.2771 82.774 15.1676 82.735 16.045C82.7298 16.1826 82.8103 16.2346 82.9401 16.2371C83.1141 16.2371 83.2854 16.2449 83.4593 16.2449C84.9183 16.2449 86.3747 16.2475 87.8337 16.2449C88.6593 16.2449 88.6722 16.2397 88.7449 17.0341C88.7787 17.3976 88.7527 17.7688 88.7527 18.1375C88.7527 18.3763 88.5762 18.3763 88.4126 18.3763C87.7325 18.3789 87.0497 18.3763 86.3695 18.3763C85.2766 18.3763 84.1862 18.3841 83.0933 18.3737C82.8129 18.3711 82.7298 18.4568 82.7298 18.7424C82.7428 20.8296 82.7402 22.9142 82.735 25.0015C82.735 25.5596 82.7402 25.448 82.2833 25.4532C81.8498 25.4584 81.4162 25.435 80.9853 25.461C80.6841 25.4791 80.6244 25.3519 80.627 25.0871C80.6348 23.1946 80.6322 21.3047 80.6322 19.4121H80.6452L80.6374 19.4147Z" fill="white"/>
<path d="M89.9785 17.286C89.9785 14.7133 89.9837 12.1406 89.9707 9.56786C89.9707 9.26672 90.0304 9.14729 90.3549 9.16806C90.817 9.19922 91.2843 9.18883 91.749 9.16806C92.0008 9.15768 92.0787 9.23556 92.0787 9.49257C92.0683 11.2449 92.0761 12.9947 92.0761 14.747C92.0761 18.1738 92.0761 21.6006 92.0735 25.0274C92.0735 25.4558 92.0735 25.4558 91.6296 25.4558C91.196 25.4558 90.7625 25.435 90.3316 25.4636C90.0304 25.4843 89.9733 25.3649 89.9733 25.0975C89.9811 23.2387 89.9785 21.3774 89.9785 19.5186C89.9785 18.7735 89.9785 18.0258 89.9785 17.2808V17.286Z" fill="white"/>
<path d="M116.66 19.8818C116.66 18.1632 116.665 16.4446 116.654 14.7234C116.654 14.4378 116.735 14.347 117.02 14.36C117.506 14.3833 117.994 14.3781 118.479 14.36C118.71 14.3522 118.786 14.4404 118.77 14.6611C118.757 14.8324 118.775 15.0064 118.77 15.1803C118.765 15.4477 118.931 15.4685 119.066 15.3309C119.375 15.0194 119.759 14.8636 120.151 14.7026C120.548 14.5417 120.94 14.3677 121.382 14.3651C121.717 14.3651 122.052 14.3522 122.386 14.347C122.612 14.3444 122.719 14.443 122.714 14.6819C122.701 15.1777 122.698 15.6762 122.708 16.1746C122.714 16.3927 122.625 16.4706 122.423 16.4524C121.564 16.3719 120.831 16.7198 120.151 17.1715C119.679 17.4856 119.385 17.9763 119.139 18.4747C118.838 19.0822 118.794 19.7494 118.796 20.4192C118.801 21.9223 118.796 23.4254 118.796 24.9285C118.796 25.4633 118.791 25.4633 118.256 25.4607C117.856 25.4607 117.454 25.4426 117.057 25.4659C116.75 25.4841 116.652 25.3932 116.654 25.0739C116.67 23.3449 116.662 21.6134 116.662 19.8844L116.66 19.8818Z" fill="white"/>
</svg>
