<svg width="72" height="67" viewBox="0 0 72 67" fill="none" xmlns="http://www.w3.org/2000/svg">
<path d="M37.104 0.335938C37.1373 0.449473 37.2387 0.420361 37.3141 0.429095C39.8303 0.733311 42.0551 1.70418 43.9683 3.38101C45.0815 4.35771 45.9569 5.52363 46.6642 6.82055C48.6253 10.4129 50.6835 13.9514 52.7242 17.4987C54.5128 20.6064 56.2956 23.7155 58.0812 26.8231C60.2351 30.5727 62.3932 34.3179 64.5398 38.0719C66.5356 41.5623 68.5257 45.0557 70.5027 48.5564C71.3984 50.1415 71.8767 51.8533 71.9811 53.6786C72.2536 58.4515 69.5649 63.0875 65.2196 65.169C63.8774 65.8123 62.4614 66.1777 60.9757 66.2956C58.6509 66.479 56.455 66.0394 54.4026 64.9375C52.2923 63.8051 50.6806 62.1486 49.4891 60.0744C47.0107 55.7586 44.538 51.4385 42.0609 47.1227C40.1506 43.7938 38.2359 40.4648 36.3256 37.1359C36.2531 37.0093 36.1662 36.8943 36.072 36.7837C36.0836 36.7065 36.0459 36.6439 36.0096 36.5799C35.8096 36.2204 35.6169 35.8565 35.4125 35.4999C32.4687 30.382 29.5235 25.2642 26.5798 20.1464C25.9406 19.0358 25.2579 17.947 24.8101 16.736C24.0375 14.6487 23.781 12.5104 24.1999 10.3096C24.2941 9.81031 24.397 9.31396 24.4955 8.81615C24.8912 7.8118 25.3203 6.822 25.9131 5.91663C27.9799 2.76093 30.886 0.945826 34.6066 0.433461C34.7168 0.418906 34.8545 0.474218 34.9298 0.335938H37.104Z" fill="white"/>
<path d="M24.5331 8.33594C24.4355 8.83375 24.3335 9.33157 24.2402 9.82939C23.8254 12.0317 24.0809 14.1685 24.8446 16.2559C25.2881 17.4669 25.9642 18.5557 26.5972 19.6664C29.5126 24.7843 32.4309 29.9022 35.3448 35.0201C35.5472 35.3767 35.7396 35.7391 35.9362 36.1001C35.9707 36.1642 36.0094 36.2253 35.9979 36.3039C35.652 36.7974 35.3821 37.3374 35.0821 37.86C31.3299 44.4014 27.5805 50.9444 23.8311 57.4873C23.6689 57.7697 23.5096 58.0536 23.3474 58.3359C23.2814 58.2035 23.3015 58.0783 23.3775 57.9575C23.4493 57.8439 23.4895 57.7173 23.5268 57.5892C24.0651 55.7275 24.2474 53.841 23.9503 51.9124C23.6058 49.6765 22.7632 47.6605 21.2617 45.9881C18.23 42.6096 14.4548 41.2603 10.0093 42.0346C7.269 42.5121 5.05268 43.9837 3.21675 46.071C3.15503 46.1409 3.09043 46.1787 3 46.1729C3.03014 46.0812 3.04306 45.9793 3.09187 45.9007C4.23592 44.0521 5.25795 42.1336 6.33597 40.2471C8.73603 36.0419 11.1174 31.825 13.5103 27.6154C15.9391 23.3418 18.3707 19.071 20.8038 14.8003C21.9808 12.7333 23.1637 10.6693 24.345 8.60377C24.3996 8.50915 24.4484 8.41163 24.5331 8.3403V8.33594Z" fill="#A3A3A3"/>
<path d="M2.78654 44.857C2.88178 44.8631 2.94981 44.8238 3.01481 44.7512C4.94679 42.582 7.2824 41.0528 10.1683 40.5566C14.8501 39.7519 18.8259 41.1541 22.0187 44.6649C23.5999 46.403 24.4873 48.4995 24.8501 50.8214C25.163 52.8256 24.9726 54.786 24.4041 56.7207C24.3648 56.8538 24.3225 56.9854 24.2469 57.1034C24.1668 57.2289 24.1456 57.359 24.2152 57.4967C23.0678 59.8413 21.553 61.8833 19.3641 63.3657C17.9657 64.3126 16.4223 64.9011 14.7579 65.1597C12.7019 65.4789 10.6671 65.379 8.6762 64.7407C5.72533 63.7938 3.44414 61.9862 1.83264 59.3436C0.80014 57.6495 0.228709 55.7995 0.0503261 53.824C-0.197596 51.0755 0.478143 48.557 1.90823 46.2215C2.19092 45.7601 2.49327 45.3108 2.78654 44.8555V44.857Z" fill="white"/>
</svg>
