<svg width="82" height="83" viewBox="0 0 82 83" fill="none" xmlns="http://www.w3.org/2000/svg">
<path d="M39.3411 0.335938C40.5178 0.335938 41.6923 0.335938 42.8691 0.335938C42.8691 0.455024 42.8823 0.543236 43.046 0.541031C43.5791 0.534415 44.1144 0.541031 44.6474 0.541031C44.7934 0.541031 44.9394 0.545442 45.0854 0.545442C45.1031 0.653502 45.1053 0.752741 45.2712 0.750535C45.8021 0.743919 46.3307 0.754946 46.8616 0.759357C46.9324 0.761562 47.0053 0.763767 47.0761 0.765973C47.0872 0.874033 47.085 0.977682 47.2531 0.975477C47.6357 0.968861 48.0184 0.984298 48.4011 0.988709C48.4077 1.10338 48.4188 1.20042 48.5824 1.19601C48.8213 1.18719 49.0602 1.23129 49.2991 1.19601L49.9405 1.22468C49.9162 1.35038 49.9273 1.44521 50.0954 1.43198C50.1949 1.42536 50.2967 1.42757 50.3962 1.42536C50.3962 1.57532 50.4537 1.6503 50.6196 1.63707C50.77 1.62384 50.9226 1.63266 51.073 1.63045C51.2854 1.64148 51.4999 1.6503 51.7123 1.66133C51.6835 1.80908 51.7322 1.88627 51.8937 1.87083C51.9844 1.86201 52.075 1.86642 52.1635 1.86642C52.1724 1.99433 52.2055 2.08254 52.3692 2.07813C52.5948 2.06931 52.8205 2.08475 53.0461 2.08916C53.0616 2.44421 53.3292 2.26779 53.4973 2.30087C53.5681 2.30528 53.6389 2.30748 53.7096 2.31189C53.7074 2.44642 53.7406 2.53684 53.9087 2.52581C54.0636 2.51478 54.2206 2.52581 54.3754 2.53022C54.3931 2.87866 54.6563 2.70885 54.8244 2.74413C54.9837 2.80147 55.2182 2.64269 55.3133 2.92938C55.331 2.98231 55.5632 2.96246 55.6982 2.9779C55.707 3.33957 55.9769 3.15653 56.1427 3.19402C56.1582 3.54466 56.4237 3.37265 56.5918 3.40573C56.6626 3.41014 56.7311 3.41455 56.8019 3.41896C56.7754 3.60641 56.8749 3.65272 57.0364 3.62405C57.1049 3.62846 57.1757 3.63287 57.2443 3.63728C57.2575 3.99234 57.5252 3.81591 57.6933 3.8512C57.7641 3.85561 57.8326 3.86223 57.9034 3.86664C57.8614 4.07394 57.9742 4.1004 58.1379 4.06953C58.2087 4.07394 58.2772 4.07835 58.348 4.08496C58.3193 4.27903 58.4122 4.32975 58.5847 4.28565C58.6533 4.29006 58.724 4.29447 58.7926 4.30108C58.7683 4.48633 58.8568 4.54367 59.0271 4.50838C59.0956 4.51279 59.1642 4.51941 59.235 4.52382C59.2062 4.71789 59.3036 4.76199 59.4717 4.72671C59.5402 4.73112 59.6088 4.73773 59.6796 4.74214C59.6553 4.92739 59.7437 4.98252 59.9141 4.94944C59.9826 4.95385 60.0512 4.96047 60.122 4.96709C60.0954 5.15674 60.1839 5.21188 60.3564 5.17218C60.425 5.17659 60.4936 5.18321 60.5644 5.18762C60.5312 5.38168 60.6285 5.428 60.7966 5.39492C60.8652 5.40153 60.9338 5.40815 61.0023 5.41476C60.9581 5.61986 61.0709 5.64853 61.2346 5.61986C61.3186 5.65073 61.458 5.56693 61.4602 5.75659C61.4624 5.89773 61.6062 5.80069 61.6725 5.847C61.6482 6.03004 61.7389 6.08518 61.907 6.0521L62.1127 6.06974C62.0795 6.2616 62.1768 6.30791 62.3427 6.27924C62.4113 6.28586 62.4799 6.29248 62.5484 6.29909C62.502 6.50198 62.6104 6.53727 62.7763 6.50639C62.7497 6.69164 62.8404 6.74457 63.0085 6.7159C63.0771 6.72251 63.1435 6.73133 63.212 6.73795C63.1678 6.94084 63.2717 6.97833 63.4421 6.94525C63.4155 7.13049 63.5062 7.18563 63.6743 7.15475C63.7429 7.16137 63.8092 7.16798 63.8778 7.1746C63.8358 7.37308 63.9397 7.41498 64.1078 7.3819C64.0879 7.55612 64.1698 7.62228 64.3379 7.59361C64.4064 7.60022 64.4728 7.60905 64.5414 7.61566C64.4971 7.81634 64.6033 7.85384 64.7692 7.82517C64.7471 8.00159 64.8267 8.06775 64.997 8.03908C65.0966 8.05893 65.2293 8.01041 65.2293 8.20227C65.2293 8.30372 65.3664 8.22653 65.4284 8.27284C65.3952 8.46029 65.4837 8.51763 65.654 8.48676C65.6252 8.66759 65.7093 8.72934 65.8818 8.70067C65.9636 8.73155 66.1052 8.65436 66.1052 8.83961C66.1052 8.98295 66.249 8.88592 66.3109 8.93664C66.2733 9.1263 66.364 9.18143 66.5365 9.15056C66.5078 9.33139 66.5896 9.39535 66.7621 9.36447C66.7422 9.53649 66.8241 9.60044 66.99 9.57839C67.074 9.60706 67.2134 9.53649 67.2089 9.72173C67.2067 9.86508 67.3527 9.76804 67.4146 9.81877C67.3748 10.0106 67.4633 10.068 67.6403 10.0327C67.6093 10.2135 67.6934 10.2775 67.8637 10.2488C67.8349 10.4274 67.9123 10.4958 68.0871 10.4649C68.0627 10.6391 68.1424 10.7053 68.3105 10.681C68.3989 10.7097 68.5405 10.648 68.5295 10.8376C68.5228 10.9655 68.8104 10.8442 68.7506 11.0559C68.9453 11.0846 68.9475 11.3845 69.1798 11.3603C69.1399 11.5477 69.2218 11.6095 69.401 11.5742H69.4032C69.3656 11.7616 69.4408 11.8322 69.6244 11.7947C69.5867 11.98 69.6686 12.0439 69.8455 12.0153C69.8124 12.1939 69.8743 12.2777 70.0623 12.238H70.0645C70.0269 12.421 70.1043 12.4894 70.2835 12.4563C70.2459 12.6394 70.3189 12.7121 70.5025 12.6746C70.4693 12.8555 70.5379 12.9327 70.7215 12.8952C70.6861 13.076 70.7524 13.1532 70.9382 13.1157H70.9404C70.9051 13.2965 70.967 13.3781 71.155 13.3384C71.1904 13.4244 71.186 13.4972 71.301 13.5766C71.4138 13.6538 71.6505 13.7486 71.6195 13.9824C71.593 14.1522 71.6682 14.225 71.8385 14.2051C71.8119 14.3749 71.8849 14.4499 72.0552 14.4279C72.0221 14.6043 72.0906 14.6815 72.272 14.6506C72.2455 14.8204 72.3096 14.902 72.4888 14.8733C72.4534 15.0498 72.5109 15.138 72.7033 15.0983C72.7122 15.1644 72.7188 15.2328 72.7277 15.299C72.7033 15.4666 72.7697 15.5437 72.9422 15.5217C72.9135 15.6937 72.9776 15.7753 73.1568 15.7488C73.1258 15.9209 73.19 16.0047 73.3713 15.9738C73.3359 16.1502 73.4001 16.2318 73.5859 16.1987C73.6213 16.2803 73.5461 16.4193 73.7341 16.4171C73.8779 16.4171 73.7827 16.5582 73.8226 16.6243C73.7894 16.7986 73.8557 16.878 74.0349 16.8515C74.0039 17.0213 74.0548 17.1161 74.2472 17.0786C74.2539 17.1448 74.2627 17.2132 74.2694 17.2793C74.2428 17.4447 74.307 17.5263 74.4817 17.5087C74.4507 17.6807 74.5127 17.7645 74.6963 17.7358C74.6653 17.9056 74.7095 18.0049 74.9064 17.963C74.913 18.0313 74.9197 18.0997 74.9285 18.1681C74.8998 18.3357 74.9661 18.4173 75.1409 18.3952C75.1099 18.5628 75.1475 18.6665 75.3488 18.6224C75.3554 18.6907 75.3621 18.7591 75.3687 18.8275C75.3377 18.9973 75.3997 19.0811 75.581 19.0568C75.5545 19.2178 75.5788 19.3347 75.7867 19.2862C75.7934 19.3545 75.8022 19.4229 75.8089 19.4913C75.7779 19.6633 75.842 19.7449 76.0212 19.7206C76.0278 19.789 76.0345 19.8573 76.0389 19.9257C76.0079 20.0933 76.0699 20.1749 76.2468 20.1573C76.2114 20.3293 76.2601 20.4219 76.4547 20.3866C76.4614 20.455 76.468 20.5233 76.4724 20.5917C76.4415 20.7571 76.4835 20.8563 76.6781 20.8255C76.6848 20.8938 76.6892 20.9622 76.6958 21.0306C76.6671 21.196 76.7268 21.282 76.906 21.2621C76.8794 21.4231 76.8993 21.5422 77.1117 21.4915C77.1183 21.5598 77.1249 21.6304 77.1294 21.6988C77.094 21.8686 77.1338 21.97 77.3351 21.9303C77.3417 21.9987 77.3484 22.0671 77.3528 22.1376C77.3218 22.3008 77.3528 22.4089 77.5563 22.3714C77.5629 22.4397 77.5673 22.5103 77.574 22.5787C77.5408 22.7463 77.5917 22.8411 77.7819 22.8102C77.7863 22.8786 77.7929 22.9492 77.7974 23.0175C77.7664 23.1807 77.7974 23.291 77.9986 23.2535L78.0141 23.4608C77.9787 23.6328 78.0296 23.7232 78.2221 23.6924C78.2265 23.7607 78.2331 23.8313 78.2375 23.8997C78.2021 24.0651 78.2353 24.1731 78.4388 24.1356L78.4543 24.3451C78.4875 24.5127 78.3216 24.7774 78.6755 24.7884C78.7153 24.9516 78.5251 25.2251 78.8901 25.2339C78.8945 25.3044 78.8989 25.3728 78.9033 25.4434C78.8724 25.6066 78.9055 25.7146 79.1068 25.6771C79.1112 25.7477 79.1179 25.8161 79.1223 25.8866C79.1245 26.0322 79.1356 26.1755 79.1267 26.3211C79.1157 26.4865 79.1909 26.5504 79.3457 26.546C79.3103 26.7114 79.3457 26.8173 79.547 26.7798C79.5514 26.8504 79.5558 26.9187 79.5625 26.9893C79.5669 27.1437 79.5802 27.298 79.5691 27.4502C79.5581 27.6156 79.6554 27.6443 79.7815 27.6531C79.8146 27.8207 79.6421 28.0853 79.996 28.0986C80.0049 28.2397 80.0115 28.3786 80.0203 28.5198C80.038 28.694 79.8898 28.941 80.2238 28.9763C80.2283 29.0469 80.2305 29.1174 80.2349 29.1858C80.1951 29.3534 80.2393 29.4526 80.434 29.424C80.4362 29.596 80.4472 29.7658 80.4406 29.9334C80.434 30.0966 80.5291 30.1032 80.6485 30.0878C80.6596 30.2995 80.6684 30.5134 80.6795 30.7251C80.7193 30.8905 80.518 31.1617 80.883 31.1816C80.8852 31.4087 80.8985 31.6381 80.8874 31.8652C80.8808 32.0306 80.9626 32.0703 81.0998 32.0659C81.1042 32.2093 81.1086 32.3526 81.113 32.4938C81.1462 32.6614 80.9626 32.926 81.3187 32.948C81.3232 33.0914 81.3298 33.2325 81.3342 33.3759C81.3342 33.5369 81.3386 33.6979 81.3276 33.8588C81.3165 34.0198 81.3917 34.0661 81.5355 34.0529C81.5421 34.269 81.5488 34.4829 81.5532 34.6991C81.5532 34.9284 81.5642 35.1578 81.5532 35.3871C81.5443 35.5503 81.624 35.5944 81.7633 35.5944C81.7677 35.7378 81.7722 35.8811 81.7766 36.0222C81.7766 36.4104 81.7854 36.7985 81.7766 37.1844C81.7722 37.3476 81.8695 37.3543 81.9823 37.3587C81.9889 37.8681 81.9934 38.3775 82 38.8869C81.9956 38.9884 81.9845 39.0876 81.9845 39.1891C81.9845 40.4659 81.9845 41.7406 81.9889 43.0175C81.9889 43.3373 81.9934 43.6592 81.9978 43.979C81.9934 44.4157 81.9889 44.8523 81.9823 45.289C81.8695 45.2956 81.7722 45.3 81.7766 45.4632C81.7854 45.8513 81.7788 46.2394 81.7766 46.6254C81.7722 46.7687 81.7677 46.9121 81.7633 47.0532C81.6262 47.0532 81.5443 47.0973 81.5532 47.2605C81.5665 47.4876 81.5532 47.717 81.5532 47.9464L81.5355 48.5925C81.3939 48.5815 81.3165 48.6278 81.3276 48.7888C81.3386 48.9498 81.332 49.1108 81.332 49.2717C81.3276 49.4151 81.3209 49.5562 81.3165 49.6996C80.967 49.7238 81.1418 49.9863 81.1108 50.1539C81.1064 50.2972 81.102 50.4383 81.0953 50.5817C80.9604 50.5817 80.8741 50.617 80.883 50.7824C80.894 51.0095 80.8808 51.2389 80.8763 51.466C80.5136 51.4881 80.7149 51.7593 80.6729 51.9225C80.6618 52.1342 80.6529 52.3481 80.6419 52.5599C80.4295 52.5246 80.4141 52.6437 80.4494 52.8024C80.4428 52.9436 80.434 53.0847 80.4273 53.2237C80.0491 53.2281 80.2614 53.5103 80.215 53.6735C80.2128 53.7441 80.2084 53.8147 80.2061 53.8875C80.0646 53.8786 79.9827 53.9205 79.9916 54.0859C80.0004 54.2403 79.9916 54.3969 79.9872 54.5513C79.631 54.5645 79.8058 54.8313 79.7726 54.9967C79.6487 55.01 79.5492 55.0364 79.5603 55.2018C79.5713 55.354 79.5558 55.5084 79.5536 55.6605C79.5492 55.7311 79.5448 55.7995 79.5381 55.87C79.3391 55.8347 79.297 55.9384 79.3369 56.106C79.3324 56.1766 79.328 56.2449 79.3236 56.3155C78.963 56.3287 79.1511 56.6 79.1112 56.7654C79.1068 56.8337 79.1002 56.9043 79.0958 56.9727C78.8923 56.9352 78.8657 57.0499 78.8923 57.2086C78.8878 57.2792 78.8834 57.3476 78.879 57.4182C78.5162 57.4292 78.7042 57.7004 78.6644 57.8658C78.6578 57.9342 78.6534 58.0048 78.6467 58.0753C78.4344 58.029 78.4123 58.1459 78.4432 58.3091C78.4388 58.3797 78.4322 58.448 78.4278 58.5186C78.2243 58.4811 78.1889 58.587 78.2265 58.7546C78.2221 58.8229 78.2154 58.8935 78.211 58.9619C78.023 58.9332 77.9655 59.0214 78.0031 59.1934C77.9986 59.2618 77.9942 59.3324 77.9876 59.4007C77.7952 59.3721 77.7487 59.4713 77.7841 59.6367C77.7797 59.7051 77.773 59.7734 77.7686 59.844C77.5784 59.8153 77.5297 59.9079 77.5607 60.0756C77.5541 60.1439 77.5496 60.2123 77.543 60.2829C77.3439 60.2498 77.3063 60.3534 77.3395 60.5166C77.3329 60.585 77.3284 60.6533 77.3218 60.7217C77.1249 60.6842 77.0785 60.7812 77.1139 60.9533C77.1073 61.0216 77.1028 61.0922 77.0962 61.1606C76.8905 61.1165 76.8595 61.2267 76.8905 61.3899C76.718 61.3745 76.6538 61.4561 76.6826 61.6215C76.6759 61.6898 76.6693 61.7582 76.6649 61.8266C76.4746 61.7979 76.426 61.8927 76.4592 62.0603C76.4525 62.1287 76.4481 62.1971 76.4415 62.2654C76.249 62.2301 76.2004 62.325 76.2313 62.4948C76.2247 62.5631 76.2181 62.6337 76.2114 62.7021C76.0013 62.6513 75.9792 62.7704 76.0057 62.9314C75.8243 62.905 75.7646 62.991 75.7934 63.1608C75.7867 63.2291 75.7801 63.2975 75.7735 63.3659C75.5678 63.3196 75.5368 63.432 75.5656 63.5952C75.3842 63.571 75.3222 63.6548 75.3532 63.8246L75.3333 64.0297C75.1364 63.9922 75.0944 64.0914 75.1254 64.259C74.9595 64.2458 74.8865 64.3208 74.913 64.4862C74.9064 64.5545 74.8975 64.6207 74.8909 64.6891C74.6963 64.6494 74.6476 64.7464 74.6808 64.9162C74.4994 64.8897 74.4375 64.9735 74.4662 65.1456C74.4331 65.2271 74.5127 65.3661 74.3269 65.3683C74.1853 65.3683 74.2826 65.5138 74.234 65.5756C74.046 65.5425 73.9885 65.6307 74.0216 65.8027C73.8447 65.7785 73.7783 65.8601 73.8071 66.0299C73.8004 66.0983 73.7938 66.1666 73.7872 66.235C73.5992 66.1975 73.535 66.2791 73.5726 66.4577C73.3846 66.4246 73.3227 66.5084 73.3581 66.6849C73.1767 66.6562 73.1125 66.74 73.1435 66.9098C72.9666 66.8855 72.9046 66.9693 72.9289 67.1369C72.9002 67.2207 72.9732 67.3597 72.7874 67.3575C72.6436 67.3575 72.7409 67.5008 72.6879 67.5626C72.4998 67.5251 72.4401 67.6111 72.4733 67.7875C72.2963 67.7611 72.2278 67.8382 72.2565 68.0102C72.0751 67.9794 72.0088 68.0588 72.0398 68.233C71.8672 68.2109 71.7942 68.2859 71.823 68.4579C71.8009 68.5506 71.8518 68.6829 71.6682 68.6763C71.5332 68.6718 71.6682 68.9607 71.4514 68.9012C71.4182 69.0931 71.1218 69.0931 71.1417 69.3246C70.9559 69.2871 70.8896 69.3665 70.925 69.5452C70.7392 69.5099 70.6728 69.5892 70.706 69.7679C70.5246 69.7348 70.4582 69.8142 70.4848 69.9884C70.3056 69.9553 70.226 70.0237 70.2636 70.2067C70.0844 70.1759 70.0136 70.2508 70.0446 70.4273C69.861 70.392 69.7925 70.4714 69.8256 70.6478C69.6509 70.6191 69.5691 70.6853 69.6044 70.8683C69.4275 70.8375 69.3456 70.9036 69.3833 71.0867C69.2041 71.0514 69.1267 71.1197 69.1621 71.3028C69.0758 71.3359 68.9342 71.2763 68.9475 71.466C68.9564 71.5939 68.6666 71.477 68.7285 71.6865C68.5339 71.713 68.5272 72.0129 68.295 71.982C68.1291 71.96 68.045 72.0239 68.0694 72.1981C67.8946 72.1673 67.8216 72.2422 67.846 72.4143C67.6734 72.3878 67.5938 72.4539 67.6226 72.6304C67.4523 72.6017 67.3594 72.6568 67.397 72.8443C67.2178 72.8068 67.1337 72.8708 67.1736 73.0582C67.1072 73.067 67.0386 73.0736 66.9723 73.0825C66.8042 73.056 66.7223 73.1222 66.7467 73.2964C66.5763 73.2699 66.4945 73.3339 66.521 73.5103C66.3441 73.4772 66.2645 73.5412 66.2954 73.7242C66.1207 73.6911 66.03 73.7463 66.072 73.9381C66.0034 73.9447 65.9371 73.9536 65.8685 73.9602C65.6982 73.9315 65.6186 73.9977 65.6407 74.1741C65.4704 74.1454 65.3819 74.2028 65.4151 74.388C65.2426 74.3571 65.1474 74.4056 65.1895 74.5997L64.986 74.6218C64.8179 74.5931 64.7382 74.6615 64.7581 74.8357C64.5878 74.8048 64.4927 74.8533 64.5303 75.0452C64.4507 75.0827 64.3091 75.0055 64.3091 75.1907C64.3091 75.3297 64.1654 75.237 64.099 75.2767C63.9331 75.2481 63.8291 75.29 63.869 75.4862L63.6655 75.5083C63.5018 75.4818 63.4155 75.5414 63.4332 75.7178C63.2585 75.6825 63.1766 75.7465 63.2054 75.9295C63.1368 75.9361 63.0682 75.9427 63.0019 75.9494C62.8338 75.9207 62.7564 75.9891 62.7719 76.1589C62.6037 76.1258 62.502 76.1677 62.5418 76.3662C62.4732 76.3728 62.4047 76.3794 62.3361 76.386C62.1658 76.3551 62.0773 76.4103 62.1039 76.5955C62.0353 76.6021 61.9667 76.6087 61.9004 76.6154C61.7367 76.5845 61.646 76.6396 61.6659 76.8205C61.4934 76.783 61.3983 76.8337 61.4381 77.0278C61.3695 77.0344 61.3009 77.041 61.2301 77.0454C61.0643 77.0145 60.9625 77.0564 60.9979 77.2527C60.9293 77.2593 60.8608 77.2637 60.7922 77.2703C60.6197 77.2351 60.5356 77.2946 60.5599 77.4776C60.4914 77.4843 60.4228 77.4887 60.3542 77.4953C60.1795 77.4512 60.0954 77.5129 60.1176 77.6982C60.049 77.7048 59.9804 77.7092 59.9118 77.7158C59.7437 77.6805 59.6553 77.7379 59.6774 77.9209C59.5137 77.9606 59.2438 77.7864 59.235 78.1392C59.1664 78.1436 59.0979 78.1503 59.0293 78.1547C58.8612 78.1238 58.7793 78.1878 58.7948 78.362C58.7263 78.3664 58.6555 78.373 58.5869 78.3774C58.4122 78.3333 58.3237 78.3884 58.348 78.5781C58.2795 78.5825 58.2087 78.5869 58.1401 78.5935C57.972 78.5582 57.868 78.5957 57.9034 78.7964C57.8349 78.8008 57.7641 78.8074 57.6955 78.8119C57.5252 78.8427 57.262 78.6751 57.2465 79.0258C57.1779 79.0302 57.1071 79.0346 57.0386 79.0412C56.8749 79.0103 56.7886 79.0699 56.8019 79.2441C56.7311 79.2485 56.6626 79.2529 56.5918 79.2573C56.4281 79.2242 56.3175 79.2529 56.3529 79.458C56.2821 79.4624 56.2113 79.4668 56.1427 79.4712C55.9769 79.5065 55.7048 79.3257 55.6959 79.6874C55.5367 79.7381 55.2536 79.5198 55.2469 79.8969C55.1054 79.9057 54.9638 79.9123 54.8222 79.9211C54.6563 79.8858 54.5524 79.9233 54.5834 80.1218C54.5126 80.1262 54.4418 80.1306 54.371 80.135C54.2162 80.1372 54.0613 80.1505 53.9065 80.1395C53.7406 80.1284 53.7074 80.221 53.703 80.3534C53.6322 80.3578 53.5614 80.36 53.4907 80.3644C53.327 80.3291 53.2164 80.3578 53.2518 80.5629C53.1102 80.5717 52.9709 80.5783 52.8293 80.5871C52.67 80.554 52.5462 80.5651 52.5882 80.7812L52.1591 80.7988C52.0043 80.801 51.8494 80.8143 51.6946 80.8032C51.5309 80.7922 51.4933 80.8804 51.4889 81.015C51.2611 81.0194 51.0332 81.0326 50.8076 81.0216C50.6439 81.015 50.6063 81.0988 50.6041 81.2333C50.4626 81.2399 50.3188 81.2443 50.1772 81.2509C50.0091 81.2068 49.9007 81.2377 49.9361 81.445C49.7216 81.4538 49.507 81.4626 49.2925 81.4715C49.0646 81.4715 48.8346 81.4847 48.6068 81.4715C48.4453 81.4626 48.4011 81.5442 48.3966 81.6788C48.3259 81.6788 48.2529 81.6832 48.1821 81.6854C47.8724 81.6898 47.5605 81.6942 47.2509 81.7008C47.2066 81.7008 47.1314 81.7096 47.1248 81.7295C47.054 81.9809 46.8483 81.8772 46.6957 81.8927C46.5143 81.9103 46.3307 81.9103 46.1471 81.9037C45.9901 81.8971 45.9237 81.9522 45.9547 82.1088C45.5167 82.1154 45.081 82.122 44.643 82.1286C44.1122 82.1308 43.5791 82.1397 43.0482 82.133C42.8845 82.1308 42.8735 82.2235 42.8624 82.3359C41.4667 82.3337 40.0688 82.3293 38.6731 82.3271C38.693 82.197 38.6664 82.1176 38.5072 82.122C38.1887 82.1308 37.8701 82.1264 37.5494 82.1286C37.1115 82.122 36.6757 82.1154 36.2378 82.1088C36.2643 81.9544 36.1935 81.9213 36.0453 81.8971C35.7047 81.8419 35.3088 82.0603 35.0234 81.7074C35.0124 81.692 34.9703 81.7008 34.9438 81.6986C34.6341 81.6942 34.3222 81.6898 34.0126 81.6854C33.9418 81.6854 33.8688 81.681 33.798 81.6788C33.787 81.5486 33.7471 81.4626 33.5857 81.4715C33.3578 81.4847 33.13 81.4715 32.9022 81.4715C32.6876 81.4626 32.4731 81.4538 32.2585 81.445C32.2895 81.2399 32.1855 81.2046 32.0174 81.2509L31.5905 81.2333C31.5861 81.101 31.5507 81.015 31.3848 81.0216C31.1592 81.0304 30.9314 81.0172 30.7036 81.015C30.6991 80.8826 30.6615 80.7922 30.4978 80.8032C30.3452 80.8143 30.1882 80.8033 30.0356 80.7988L29.8232 80.79C29.7989 80.4328 29.5357 80.618 29.3653 80.5893C29.2238 80.5805 29.0844 80.5739 28.9429 80.5651C28.9738 80.3688 28.8721 80.3269 28.704 80.3666C28.6332 80.3622 28.5646 80.36 28.4938 80.3556C28.4872 80.2255 28.4585 80.1306 28.2904 80.1417C28.1355 80.1527 27.9807 80.1417 27.8259 80.1372C27.7551 80.1328 27.6843 80.1284 27.6135 80.1262C27.6423 79.9322 27.5383 79.8925 27.3746 79.9277C27.2331 79.9189 27.0937 79.9123 26.9521 79.9035C26.9721 79.7645 26.9389 79.6763 26.7708 79.6918C26.6823 79.7006 26.5916 79.694 26.5009 79.694C26.4301 79.6896 26.3616 79.6829 26.2908 79.6785C26.3372 79.4646 26.2156 79.447 26.0541 79.4779C25.9833 79.4734 25.9125 79.469 25.8418 79.4668C25.8661 79.2772 25.7688 79.2331 25.6029 79.2661L25.1826 79.2375C25.2269 79.0302 25.114 79.0015 24.9482 79.0346C24.8774 79.0302 24.8066 79.0258 24.738 79.0214C24.7734 78.8185 24.665 78.7876 24.5014 78.8207C24.4328 78.8163 24.362 78.8119 24.2934 78.8052C24.3222 78.6156 24.2249 78.5671 24.059 78.6001C23.9904 78.5957 23.9196 78.5913 23.851 78.5847C23.8466 78.2186 23.5679 78.4105 23.4042 78.3686C23.3047 78.3487 23.1698 78.4061 23.1676 78.2098C23.1676 78.1106 23.0304 78.1833 22.9641 78.1459C22.953 77.7974 22.6876 77.9606 22.5217 77.9275C22.5416 77.7467 22.4487 77.6938 22.2872 77.7224C22.2187 77.7158 22.1501 77.7092 22.0815 77.7048C22.0815 77.3365 21.8006 77.5284 21.6391 77.4865C21.6568 77.31 21.5772 77.2439 21.4069 77.2792C21.3383 77.2725 21.2697 77.2681 21.2012 77.2615C21.2321 77.0697 21.1326 77.0256 20.9667 77.0564C20.8981 77.0498 20.8296 77.0432 20.761 77.0388C20.7964 76.8469 20.7035 76.7962 20.531 76.8315C20.5199 76.4963 20.2633 76.6352 20.093 76.6087C20.1151 76.4301 20.0311 76.3662 19.863 76.3992C19.7944 76.3926 19.7258 76.386 19.6573 76.3816C19.6949 76.1853 19.5931 76.1434 19.425 76.1743C19.3233 76.1567 19.1905 76.2096 19.1928 76.0133C19.1928 75.9097 19.0556 75.9869 18.9915 75.945C19.0202 75.7575 18.934 75.7002 18.7614 75.7354C18.6929 75.7288 18.6243 75.7222 18.5557 75.7156C18.6 75.5193 18.5026 75.4708 18.3301 75.5061C18.3633 75.3142 18.2682 75.2657 18.0979 75.2966C18.0138 75.2679 17.8722 75.3495 17.8745 75.1599C17.8745 75.0143 17.7307 75.1113 17.6665 75.0628C17.6975 74.8776 17.609 74.8202 17.4365 74.8511C17.3524 74.8224 17.2131 74.8974 17.2131 74.71C17.2131 74.5666 17.0671 74.6637 17.0052 74.6174C17.0428 74.4255 16.9477 74.377 16.7774 74.4079C16.7973 74.2358 16.7243 74.1631 16.5495 74.1939C16.4655 74.1631 16.3283 74.238 16.3283 74.0506C16.3283 73.9072 16.1846 74.0065 16.1204 73.958C16.158 73.7683 16.0651 73.7154 15.8948 73.744C15.9213 73.5654 15.8439 73.4971 15.6692 73.5301C15.6891 73.3581 15.6117 73.2898 15.4436 73.314C15.375 73.3052 15.3086 73.2986 15.2401 73.2898C15.2821 73.0957 15.1892 73.0428 15.0145 73.078C15.041 72.9016 14.9769 72.82 14.7911 72.8619C14.8264 72.6745 14.7335 72.6216 14.5654 72.6458C14.5942 72.4694 14.5124 72.4032 14.342 72.4297H14.3398C14.3575 72.2621 14.289 72.1849 14.1164 72.2136C14.0324 72.1849 13.8908 72.2621 13.8952 72.0724C13.8997 71.9247 13.7515 72.0239 13.6895 71.9732C13.7271 71.7879 13.6497 71.7196 13.4683 71.7571L13.4661 71.7549C13.5037 71.5696 13.4241 71.5035 13.2449 71.5387C13.2803 71.3557 13.2073 71.2829 13.0237 71.3204C13.0547 71.1396 12.9795 71.069 12.8003 71.1021C12.8335 70.9213 12.7539 70.8529 12.5791 70.8838C12.6101 70.7073 12.5327 70.639 12.358 70.6632C12.3889 70.4846 12.3181 70.4096 12.1368 70.4427C12.1677 70.2663 12.0903 70.1935 11.9156 70.2222C11.951 70.0413 11.8735 69.9708 11.6944 70.0016C11.7187 69.8296 11.6546 69.748 11.4732 69.7811C11.5042 69.6047 11.4334 69.5275 11.2542 69.5606C11.2852 69.3864 11.2188 69.3048 11.0352 69.3378C11.0728 69.157 11.0021 69.0798 10.8162 69.1151C10.8516 68.9365 10.7853 68.8571 10.5995 68.8946L10.5973 68.8924C10.6371 68.7115 10.5685 68.6344 10.3805 68.6718C10.3451 68.5902 10.4137 68.4513 10.2279 68.4557C10.0841 68.4579 10.1792 68.3146 10.1394 68.2484C10.1726 68.0742 10.0952 68.0014 9.92264 68.0257C9.94697 67.8581 9.88503 67.7743 9.70587 67.8029C9.73684 67.6287 9.6749 67.5449 9.4891 67.578C9.52892 67.395 9.45371 67.3244 9.27234 67.3553C9.30551 67.1833 9.25685 67.0884 9.05999 67.1325C9.05336 67.0642 9.04451 66.998 9.03787 66.9296C9.06441 66.7598 8.99585 66.6827 8.82111 66.7047C8.85207 66.5327 8.79014 66.4467 8.60655 66.4798C8.63973 66.3055 8.58001 66.2195 8.39199 66.2548C8.38536 66.1865 8.37872 66.1203 8.37209 66.0519C8.39863 65.8843 8.33006 65.8049 8.15753 65.827C8.19071 65.6528 8.12214 65.5756 7.94519 65.5998C7.97394 65.4322 7.93413 65.3286 7.73506 65.3727C7.72621 65.3065 7.71957 65.2382 7.71073 65.172C7.73727 65.0044 7.6687 64.9272 7.49838 64.9427C7.52935 64.7729 7.47847 64.678 7.28825 64.7133C7.25286 64.6317 7.32585 64.495 7.14005 64.4928C7.0007 64.4928 7.09581 64.3494 7.056 64.2811C7.08697 64.1113 7.03388 64.0208 6.84587 64.0517C6.81048 63.9723 6.88126 63.8334 6.69767 63.8312C6.56274 63.829 6.65564 63.6878 6.61583 63.6195C6.65122 63.4475 6.59371 63.3571 6.4057 63.3901C6.39906 63.3218 6.39243 63.2556 6.38579 63.1872C6.41676 63.0196 6.34376 62.9447 6.17566 62.9579C6.20663 62.7925 6.16681 62.6888 5.96995 62.7285C5.96332 62.6602 5.95668 62.5918 5.95004 62.5234C5.97659 62.358 5.92571 62.2654 5.73991 62.2919C5.73328 62.2235 5.72885 62.1552 5.72222 62.0868C5.75318 61.9214 5.69346 61.8354 5.5143 61.8552C5.54748 61.6854 5.50324 61.5884 5.30638 61.6281L5.28868 61.4208C5.32186 61.2532 5.27983 61.1517 5.08297 61.1892C5.07634 61.1209 5.07191 61.0525 5.06528 60.9841C5.09846 60.8143 5.04316 60.7261 4.85736 60.7526C4.85293 60.6842 4.8463 60.6158 4.84188 60.5453C4.87505 60.3777 4.8286 60.2828 4.63838 60.3093C4.63174 60.2409 4.62732 60.1726 4.62068 60.1042C4.64944 59.941 4.59635 59.8484 4.41276 59.8705C4.40834 59.8021 4.40171 59.7337 4.39728 59.6632C4.43267 59.4955 4.37959 59.4051 4.19378 59.4272C4.18936 59.3588 4.18273 59.2905 4.1783 59.2221C4.20927 59.0567 4.14734 58.9707 3.97038 58.9883C3.96596 58.92 3.96153 58.8494 3.95711 58.781C4.00135 58.6068 3.94826 58.5186 3.75583 58.5451C3.7514 58.4767 3.74477 58.4061 3.74034 58.3378C3.77352 58.1724 3.73813 58.0665 3.53685 58.1018C3.53242 58.0334 3.52579 57.9629 3.52136 57.8945C3.49482 57.7247 3.64744 57.4689 3.30681 57.4468C3.30238 57.3785 3.29796 57.3079 3.29133 57.2395C3.31787 57.0785 3.26478 56.9881 3.08562 57.0036C3.08119 56.933 3.07677 56.8646 3.07235 56.7941C3.10552 56.6309 3.07677 56.5206 2.87327 56.5559C2.86885 56.4853 2.86443 56.4147 2.86 56.3442C2.8224 56.1788 3.0082 55.9053 2.64545 55.8987C2.59457 55.7399 2.81576 55.4554 2.43532 55.451C2.42868 55.3099 2.41983 55.1687 2.4132 55.0276C2.38444 54.8578 2.53706 54.602 2.20085 54.5799C2.20085 54.4255 2.18758 54.269 2.19643 54.1168C2.20749 53.9514 2.1168 53.9161 1.98187 53.9161C1.97745 53.8456 1.97524 53.775 1.97081 53.7044C1.94206 53.5346 2.10132 53.2766 1.75626 53.2567C1.75183 53.1862 1.74962 53.1156 1.7452 53.0472C1.7452 52.8929 1.73193 52.7385 1.7452 52.5863C1.75626 52.4253 1.66557 52.3856 1.53507 52.3768C1.53064 52.3062 1.52622 52.2379 1.52401 52.1673C1.55497 52.0107 1.5417 51.8872 1.32936 51.9269C1.32272 51.7836 1.31609 51.6424 1.31166 51.4991C1.31166 51.3999 1.31166 51.3006 1.3183 51.2014C1.32936 51.0426 1.24309 51.0183 1.11259 51.0426C1.10153 50.7581 1.08826 50.4714 1.0772 50.1869C1.1148 50.0238 1.06172 49.9333 0.880341 49.9466C0.875917 49.8032 0.869281 49.6621 0.864858 49.5187C0.864858 49.2894 0.853798 49.0622 0.864858 48.8329C0.873705 48.6719 0.796288 48.6256 0.656938 48.6234C0.650302 48.2419 0.637031 47.8603 0.643666 47.481C0.645878 47.3134 0.541919 47.3178 0.433535 47.3046C0.431323 47.234 0.429111 47.1613 0.426899 47.0907C0.422475 46.5614 0.411415 46.0343 0.418051 45.5051C0.418051 45.3397 0.320727 45.3375 0.214556 45.3176C0.210132 44.9537 0.203496 44.5921 0.199072 44.2282C0.199072 43.8401 0.194648 43.4519 0.203496 43.0638C0.20792 42.9028 0.117231 42.8874 0 42.8874C0 41.7891 0 40.6887 0 39.5904C0.119443 39.5948 0.212344 39.5816 0.205708 39.4184C0.194648 39.1031 0.199072 38.7855 0.19686 38.4679C0.201284 38.1041 0.20792 37.7424 0.212344 37.3785C0.320727 37.3609 0.420263 37.3587 0.418051 37.1933C0.411415 36.664 0.422475 36.1369 0.426899 35.6076C0.429111 35.5371 0.431323 35.4643 0.433535 35.3937C0.541919 35.3827 0.645878 35.3849 0.641454 35.2173C0.634819 34.8358 0.650302 34.4543 0.654726 34.0728C0.794077 34.0728 0.871493 34.0242 0.862646 33.8632C0.851586 33.6361 0.862646 33.4067 0.862646 33.1796C0.867069 33.0363 0.873705 32.8951 0.878129 32.7518C1.05951 32.765 1.11259 32.6746 1.07499 32.5114C1.08605 32.2269 1.09711 31.9402 1.11038 31.6557C1.23646 31.68 1.32272 31.6601 1.31609 31.4992C1.30945 31.3293 1.31609 31.1573 1.3183 30.9875C1.32051 30.9148 1.32494 30.8442 1.32715 30.7714C1.53728 30.8089 1.55719 30.692 1.52401 30.531C1.52843 30.4605 1.53064 30.3921 1.53507 30.3215C1.66557 30.3127 1.75626 30.273 1.7452 30.112C1.73414 29.9599 1.7452 29.8055 1.74741 29.6511C1.75183 29.5805 1.75405 29.51 1.75847 29.4394C2.11016 29.4218 1.93985 29.1593 1.97081 28.9917C1.97524 28.9212 1.97745 28.8506 1.98187 28.78C2.1168 28.78 2.20528 28.7425 2.19422 28.5793C2.18537 28.425 2.19643 28.2706 2.19864 28.1162C2.20306 28.0456 2.20749 27.9751 2.21191 27.9045C2.42426 27.9464 2.44195 27.8273 2.41098 27.6685C2.41762 27.5274 2.42647 27.3863 2.4331 27.2451C2.57688 27.2738 2.66093 27.2341 2.64545 27.0687C2.6366 26.9805 2.64545 26.8901 2.64545 26.7996C3.01262 26.7908 2.8224 26.5174 2.86 26.352C2.86443 26.2814 2.86885 26.2108 2.87327 26.1403C3.07898 26.1777 3.10774 26.0653 3.07235 25.9021C3.07677 25.8315 3.08119 25.7631 3.08562 25.6926C3.26699 25.7124 3.31787 25.6198 3.28911 25.4566C3.29354 25.3882 3.29796 25.3177 3.3046 25.2493C3.6585 25.2339 3.48597 24.9692 3.51915 24.8016C3.52358 24.7311 3.53021 24.6627 3.53464 24.5921C3.73592 24.6296 3.77352 24.5238 3.73813 24.3584C3.74255 24.29 3.74698 24.2194 3.75361 24.1511C3.94384 24.1775 3.99914 24.0871 3.9549 23.9151C3.95932 23.8467 3.96375 23.7762 3.97038 23.7078C4.15176 23.7299 4.20927 23.6416 4.1783 23.474C4.18494 23.4057 4.18936 23.3373 4.196 23.2689C4.38622 23.2954 4.43488 23.2006 4.39949 23.033L4.41498 22.8257C4.60078 22.8499 4.65165 22.7573 4.62068 22.5919C4.62732 22.5236 4.63174 22.4552 4.63838 22.3868C4.83524 22.4199 4.87505 22.3185 4.84188 22.1509C4.84851 22.0825 4.85294 22.0141 4.85957 21.9436C5.05201 21.9766 5.09846 21.8774 5.06749 21.712C5.07413 21.6436 5.08076 21.5753 5.08519 21.5069C5.28647 21.5466 5.32407 21.4429 5.29089 21.2753C5.29753 21.207 5.30195 21.1364 5.30859 21.068C5.50545 21.1077 5.5519 21.0107 5.51651 20.8409C5.69789 20.863 5.7554 20.7747 5.72443 20.6093C5.73106 20.541 5.7377 20.4726 5.74212 20.4042C5.93235 20.4351 5.9788 20.3381 5.95226 20.1727C5.95889 20.1043 5.96553 20.036 5.97216 19.9676C6.18008 20.0139 6.20441 19.8992 6.17787 19.7382C6.35482 19.7603 6.42339 19.6809 6.39021 19.5089L6.41012 19.3038C6.60256 19.3391 6.65343 19.2465 6.62025 19.0744C6.79942 19.0965 6.85914 19.0105 6.83038 18.8429C6.83702 18.7745 6.84587 18.7084 6.8525 18.64C7.04715 18.6775 7.0936 18.5783 7.06263 18.4106C7.0936 18.3268 7.01397 18.1879 7.2042 18.1879C7.34797 18.1879 7.25065 18.0424 7.2971 17.9784C7.48953 18.0159 7.54041 17.9211 7.50723 17.7513C7.68197 17.7711 7.74833 17.6895 7.71957 17.5219C7.72621 17.4535 7.73506 17.3874 7.74169 17.319C7.94076 17.3631 7.98279 17.2617 7.95182 17.0941C8.13099 17.1205 8.19956 17.0434 8.16638 16.8691C8.34112 16.8912 8.40748 16.8118 8.38093 16.642C8.38757 16.5736 8.39421 16.5075 8.40084 16.4391C8.58664 16.4744 8.653 16.3928 8.6154 16.2164C8.8012 16.2494 8.86313 16.1634 8.82995 15.9914C9.01133 16.0179 9.07326 15.9341 9.04451 15.7643C9.07547 15.6827 9.00027 15.5415 9.18607 15.5437C9.32984 15.5437 9.23252 15.4004 9.28118 15.3364C9.46698 15.3717 9.53555 15.2945 9.49795 15.1137C9.68596 15.149 9.74568 15.063 9.71472 14.8888C9.89388 14.9174 9.96024 14.838 9.93149 14.666C10.1062 14.6903 10.1792 14.6175 10.1505 14.4433C10.1748 14.3529 10.1195 14.2206 10.3053 14.2228C10.4336 14.225 10.3341 13.925 10.5552 14C10.5044 13.7795 10.8096 13.8214 10.8273 13.6273C10.8384 13.5259 11.0994 13.5524 11.0485 13.3517C11.2343 13.387 11.2984 13.3076 11.2653 13.1311C11.4489 13.1664 11.5174 13.087 11.4842 12.9106C11.6634 12.9437 11.732 12.8665 11.7054 12.6923C11.8868 12.7276 11.9598 12.6548 11.9266 12.4718C12.1036 12.5004 12.1788 12.4298 12.1478 12.2512C12.3314 12.2865 12.4022 12.2093 12.3668 12.0307C12.5415 12.0572 12.6212 11.991 12.5858 11.8102C12.7649 11.8432 12.8424 11.7749 12.807 11.5918C12.9861 11.6271 13.0636 11.5588 13.0282 11.3757C13.1144 11.3426 13.2272 11.3934 13.256 11.2169C13.2715 11.1287 13.4374 10.9964 13.5369 10.9413C13.6873 10.8575 13.8222 10.7185 13.8797 10.6193C13.955 10.4892 14.0302 10.5046 14.1208 10.4804C14.2956 10.5112 14.3664 10.4363 14.3443 10.2642C14.5124 10.2885 14.592 10.2223 14.5677 10.0481C14.7358 10.0746 14.8287 10.0217 14.7933 9.8342C14.9724 9.87169 15.0543 9.80994 15.0167 9.62029C15.0963 9.5828 15.2379 9.65557 15.2357 9.47253C15.2357 9.33139 15.3794 9.42622 15.4436 9.38211C15.6117 9.40858 15.6935 9.34021 15.6692 9.16599C15.8439 9.19907 15.9302 9.13953 15.8948 8.95208C16.0673 8.98295 16.1624 8.93444 16.1204 8.74037C16.189 8.73375 16.2553 8.72493 16.3239 8.71832C16.4942 8.74699 16.5739 8.68083 16.5517 8.5044C16.7221 8.53307 16.8105 8.47573 16.7774 8.29049C16.9477 8.32357 17.045 8.27505 17.003 8.08098L17.2065 8.05893C17.3724 8.08319 17.4542 8.01703 17.4365 7.84722C17.609 7.8803 17.7019 7.82958 17.6643 7.63771C17.7329 7.6311 17.7993 7.62228 17.8678 7.61566C18.0359 7.64433 18.1133 7.57376 18.0979 7.40395C18.2638 7.43262 18.3677 7.39293 18.3279 7.19665H18.3301C18.4982 7.16798 18.7592 7.30912 18.7614 6.9673C18.9362 7.00259 19.0224 6.94525 18.9893 6.7578C19.0578 6.75118 19.1264 6.74456 19.1928 6.73795C19.3609 6.76662 19.4427 6.70266 19.425 6.52844C19.5931 6.56152 19.6949 6.51962 19.6551 6.32115C19.7236 6.31453 19.7922 6.30791 19.8608 6.3013C20.0289 6.33217 20.1218 6.27704 20.0908 6.09179C20.1594 6.08518 20.2279 6.07856 20.2943 6.07195C20.458 6.10282 20.5487 6.04769 20.5288 5.86685C20.7013 5.90214 20.7964 5.85583 20.7566 5.65955C20.8251 5.65294 20.8959 5.64632 20.9645 5.64191C21.1304 5.67278 21.2344 5.63309 21.1968 5.43682C21.2653 5.4302 21.3339 5.42579 21.4025 5.41917C21.5728 5.45446 21.6613 5.39712 21.6347 5.21187C21.7033 5.20746 21.7719 5.20085 21.8404 5.19644C22.0152 5.23834 22.1014 5.181 22.0771 4.99355C22.1457 4.98914 22.2142 4.98252 22.2828 4.97811C22.4531 5.01119 22.5372 4.94944 22.5151 4.77081C22.5836 4.7642 22.6522 4.75979 22.7208 4.75317C22.8844 4.78625 22.9862 4.74655 22.9596 4.55249C23.0282 4.54587 23.0968 4.54146 23.1654 4.53484C23.3312 4.56572 23.4197 4.50618 23.3998 4.32755C23.4684 4.32314 23.5392 4.31872 23.6077 4.31211C23.7825 4.35622 23.8732 4.30329 23.8444 4.11143C23.913 4.10702 23.9838 4.1004 24.0523 4.09599C24.2204 4.13127 24.3244 4.09378 24.2868 3.8931C24.4261 3.88207 24.5655 3.87325 24.7048 3.86223C24.8752 3.90413 24.957 3.84238 24.9459 3.66375C25.0145 3.65934 25.0853 3.65493 25.1539 3.65052C25.3175 3.67919 25.4082 3.62405 25.3883 3.44542L25.5985 3.43219C25.7599 3.46307 25.8749 3.43881 25.8373 3.23371C25.9767 3.22489 26.1183 3.21607 26.2576 3.20725C26.4257 3.24474 26.5186 3.19402 26.4965 3.00657C26.5872 3.00657 26.6757 2.99995 26.7663 3.00657C26.93 3.0198 26.9765 2.94482 26.9455 2.79706C27.0871 2.78824 27.2286 2.78163 27.3702 2.7728C27.5361 2.80809 27.6423 2.7728 27.6069 2.57212L27.8192 2.55889C27.974 2.55889 28.1311 2.54566 28.2859 2.55889C28.454 2.56992 28.4872 2.47729 28.485 2.34277C28.5558 2.33836 28.6266 2.33615 28.6951 2.33174C28.8654 2.30307 29.1265 2.47068 29.1464 2.12003C29.372 2.11562 29.5976 2.10018 29.8232 2.10901C29.9847 2.11562 30.0201 2.02741 30.0289 1.8995C30.1904 1.8576 30.4691 2.06269 30.4801 1.69441C30.5531 1.6922 30.6239 1.68779 30.6969 1.68559C30.9358 1.68118 31.1747 1.67015 31.4114 1.67677C31.5773 1.68338 31.5839 1.58414 31.5817 1.46726C31.6525 1.46506 31.7255 1.46064 31.7962 1.45844C31.8869 1.46064 31.9798 1.45844 32.0683 1.46726C32.2342 1.4849 32.2806 1.40331 32.2497 1.25555C32.4642 1.24673 32.6788 1.23791 32.8933 1.22909C33.1212 1.22909 33.3512 1.21806 33.579 1.22909C33.7405 1.2357 33.787 1.15852 33.7892 1.02179C34.1718 1.01517 34.5545 1.00194 34.9371 1.00856C35.1053 1.01076 35.1008 0.907112 35.1141 0.799052C35.1849 0.796847 35.2557 0.794641 35.3287 0.792436C35.6472 0.792436 35.9635 0.78582 36.282 0.792436C36.4435 0.796847 36.4612 0.71084 36.4501 0.587343C37.034 0.578521 37.6158 0.5697 38.1997 0.560879C38.516 0.600574 38.8345 0.554263 39.1508 0.567495C39.3145 0.574111 39.3234 0.477077 39.3234 0.362401L39.3411 0.335938ZM58.5803 59.866C58.7462 59.8969 58.859 59.866 58.8103 59.661C58.8789 59.6543 58.9475 59.6477 59.016 59.6411C59.1886 59.6742 59.2704 59.608 59.2439 59.4294C59.4097 59.4581 59.5225 59.4294 59.4717 59.2221C59.5402 59.2155 59.6066 59.2067 59.6752 59.2C59.8455 59.2287 59.9318 59.167 59.903 58.9861C60.0777 59.0192 60.1596 58.953 60.1286 58.77C60.3056 58.8053 60.3918 58.7435 60.352 58.5539C60.5489 58.6068 60.529 58.3554 60.6418 58.3356C60.8276 58.3047 60.8055 58.0378 61.0067 58.0489C60.9691 57.8372 61.3076 57.8813 61.27 57.6696C61.4934 57.7445 61.3938 57.4402 61.5199 57.4446C61.7101 57.4534 61.6504 57.3145 61.6836 57.2263C61.8738 57.2638 61.9291 57.1734 61.8959 57.0036C62.0817 57.0344 62.1437 56.9528 62.1105 56.7786C62.2874 56.7985 62.3516 56.7169 62.3228 56.5493C62.3295 56.4809 62.3361 56.4147 62.3427 56.3464C62.5308 56.3795 62.5905 56.2934 62.5551 56.1192C62.732 56.1369 62.794 56.0531 62.763 55.8855L62.7829 55.6826C62.9731 55.7134 63.0196 55.6164 62.993 55.4532C62.9997 55.3849 63.0063 55.3165 63.013 55.2481C63.2253 55.2922 63.2408 55.1709 63.2142 55.0122C63.2209 54.9438 63.2253 54.8732 63.2319 54.8049C63.4332 54.8424 63.4686 54.7365 63.4354 54.5711C63.4398 54.5005 63.4443 54.4322 63.4487 54.3616C63.8159 54.3528 63.6234 54.0793 63.661 53.9139C64.0039 53.8919 63.8402 53.6316 63.8756 53.464C63.88 53.3935 63.8844 53.3251 63.8889 53.2545C64.245 53.2325 64.0614 52.9678 64.0924 52.798C64.099 52.6569 64.1034 52.5135 64.1101 52.3724C64.4706 52.3481 64.2804 52.0835 64.3113 51.9137L64.3335 51.2698C64.4817 51.2808 64.5392 51.2279 64.5414 51.0669C64.5635 49.801 64.5657 48.533 64.5458 47.2671C64.5436 47.1105 64.4905 47.0466 64.3379 47.0686C64.3335 46.9253 64.329 46.7819 64.3246 46.6386C64.3246 46.4842 64.3136 46.3277 64.3246 46.1733C64.3357 46.0123 64.2538 45.966 64.1123 45.9704C64.1078 45.7432 64.0901 45.5183 64.099 45.2934C64.1056 45.1258 64.0105 45.1015 63.8822 45.0971C63.9154 44.9317 63.8844 44.8214 63.6787 44.8633C63.6699 44.7244 63.661 44.5833 63.6522 44.4443C63.6898 44.2745 63.6345 44.1863 63.4487 44.2084C63.4421 44.14 63.4376 44.0716 63.431 44.0033C63.4598 43.8379 63.4 43.7541 63.2231 43.7717C63.1921 43.6041 63.3492 43.3395 62.9975 43.335C63.0306 43.163 62.9709 43.077 62.7851 43.1057C62.7365 43.0439 62.8338 42.8984 62.6922 42.8984C62.5064 42.8984 62.586 42.7573 62.5529 42.6757C62.5816 42.5059 62.5131 42.4265 62.3361 42.4507C62.3626 42.2809 62.3073 42.1905 62.1193 42.2258C62.1547 42.0449 62.0817 41.97 61.9004 42.003C61.9357 41.8222 61.865 41.7472 61.6814 41.7825C61.7146 41.6039 61.6504 41.5223 61.4624 41.562C61.5 41.3745 61.4226 41.3062 61.2412 41.3414C61.2766 41.1562 61.197 41.0878 61.0178 41.1231C61.0488 40.9423 60.9736 40.8717 60.7944 40.9048C60.8254 40.7218 60.7413 40.6622 60.5688 40.6887C60.5909 40.5145 60.5113 40.4461 60.341 40.4748C60.2724 40.4682 60.206 40.4593 60.1375 40.4527C60.1795 40.2564 60.0799 40.2123 59.9118 40.241C59.9428 40.0535 59.8566 39.994 59.6818 40.0293C59.6132 39.9918 59.4695 40.0844 59.4695 39.9455C59.4695 39.7602 59.3301 39.833 59.2483 39.7999C59.2726 39.6191 59.193 39.5529 59.0182 39.5904C58.9497 39.5838 58.8811 39.5794 58.8125 39.5728C58.8523 39.3787 58.7506 39.3346 58.5825 39.3633C58.6046 39.1847 58.525 39.1163 58.3502 39.1538L58.1423 39.1383C58.1644 38.9553 58.0671 38.909 57.9056 38.9333C57.8371 38.9266 57.7685 38.92 57.6999 38.9156C57.7287 38.726 57.638 38.673 57.4655 38.7105C57.3969 38.7061 57.3283 38.6995 57.2575 38.6951C57.2907 38.4988 57.1868 38.4613 57.0209 38.4922C56.9523 38.4878 56.8815 38.4812 56.813 38.4768C56.8395 38.2893 56.751 38.2342 56.5785 38.2695C56.5099 38.265 56.4391 38.2606 56.3706 38.2562C56.3595 37.899 56.0874 38.0798 55.9238 38.0423C55.9061 37.7071 55.6517 37.846 55.4792 37.824C55.4084 37.8196 55.3376 37.8174 55.2668 37.813C55.2956 37.6189 55.1938 37.5792 55.0279 37.6123C54.9594 37.6079 54.8886 37.6035 54.82 37.599C54.8023 37.2616 54.548 37.4072 54.3754 37.3807C54.3046 37.3763 54.2339 37.3719 54.1631 37.3675C54.1985 37.1624 54.0835 37.1403 53.9242 37.1712C53.8556 37.1668 53.7849 37.1624 53.7163 37.1558C53.703 36.8007 53.4376 36.9727 53.2695 36.9419C53.1987 36.9375 53.1279 36.933 53.0571 36.9308C53.0859 36.7346 52.9841 36.6949 52.8182 36.7324C52.6789 36.7235 52.5373 36.7147 52.398 36.7037C52.4422 36.492 52.325 36.4721 52.1613 36.503C52.0905 36.4986 52.0197 36.4942 51.9512 36.492C51.9755 36.3001 51.8782 36.2538 51.7101 36.2935C51.5707 36.2847 51.4314 36.2737 51.2898 36.2648C51.334 36.0553 51.219 36.0311 51.0554 36.0641C50.9846 36.0597 50.916 36.0553 50.8452 36.0509C50.8718 35.8591 50.7766 35.8105 50.6063 35.8502C50.5378 35.8458 50.467 35.8414 50.3984 35.837C50.3851 35.4952 50.1263 35.6473 49.956 35.6165C49.945 35.2636 49.6795 35.4312 49.5114 35.3981L49.3035 35.3783C49.3522 35.171 49.2394 35.1445 49.0757 35.1732C49.1 34.9902 49.0138 34.9306 48.8434 34.9637C48.7749 34.9571 48.7063 34.9505 48.6377 34.9461C48.6731 34.7564 48.5846 34.6991 48.4099 34.7343C48.4342 34.5535 48.348 34.494 48.1799 34.5226C47.9963 34.5006 47.7596 34.2646 47.7375 34.0816C47.764 33.914 47.6955 33.8346 47.5229 33.8544C47.5517 33.689 47.5074 33.5898 47.315 33.6229C47.3106 33.5523 47.3062 33.4817 47.3017 33.4134C47.3017 32.8951 47.2995 32.3769 47.2973 31.8564C47.3017 31.7858 47.3062 31.7175 47.3084 31.6469C47.649 31.6337 47.492 31.3713 47.5296 31.2081C47.7087 31.2345 47.7751 31.1551 47.7441 30.9831C47.9189 31.0096 47.9874 30.9324 47.9653 30.7626C48.1312 30.7913 48.2307 30.7471 48.1954 30.5531C48.2639 30.5487 48.3347 30.5421 48.4033 30.5376C48.5714 30.5729 48.6709 30.5288 48.6377 30.3348C48.7793 30.3281 48.9209 30.3215 49.0624 30.3127C49.5844 30.3127 50.1064 30.3127 50.6262 30.3149C50.697 30.3171 50.7678 30.3215 50.8386 30.3237C50.8275 30.4979 50.9094 30.5597 51.0753 30.5266C51.1438 30.5332 51.2124 30.5376 51.281 30.5443C51.2633 30.7185 51.3407 30.7913 51.5154 30.7516L51.7189 30.7714C51.6924 30.9434 51.7477 31.0338 51.9379 30.9897H51.9401C51.9003 31.175 51.9799 31.2433 52.1569 31.2103C52.1635 31.2786 52.1724 31.3448 52.179 31.4131C52.1525 31.5763 52.2122 31.6601 52.3869 31.6469C52.3936 31.7153 52.398 31.7836 52.4046 31.852C52.3714 32.0196 52.4378 32.099 52.6103 32.0858C52.6147 32.1541 52.6192 32.2247 52.6236 32.2931C52.5926 32.4519 52.6125 32.5687 52.8205 32.5334C52.8271 32.7496 52.8337 32.9635 52.8404 33.1796C52.8404 33.7883 52.8404 34.3947 52.8315 35.0012C52.8293 35.1886 52.9355 35.1798 53.0616 35.1622C53.1898 35.1622 53.3181 35.1666 53.4486 35.1666C56.9457 35.1666 60.4449 35.171 63.9419 35.1688C64.4131 35.1688 64.3268 35.2217 64.3268 34.7983C64.329 33.6052 64.318 32.4122 64.3113 31.2191C64.2715 31.0537 64.4994 30.778 64.1189 30.756C64.1123 30.5398 64.1056 30.3259 64.099 30.1098C64.0946 29.8827 64.0813 29.6555 64.0924 29.4306C64.1012 29.2608 64.0039 29.2387 63.8778 29.2321V29.2277C63.8424 29.0601 64.0127 28.8021 63.6677 28.7778C63.6234 28.6168 63.8336 28.3367 63.4598 28.3279C63.4553 28.2574 63.4509 28.1868 63.4465 28.1162C63.4133 27.9486 63.577 27.684 63.2275 27.6729C63.1877 27.5075 63.3757 27.2341 63.0107 27.2297C62.9709 27.1657 63.0461 27.029 62.9444 27.029C62.7475 27.029 62.805 26.8923 62.7829 26.7952C62.8139 26.6276 62.7763 26.524 62.575 26.5637C62.5684 26.4953 62.5617 26.4269 62.5551 26.3586C62.586 26.1888 62.5263 26.1028 62.3427 26.1292C62.3759 25.9572 62.3273 25.8624 62.1326 25.9021C62.126 25.8337 62.1171 25.7676 62.1105 25.6992C62.137 25.5316 62.064 25.4566 61.8959 25.472C61.9291 25.2956 61.8628 25.2162 61.6814 25.2449C61.7146 25.0663 61.6416 24.9935 61.4624 25.0222C61.4956 24.8457 61.427 24.7663 61.2456 24.7994C61.2788 24.6186 61.208 24.5458 61.0266 24.5789C61.0598 24.4003 60.9935 24.3187 60.8077 24.3584C60.8431 24.1731 60.759 24.1092 60.5843 24.14C60.6197 23.9548 60.5378 23.8886 60.3609 23.9239C60.3896 23.7431 60.3078 23.6769 60.1353 23.71C60.1507 23.5424 60.08 23.4652 59.9096 23.4939C59.8433 23.4873 59.7747 23.4784 59.7084 23.4718C59.7526 23.2734 59.6486 23.2337 59.4805 23.2623C59.5071 23.0793 59.423 23.0175 59.2505 23.0506C59.1819 23.044 59.1133 23.0374 59.0448 23.0308C59.0868 22.8323 58.9784 22.797 58.8147 22.8235C58.8346 22.647 58.7572 22.5787 58.5825 22.614C58.5139 22.6074 58.4453 22.6029 58.3768 22.5963C58.4011 22.4089 58.3082 22.3582 58.1401 22.3934C58.0715 22.389 58.003 22.3824 57.9344 22.378C57.9565 22.1928 57.8658 22.1398 57.6977 22.1729C57.6292 22.1663 57.5606 22.1619 57.492 22.1553C57.4876 21.7804 57.2045 21.9877 57.0452 21.9413C56.9744 21.9369 56.9036 21.9303 56.8351 21.9259C56.8749 21.7208 56.7621 21.6944 56.5984 21.7252L56.3883 21.712C56.4038 21.5554 56.3418 21.4848 56.1759 21.4959C56.0255 21.5069 55.8729 21.4959 55.7203 21.4959C55.6495 21.4915 55.5787 21.4848 55.5079 21.4804C55.5522 21.2621 55.4283 21.2511 55.2668 21.2842C55.196 21.282 55.1253 21.2776 55.0545 21.2753C55.0501 21.1452 55.0169 21.0548 54.8488 21.0636C54.621 21.0747 54.3909 21.0636 54.1631 21.0614C54.0923 21.0592 54.0215 21.0548 53.9507 21.0526C53.9441 20.9203 53.9087 20.8365 53.7428 20.8453C53.515 20.8563 53.2872 20.8431 53.0593 20.8387C52.8404 20.8365 52.6214 20.8321 52.4024 20.8299C52.409 20.6887 52.3648 20.6182 52.2011 20.6182C50.6373 20.6226 49.0713 20.6204 47.5074 20.616C47.3482 20.616 47.2863 20.6689 47.3084 20.8233C46.9456 20.8299 46.5829 20.8387 46.2201 20.8453C46.0653 20.8166 45.9304 20.8122 45.9768 21.0372C45.833 21.0416 45.687 21.046 45.5433 21.0504C45.2336 21.0548 44.9217 21.068 44.6121 21.0592C44.4462 21.0548 44.4417 21.1541 44.4373 21.2687C44.2957 21.2753 44.1542 21.282 44.0104 21.2886C43.8423 21.2467 43.7428 21.2886 43.7693 21.4848C43.6985 21.4893 43.6278 21.4915 43.557 21.4959C43.4021 21.4959 43.2451 21.5069 43.0903 21.4959C42.9244 21.4848 42.8868 21.5731 42.889 21.7098C42.8182 21.7142 42.7496 21.7186 42.6788 21.723C42.5063 21.6833 42.4134 21.734 42.4422 21.9259C42.3714 21.9303 42.3028 21.9347 42.232 21.9391C42.0617 21.97 41.7985 21.8024 41.7808 22.1509C41.7122 22.1553 41.6415 22.1597 41.5729 22.1663C41.4004 22.1288 41.3251 22.1994 41.3384 22.3736C41.2699 22.378 41.1991 22.3824 41.1305 22.389C40.9624 22.3537 40.8717 22.4067 40.896 22.5941C40.7257 22.6206 40.4691 22.4816 40.4581 22.8191C40.29 22.786 40.1926 22.8323 40.228 23.0264C40.1595 23.033 40.0887 23.0374 40.0201 23.044C39.8454 23.0109 39.7658 23.0771 39.7923 23.2579C39.6242 23.2292 39.5247 23.2734 39.5645 23.4674C39.4959 23.474 39.4295 23.4829 39.361 23.4895C39.1907 23.4586 39.1177 23.5358 39.1331 23.7034C38.954 23.6681 38.8788 23.7387 38.9075 23.9173C38.7328 23.8864 38.6465 23.946 38.6841 24.1334C38.505 24.1003 38.4231 24.1621 38.4629 24.3495C38.2373 24.3363 38.2329 24.6296 38.036 24.6561C38.0692 24.8502 37.7197 24.7928 37.7971 25.0155C37.6158 24.9825 37.5361 25.0486 37.5804 25.2361C37.3924 25.203 37.3371 25.2934 37.3658 25.4632C37.1867 25.4368 37.1203 25.5162 37.1513 25.6882C36.9765 25.6683 36.908 25.7455 36.9367 25.9153C36.9301 25.9837 36.9234 26.0498 36.9146 26.1182C36.7222 26.0829 36.6691 26.1733 36.7045 26.3476C36.6647 26.4159 36.7598 26.5571 36.6182 26.5593C36.428 26.5615 36.512 26.7026 36.4766 26.7842C36.2931 26.7577 36.2333 26.8437 36.2665 27.0158C36.2599 27.0841 36.2554 27.1525 36.2488 27.2231C36.0453 27.1856 36.0121 27.2936 36.0453 27.4568C36.0387 27.5252 36.0343 27.5958 36.0276 27.6641C35.8241 27.6266 35.7932 27.7347 35.8241 27.8979C35.8197 27.9663 35.8131 28.0368 35.8086 28.1052C35.6118 28.0765 35.5698 28.1758 35.6096 28.3434C35.6051 28.4117 35.6007 28.4823 35.5963 28.5507C35.2468 28.5683 35.4127 28.8307 35.3817 28.9983L35.3707 29.2078C35.0057 29.2277 35.1982 29.4967 35.1672 29.6643L35.1384 30.3039C35.0101 30.2796 34.9195 30.2995 34.9327 30.4605C34.9394 30.5597 34.9371 30.6589 34.9371 30.7582C34.9371 30.8287 34.9327 30.9015 34.9305 30.9721C34.7956 30.9809 34.727 31.0272 34.7226 31.186C34.6916 32.5908 34.6938 33.9956 34.7182 35.4003C34.7204 35.5613 34.7867 35.6099 34.9283 35.6054C34.9327 35.7488 34.9394 35.8899 34.9438 36.0333C34.977 36.2009 34.7912 36.4677 35.1495 36.4876C35.1517 36.653 35.165 36.8184 35.1561 36.9816C35.1473 37.147 35.249 37.1536 35.3663 37.1514C35.3707 37.2219 35.3729 37.2925 35.3773 37.3631C35.4105 37.5307 35.2358 37.7997 35.5941 37.8085C35.5985 37.8769 35.6029 37.9475 35.6096 38.0158C35.5675 38.1879 35.6206 38.2783 35.8109 38.2518C35.8175 38.3202 35.8219 38.3885 35.8285 38.4569C35.7976 38.6223 35.8507 38.7149 36.0365 38.6885C36.0652 38.8605 35.9237 39.1163 36.2621 39.1251C36.2267 39.2971 36.2798 39.3898 36.4722 39.3545C36.4789 39.4228 36.4855 39.4912 36.4921 39.5574C36.4634 39.725 36.5275 39.8066 36.7045 39.7867C36.6713 39.9609 36.731 40.0469 36.919 40.0139C36.8836 40.1925 36.9434 40.2785 37.1336 40.2388C37.1844 40.3005 37.0871 40.4483 37.2309 40.4439C37.4145 40.4395 37.3503 40.574 37.3769 40.66C37.3503 40.8298 37.4189 40.9092 37.5937 40.8827C37.5693 41.0526 37.6445 41.1253 37.8126 41.1033C37.7861 41.2797 37.8613 41.3503 38.0338 41.3216C38.0117 41.4936 38.0847 41.5664 38.2572 41.5399C38.3236 41.5818 38.4674 41.487 38.4651 41.6303C38.4607 41.8134 38.6023 41.745 38.6819 41.7803C38.6421 41.97 38.7284 42.0295 38.9053 41.9942C38.8721 42.1795 38.954 42.2456 39.1309 42.2103C39.1022 42.3934 39.1951 42.4463 39.3588 42.4243C39.4273 42.4662 39.5711 42.3691 39.5711 42.5081C39.5711 42.6933 39.7082 42.6227 39.7901 42.6558C39.7635 42.8389 39.8542 42.8962 40.0223 42.8653C40.0909 42.8719 40.1573 42.8808 40.2258 42.8874C40.1816 43.0881 40.2811 43.13 40.4537 43.0969C40.4249 43.2843 40.52 43.335 40.6859 43.3042C40.7545 43.3108 40.823 43.3174 40.8916 43.324C40.8518 43.5247 40.9602 43.56 41.1239 43.5313C41.1924 43.5379 41.261 43.5446 41.3318 43.5512C41.2853 43.7585 41.4004 43.7849 41.564 43.7563C41.553 43.9261 41.6304 43.9966 41.7985 43.9636C41.8671 43.968 41.9356 43.9746 42.0042 43.979C41.9887 44.1576 42.075 44.215 42.2409 44.1819L42.4466 44.1973C42.4333 44.3693 42.5107 44.4377 42.6811 44.4046L42.889 44.4201C42.9 44.7751 43.1721 44.5965 43.3358 44.634C43.4043 44.6406 43.4751 44.645 43.5437 44.6516C43.4995 44.8589 43.6101 44.8876 43.7782 44.8545C43.8489 44.8589 43.9197 44.8633 43.9905 44.8677C43.9618 45.0618 44.0635 45.1037 44.2294 45.0684C44.3643 45.0817 44.6032 45.0662 44.6143 45.1125C44.6939 45.4102 44.9372 45.2537 45.0942 45.3154C45.05 45.5293 45.1695 45.547 45.3331 45.5139C45.4039 45.5183 45.4725 45.5227 45.5433 45.5271C45.5211 45.7124 45.6118 45.7653 45.7799 45.73C45.8485 45.7344 45.9193 45.7388 45.9879 45.7432C46.0078 46.0961 46.271 45.9219 46.4391 45.9528L46.6492 45.9638C46.636 46.138 46.7178 46.202 46.8859 46.1667C46.9545 46.1711 47.0252 46.1755 47.0938 46.1799C47.1137 46.5261 47.3747 46.3651 47.545 46.3916C47.6158 46.396 47.6844 46.4004 47.7552 46.4048C47.7618 46.7665 48.0361 46.5813 48.1998 46.621C48.2175 46.9716 48.4807 46.804 48.6488 46.8349C48.7196 46.8393 48.7881 46.8437 48.8589 46.8481C48.8368 47.0311 48.9253 47.0863 49.0934 47.0554C49.162 47.0598 49.2327 47.0642 49.3013 47.0708C49.3168 47.4127 49.5778 47.2561 49.7459 47.287C49.7282 47.4634 49.8145 47.5229 49.9804 47.4943C50.0489 47.5009 50.1175 47.5075 50.1861 47.5119C50.1551 47.7038 50.2524 47.7501 50.4205 47.7192C50.4891 47.7258 50.5577 47.7302 50.6262 47.7368C50.5908 47.9287 50.6838 47.9816 50.8541 47.9464C50.8386 48.1184 50.9204 48.1823 51.0841 48.1581C51.1505 48.1669 51.219 48.1735 51.2854 48.1823C51.2478 48.3654 51.323 48.4359 51.5044 48.3984H51.5066C51.469 48.5837 51.5353 48.6609 51.7234 48.6212C51.7322 48.6873 51.7388 48.7557 51.7477 48.8219C51.7167 48.9873 51.7742 49.0755 51.9556 49.0556C52.0043 49.2144 51.7941 49.4945 52.1657 49.5033V50.37C52.022 50.3435 51.9445 50.3876 51.9534 50.5508C51.9622 50.7096 51.9534 50.8706 51.949 51.0316C51.7543 51.0007 51.7123 51.1021 51.741 51.2675C51.7189 51.455 51.4889 51.6888 51.3031 51.713C51.1372 51.6888 51.062 51.7593 51.0753 51.9269C50.9094 51.9644 50.6461 51.8034 50.6307 52.1453C50.4714 52.1453 50.3099 52.1585 50.1507 52.1453C49.9826 52.1342 49.9605 52.2291 49.9649 52.357C49.3787 52.3548 48.7948 52.3526 48.2086 52.3481C48.2352 52.2048 48.202 52.1166 48.0295 52.1342C47.9388 52.1431 47.8481 52.1408 47.7552 52.1431C47.6844 52.1386 47.6158 52.132 47.545 52.1276C47.5959 51.9137 47.4698 51.9027 47.3128 51.9247C47.3283 51.7527 47.2487 51.6866 47.0828 51.713C46.9876 51.6932 46.8881 51.7395 46.8439 51.5675C46.8195 51.477 46.6514 51.3072 46.5718 51.2874C46.3971 51.2455 46.4457 51.1396 46.4236 51.047C46.4524 50.8794 46.3993 50.789 46.2135 50.8155C46.2068 50.7471 46.2024 50.6787 46.1958 50.6104C46.229 50.4472 46.1936 50.3435 45.9967 50.3722C45.9923 50.3016 45.9879 50.2311 45.9856 50.1605C45.9392 49.9995 46.1538 49.7194 45.7777 49.7084C45.7733 49.4923 45.7689 49.2739 45.7645 49.0578C45.7711 48.6653 45.7711 48.2749 45.7822 47.8824C45.7866 47.6883 45.6693 47.7104 45.5455 47.7324C45.2513 47.7324 44.9571 47.728 44.6607 47.728C41.2699 47.728 37.8812 47.728 34.4903 47.7302C34.3267 47.6861 34.2581 47.7391 34.2603 47.9177C34.2714 49.1813 34.278 50.4472 34.278 51.7108C34.278 51.8762 34.3532 51.9137 34.4881 51.9181C34.4926 52.0615 34.497 52.2048 34.5014 52.3481C34.5346 52.5158 34.3466 52.7826 34.7071 52.8024C34.7137 52.9436 34.7182 53.0869 34.7248 53.2281C34.7558 53.3979 34.5722 53.6603 34.9305 53.6824L34.9416 53.8919C34.9062 54.0551 34.9305 54.1697 35.1406 54.13C35.1451 54.2006 35.1495 54.2712 35.1561 54.3417C35.1915 54.5071 35.0101 54.7784 35.3707 54.7872C35.3751 54.8556 35.3795 54.9262 35.384 54.9945C35.3464 55.1665 35.4016 55.2547 35.5897 55.2283C35.5941 55.2966 35.6007 55.365 35.6051 55.4356C35.572 55.6032 35.6184 55.7002 35.8109 55.6693C35.8175 55.7377 35.8219 55.8061 35.8285 55.8744C35.7976 56.0442 35.8639 56.1236 36.0409 56.1038C36.0099 56.2714 36.0475 56.3772 36.2488 56.3353C36.2554 56.4037 36.2621 56.4699 36.2709 56.5382C36.2378 56.7102 36.3085 56.7874 36.4855 56.7654C36.4545 56.9374 36.512 57.0234 36.6978 56.9925C36.6624 57.169 36.7199 57.2572 36.9102 57.2175C36.8903 57.449 37.1225 57.524 37.2375 57.6343C37.3172 57.7115 37.3481 57.7732 37.3725 57.8614C37.3481 58.0312 37.4211 58.1062 37.5914 58.0842C37.5671 58.2562 37.6423 58.3289 37.8126 58.3025C37.7905 58.4745 37.8635 58.5495 38.036 58.5208C38.1024 58.5627 38.2484 58.4679 38.244 58.609C38.2395 58.7943 38.3789 58.7259 38.4607 58.7612C38.4209 58.9552 38.5182 59.0016 38.6863 58.9729C38.662 59.1493 38.735 59.2221 38.912 59.1868C38.892 59.3632 38.9761 59.425 39.142 59.3963C39.2084 59.4029 39.2769 59.4118 39.3433 59.4184C39.3057 59.6124 39.4008 59.661 39.5733 59.6279C39.58 59.9697 39.841 59.8241 40.0113 59.8528C39.9892 60.0314 40.071 60.0976 40.2435 60.0623C40.3121 60.0667 40.3807 60.0733 40.4492 60.0778C40.4205 60.2718 40.5222 60.3093 40.6859 60.2806C40.7545 60.2851 40.823 60.2917 40.8938 60.2961C40.8695 60.4791 40.9624 60.532 41.1283 60.5012C41.1969 60.5056 41.2676 60.51 41.3362 60.5144C41.3473 60.8761 41.6193 60.6908 41.7852 60.7283C41.856 60.7327 41.9268 60.7371 41.9954 60.7416C41.96 60.94 42.0661 60.9775 42.232 60.9444L42.4422 60.9577C42.4599 61.326 42.7341 61.1231 42.9 61.1606C43.0416 61.1672 43.1832 61.176 43.3247 61.1826C43.2915 61.3855 43.3977 61.4186 43.5636 61.3811C43.7052 61.3877 43.8489 61.3921 43.9905 61.3987C43.9839 61.5399 44.0325 61.6171 44.194 61.6104C44.424 61.6016 44.6519 61.6104 44.8819 61.6104C45.0987 61.6171 45.3154 61.6237 45.5322 61.6303C45.4813 61.8574 45.6185 61.8508 45.7733 61.8244L46.4258 61.8376C46.4369 61.9457 46.4391 62.0449 46.605 62.0427C47.1403 62.0427 47.6755 62.078 48.2108 62.0405C48.8656 62.0405 49.5225 62.0405 50.1772 62.0405C50.7191 62.0427 51.2589 62.0405 51.8008 62.0493C51.96 62.0515 51.9888 61.9743 51.9667 61.8442C52.2564 61.8376 52.5484 61.831 52.8382 61.8266C52.9996 61.7825 53.2805 62.003 53.2938 61.6259C53.5814 61.6149 53.8689 61.606 54.1542 61.595C54.3201 61.5553 54.5966 61.778 54.6165 61.3987C54.6873 61.3943 54.7581 61.3921 54.8311 61.3877C54.9218 61.3877 55.0147 61.3855 55.1031 61.3943C55.2735 61.412 55.3089 61.3238 55.2823 61.1804L55.707 61.1584C55.8751 61.1231 56.145 61.3149 56.1627 60.9533C56.2334 60.9488 56.302 60.9444 56.3728 60.94C56.5343 60.9687 56.6493 60.9444 56.6095 60.7393C56.6802 60.7349 56.751 60.7305 56.8196 60.7261C56.9855 60.6886 57.2598 60.8761 57.2664 60.5122C57.335 60.5078 57.4058 60.5012 57.4743 60.4968C57.6424 60.532 57.7353 60.4791 57.7088 60.2917C57.7774 60.2873 57.8459 60.2806 57.9145 60.2762C58.0826 60.3115 58.1755 60.2586 58.1489 60.0711C58.2175 60.0645 58.2861 60.0601 58.3547 60.0535C58.5228 60.0844 58.6157 60.0314 58.5891 59.8462L58.5803 59.866ZM30.9292 48.6212C30.9601 48.4492 30.9048 48.3587 30.7146 48.394C30.75 48.211 30.677 48.1382 30.4956 48.1735C30.531 47.986 30.447 47.9243 30.2722 47.9552C30.2988 47.7787 30.2302 47.7016 30.0466 47.7391C30.0754 47.556 29.9869 47.4965 29.8166 47.5273C29.748 47.5207 29.6816 47.5141 29.6131 47.5075C29.6485 47.3178 29.56 47.2605 29.383 47.298C29.3742 46.9473 29.1132 47.0995 28.9407 47.0775C28.8699 47.073 28.7991 47.0686 28.7305 47.062C28.7305 46.9231 28.7305 46.7819 28.7283 46.643C28.7991 46.6386 28.8699 46.6342 28.9407 46.6298C29.1021 46.6584 29.2194 46.6364 29.1751 46.4291C29.2459 46.4247 29.3167 46.4181 29.3852 46.4137C29.5489 46.4445 29.6662 46.4225 29.6175 46.2108C29.6861 46.2042 29.7546 46.1975 29.8254 46.1909C30.0002 46.2262 30.0842 46.1645 30.0532 45.9792C30.1174 45.9307 30.2634 46.0299 30.2612 45.8866C30.2612 45.7013 30.3983 45.7741 30.4824 45.7432C30.6527 45.7675 30.7301 45.6991 30.7036 45.5249C30.8761 45.547 30.9491 45.4742 30.9225 45.3022C30.9646 45.236 30.865 45.0905 31.0132 45.0949C31.2012 45.0993 31.1304 44.9604 31.1614 44.8766C31.3561 44.9118 31.4025 44.817 31.3693 44.6472C31.5419 44.6649 31.6149 44.5877 31.5795 44.4157C31.5839 44.3473 31.5905 44.2789 31.5949 44.2106C31.9533 44.1995 31.7785 43.9305 31.8095 43.7629C31.8139 43.6923 31.8184 43.6217 31.8228 43.5534C32.0218 43.5842 32.0617 43.4828 32.0218 43.3152C32.0263 43.2446 32.0285 43.1763 32.0329 43.1057C32.1656 43.1013 32.2541 43.066 32.2453 42.9006C32.2342 42.6735 32.2829 42.4441 32.2453 42.2148C32.2519 41.7803 32.2607 41.3437 32.2674 40.9092C32.4554 40.9423 32.4731 40.832 32.4731 40.6821C32.4709 39.9389 32.4731 39.1957 32.4731 38.4525C32.4731 36.653 32.4753 34.8556 32.4731 33.0561C32.4731 32.9106 32.5416 32.69 32.2475 32.7474C28.5624 32.7474 24.8796 32.7452 21.1945 32.743C20.9667 32.6812 20.9645 32.8157 20.9645 32.9833C20.9667 35.826 20.9645 38.6664 20.9645 41.5091C20.9645 41.6744 20.9689 41.8376 20.9711 42.003C20.9667 42.0736 20.9623 42.1442 20.9557 42.2148C20.7522 42.1684 20.719 42.2765 20.7477 42.4419C20.573 42.4154 20.5 42.4882 20.5288 42.6624C20.354 42.6294 20.2677 42.6889 20.3031 42.8763L20.0974 42.8962C19.9293 42.8653 19.8453 42.9271 19.8652 43.1057C19.7966 43.1101 19.7258 43.1167 19.6573 43.1211C19.4847 43.077 19.3918 43.13 19.4184 43.3218C19.3476 43.3262 19.279 43.3306 19.2082 43.3373C19.049 43.3086 18.9273 43.3262 18.9716 43.5379C18.83 43.5446 18.6884 43.5512 18.5447 43.56C18.3766 43.5909 18.1133 43.4166 18.0912 43.7673C18.0204 43.7717 17.9519 43.7761 17.8811 43.7805C17.6975 43.743 17.6311 43.8246 17.6599 44.0011C17.6599 44.3032 17.6555 44.6053 17.6555 44.9074C17.6577 46.5835 17.6621 48.2595 17.6665 49.9333C17.6621 50.3038 17.943 50.1142 18.1067 50.1561C18.2483 50.1627 18.3898 50.1693 18.5314 50.1759C18.5447 50.5486 18.8234 50.3391 18.9871 50.381C19.0578 50.3854 19.1286 50.3876 19.1994 50.392C19.2193 50.7317 19.4781 50.5751 19.6462 50.606C19.717 50.6104 19.7878 50.6148 19.8563 50.6192C19.8232 50.8133 19.9205 50.8596 20.0886 50.8243C20.1572 50.8618 20.2877 50.7647 20.3054 50.9103C20.3275 51.0889 20.5995 51.0558 20.5907 51.2565C20.7831 51.2301 20.7499 51.369 20.7588 51.4793C20.7964 51.6447 20.6305 51.9049 20.9711 51.9291C20.9733 52.2599 20.98 52.5885 20.98 52.9193C20.9822 55.526 20.9844 58.1305 20.9844 60.7371C20.9601 60.9025 21.0242 60.9621 21.1968 60.9599C21.7763 60.9511 22.3558 60.9599 22.9353 60.9599C25.9435 60.9643 28.9517 60.9687 31.9599 60.9709C32.1103 60.9709 32.3005 61.0172 32.243 60.7504C32.3802 60.7592 32.4598 60.7305 32.4576 60.5585C32.451 58.3047 32.4532 56.0509 32.4576 53.7948C32.4576 53.6383 32.4001 53.5765 32.2519 53.5809C32.2475 53.1795 32.243 52.7782 32.2408 52.3768C32.2762 51.9931 32.2298 51.6094 32.2342 51.2256C32.2364 51.0558 32.1324 51.0625 32.0241 51.0492C32.0196 50.9786 32.0174 50.9081 32.013 50.8375C31.982 50.6699 32.1634 50.4031 31.8051 50.3854C31.8007 50.3148 31.7962 50.2465 31.794 50.1759C31.825 50.0171 31.8073 49.898 31.5972 49.9377L31.5817 49.726C31.6149 49.5584 31.5817 49.4526 31.376 49.4945L31.3583 49.2872C31.3915 49.1196 31.3516 49.0159 31.1504 49.0556C31.1437 48.9873 31.1371 48.9189 31.1304 48.8505C31.1658 48.6741 31.0906 48.6013 30.9159 48.6234L30.9292 48.6212ZM21.2122 30.3061C22.0218 30.3083 22.8314 30.3149 23.6409 30.3149C26.512 30.3149 29.3808 30.3105 32.2519 30.3105C32.5439 30.3678 32.4797 30.1517 32.4797 30.004C32.4797 27.7678 32.4797 25.5338 32.4797 23.2976C32.4797 22.7661 32.4731 22.2347 32.4797 21.7032C32.4819 21.5268 32.4156 21.4694 32.2519 21.5069C28.6266 21.5069 25.0012 21.5047 21.3759 21.4981C21.2211 21.4981 21.1968 21.5554 21.1968 21.6899C21.199 22.3604 21.1945 23.0286 21.1923 23.699C21.0065 23.6703 20.9866 23.774 20.9866 23.9261C20.9888 25.9859 20.991 28.0478 20.9844 30.1076C20.9844 30.2929 21.0596 30.3303 21.2122 30.3083V30.3061Z" fill="white"/>
</svg>
