<svg width="129" height="27" viewBox="0 0 129 27" fill="none" xmlns="http://www.w3.org/2000/svg">
<path d="M0.0126827 17.0206C0.0786311 14.0785 0.621437 11.2351 1.73749 8.50579C2.47053 6.71666 3.42932 5.06184 4.72292 3.61229C5.82883 2.37815 7.10468 1.36447 8.68236 0.812021C11.2087 -0.0698739 13.6006 0.297582 15.8454 1.71419C16.9361 2.40349 17.8695 3.27778 18.737 4.22556C19.0616 4.58035 19.3559 4.97061 19.7997 5.19615C19.8581 5.22403 19.9114 5.26458 19.9697 5.28738C20.2512 5.40396 20.2665 5.39889 20.4668 5.16574C20.8651 4.69945 21.2557 4.22303 21.6641 3.76687C22.4986 2.83936 23.4092 2.00055 24.4872 1.3594C26.6077 0.0973811 28.7916 0.0466985 31.0211 1.02996C32.3731 1.62803 33.4891 2.54287 34.4606 3.64017C35.8658 5.22403 36.8347 7.06384 37.6007 9.02277C37.7834 9.49159 38.0117 9.94267 38.1638 10.4292C38.3769 11.1109 38.5697 11.7977 38.7295 12.4946C38.8969 13.232 39.0009 13.9746 39.1379 14.7171C39.1987 15.0516 39.2266 15.3937 39.2418 15.7231C39.2824 16.5949 39.4169 17.4692 39.3256 18.3384C39.2368 19.1899 39.1784 20.0439 38.9958 20.8853C38.8563 21.5264 38.6762 22.1473 38.4023 22.7378C37.966 23.6779 37.4232 24.5319 36.5811 25.1883C36.0966 25.5659 35.6248 25.9486 35.0313 26.1336C34.1689 26.4022 33.2913 26.5872 32.3781 26.5213C31.5411 26.4605 30.7472 26.2425 29.9609 25.9384C28.2665 25.2821 26.9957 24.1113 25.8924 22.72C24.4542 20.9005 23.2798 18.9086 22.0927 16.9243C21.6235 16.1387 21.1492 15.3582 20.6698 14.5802C20.4288 14.1874 20.1777 14.1291 19.7414 14.2761C19.1707 14.4713 18.8892 14.9426 18.6101 15.4114C18.1434 16.1894 17.6919 16.9801 17.2455 17.7708C16.8067 18.5538 16.3222 19.3065 15.8682 20.0794C15.4801 20.7383 15.0515 21.3769 14.6025 21.9978C13.976 22.8645 13.3267 23.7109 12.5556 24.4534C11.8276 25.1554 11.021 25.7509 10.0724 26.1133C9.44077 26.354 8.78382 26.5061 8.09644 26.5289C7.37354 26.5542 6.66333 26.4757 5.95819 26.349C5.68171 26.3008 5.40016 26.2324 5.15159 26.0727C4.8675 25.8903 4.52761 25.8193 4.22324 25.6698C2.38683 24.7676 1.26824 23.275 0.62651 21.3769C0.299305 20.4063 0.126824 19.4053 0.0634119 18.384C0.0355107 17.9279 0.0202918 17.4717 0 17.0156L0.0126827 17.0206ZM35.186 17.0282C35.186 15.7459 35.0668 14.4738 34.8411 13.2143C34.5139 11.3796 33.9837 9.61323 33.1112 7.95587C32.5658 6.92193 31.9038 5.97161 31.0338 5.17841C30.8233 4.98582 30.6178 4.76788 30.3388 4.68171C29.9051 4.5474 29.484 4.38268 29.0249 4.31426C28.2031 4.19262 27.4143 4.27118 26.6584 4.60569C25.938 4.925 25.2988 5.36594 24.7509 5.93867C24.4719 6.2301 24.1929 6.52153 23.9317 6.82817C23.5816 7.2387 23.2773 7.67205 23.0693 8.16875C22.7471 8.93661 22.7446 9.68926 23.2519 10.3938C23.3204 10.4875 23.3787 10.5914 23.4396 10.6928C24.5506 12.5225 25.6463 14.3597 26.7751 16.1768C27.6273 17.5503 28.477 18.9289 29.484 20.201C29.8163 20.6217 30.1714 21.017 30.5925 21.3541C31.7212 22.2563 33.8493 22.2715 34.6813 20.4012C34.8258 20.0769 34.9324 19.7449 35.011 19.4002C35.1936 18.6172 35.1911 17.8214 35.1835 17.0257L35.186 17.0282ZM4.73307 17.5528C4.73307 17.7885 4.73053 18.0216 4.73307 18.2573C4.74575 19.0176 4.90555 19.75 5.12876 20.4747C5.40777 21.3744 6.05457 21.7976 6.93473 21.9217C7.50037 22.0028 8.05332 21.9167 8.57837 21.6734C9.14908 21.4098 9.60057 20.9993 10.0216 20.5457C10.9855 19.5067 11.7693 18.3333 12.5429 17.155C13.4865 15.713 14.4097 14.2584 15.3406 12.8063C15.99 11.7952 16.6317 10.779 17.2861 9.77288C17.4078 9.58535 17.4332 9.43837 17.2912 9.24578C16.5226 8.18902 15.7312 7.15254 14.7724 6.25544C14.4275 5.9336 14.0622 5.65484 13.6082 5.48252C12.9893 5.24937 12.3425 5.13026 11.6982 5.15307C11.0388 5.17588 10.4021 5.36088 9.80856 5.71059C9.18205 6.08312 8.63671 6.53927 8.16492 7.08158C7.47246 7.87985 6.95502 8.79469 6.49085 9.74247C5.92014 10.9057 5.51938 12.1271 5.22007 13.379C4.8954 14.7475 4.7077 16.1387 4.72799 17.5503L4.73307 17.5528Z" fill="white"/>
<path d="M69.2866 25.7206V7.08673C69.1166 7.16022 69.0862 7.27933 69.0329 7.37563C67.5009 10.1252 65.9714 12.8748 64.4419 15.6244C63.6987 16.9599 62.9479 18.2903 62.2174 19.6309C62.0855 19.8767 61.9282 19.9452 61.6645 19.9401C60.6702 19.9249 59.6759 19.9249 58.6816 19.9401C58.4076 19.9452 58.2656 19.8539 58.1337 19.6157C56.4976 16.6558 54.8489 13.7035 53.2053 10.7486C52.5763 9.61837 51.9472 8.49066 51.3182 7.36295C51.27 7.27426 51.237 7.17289 51.1229 7.0918C51.0468 7.22611 51.0772 7.36802 51.0772 7.49726C51.0772 10.4217 51.0772 13.3487 51.0772 16.2731C51.0772 19.2635 51.0772 22.2563 51.0772 25.2467C51.0772 25.8017 51.1178 25.7155 50.5877 25.718C49.5426 25.7231 48.4951 25.718 47.45 25.718C47.1152 25.718 47.1152 25.7155 47.1101 25.3708C47.1101 25.3328 47.1101 25.2923 47.1101 25.2543C47.1101 17.3907 47.1101 9.52968 47.1101 1.66612C47.1101 1.12887 47.0417 1.19223 47.5921 1.19223C48.9263 1.18969 50.2604 1.19983 51.5946 1.18462C51.8838 1.18209 52.0309 1.27585 52.1704 1.52674C54.7805 6.26059 57.4006 10.9868 60.0208 15.7156C60.0817 15.8271 60.1121 15.964 60.2643 16.0375C60.4241 15.7562 60.5865 15.4774 60.7437 15.1936C62.9631 11.1845 65.1825 7.17542 67.402 3.16382C67.719 2.59363 68.0386 2.02344 68.3455 1.44818C68.4419 1.27079 68.5459 1.18209 68.7666 1.18462C70.1667 1.19729 71.5643 1.18969 72.9645 1.19223C73.2384 1.19223 73.2384 1.19983 73.246 1.47605C73.246 1.55461 73.246 1.63317 73.246 1.71173C73.246 9.54742 73.246 17.3856 73.246 25.2213C73.246 25.7966 73.3145 25.7155 72.7463 25.718C71.7393 25.7231 70.7324 25.718 69.7254 25.718C69.596 25.718 69.4667 25.718 69.2891 25.718L69.2866 25.7206Z" fill="white"/>
<path d="M124.441 23.2698C124.38 23.3408 124.347 23.3788 124.314 23.4193C123.084 25.0006 121.458 25.8749 119.48 26.0929C117.504 26.3108 115.652 25.9611 113.994 24.8055C112.672 23.8831 111.688 22.6717 111.077 21.1968C109.811 18.1482 109.778 15.0616 111.064 12.0155C111.997 9.81077 113.603 8.22944 115.901 7.44891C117.727 6.83057 119.574 6.82551 121.403 7.47172C122.511 7.86452 123.439 8.52594 124.205 9.41544C124.276 9.49907 124.332 9.60297 124.495 9.68406C124.495 9.5168 124.495 9.39263 124.495 9.26845C124.495 8.74641 124.5 8.22437 124.492 7.70233C124.489 7.52494 124.533 7.44131 124.73 7.44385C125.829 7.45145 126.927 7.44891 128.025 7.44385C128.19 7.44385 128.271 7.49706 128.254 7.66939C128.246 7.74795 128.254 7.8265 128.254 7.90506C128.254 13.6906 128.254 19.4736 128.254 25.2591C128.254 25.7786 128.307 25.7204 127.797 25.7229C126.831 25.7229 125.862 25.7229 124.895 25.7229C124.469 25.7229 124.5 25.7457 124.5 25.3124C124.5 24.765 124.5 24.215 124.5 23.6677C124.5 23.5536 124.525 23.4371 124.444 23.2698H124.441ZM124.424 16.6024C124.424 15.7661 124.424 14.9298 124.424 14.0961C124.424 13.9237 124.406 13.7616 124.332 13.6019C123.835 12.5071 123.074 11.6582 122.006 11.0905C120.992 10.5508 119.906 10.4012 118.775 10.5153C116.763 10.718 115.353 11.7722 114.607 13.6196C113.808 15.6014 113.851 17.6363 114.618 19.6231C115.079 20.8243 115.911 21.7316 117.108 22.2612C117.953 22.6337 118.846 22.7478 119.756 22.6616C121.808 22.469 123.353 21.4984 124.294 19.6333C124.385 19.4533 124.426 19.2709 124.424 19.0681C124.418 18.2445 124.424 17.4234 124.424 16.5998V16.6024Z" fill="white"/>
<path d="M93.7234 23.2648C93.4647 23.5486 93.173 23.7691 92.8813 23.9871C90.7988 25.543 88.4298 26.1791 85.8552 26.1462C84.3156 26.1259 82.8419 25.8218 81.4747 25.092C79.5343 24.0555 78.1697 22.4894 77.4291 20.4367C76.4677 17.7682 76.4956 15.0718 77.5483 12.4312C78.8926 9.06326 81.911 7.04606 85.5407 7.00298C86.9053 6.98777 88.2268 7.19304 89.4621 7.80378C91.1489 8.63752 92.3258 9.95783 93.1121 11.6481C93.693 12.8949 93.9846 14.2153 94.1013 15.5786C94.1622 16.2958 94.1597 17.013 94.1622 17.7327C94.1622 17.9278 94.1165 18.0317 93.9009 18.0064C93.8096 17.9963 93.7183 18.0064 93.627 18.0064C89.4799 18.0064 85.3353 18.0064 81.1881 18.0064C80.7163 18.0064 80.6656 17.9101 80.8 18.5006C80.9877 19.3368 81.3124 20.1199 81.8375 20.8041C82.6542 21.8685 83.7271 22.5324 85.0512 22.7301C86.6213 22.9658 88.1558 22.8137 89.6092 22.127C90.2636 21.8178 90.8496 21.4022 91.3898 20.9232C91.6283 20.7129 91.6359 20.7129 91.8337 20.9562C92.4628 21.724 93.0867 22.4919 93.7208 23.2699L93.7234 23.2648ZM85.5204 15.12C86.9332 15.12 88.3435 15.12 89.7563 15.12C89.8882 15.12 90.0176 15.1149 90.1495 15.12C90.3118 15.125 90.3499 15.0439 90.3321 14.8995C90.2028 13.8199 89.9009 12.8088 89.2186 11.932C87.6485 9.91221 84.6682 10.0643 83.23 10.969C82.2027 11.6152 81.5179 12.5224 81.0892 13.64C80.9294 14.0556 80.8153 14.4839 80.7392 14.9223C80.7138 15.0591 80.7544 15.12 80.8939 15.12C80.9852 15.12 81.0765 15.12 81.1678 15.12C82.6187 15.12 84.0696 15.12 85.5204 15.12Z" fill="white"/>
<path d="M108.329 22.4818C108.329 23.5233 108.329 24.5015 108.329 25.4797C108.329 25.6419 108.263 25.7052 108.111 25.7432C106.371 26.1664 104.626 26.3008 102.875 25.8294C101.168 25.3707 100.04 24.276 99.4462 22.6237C99.1443 21.7823 98.9871 20.9055 98.9769 20.0135C98.9566 18.0951 98.9642 16.1742 98.9617 14.2558C98.9617 13.2117 98.9617 12.1676 98.9617 11.121C98.9617 10.6345 98.9921 10.6877 98.5102 10.6877C97.5565 10.6877 96.6003 10.6877 95.6465 10.6877C95.3092 10.6877 95.3066 10.6826 95.3066 10.3405C95.3066 9.49154 95.3066 8.64259 95.3066 7.79364C95.3066 7.45153 95.3092 7.44646 95.644 7.44646C96.5723 7.44646 97.5007 7.44646 98.429 7.44646C99.0429 7.44646 98.9592 7.50728 98.9617 6.89401C98.9642 5.44446 98.9617 3.9949 98.9617 2.54535C98.9617 2.46679 98.9668 2.38823 98.9617 2.30967C98.949 2.14495 99.0124 2.06893 99.1849 2.07653C99.4056 2.08667 99.6288 2.07653 99.852 2.07653C100.689 2.07653 101.526 2.07653 102.363 2.07653C102.804 2.07653 102.794 2.02331 102.794 2.49213C102.794 3.9797 102.794 5.4698 102.794 6.95736C102.794 7.04859 102.799 7.13982 102.794 7.23105C102.787 7.37803 102.843 7.45153 102.997 7.44139C103.089 7.43632 103.18 7.44139 103.271 7.44139C104.788 7.44139 106.305 7.44139 107.822 7.44139C107.888 7.44139 107.954 7.44139 108.017 7.44139C108.324 7.44646 108.326 7.44899 108.326 7.7759C108.326 8.29794 108.326 8.81998 108.326 9.34202C108.326 9.6816 108.326 10.0212 108.326 10.3608C108.324 10.675 108.321 10.6801 108.002 10.6801C106.447 10.6801 104.889 10.6801 103.335 10.6801C102.718 10.6801 102.797 10.5863 102.797 11.2173C102.794 13.7642 102.797 16.3085 102.797 18.8553C102.797 19.4433 102.83 20.0261 102.959 20.6065C103.251 21.9166 103.966 22.54 105.364 22.6642C106.16 22.7352 106.957 22.6896 107.748 22.5552C107.926 22.5248 108.106 22.5071 108.331 22.4767L108.329 22.4818Z" fill="white"/>
</svg>
