<svg width="117" height="43" viewBox="0 0 117 43" fill="none" xmlns="http://www.w3.org/2000/svg">
<g clip-path="url(#clip0_383_25784)">
<path d="M116.995 19.2677C115.942 19.27 114.886 19.2722 113.833 19.2745C113.582 19.2745 113.456 19.4039 113.456 19.6627C113.456 25.2476 113.456 30.8324 113.456 36.415C113.456 36.7556 113.504 36.7102 113.153 36.7102C111.45 36.7102 109.747 36.7079 108.043 36.7147C107.841 36.7147 107.789 36.6648 107.791 36.4627C107.798 30.8302 107.795 25.1954 107.795 19.5628C107.795 19.2291 107.825 19.2745 107.507 19.2745C105.567 19.2745 103.624 19.2768 101.685 19.27C101.498 19.27 101.457 19.3154 101.457 19.4993C101.462 25.1522 101.459 30.8075 101.466 36.4604C101.466 36.6807 101.403 36.717 101.202 36.7147C99.4854 36.7056 97.7683 36.7079 96.0513 36.7147C95.8534 36.7147 95.7966 36.667 95.7966 36.4627C95.8034 30.8234 95.8011 25.1817 95.8011 19.5424C95.8011 19.2359 95.8261 19.2745 95.5328 19.2745C94.8482 19.2745 94.1637 19.27 93.4814 19.2768C93.3359 19.2768 93.2949 19.2382 93.2949 19.0929C93.2995 17.6944 93.2995 16.2936 93.2949 14.8951C93.2949 14.7453 93.3404 14.7067 93.486 14.709C94.1773 14.7158 94.8687 14.7067 95.5601 14.7158C95.7465 14.7181 95.8125 14.6749 95.8079 14.4751C95.7966 13.6124 95.8011 12.7497 95.9239 11.8916C96.115 10.5657 96.5516 9.33979 97.434 8.30909C98.0844 7.54855 98.9009 7.01503 99.8242 6.63817C101.148 6.09784 102.537 5.90714 103.952 5.86401C104.273 5.85492 104.593 5.864 104.914 5.85719C105.044 5.85492 105.096 5.89352 105.096 6.03428C105.091 7.48271 105.091 8.93114 105.096 10.3796C105.096 10.5271 105.044 10.5521 104.914 10.5498C104.354 10.543 103.802 10.5952 103.256 10.7315C102.442 10.9358 101.91 11.4194 101.666 12.223C101.43 13.004 101.466 13.8054 101.462 14.6068C101.462 14.6908 101.505 14.7158 101.58 14.7112C101.614 14.7112 101.65 14.7112 101.685 14.7112C103.647 14.7112 105.608 14.709 107.57 14.7158C107.754 14.7158 107.807 14.6704 107.805 14.4842C107.791 13.5103 107.782 12.5341 107.961 11.5715C108.255 9.98455 108.903 8.5906 110.204 7.56444C110.975 6.95601 111.853 6.56098 112.796 6.2999C114.175 5.91849 115.582 5.82541 117.004 5.85492V10.534C116.872 10.5385 116.74 10.5408 116.608 10.5453C116.09 10.5612 115.582 10.627 115.082 10.7769C114.32 11.0062 113.863 11.517 113.647 12.2684C113.435 13.004 113.467 13.7555 113.461 14.5069C113.461 14.6772 113.515 14.7135 113.674 14.7135C114.784 14.709 115.894 14.7135 117.004 14.7135V19.2677H116.995Z" fill="white"/>
<path d="M11.6502 0.340405C12.0391 0.517486 12.2347 0.88527 12.4849 1.19403C13.854 2.88765 15.0457 4.69705 16.0486 6.63132C17.213 8.87662 18.0863 11.2286 18.6708 13.6873C18.9619 14.9155 19.0005 16.1665 19.0779 17.4151C19.1688 18.8931 19.2098 20.3755 19.2621 21.8558C19.2666 21.9761 19.2916 22.0873 19.3439 22.1963C19.8829 23.3723 20.4288 24.5438 20.9518 25.7266C21.6318 27.2658 22.4096 28.7596 22.9782 30.3488C23.0737 30.619 23.1487 30.8937 23.1328 31.1843C23.1192 31.4363 22.9964 31.5657 22.7576 31.568C21.1178 31.5793 19.4781 31.5929 17.8384 31.5975C17.3745 31.5975 17.122 31.3296 17.122 30.8596C17.122 28.6802 17.122 26.5007 17.122 24.3213C17.122 21.8853 17.0379 19.4515 16.9219 17.0201C16.8468 15.4263 16.5353 13.878 16.0668 12.3547C15.5141 10.5544 14.7978 8.82213 13.9154 7.1603C13.2604 5.923 12.5281 4.73338 11.6661 3.62549C11.632 3.58235 11.5956 3.54149 11.5524 3.49154C10.7656 4.49727 10.0878 5.56203 9.46924 6.66765C8.72557 8.0003 8.09106 9.38289 7.56571 10.8154C7.05856 12.2003 6.63555 13.6124 6.38994 15.0699C6.24211 15.9553 6.20345 16.8543 6.16251 17.7511C6.09201 19.2813 6.04653 20.8092 6.01924 22.3393C5.96465 25.1726 6.00787 28.0059 5.99195 30.8392C5.98967 31.3319 5.75088 31.5929 5.25282 31.5929C3.61993 31.5907 1.98703 31.5771 0.354132 31.5634C0.117612 31.5634 0.0675788 31.4794 0.0425623 31.2456C-0.0347615 30.4987 0.29955 29.8585 0.581555 29.2137C1.14556 27.9287 1.73914 26.6551 2.32361 25.3792C2.79438 24.3485 3.25832 23.3155 3.74046 22.2894C3.87464 22.0033 3.86099 21.7082 3.87009 21.4108C3.93377 19.422 4.00654 17.4333 4.16347 15.4513C4.26126 14.2163 4.58875 13.0289 4.93898 11.8484C5.37108 10.3932 5.92144 8.98332 6.57415 7.61208C7.20184 6.29078 7.91822 5.01943 8.72557 3.79803C9.46469 2.67651 10.2675 1.59813 11.1385 0.574243C11.2272 0.46981 11.3409 0.417594 11.4433 0.338135H11.6525L11.6502 0.340405Z" fill="white"/>
<path d="M53.7667 27.9945C53.7667 30.821 53.7667 33.6475 53.7712 36.4763C53.7712 36.667 53.7235 36.7169 53.5301 36.7169C51.7995 36.7101 50.0688 36.7078 48.3358 36.7169C48.1357 36.7169 48.0993 36.6556 48.0993 36.4717C48.1038 30.8324 48.1038 25.193 48.1016 19.5514C48.1016 19.2313 48.1288 19.2744 47.8196 19.2744C47.135 19.2744 46.4505 19.2699 45.7682 19.2767C45.6204 19.2767 45.584 19.2336 45.584 19.0905C45.5885 17.6989 45.5908 16.3049 45.584 14.9132C45.584 14.7407 45.6408 14.7067 45.8 14.7067C46.4982 14.7135 47.1964 14.7067 47.8946 14.7135C48.0583 14.7135 48.1107 14.6726 48.1084 14.5023C48.097 13.626 48.0902 12.7474 48.2198 11.8779C48.4222 10.5248 48.868 9.2739 49.7959 8.23639C50.6828 7.24428 51.8176 6.66309 53.0821 6.30439C54.1283 6.00925 55.1994 5.88666 56.2842 5.85941C56.6049 5.85033 56.9256 5.83898 57.2462 5.85487C57.3554 5.85941 57.3895 5.89574 57.3895 6.00471C57.3872 7.47357 57.385 8.94244 57.3895 10.4113C57.3895 10.5748 57.2894 10.5453 57.1962 10.5453C56.5503 10.5407 55.9181 10.6043 55.2995 10.8086C54.5103 11.0697 54.0987 11.6441 53.9122 12.4182C53.7394 13.1311 53.7689 13.8553 53.7644 14.5795C53.7644 14.7021 53.8281 14.7112 53.9236 14.7112C54.2579 14.7089 54.5945 14.7112 54.9288 14.7112C56.5071 14.7112 58.0831 14.7067 59.6615 14.718C59.8821 14.718 59.9253 14.6522 59.923 14.4478C59.9139 12.8042 59.923 11.1605 59.9139 9.51909C59.9139 9.31931 59.9617 9.26255 60.1663 9.26255C61.8766 9.27163 63.5868 9.27163 65.297 9.26255C65.5062 9.26255 65.5472 9.32612 65.5472 9.52136C65.5403 11.1718 65.5472 12.8223 65.5381 14.4728C65.5381 14.6635 65.5836 14.7203 65.7814 14.718C67.2688 14.7089 68.7561 14.718 70.2412 14.7089C70.4299 14.7089 70.4891 14.7521 70.4891 14.9496C70.48 16.3208 70.48 17.6921 70.4891 19.0656C70.4891 19.2449 70.4345 19.2812 70.2662 19.2812C68.7652 19.2744 67.2642 19.2812 65.7632 19.2744C65.5927 19.2744 65.5381 19.313 65.5381 19.4901C65.5426 22.9931 65.5426 26.4939 65.5426 29.9969C65.5426 30.3851 65.6086 30.7597 65.7791 31.1094C66.0248 31.6156 66.4728 31.8245 66.9913 31.9335C67.3142 32.0016 67.6417 32.0197 67.9692 32.022C68.7379 32.0243 69.5043 32.0266 70.273 32.022C70.4322 32.022 70.4891 32.0561 70.4891 32.2286C70.4822 33.6634 70.4845 35.0982 70.4891 36.5308C70.4891 36.6556 70.4709 36.7215 70.3208 36.7192C68.8357 36.6965 67.3461 36.776 65.8633 36.6602C64.6102 36.5625 63.4162 36.2629 62.3564 35.55C61.4263 34.9234 60.8054 34.063 60.4165 33.0277C60.0435 32.0311 59.923 30.989 59.9207 29.9334C59.9162 26.4667 59.9162 22.9977 59.923 19.531C59.923 19.3357 59.8821 19.2722 59.6728 19.2744C57.7807 19.2835 55.8885 19.2835 53.9986 19.2744C53.7962 19.2744 53.7621 19.338 53.7621 19.5196C53.7667 22.3461 53.7667 25.1726 53.7667 28.0014V27.9945Z" fill="white"/>
<path d="M71.0293 25.704C71.0361 19.6946 75.8734 14.7499 81.957 14.7522C88.0542 14.7545 92.8778 19.6741 92.8915 25.6813C92.9051 31.8451 87.8836 36.733 81.8228 36.6626C75.9212 36.5945 71.0293 31.7633 71.0293 25.704ZM81.9661 20.2894C78.9777 20.2894 76.5807 22.6959 76.5557 25.6722C76.5284 28.6758 78.9914 31.1367 81.957 31.1345C84.9385 31.1322 87.3674 28.7053 87.3674 25.7244C87.3674 22.7095 84.9612 20.2894 81.9661 20.2894Z" fill="white"/>
<path d="M34.3225 21.2928C34.3225 26.3419 34.3225 31.391 34.3271 36.4378C34.3271 36.6444 34.2907 36.717 34.061 36.7148C32.3712 36.7034 30.6815 36.7057 28.9917 36.7148C28.8098 36.7148 28.7598 36.6739 28.7598 36.4877C28.7643 26.3555 28.7643 16.2233 28.7598 6.09109C28.7598 5.89131 28.8212 5.85498 29.0054 5.85498C30.702 5.86179 32.3985 5.86179 34.0951 5.85498C34.2816 5.85498 34.3248 5.90266 34.3248 6.08655C34.3203 11.1561 34.3203 16.2256 34.3203 21.2951L34.3225 21.2928Z" fill="white"/>
<path d="M43.1566 25.7425C43.1566 29.3205 43.1566 32.9007 43.1612 36.4786C43.1612 36.6739 43.1043 36.7147 42.9201 36.7147C41.2235 36.7079 39.527 36.7079 37.8327 36.7147C37.6439 36.7147 37.6052 36.6625 37.6075 36.4832C37.6121 29.3182 37.6121 22.1555 37.6075 14.9905C37.6075 14.7885 37.6598 14.7385 37.86 14.7408C39.5429 14.7499 41.2235 14.7499 42.9065 14.7408C43.1293 14.7408 43.1635 14.8066 43.1635 15.0087C43.1566 18.5866 43.1589 22.1668 43.1589 25.7448L43.1566 25.7425Z" fill="white"/>
<path d="M11.5666 31.5976C12.64 31.5976 13.7157 31.6112 14.7891 31.5908C15.2121 31.5817 15.5328 31.8836 15.6374 32.2015C15.7284 32.4807 15.7238 32.7622 15.7057 33.046C15.6124 34.6125 15.103 36.0632 14.4525 37.473C13.6952 39.1145 12.7605 40.6492 11.6848 42.0999C11.5847 42.2338 11.5438 42.2542 11.4324 42.1044C10.3135 40.6037 9.35145 39.0123 8.58276 37.3073C7.9619 35.9315 7.47976 34.5149 7.40699 32.987C7.39107 32.6533 7.37742 32.3173 7.56164 32.013C7.72538 31.7452 7.95053 31.593 8.28029 31.593C9.37647 31.5976 10.4704 31.593 11.5666 31.593V31.5976Z" fill="white"/>
<path d="M43.3722 8.60874C43.3835 10.2274 42.2669 11.2945 40.8569 11.5011C39.8994 11.6418 39.0398 11.4034 38.3075 10.7791C37.6275 10.1979 37.3477 9.43058 37.3887 8.54971C37.4842 6.45652 39.6492 5.4576 41.3345 6.00701C42.4079 6.35436 43.1038 7.0536 43.329 8.17739C43.3631 8.34766 43.3631 8.52247 43.3722 8.60874Z" fill="white"/>
<path d="M11.5583 12.0552C13.0297 12.062 14.2191 13.2039 14.2214 14.7091C14.2237 16.2166 12.9979 17.3744 11.5378 17.3563C10.0778 17.3381 8.89062 16.1666 8.89062 14.7069C8.89062 13.2448 10.0891 12.0552 11.5583 12.0552Z" fill="white"/>
</g>
<defs>
<clipPath id="clip0_383_25784">
<rect width="117" height="42" fill="white" transform="translate(0 0.335938)"/>
</clipPath>
</defs>
</svg>
