<svg width="1915" height="751" viewBox="0 0 1915 751" fill="none" xmlns="http://www.w3.org/2000/svg">
<style>
.path1{animation: pathAnim 3s .1s infinite alternate }
.path2{animation: pathAnim 3s .2s infinite alternate }
.path3{animation: pathAnim 3s .3s infinite alternate }
.path4{animation: pathAnim 3s .4s infinite alternate }
.path5{animation: pathAnim 3s .5s infinite alternate }
.path6{animation: pathAnim 3s .6s infinite alternate }
.path7{animation: pathAnim 3s .7s infinite alternate }
.path8{animation: pathAnim 3s .8s infinite alternate }
.path9{animation: pathAnim 3s .9s infinite alternate }
.path10{animation: pathAnim 3s 1.0s infinite alternate }
.path11{animation: pathAnim 3s 1.1s infinite alternate }
.path12{animation: pathAnim 3s 1.2s infinite alternate }
.path13{animation: pathAnim 3s 1.3s infinite alternate }
.path14{animation: pathAnim 3s 1.4s infinite alternate }
.path15{animation: pathAnim 3s 1.5s infinite alternate }
.path16{animation: pathAnim 3s 1.6s infinite alternate }
.path17{animation: pathAnim 3s 1.7s infinite alternate }
.path18{animation: pathAnim 3s 1.8s infinite alternate }
.path19{animation: pathAnim 3s 1.9s infinite alternate }
.path20{animation: pathAnim 3s 2.0s infinite alternate }
.path21{animation: pathAnim 3s 2.1s infinite alternate }
.path22{animation: pathAnim 3s 2.2s infinite alternate }
.path23{animation: pathAnim 3s 2.3s infinite alternate }
.path24{animation: pathAnim 3s 2.4s infinite alternate }
.path25{animation: pathAnim 3s 2.5s infinite alternate }
.path26{animation: pathAnim 3s 2.6s infinite alternate }
.path27{animation: pathAnim 3s 2.7s infinite alternate }
.path28{animation: pathAnim 3s 2.8s infinite alternate }
.path29{animation: pathAnim 3s 2.9s infinite alternate }
.path30{animation: pathAnim 3s 3.0s infinite alternate }
.path31{animation: pathAnim 3s 3.1s infinite alternate }
.path32{animation: pathAnim 3s 3.2s infinite alternate }
.path33{animation: pathAnim 3s 3.3s infinite alternate }
.path34{animation: pathAnim 3s 3.4s infinite alternate }
.path35{animation: pathAnim 3s 3.5s infinite alternate }
.path36{animation: pathAnim 3s 3.6s infinite alternate }
.path37{animation: pathAnim 3s 3.7s infinite alternate }
.path38{animation: pathAnim 3s 3.8s infinite alternate }
.path39{animation: pathAnim 3s 3.9s infinite alternate }
.path40{animation: pathAnim 3s 4.0s infinite alternate }
.path41{animation: pathAnim 3s 4.1s infinite alternate }
.path42{animation: pathAnim 3s 4.2s infinite alternate }
.path43{animation: pathAnim 3s 4.3s infinite alternate }
.path44{animation: pathAnim 3s 4.4s infinite alternate }
.path45{animation: pathAnim 3s 4.5s infinite alternate }
.path46{animation: pathAnim 3s 4.6s infinite alternate }
.path47{animation: pathAnim 3s 4.7s infinite alternate }
.path48{animation: pathAnim 3s 4.8s infinite alternate }
.path49{animation: pathAnim 3s 4.9s infinite alternate }
.path50{animation: pathAnim 3s 5.0s infinite alternate }
.path51{animation: pathAnim 3s 5.1s infinite alternate }
.path52{animation: pathAnim 3s 5.2s infinite alternate }
.path53{animation: pathAnim 3s 5.3s infinite alternate }
.path54{animation: pathAnim 3s 5.4s infinite alternate }
.path55{animation: pathAnim 3s 5.5s infinite alternate }
.path56{animation: pathAnim 3s 5.6s infinite alternate }
.path57{animation: pathAnim 3s 5.7s infinite alternate }
.path58{animation: pathAnim 3s 5.8s infinite alternate }
.path59{animation: pathAnim 3s 5.9s infinite alternate }
.path60{animation: pathAnim 3s 6.0s infinite alternate }
.path61{animation: pathAnim 3s 6.1s infinite alternate }
.path62{animation: pathAnim 3s 6.2s infinite alternate }
.path63{animation: pathAnim 3s 6.3s infinite alternate }
@keyframes pathAnim{
    from{
        opacity: 1;
    }
    to{
        opacity: 0.1;
    }
}


</style>
<g opacity="0.3">
<path class="path1" d="M205.969 748.55C355.089 728.95 231.319 430.72 414.589 464.58C512.249 482.62 606.669 560.67 688.329 611.48C755.619 653.36 881.379 758.85 968.789 748.56C1099.61 733.15 1019.98 509.68 1103.56 448.01C1178.16 392.97 1320.91 495.73 1386.49 530.58C1511.07 596.77 1632.25 674.46 1772.12 704.78" stroke="white" stroke-width="1.52" stroke-miterlimit="10"/>
<path class="path2" d="M202.9 733.48C346.52 708.71 243.55 420.12 420.19 452.48C516.62 470.15 609.06 547.36 689.18 598.05C754.37 639.3 881.14 746.18 966.68 734.29C1093.16 716.72 1027.61 496.33 1111.74 435.68C1186.7 381.64 1325.08 481.8 1391.01 517.51C1513.71 583.98 1631.81 660.34 1770.27 690.35" stroke="white" stroke-width="1.52" stroke-miterlimit="10"/>
<path class="path3" d="M195.42 718.84C336.17 691.7 261.15 413.13 431.69 444.48C525.53 461.73 614.36 537.33 691.62 587.5C754.98 628.64 877.48 733.45 961.53 721.61C1086.6 703.98 1039.92 486.02 1127.27 426.91C1203.76 375.14 1333.33 470.18 1399.79 507.31C1518.25 573.49 1630.97 648.1 1765.77 677.31" stroke="white" stroke-width="1.52" stroke-miterlimit="10"/>
<path class="path4" d="M184.191 704.59C324.461 677.37 282.891 409.17 448.211 439.99C538.351 456.79 622.141 530.11 695.441 579.44C757.081 620.92 871.001 720.77 953.801 710.3C1080.02 694.34 1056.14 478.27 1149.04 421.17C1227.69 372.83 1345.26 460.52 1412.18 499.54C1524.39 564.99 1629.72 637.42 1759.01 665.45" stroke="white" stroke-width="1.52" stroke-miterlimit="10"/>
<path class="path5" d="M169.869 690.7C294.969 646.56 321.959 410.38 468.859 438.43C554.409 454.76 631.959 525.23 700.369 573.45C760.019 615.5 862.569 708.37 943.939 700.15C1073.6 687.05 1075.44 472.69 1175.94 417.96C1257.22 373.7 1359.84 453.09 1427.53 493.81C1533.02 557.27 1627.37 627.92 1750.36 654.59" stroke="white" stroke-width="1.52" stroke-miterlimit="10"/>
<path class="path6" d="M153.141 677.16C283.421 637.07 346.551 410.35 492.771 439.22C573.071 455.08 643.411 522.22 706.201 569.16C763.201 611.77 853.121 696.61 932.431 690.98C1065.63 681.52 1099.94 471.51 1206.89 416.81C1287.86 375.4 1379.78 447.55 1445.23 489.76C1541.63 551.93 1625.22 619.63 1740.27 644.6" stroke="white" stroke-width="1.52" stroke-miterlimit="10"/>
<path class="path7" d="M134.65 663.94C271.13 629.22 361.14 423.61 507.7 439.43C666.87 456.6 753.94 686.44 918.31 680.32C1066.48 674.81 1121.16 458.11 1251.38 412.09C1320.29 387.74 1390.2 434.88 1444.19 471.91C1537.98 536.24 1614.03 610.89 1729.11 635.32" stroke="white" stroke-width="1.52" stroke-miterlimit="10"/>
<path class="path8" d="M115.08 651.01C259.93 620.56 384.01 423.4 535.97 443.35C684.03 462.79 751.77 674.56 905.87 672.74C1062.71 670.89 1146.43 456.58 1288.24 413.78C1444.94 366.49 1570.54 595.4 1717.29 626.53" stroke="white" stroke-width="1.52" stroke-miterlimit="10"/>
<path class="path9" d="M95.0801 638.35C195.39 621.23 273.72 567.98 360.3 518.59C419.98 484.55 492.19 436.62 564.84 447.92C701.44 469.16 749.65 664.02 893.19 665.57C1057.63 667.34 1175.07 460.05 1325.86 416.06C1478.63 371.5 1566.26 588.66 1705.21 618.12" stroke="white" stroke-width="1.52" stroke-miterlimit="10"/>
<path class="path10" d="M75.3203 625.93C182.95 611.19 273.47 561.67 370.56 516.7C436.83 486.01 517.22 441.1 593.41 452.52C719.11 471.36 747.11 658.33 880.65 658.55C1058.63 658.84 1196.36 460.93 1363.1 418.4C1516.13 379.36 1559.04 581.44 1693.27 609.88" stroke="white" stroke-width="1.52" stroke-miterlimit="10"/>
<path class="path11" d="M56.4697 613.73C171.56 601.13 273.44 555.33 380.44 514.57C451.62 487.45 541.89 443.33 620.76 456.6C736.63 476.09 743.65 649.43 868.62 651.51C949.04 652.85 1031.89 599.63 1099.81 563.84C1194.89 513.73 1291.83 444.45 1398.78 420.33C1563.19 383.26 1545.19 608.31 1681.87 601.68" stroke="white" stroke-width="1.52" stroke-miterlimit="10"/>
<path class="path12" d="M39.1797 601.73C161.46 590.91 273.59 548.72 389.62 511.86C465.11 487.88 564.54 444.4 645.98 459.57C753.49 479.6 739.34 640.82 857.47 644.21C941.94 646.64 1032.39 593.91 1105.92 559.76C1210.47 511.21 1316.95 444.56 1431.75 421.32C1490.64 409.4 1527.32 417.75 1559.21 466.83C1587.09 509.75 1598.66 599.49 1671.41 593.32" stroke="white" stroke-width="1.52" stroke-miterlimit="10"/>
<path class="path13" d="M24.1201 589.9C149.1 580.97 266.69 543.81 386.86 511.17C460.22 491.25 602.56 431.77 677.92 460.85C765.59 494.68 738.6 627.73 843.57 637.47C926.41 645.16 1028.73 589.4 1101.65 558.97C1212.85 512.56 1325.49 452.16 1444.34 425.82C1511.11 411.02 1551.2 406.81 1579.2 468.17C1596.88 506.9 1592.97 593.32 1662.26 584.68" stroke="white" stroke-width="1.52" stroke-miterlimit="10"/>
<path class="path14" d="M13.9697 575.21C144.03 566.9 268.9 533.14 395.07 502.93C468.5 485.35 624.73 425.72 698.15 456.84C780.18 491.61 735.25 615.52 837.2 625.98C922.44 634.72 1030.62 578.78 1106.94 549.68C1225.11 504.62 1344.8 446.17 1469.71 420.32C1532.07 407.41 1578.01 397.3 1596.02 460.8C1605.89 495.61 1587.26 583.57 1656.88 572.57" stroke="white" stroke-width="1.52" stroke-miterlimit="10"/>
<path class="path15" d="M5.37012 563.64C139.21 555.13 269.08 523.77 399.83 496.04C473.36 480.45 639.65 420.51 711.66 453C790.56 488.59 729.41 606.1 831.28 616.67C918.29 625.69 1029.89 569.68 1108.81 541.83C1232.59 498.16 1357.47 441.15 1487.15 415.41C1545.65 403.8 1598.02 389.79 1607.15 454.53C1611.54 485.64 1579.23 576.05 1651.63 562.79" stroke="white" stroke-width="1.52" stroke-miterlimit="10"/>
<path class="path16" d="M1 552.16C136.79 542.39 269.55 513.01 402.86 487.15C476.5 472.87 648.26 412.88 719.55 445.74C798.02 481.91 723.53 596.48 828.26 606.33C916.01 614.59 1028.76 559.08 1108.99 532.09C1236.33 489.27 1364.89 433.62 1497.54 407.59C1558.03 395.72 1606.75 381.76 1613.91 445.96C1617.06 474.24 1569.97 567.75 1648.9 552.19" stroke="white" stroke-width="1.52" stroke-miterlimit="10"/>
<path class="path17" d="M1.49023 540.76C136.7 530.37 268.99 501.73 401.86 476.17C475.31 462.04 646.81 402.31 717.66 435.1C794.6 470.71 726.12 585.13 828.25 594.82C915.11 603.06 1029.14 546.84 1108.77 520.52C1236.73 478.22 1365.81 423.68 1498.73 397.25C1558.55 385.35 1607.64 371.19 1614.6 435.26C1617.72 463.99 1570.52 555.59 1649.63 540.9" stroke="white" stroke-width="1.52" stroke-miterlimit="10"/>
<path class="path18" d="M6.75977 529.42C138.03 519.55 265.87 491.01 394.56 464.96C468.44 450 630.3 392.61 702.22 424.09C778.43 457.44 733.19 572.46 829.7 582.07C915.58 590.63 1030.12 534.37 1108.97 508.57C1235.88 467.05 1363.73 413.85 1495.39 387.61C1555.47 375.64 1602.37 362.09 1613.68 425.15C1619.24 456.14 1581.04 542.13 1656.11 529.9" stroke="white" stroke-width="1.52" stroke-miterlimit="10"/>
<path class="path19" d="M16.1699 518.19C140.66 508.79 260.8 480 382.49 453.95C457.52 437.89 601.59 384.77 676.1 413.25C755.29 443.52 737.54 559.73 832.22 568.3C917.9 576.06 1029.88 522 1108.8 496.56C1234.08 456.18 1360.18 404.63 1489.99 379.03C1547 367.79 1598.56 353.9 1613.16 416.06C1621.29 450.68 1597.17 529.34 1667.84 519.35" stroke="white" stroke-width="1.52" stroke-miterlimit="10"/>
<path class="path20" d="M29.0498 507.07C144.33 498.13 254.33 469.61 366.41 443.13C441.48 425.4 564.67 378.61 641.03 402.58C726.84 429.51 738.52 546.68 835.66 553.7C921.42 559.9 1029.04 509.74 1108.34 484.52C1231.38 445.4 1355.48 395.93 1482.88 371.34C1541.71 359.99 1589.85 348.63 1612.97 407.83C1627.67 445.46 1615.25 517.41 1683.97 509.18" stroke="white" stroke-width="1.52" stroke-miterlimit="10"/>
<path class="path21" d="M44.7402 496.1C148.99 487.63 246.61 459.51 347.1 432.52C420.17 412.89 522.62 373.27 598.73 392.1C694.85 415.88 735.66 532.77 839.84 538.47C925.41 543.15 1028.11 497.19 1107.63 472.5C1228.17 435.08 1349.72 387.74 1474.39 364.44C1535.75 352.97 1580.83 345.12 1613.07 400.36C1636.18 439.95 1635.77 506.04 1703.67 499.38" stroke="white" stroke-width="1.52" stroke-miterlimit="10"/>
<path class="path22" d="M62.5801 485.3C154.59 477.32 237.92 449.84 325.33 422.14C393.82 400.43 477.8 367.68 550.91 381.85C660.37 403.06 729.35 518.64 844.59 522.85C929.69 525.96 1027.21 484.58 1106.76 460.58C1224.5 425.05 1343.23 380.01 1464.87 358.21C1529.2 346.68 1572.31 343 1613.4 393.54C1645.94 433.57 1657.78 495.23 1726.11 489.94" stroke="white" stroke-width="1.52" stroke-miterlimit="10"/>
<path class="path23" d="M81.8896 474.69C221.25 461.55 357.43 350.95 499.28 371.79C624.75 390.23 720.1 504.27 849.73 507C933.92 508.77 1026.59 471.89 1105.75 448.77C1220.5 415.26 1336.2 372.65 1454.6 352.48C1521.37 341.11 1565.35 341.38 1613.86 387.22C1655.52 426.57 1680.72 484.94 1750.4 480.8" stroke="white" stroke-width="1.52" stroke-miterlimit="10"/>
<path class="path24" d="M102 464.29C225.02 451.46 317.95 347.5 445.54 361.97C588.54 378.19 709 489.77 855.05 491.15C1053.91 493.03 1249.16 378.44 1443.91 347.17C1513.5 336 1559.1 340.35 1614.38 381.3C1673.4 425.02 1698.41 461 1775.71 471.94" stroke="white" stroke-width="1.52" stroke-miterlimit="10"/>
<path class="path25" d="M122.27 454.13C232.38 452.44 272.57 342.18 391.45 352.39C552.83 366.25 696.8 475.2 860.45 475.5C1054.61 475.86 1242.66 370.75 1433.2 342.13C1590.54 318.49 1656.31 445.07 1801.25 463.34" stroke="white" stroke-width="1.52" stroke-miterlimit="10"/>
<path class="path26" d="M142.01 444.24C194.7 444.75 201.76 417.87 227.65 385.08C256.97 347.95 276.05 340.6 326.37 342.03C510.65 347.27 679.66 461.56 864.95 459.61C1060.51 457.55 1243.71 355.52 1437.08 335.14C1587.91 319.24 1682.32 439.16 1826.09 454.95" stroke="white" stroke-width="1.52" stroke-miterlimit="10"/>
<path class="path27" d="M160.559 434.64C219.039 437.72 194.699 405.35 206.369 375.9C222.409 335.46 220.949 332.5 275.879 333.06C477.439 335.14 666.869 445.94 869.219 445.13C1059.5 444.37 1238.56 348.64 1426.87 330.47C1583.91 315.32 1697.82 431.67 1849.44 446.76" stroke="white" stroke-width="1.52" stroke-miterlimit="10"/>
<path class="path28" d="M177.25 425.35C260.03 431.49 107.18 324.88 230.31 324.35C447.45 323.42 655.35 432.59 873.18 431.43C1058.82 430.44 1233.71 341.97 1417.61 325.67C1581.17 311.18 1711.17 424.12 1870.43 438.74" stroke="white" stroke-width="1.52" stroke-miterlimit="10"/>
<path class="path29" d="M191.431 416.4C273.251 417.06 56.9708 321.08 191.431 315.92C420.911 307.11 646.261 420.05 876.711 418.7C1058.21 417.63 1229.68 335.45 1409.64 320.6C1579.24 306.61 1722.17 416.44 1888.22 430.86" stroke="white" stroke-width="1.52" stroke-miterlimit="10"/>
<path class="path30" d="M202.409 407.8C210.159 406.31 217.919 404.83 225.669 403.34C202.279 361.55 142.209 353.54 113.359 314.71C146.649 286.14 264.259 318.08 300.219 323.24C417.009 339.98 532.899 362.19 649.379 380.73C793.239 403.63 917.169 411.9 1060.95 382.44C1191.45 355.7 1336.17 302.56 1471.84 313.31C1621.11 325.14 1751.77 410.32 1901.98 423.07" stroke="white" stroke-width="1.52" stroke-miterlimit="10"/>
<path class="path31" d="M209.549 399.59C217.579 398.1 225.619 396.61 233.649 395.12C198.319 352.64 129.369 349.02 93.5586 306.77C124.819 278.16 248.369 310.52 282.399 315.12C404.239 331.61 525.329 352.95 646.919 371.04C791.659 392.58 917.039 401.7 1061.63 373.11C1190.66 347.6 1333.41 296.85 1467.21 307.21C1620.33 319.07 1757 402.06 1910.86 415.36" stroke="white" stroke-width="1.52" stroke-miterlimit="10"/>
<path class="path32" d="M212.16 391.79C221.21 390.29 230.26 388.79 239.3 387.29C207.32 338.69 123.63 341.52 83.5498 299.1C118.3 270.96 236.93 302.77 273.67 307.61C398.72 324.09 523.15 344.68 647.99 362.53C793 383.26 917.6 392.57 1062.44 364.57C1190.11 339.89 1332.58 289.92 1464.8 300.25C1619.28 312.32 1758.98 393.43 1914 407.72" stroke="white" stroke-width="1.52" stroke-miterlimit="10"/>
<path class="path33" d="M212.29 384.32L238.52 380.14C207.92 331.77 126.01 332.79 87.4502 290.3C121.14 262.59 241.54 294.67 277.41 299.37C401.04 315.54 524.09 335.62 647.52 353.08C792.66 373.62 917.04 382.31 1062.06 355.1C1190.1 331.07 1333.42 282.04 1465.78 291.82C1619.55 303.17 1757.44 386.52 1911.87 399.99" stroke="white" stroke-width="1.52" stroke-miterlimit="10"/>
<path class="path34" d="M212.411 377.09C221.071 375.72 229.731 374.36 238.381 372.99C212.041 324.2 130.471 323.46 95.6309 280.22C129.251 252.68 248.751 284.47 284.781 289.11C406.201 304.74 527.081 324.08 648.321 340.94C792.791 361.03 916.991 368.81 1061.44 343.06C1190.09 320.13 1334.61 272.44 1467.24 282.22C1618.96 293.41 1753.33 379.01 1905.84 392.1" stroke="white" stroke-width="1.52" stroke-miterlimit="10"/>
<path class="path35" d="M212.52 370.11C221.28 368.71 230.04 367.31 238.8 365.9C209.41 319.94 137.51 314.82 107.48 269.12C141.82 241.54 258.27 272.56 295.25 277.2C413.79 292.08 531.82 310.52 650.18 326.57C793.28 345.98 917.37 352.65 1060.59 328.9C1190.07 307.42 1336.05 261.42 1469.09 271.7C1617.64 283.18 1746.99 371.08 1896.47 384.16" stroke="white" stroke-width="1.52" stroke-miterlimit="10"/>
<path class="path36" d="M212.62 363.36C221.73 361.78 230.83 360.2 239.94 358.62C225.76 308.8 144.87 302.16 122.92 255.31C176.91 231.5 278.19 260.17 332.96 267.04C422.53 278.29 511.86 291.28 601.3 303.44C764.13 325.57 903.97 336.29 1066.19 311.9C1199.96 291.79 1348.89 247.31 1484.78 262.79C1624.28 278.68 1742.93 362.87 1884.37 376.19" stroke="white" stroke-width="1.52" stroke-miterlimit="10"/>
<path class="path37" d="M212.7 356.85C316.27 348.02 21.1899 227.5 205.11 237.92C429.05 250.6 651.69 314.56 876.25 314.37C1048.71 314.22 1220.22 265.94 1391.73 251.67C1566.59 237.11 1700.66 351.18 1870.11 368.25" stroke="white" stroke-width="1.52" stroke-miterlimit="10"/>
<path class="path38" d="M212.78 350.59C286.01 358.25 203.23 290.47 188.58 274.22C147.53 228.67 161.54 220.84 225.45 224.07C441.79 235 656.38 293.54 873.23 293.84C1047.44 294.08 1220.9 251.14 1394.4 238.84C1565.89 226.68 1689.07 342.36 1854.26 360.41" stroke="white" stroke-width="1.52" stroke-miterlimit="10"/>
<path class="path39" d="M212.839 344.56C287.999 351.17 213.309 281.93 199.259 260.59C169.459 215.33 181.349 211.43 235.839 209.82C447.139 203.58 657.809 272.47 869.539 272.09C1050.81 271.77 1230.84 234.05 1411.66 224.67C1570.81 216.41 1684.06 333.93 1837.36 352.69" stroke="white" stroke-width="1.52" stroke-miterlimit="10"/>
<path class="path40" d="M212.881 338.77C287.801 344.31 226.341 276.94 213.221 249.93C189.741 201.59 204.381 197.85 258.121 195.79C460.521 188.04 663.691 250.62 866.571 250.9C1049.68 251.15 1231.85 219.06 1414.67 211.88C1570.1 205.78 1671.41 325.31 1820.02 345.18" stroke="white" stroke-width="1.52" stroke-miterlimit="10"/>
<path class="path41" d="M212.91 333.22C280.71 334.89 245.3 282.84 231.94 249.62C206.88 187.31 228.28 182.16 292.85 182.45C483.6 183.31 672.37 228.98 863.33 230.22C1043.22 231.39 1222.8 206.22 1402.46 199.92C1563.71 194.27 1651.9 315.37 1802.8 337.93" stroke="white" stroke-width="1.52" stroke-miterlimit="10"/>
<path class="path42" d="M212.93 327.91C280.36 328.69 253.76 278.19 243.92 240.13C227.25 175.64 248.74 169.42 313.78 169.2C496.28 168.57 677.46 208.67 860.15 210.08C1041.98 211.48 1223.51 191.9 1405.21 187.8C1480.5 186.1 1534.85 197.49 1597.75 239.01C1661.22 280.92 1708.38 318.41 1786.3 331.01" stroke="white" stroke-width="1.52" stroke-miterlimit="10"/>
<path class="path43" d="M212.93 322.84C280.23 322.78 260.62 273.09 254.97 231.19C246.08 165.25 267.17 157.51 333.15 156.81C507.93 154.96 682.25 189.17 857.2 191.31C1040.78 193.55 1224.24 178.6 1407.77 176.47C1482.28 175.6 1533.53 186.06 1593.98 229.79C1654 273.21 1694.65 311.24 1771.06 324.45" stroke="white" stroke-width="1.52" stroke-miterlimit="10"/>
<path class="path44" d="M212.91 318C280.23 317.25 266.07 267.6 264.7 222.94C262.64 156.14 283.14 146.68 350.26 145.58C518.25 142.83 686.45 172.24 854.59 174.44C1039.77 176.87 1224.88 166.69 1410.05 166.2C1483.63 166 1533.07 175.05 1590.74 221.29C1647.21 266.57 1682.55 304.64 1757.68 318.3" stroke="white" stroke-width="1.52" stroke-miterlimit="10"/>
<path class="path45" d="M212.869 313.4C282.349 311.91 269.799 258.68 272.419 211.53C275.609 154.03 290.409 140.26 350.969 135.42C515.409 122.26 688.389 158.5 853.599 160.24C1044.01 162.25 1234.56 153.87 1424.93 157.39C1491.95 158.63 1533.28 166.47 1584.15 210.01C1639.86 257.69 1669.92 297.84 1746.69 312.63" stroke="white" stroke-width="1.52" stroke-miterlimit="10"/>
<path class="path46" d="M212.809 309.03C281.999 307.26 272.789 252.99 278.549 205C285.489 147.2 300.259 132.3 361.639 127.39C522.009 114.57 690.839 146.93 851.929 148.67C1043.38 150.73 1235.03 145.97 1426.44 150.02C1493.04 151.43 1533.72 158.07 1582.72 203.37C1636.16 252.78 1661.89 292.6 1738.72 307.51" stroke="white" stroke-width="1.52" stroke-miterlimit="10"/>
<path class="path47" d="M212.73 304.9C281.17 303.15 274.19 247.51 282.06 199.61C291.57 141.75 305.9 126.13 367.8 121.33C525.88 109.07 692 138.78 850.75 140.45C1042.92 142.47 1235.24 140.51 1427.38 144.41C1493.82 145.76 1534.49 151.22 1582.23 197.92C1634.37 248.92 1656.64 288.23 1734.32 302.98" stroke="white" stroke-width="1.52" stroke-miterlimit="10"/>
<path class="path48" d="M212.631 301.01C279.821 299.58 274.161 242.31 283.161 195.3C294.201 137.62 307.701 121.72 369.651 116.76C527.141 104.15 692.461 135.38 850.671 136.36C1042.68 137.55 1234.91 136.86 1426.88 140.93C1493.1 142.34 1534.27 148.11 1582.03 194.42C1634.11 244.92 1656.75 282.98 1733.66 298.56" stroke="white" stroke-width="1.52" stroke-miterlimit="10"/>
<path class="path49" d="M212.51 297.35C278.97 296 275.48 237.14 286.28 190.45C299.54 133.1 312.71 116.08 374.92 110.79C531.58 97.4698 695.86 136.13 853.37 136.55C1043.14 137.05 1233.42 136.6 1423.12 141.67C1488.06 143.41 1530.43 150.48 1579.62 192.96C1632.86 238.95 1660.59 274.08 1733.89 290.25" stroke="white" stroke-width="1.52" stroke-miterlimit="10"/>
<path class="path50" d="M212.369 293.92C278.849 292.3 278.579 231.93 292.049 184.83C308.359 127.85 321.949 108.64 384.929 103.47C540.329 90.7198 702.179 139.3 858.489 140.16C1044.48 141.17 1231.01 141.01 1416.92 146.65C1479.82 148.56 1524.35 155.97 1575.46 192.56C1630.54 232 1664.65 263.11 1734.37 277.81" stroke="white" stroke-width="1.52" stroke-miterlimit="10"/>
<path class="path51" d="M212.199 290.73C331.249 286.86 265.829 104.69 398.899 95.0898C552.829 83.9798 710.769 144.61 865.619 146.72C1046.55 149.18 1227.82 149.33 1408.68 155.17C1536.38 159.29 1614.02 240.34 1735.01 261.94" stroke="white" stroke-width="1.52" stroke-miterlimit="10"/>
<path class="path52" d="M212.01 287.77C335.59 282.37 279.51 93.5699 416.1 85.8499C568.54 77.2399 721.05 151.67 874.4 155.69C1049.17 160.26 1224.13 160.76 1398.87 166.49C1520.26 170.47 1617.58 227.96 1735.82 243.3" stroke="white" stroke-width="1.52" stroke-miterlimit="10"/>
<path class="path53" d="M211.801 285.04C334.901 253.55 298.271 80.9598 435.791 76.0298C586.881 70.6098 732.451 160.16 884.461 166.58C1052.14 173.67 1220.19 174.52 1387.94 179.92C1506.53 183.74 1618.94 214.31 1736.76 222.61" stroke="white" stroke-width="1.52" stroke-miterlimit="10"/>
<path class="path54" d="M211.559 282.55C337.499 249.77 317.309 67.4699 457.199 65.8599C607.209 64.1399 744.399 169.69 895.379 178.88C1175.1 195.91 1457.48 198.85 1737.77 200.54" stroke="white" stroke-width="1.52" stroke-miterlimit="10"/>
<path class="path55" d="M211.289 280.29C339.949 246.22 337.389 53.3997 479.579 55.5997C628.889 57.9097 756.399 179.91 906.799 192.09C1058.25 204.36 1212.44 205.9 1364.35 210.19C1490.48 213.75 1613.28 185.18 1738.82 177.79" stroke="white" stroke-width="1.52" stroke-miterlimit="10"/>
<path class="path56" d="M210.99 278.26C342.07 243 358 39.1899 502.21 45.4799C650.56 51.9499 769.04 188.33 918.36 205.69C1060.43 222.2 1209.59 221.99 1352.61 225.6C1486.69 228.98 1608.13 170.89 1739.89 155.05" stroke="white" stroke-width="1.52" stroke-miterlimit="10"/>
<path class="path57" d="M210.67 276.46C292.13 254.24 324.22 202.4 371.1 137.51C407.99 86.4498 452.08 28.5298 524.32 35.7498C673.95 50.7198 778.71 198.37 929.65 219.16C1063.03 237.53 1206.81 237.3 1341.47 240.21C1484 243.3 1603.06 157.11 1740.94 132.98" stroke="white" stroke-width="1.52" stroke-miterlimit="10"/>
<path class="path58" d="M210.32 274.89C294.82 251.58 331.53 197.27 382.87 131.46C422.1 81.1699 471.49 17.6499 545.17 26.6699C695.05 45.0099 788.78 208.32 940.31 232.03C1065.59 251.63 1204.54 251.14 1331.38 253.36C1481.87 255.99 1598.59 143.96 1741.93 112.33" stroke="white" stroke-width="1.52" stroke-miterlimit="10"/>
<path class="path59" d="M209.93 273.55C294.55 250.6 335.47 196.65 388.83 131.87C436.97 73.4299 491.05 4.49986 575.49 22.9199C720.96 54.6499 799.74 218.53 950.5 244.71C1065.34 264.66 1195.9 260.55 1312.54 263.69C1476.12 268.1 1589.61 132.29 1742.82 93.7199" stroke="white" stroke-width="1.52" stroke-miterlimit="10"/>
<path class="path60" d="M209.52 272.44C296.41 248.73 340.91 192.71 397.53 127.41C447.41 69.8899 506.11 -4.1801 591.43 16.1899C737.45 51.0499 806.36 227.33 958.77 254.97C1067.06 274.61 1195.82 271.16 1306.01 271.75C1477.27 272.68 1584.43 121.13 1743.59 77.8899" stroke="white" stroke-width="1.52" stroke-miterlimit="10"/>
<path class="path61" d="M209.07 271.56C297.69 247.31 345.13 189.44 404.29 123.88C455.51 67.1199 517.91 -10.9201 603.91 10.7399C750.74 47.7099 810.84 234.99 965.17 263.03C1069.47 281.98 1195.52 276.41 1301.69 276.21C1479.08 275.88 1580.17 110.67 1744.18 65.5199" stroke="white" stroke-width="1.52" stroke-miterlimit="10"/>
<path class="path62" d="M208.59 270.91C298.22 246.41 347.86 186.94 408.72 121.44C460.93 65.2598 525.71 -15.3202 612.2 6.77982C760.11 44.5698 812.88 241.16 969.33 268.37C1071.7 286.17 1195.94 277.46 1300.04 276.36C1482.78 274.42 1575.68 101.12 1744.59 57.2998" stroke="white" stroke-width="1.52" stroke-miterlimit="10"/>
<path class="path63" d="M208.08 270.49C297.88 246.09 348.82 185.26 410.41 120.24C463.25 64.4499 528.76 -16.9901 615.56 4.53987C764.84 41.5799 812.11 245.49 970.84 270.45C1073.67 286.62 1197.14 273.63 1301.43 271.46C1487.95 267.59 1571.6 91.9299 1744.75 53.8799" stroke="white" stroke-width="1.52" stroke-miterlimit="10"/>
</g>
</svg>
