<svg width="103" height="24" viewBox="0 0 103 24" fill="none" xmlns="http://www.w3.org/2000/svg">
<path d="M102.55 10.5766C103.15 11.1787 103.15 12.1548 102.55 12.7569L92.7663 22.568C92.166 23.17 91.1926 23.17 90.5922 22.568C89.9919 21.9659 89.9919 20.9898 90.5922 20.3877L99.2886 11.6668L90.5922 2.9457C89.9919 2.34368 89.9919 1.36765 90.5922 0.765476C91.1926 0.163456 92.166 0.163456 92.7663 0.765476L102.55 10.5766ZM0 10.1251C0.0104523 10.1251 0.0210571 10.1251 0.0319672 10.1251C0.0427322 10.1251 0.0539551 10.1251 0.0651779 10.1251C0.0765533 10.1251 0.088089 10.1251 0.0999298 10.1251C0.11161 10.1251 0.123604 10.1251 0.135902 10.1251C0.148041 10.1251 0.1605 10.1251 0.173103 10.1251C0.18586 10.1251 0.198624 10.1251 0.211845 10.1251C0.224907 10.1251 0.238289 10.1251 0.251816 10.1251C0.265343 10.1251 0.279015 10.1251 0.293007 10.1251C0.306999 10.1251 0.321297 10.1251 0.335747 10.1251C0.350197 10.1251 0.364807 10.1251 0.379715 10.1251C0.394478 10.1251 0.409538 10.1251 0.424911 10.1251C0.440285 10.1251 0.455811 10.1251 0.471497 10.1251C0.487175 10.1251 0.503159 10.1251 0.519302 10.1251C0.535599 10.1251 0.551888 10.1251 0.568489 10.1251C0.585098 10.1251 0.602013 10.1251 0.61908 10.1251C0.635986 10.1251 0.653358 10.1251 0.670731 10.1251C0.688255 10.1251 0.705933 10.1251 0.72377 10.1251C0.741753 10.1251 0.759895 10.1251 0.778191 10.1251C0.796486 10.1251 0.815079 10.1251 0.833832 10.1251C0.852585 10.1251 0.871498 10.1251 0.890717 10.1251C0.909935 10.1251 0.929306 10.1251 0.94883 10.1251C0.968513 10.1251 0.988335 10.1251 1.00832 10.1251C1.02831 10.1251 1.04859 10.1251 1.06904 10.1251C1.08949 10.1251 1.1101 10.1251 1.131 10.1251C1.15176 10.1251 1.17297 10.1251 1.19418 10.1251C1.2154 10.1251 1.23692 10.1251 1.2586 10.1251C1.28027 10.1251 1.30226 10.1251 1.3244 10.1251C1.34653 10.1251 1.36882 10.1251 1.39127 10.1251C1.41386 10.1251 1.43662 10.1251 1.45953 10.1251C1.48243 10.1251 1.50564 10.1251 1.52901 10.1251C1.55238 10.1251 1.57589 10.1251 1.59957 10.1251C1.6234 10.1251 1.64738 10.1251 1.67152 10.1251C1.69566 10.1251 1.7201 10.1251 1.7447 10.1251C1.76929 10.1251 1.79404 10.1251 1.81894 10.1251C1.844 10.1251 1.86922 10.1251 1.89458 10.1251C1.91994 10.1251 1.94547 10.1251 1.9713 10.1251C1.99712 10.1251 2.0231 10.1251 2.04924 10.1251C2.07552 10.1251 2.10181 10.1251 2.1284 10.1251C2.155 10.1251 2.18175 10.1251 2.20881 10.1251C2.23586 10.1251 2.26292 10.1251 2.29044 10.1251C2.3178 10.1251 2.34532 10.1251 2.37315 10.1251C2.40098 10.1251 2.42895 10.1251 2.45708 10.1251C2.48521 10.1251 2.51366 10.1251 2.54226 10.1251C2.57069 10.1251 2.59959 10.1251 2.62849 10.1251C2.6574 10.1251 2.68661 10.1251 2.71597 10.1251C2.74533 10.1251 2.77485 10.1251 2.80467 10.1251C2.83434 10.1251 2.86432 10.1251 2.89445 10.1251C2.92458 10.1251 2.95487 10.1251 2.98547 10.1251C3.0159 10.1251 3.04665 10.1251 3.07755 10.1251C3.10844 10.1251 3.1395 10.1251 3.17086 10.1251C3.20206 10.1251 3.23358 10.1251 3.26525 10.1251C3.29692 10.1251 3.32874 10.1251 3.36071 10.1251C3.39285 10.1251 3.42513 10.1251 3.45757 10.1251C3.49001 10.1251 3.5226 10.1251 3.55534 10.1251C3.58824 10.1251 3.62114 10.1251 3.65434 10.1251C3.68755 10.1251 3.72091 10.1251 3.75443 10.1251C3.78809 10.1251 3.82176 10.1251 3.85574 10.1251C3.88956 10.1251 3.92368 10.1251 3.95811 10.1251C3.9924 10.1251 4.02683 10.1251 4.06158 10.1251C4.09617 10.1251 4.13107 10.1251 4.16611 10.1251C4.20116 10.1251 4.23637 10.1251 4.27174 10.1251C4.30724 10.1251 4.34275 10.1251 4.37857 10.1251C4.41439 10.1251 4.45037 10.1251 4.4865 10.1251C4.52263 10.1251 4.55891 10.1251 4.5955 10.1251C4.63193 10.1251 4.66866 10.1251 4.70556 10.1251C4.74245 10.1251 4.7795 10.1251 4.8167 10.1251C4.8539 10.1251 4.89142 10.1251 4.92892 10.1251C4.96659 10.1251 5.00441 10.1251 5.04238 10.1251C5.0802 10.1251 5.11832 10.1251 5.15676 10.1251C5.19504 10.1251 5.23347 10.1251 5.27221 10.1251C5.3108 10.1251 5.34969 10.1251 5.38873 10.1251C5.42778 10.1251 5.46699 10.1251 5.50634 10.1251C5.54569 10.1251 5.58521 10.1251 5.62502 10.1251C5.66469 10.1251 5.70466 10.1251 5.74478 10.1251C5.78475 10.1251 5.82503 10.1251 5.86546 10.1251C5.90589 10.1251 5.94647 10.1251 5.98737 10.1251C6.02811 10.1251 6.069 10.1251 6.1102 10.1251C6.15125 10.1251 6.1926 10.1251 6.2341 10.1251C6.27546 10.1251 6.31712 10.1251 6.35893 10.1251C6.40075 10.1251 6.44272 10.1251 6.48499 10.1251C6.52711 10.1251 6.56939 10.1251 6.61198 10.1251C6.6544 10.1251 6.69714 10.1251 6.73988 10.1251C6.78278 10.1251 6.82582 10.1251 6.86902 10.1251C6.91206 10.1251 6.95541 10.1251 6.99892 10.1251C7.04243 10.1251 7.08624 10.1251 7.13005 10.1251C7.17387 10.1251 7.21783 10.1251 7.26211 10.1251C7.30623 10.1251 7.35065 10.1251 7.39508 10.1251C7.43967 10.1251 7.48425 10.1251 7.52914 10.1251C7.57403 10.1251 7.61907 10.1251 7.66427 10.1251C7.70931 10.1251 7.75466 10.1251 7.80016 10.1251C7.84567 10.1251 7.89133 10.1251 7.93729 10.1251C7.98311 10.1251 8.02908 10.1251 8.0752 10.1251C8.12132 10.1251 8.16774 10.1251 8.21416 10.1251C8.2606 10.1251 8.30733 10.1251 8.35406 10.1251C8.40095 10.1251 8.44784 10.1251 8.49503 10.1251C8.54223 10.1251 8.58942 10.1251 8.63692 10.1251C8.68427 10.1251 8.73193 10.1251 8.77975 10.1251C8.82755 10.1251 8.87537 10.1251 8.92348 10.1251C8.9716 10.1251 9.01987 10.1251 9.0683 10.1251C9.11657 10.1251 9.16515 10.1251 9.21388 10.1251C9.26261 10.1251 9.3115 10.1251 9.36054 10.1251C9.40958 10.1251 9.45877 10.1251 9.50812 10.1251C9.55746 10.1251 9.60697 10.1251 9.65663 10.1251C9.70628 10.1251 9.75609 10.1251 9.80605 10.1251C9.85602 10.1251 9.90614 10.1251 9.95641 10.1251C10.0067 10.1251 10.0571 10.1251 10.1077 10.1251C10.1583 10.1251 10.209 10.1251 10.2599 10.1251C10.3108 10.1251 10.3618 10.1251 10.413 10.1251C10.4642 10.1251 10.5155 10.1251 10.567 10.1251C10.6185 10.1251 10.6702 10.1251 10.722 10.1251C10.7738 10.1251 10.8256 10.1251 10.8777 10.1251C10.9298 10.1251 10.9821 10.1251 11.0345 10.1251C11.0869 10.1251 11.1394 10.1251 11.1921 10.1251C11.2448 10.1251 11.2976 10.1251 11.3506 10.1251C11.4036 10.1251 11.4567 10.1251 11.51 10.1251C11.5634 10.1251 11.6167 10.1251 11.6704 10.1251C11.7239 10.1251 11.7775 10.1251 11.8315 10.1251C11.8853 10.1251 11.9394 10.1251 11.9935 10.1251C12.0476 10.1251 12.1019 10.1251 12.1563 10.1251C12.2109 10.1251 12.2654 10.1251 12.3202 10.1251C12.3749 10.1251 12.4298 10.1251 12.4847 10.1251C12.5397 10.1251 12.5949 10.1251 12.6502 10.1251C12.7056 10.1251 12.7609 10.1251 12.8166 10.1251C12.8721 10.1251 12.9279 10.1251 12.9837 10.1251C13.0396 10.1251 13.0956 10.1251 13.1517 10.1251C13.2078 10.1251 13.2642 10.1251 13.3207 10.1251C13.3771 10.1251 13.4336 10.1251 13.4904 10.1251C13.547 10.1251 13.6038 10.1251 13.6609 10.1251C13.7178 10.1251 13.7749 10.1251 13.8321 10.1251C13.8895 10.1251 13.9468 10.1251 14.0043 10.1251C14.062 10.1251 14.1196 10.1251 14.1774 10.1251C14.2352 10.1251 14.2932 10.1251 14.3511 10.1251C14.4092 10.1251 14.4675 10.1251 14.5258 10.1251C14.5842 10.1251 14.6426 10.1251 14.7013 10.1251C14.7599 10.1251 14.8186 10.1251 14.8775 10.1251C14.9364 10.1251 14.9954 10.1251 15.0546 10.1251C15.1136 10.1251 15.173 10.1251 15.2323 10.1251C15.2918 10.1251 15.3513 10.1251 15.4109 10.1251C15.4706 10.1251 15.5304 10.1251 15.5903 10.1251C15.6503 10.1251 15.7104 10.1251 15.7705 10.1251C15.8308 10.1251 15.8911 10.1251 15.9516 10.1251C16.012 10.1251 16.0726 10.1251 16.1333 10.1251C16.1941 10.1251 16.2548 10.1251 16.3158 10.1251C16.3768 10.1251 16.4379 10.1251 16.4991 10.1251C16.5602 10.1251 16.6216 10.1251 16.6831 10.1251C16.7446 10.1251 16.8062 10.1251 16.8679 10.1251C16.9297 10.1251 16.9915 10.1251 17.0534 10.1251C17.1155 10.1251 17.1775 10.1251 17.2397 10.1251C17.302 10.1251 17.3644 10.1251 17.4268 10.1251C17.4892 10.1251 17.552 10.1251 17.6145 10.1251C17.6773 10.1251 17.7401 10.1251 17.8032 10.1251C17.866 10.1251 17.9292 10.1251 17.9924 10.1251C18.0556 10.1251 18.1189 10.1251 18.1824 10.1251C18.2458 10.1251 18.3094 10.1251 18.373 10.1251C18.4368 10.1251 18.5006 10.1251 18.5646 10.1251C18.6284 10.1251 18.6925 10.1251 18.7566 10.1251C18.8209 10.1251 18.8851 10.1251 18.9495 10.1251C19.0139 10.1251 19.0785 10.1251 19.1431 10.1251C19.2078 10.1251 19.2725 10.1251 19.3374 10.1251C19.4023 10.1251 19.4673 10.1251 19.5323 10.1251C19.5975 10.1251 19.6627 10.1251 19.728 10.1251C19.7934 10.1251 19.8588 10.1251 19.9243 10.1251C19.99 10.1251 20.0556 10.1251 20.1214 10.1251C20.1872 10.1251 20.2532 10.1251 20.3191 10.1251C20.3852 10.1251 20.4513 10.1251 20.5176 10.1251C20.5839 10.1251 20.6501 10.1251 20.7167 10.1251C20.7831 10.1251 20.8497 10.1251 20.9164 10.1251C20.9831 10.1251 21.05 10.1251 21.1168 10.1251C21.1837 10.1251 21.2507 10.1251 21.3179 10.1251C21.3851 10.1251 21.4523 10.1251 21.5196 10.1251C21.5871 10.1251 21.6544 10.1251 21.7221 10.1251C21.7897 10.1251 21.8574 10.1251 21.9252 10.1251C21.993 10.1251 22.0609 10.1251 22.1289 10.1251C22.1968 10.1251 22.2649 10.1251 22.3332 10.1251C22.4014 10.1251 22.4697 10.1251 22.5381 10.1251C22.6067 10.1251 22.6751 10.1251 22.7438 10.1251C22.8123 10.1251 22.8812 10.1251 22.9501 10.1251C23.0188 10.1251 23.0878 10.1251 23.1569 10.1251C23.2259 10.1251 23.2951 10.1251 23.3644 10.1251C23.4336 10.1251 23.5031 10.1251 23.5725 10.1251C23.642 10.1251 23.7115 10.1251 23.7812 10.1251C23.851 10.1251 23.9206 10.1251 23.9905 10.1251C24.0605 10.1251 24.1304 10.1251 24.2005 10.1251C24.2705 10.1251 24.3407 10.1251 24.411 10.1251C24.4812 10.1251 24.5517 10.1251 24.6222 10.1251C24.6926 10.1251 24.7632 10.1251 24.8339 10.1251C24.9046 10.1251 24.9753 10.1251 25.0462 10.1251C25.1171 10.1251 25.1881 10.1251 25.2591 10.1251C25.3301 10.1251 25.4013 10.1251 25.4725 10.1251C25.5438 10.1251 25.6152 10.1251 25.6867 10.1251C25.7581 10.1251 25.8296 10.1251 25.9013 10.1251C25.9729 10.1251 26.0447 10.1251 26.1165 10.1251C26.1883 10.1251 26.2602 10.1251 26.3322 10.1251C26.4043 10.1251 26.4764 10.1251 26.5486 10.1251C26.6207 10.1251 26.6931 10.1251 26.7654 10.1251C26.8378 10.1251 26.9104 10.1251 26.9829 10.1251C27.0555 10.1251 27.128 10.1251 27.2009 10.1251C27.2736 10.1251 27.3465 10.1251 27.4194 10.1251C27.4924 10.1251 27.5654 10.1251 27.6384 10.1251C27.7116 10.1251 27.7848 10.1251 27.8581 10.1251C27.9313 10.1251 28.0048 10.1251 28.0781 10.1251C28.1516 10.1251 28.2252 10.1251 28.2989 10.1251C28.3725 10.1251 28.4461 10.1251 28.5201 10.1251C28.5939 10.1251 28.6677 10.1251 28.7418 10.1251C28.8157 10.1251 28.8898 10.1251 28.9639 10.1251C29.038 10.1251 29.1123 10.1251 29.1867 10.1251C29.2609 10.1251 29.3353 10.1251 29.4099 10.1251C29.4844 10.1251 29.559 10.1251 29.6336 10.1251C29.7083 10.1251 29.783 10.1251 29.8578 10.1251C29.9327 10.1251 30.0076 10.1251 30.0826 10.1251C30.1575 10.1251 30.2327 10.1251 30.3078 10.1251C30.383 10.1251 30.4582 10.1251 30.5335 10.1251C30.6088 10.1251 30.6842 10.1251 30.7596 10.1251C30.8351 10.1251 30.9108 10.1251 30.9862 10.1251C31.0619 10.1251 31.1377 10.1251 31.2135 10.1251C31.2892 10.1251 31.365 10.1251 31.441 10.1251C31.5169 10.1251 31.593 10.1251 31.6691 10.1251C31.7452 10.1251 31.8215 10.1251 31.8977 10.1251C31.974 10.1251 32.0502 10.1251 32.1266 10.1251C32.203 10.1251 32.2796 10.1251 32.3561 10.1251C32.4327 10.1251 32.5093 10.1251 32.586 10.1251C32.6627 10.1251 32.7394 10.1251 32.8163 10.1251C32.8931 10.1251 32.9701 10.1251 33.047 10.1251C33.124 10.1251 33.2012 10.1251 33.2782 10.1251C33.3554 10.1251 33.4326 10.1251 33.5099 10.1251C33.5872 10.1251 33.6645 10.1251 33.742 10.1251C33.8194 10.1251 33.8968 10.1251 33.9745 10.1251C34.0521 10.1251 34.1297 10.1251 34.2074 10.1251C34.2852 10.1251 34.3629 10.1251 34.4407 10.1251C34.5185 10.1251 34.5965 10.1251 34.6744 10.1251C34.7525 10.1251 34.8304 10.1251 34.9087 10.1251C34.9868 10.1251 35.0649 10.1251 35.1431 10.1251C35.2214 10.1251 35.2998 10.1251 35.3782 10.1251C35.4564 10.1251 35.535 10.1251 35.6134 10.1251C35.692 10.1251 35.7705 10.1251 35.8492 10.1251C35.9278 10.1251 36.0065 10.1251 36.0854 10.1251C36.1641 10.1251 36.2429 10.1251 36.3218 10.1251C36.4008 10.1251 36.4797 10.1251 36.5587 10.1251C36.6377 10.1251 36.7169 10.1251 36.7961 10.1251C36.8751 10.1251 36.9544 10.1251 37.0336 10.1251C37.1129 10.1251 37.1922 10.1251 37.2717 10.1251C37.351 10.1251 37.4305 10.1251 37.51 10.1251C37.5895 10.1251 37.6691 10.1251 37.7487 10.1251C37.8284 10.1251 37.908 10.1251 37.9878 10.1251C38.0676 10.1251 38.1473 10.1251 38.2271 10.1251C38.3071 10.1251 38.387 10.1251 38.467 10.1251C38.5469 10.1251 38.627 10.1251 38.7071 10.1251C38.7872 10.1251 38.8673 10.1251 38.9475 10.1251C39.0278 10.1251 39.108 10.1251 39.1883 10.1251C39.2687 10.1251 39.3491 10.1251 39.4295 10.1251C39.5099 10.1251 39.5903 10.1251 39.6708 10.1251C39.7514 10.1251 39.8319 10.1251 39.9126 10.1251C39.9932 10.1251 40.0739 10.1251 40.1548 10.1251C40.2355 10.1251 40.3162 10.1251 40.3971 10.1251C40.4779 10.1251 40.5588 10.1251 40.6398 10.1251C40.7207 10.1251 40.8017 10.1251 40.8828 10.1251C40.9639 10.1251 41.0449 10.1251 41.126 10.1251C41.2072 10.1251 41.2884 10.1251 41.3697 10.1251C41.4509 10.1251 41.5322 10.1251 41.6135 10.1251C41.6949 10.1251 41.7763 10.1251 41.8578 10.1251C41.9391 10.1251 42.0206 10.1251 42.1022 10.1251C42.1837 10.1251 42.2654 10.1251 42.347 10.1251C42.4286 10.1251 42.5102 10.1251 42.592 10.1251C42.6737 10.1251 42.7555 10.1251 42.8372 10.1251C42.919 10.1251 43.001 10.1251 43.0829 10.1251C43.1647 10.1251 43.2466 10.1251 43.3287 10.1251C43.4106 10.1251 43.4927 10.1251 43.5747 10.1251C43.6568 10.1251 43.7389 10.1251 43.8211 10.1251C43.9032 10.1251 43.9855 10.1251 44.0677 10.1251C44.1499 10.1251 44.2322 10.1251 44.3144 10.1251C44.3968 10.1251 44.4792 10.1251 44.5616 10.1251C44.644 10.1251 44.7264 10.1251 44.8088 10.1251C44.8914 10.1251 44.9739 10.1251 45.0565 10.1251C45.1391 10.1251 45.2216 10.1251 45.3042 10.1251C45.3869 10.1251 45.4696 10.1251 45.5523 10.1251C45.635 10.1251 45.7177 10.1251 45.8004 10.1251C45.8833 10.1251 45.9661 10.1251 46.049 10.1251C46.1317 10.1251 46.2147 10.1251 46.2976 10.1251C46.3804 10.1251 46.4634 10.1251 46.5465 10.1251C46.6295 10.1251 46.7125 10.1251 46.7955 10.1251C46.8785 10.1251 46.9617 10.1251 47.0449 10.1251C47.1279 10.1251 47.211 10.1251 47.2942 10.1251C47.3775 10.1251 47.4607 10.1251 47.544 10.1251C47.6272 10.1251 47.7105 10.1251 47.7938 10.1251C47.8772 10.1251 47.9605 10.1251 48.0438 10.1251C48.1273 10.1251 48.2106 10.1251 48.2941 10.1251C48.3776 10.1251 48.461 10.1251 48.5445 10.1251C48.628 10.1251 48.7115 10.1251 48.7951 10.1251C48.8786 10.1251 48.9622 10.1251 49.0458 10.1251C49.1295 10.1251 49.2131 10.1251 49.2967 10.1251C49.3803 10.1251 49.4641 10.1251 49.5478 10.1251C49.6315 10.1251 49.7153 10.1251 49.799 10.1251C49.8827 10.1251 49.9665 10.1251 50.0505 10.1251C50.1342 10.1251 50.218 10.1251 50.302 10.1251C50.3857 10.1251 50.4697 10.1251 50.5536 10.1251C50.6376 10.1251 50.7215 10.1251 50.8054 10.1251C50.8894 10.1251 50.9733 10.1251 51.0574 10.1251C51.1413 10.1251 51.2254 10.1251 51.3094 10.1251C51.3935 10.1251 51.4775 10.1251 51.5616 10.1251C51.6457 10.1251 51.7298 10.1251 51.8139 10.1251C51.8982 10.1251 51.9822 10.1251 52.0665 10.1251C52.1506 10.1251 52.2348 10.1251 52.3189 10.1251C52.4032 10.1251 52.4874 10.1251 52.5717 10.1251C52.6559 10.1251 52.7401 10.1251 52.8244 10.1251C52.9088 10.1251 52.993 10.1251 53.0773 10.1251C53.1617 10.1251 53.2459 10.1251 53.3303 10.1251C53.4147 10.1251 53.499 10.1251 53.5834 10.1251C53.6678 10.1251 53.7522 10.1251 53.8366 10.1251C53.921 10.1251 54.0054 10.1251 54.0898 10.1251C54.1743 10.1251 54.2587 10.1251 54.3431 10.1251C54.4277 10.1251 54.5121 10.1251 54.5966 10.1251C54.681 10.1251 54.7656 10.1251 54.8501 10.1251C54.9345 10.1251 55.0191 10.1251 55.1036 10.1251C55.1882 10.1251 55.2727 10.1251 55.3573 10.1251C55.4418 10.1251 55.5264 10.1251 55.6109 10.1251C55.6955 10.1251 55.78 10.1251 55.8647 10.1251C55.9493 10.1251 56.0338 10.1251 56.1185 10.1251C56.2031 10.1251 56.2877 10.1251 56.3724 10.1251C56.4569 10.1251 56.5416 10.1251 56.6262 10.1251C56.7109 10.1251 56.7956 10.1251 56.8801 10.1251C56.9648 10.1251 57.0495 10.1251 57.1341 10.1251C57.2188 10.1251 57.3035 10.1251 57.3882 10.1251C57.4728 10.1251 57.5575 10.1251 57.6422 10.1251C57.7269 10.1251 57.8116 10.1251 57.8963 10.1251C57.981 10.1251 58.0656 10.1251 58.1503 10.1251C58.235 10.1251 58.3197 10.1251 58.4044 10.1251C58.4891 10.1251 58.5738 10.1251 58.6585 10.1251C58.7432 10.1251 58.8279 10.1251 58.9126 10.1251C58.9973 10.1251 59.082 10.1251 59.1667 10.1251C59.2514 10.1251 59.3361 10.1251 59.4208 10.1251C59.5056 10.1251 59.5903 10.1251 59.675 10.1251C59.7597 10.1251 59.8444 10.1251 59.9291 10.1251C60.0138 10.1251 60.0985 10.1251 60.1832 10.1251C60.2679 10.1251 60.3526 10.1251 60.4373 10.1251C60.522 10.1251 60.6066 10.1251 60.6913 10.1251C60.776 10.1251 60.8607 10.1251 60.9454 10.1251C61.03 10.1251 61.1147 10.1251 61.1994 10.1251C61.2841 10.1251 61.3686 10.1251 61.4533 10.1251C61.538 10.1251 61.6226 10.1251 61.7073 10.1251C61.7918 10.1251 61.8766 10.1251 61.9611 10.1251C62.0458 10.1251 62.1304 10.1251 62.2151 10.1251C62.2996 10.1251 62.3842 10.1251 62.4687 10.1251C62.5534 10.1251 62.638 10.1251 62.7225 10.1251C62.8071 10.1251 62.8916 10.1251 62.9762 10.1251C63.0607 10.1251 63.1453 10.1251 63.2299 10.1251C63.3144 10.1251 63.399 10.1251 63.4834 10.1251C63.5679 10.1251 63.6525 10.1251 63.7369 10.1251C63.8214 10.1251 63.9058 10.1251 63.9904 10.1251C64.0748 10.1251 64.1592 10.1251 64.2437 10.1251C64.3281 10.1251 64.4125 10.1251 64.4969 10.1251C64.5813 10.1251 64.6657 10.1251 64.7501 10.1251C64.8345 10.1251 64.9187 10.1251 65.0031 10.1251C65.0875 10.1251 65.1718 10.1251 65.2562 10.1251C65.3404 10.1251 65.4247 10.1251 65.5091 10.1251C65.5933 10.1251 65.6776 10.1251 65.7618 10.1251C65.8461 10.1251 65.9303 10.1251 66.0144 10.1251C66.0986 10.1251 66.1829 10.1251 66.267 10.1251C66.3512 10.1251 66.4353 10.1251 66.5194 10.1251C66.6036 10.1251 66.6877 10.1251 66.7718 10.1251C66.8559 10.1251 66.94 10.1251 67.0239 10.1251C67.108 10.1251 67.1921 10.1251 67.2761 10.1251C67.36 10.1251 67.4441 10.1251 67.528 10.1251C67.612 10.1251 67.6959 10.1251 67.7798 10.1251C67.8638 10.1251 67.9476 10.1251 68.0315 10.1251C68.1153 10.1251 68.1992 10.1251 68.283 10.1251C68.3668 10.1251 68.4506 10.1251 68.5344 10.1251C68.6181 10.1251 68.7019 10.1251 68.7855 10.1251C68.8693 10.1251 68.953 10.1251 69.0366 10.1251C69.1204 10.1251 69.204 10.1251 69.2875 10.1251C69.3711 10.1251 69.4547 10.1251 69.5382 10.1251C69.6218 10.1251 69.7053 10.1251 69.7888 10.1251C69.8724 10.1251 69.9557 10.1251 70.0392 10.1251C70.1227 10.1251 70.206 10.1251 70.2895 10.1251C70.3728 10.1251 70.4561 10.1251 70.5395 10.1251C70.6228 10.1251 70.7061 10.1251 70.7894 10.1251C70.8726 10.1251 70.9558 10.1251 71.0391 10.1251C71.1223 10.1251 71.2054 10.1251 71.2885 10.1251C71.3716 10.1251 71.4548 10.1251 71.5378 10.1251C71.6208 10.1251 71.7038 10.1251 71.7868 10.1251C71.8699 10.1251 71.9527 10.1251 72.0357 10.1251C72.1186 10.1251 72.2015 10.1251 72.2843 10.1251C72.3672 10.1251 72.45 10.1251 72.5327 10.1251C72.6156 10.1251 72.6983 10.1251 72.781 10.1251C72.8637 10.1251 72.9464 10.1251 73.029 10.1251C73.1117 10.1251 73.1943 10.1251 73.2768 10.1251C73.3594 10.1251 73.4419 10.1251 73.5243 10.1251C73.6069 10.1251 73.6893 10.1251 73.7717 10.1251C73.8541 10.1251 73.9363 10.1251 74.0187 10.1251C74.101 10.1251 74.1834 10.1251 74.2655 10.1251C74.3477 10.1251 74.4299 10.1251 74.512 10.1251C74.5943 10.1251 74.6764 10.1251 74.7585 10.1251C74.8406 10.1251 74.9225 10.1251 75.0044 10.1251C75.0865 10.1251 75.1685 10.1251 75.2503 10.1251C75.3322 10.1251 75.414 10.1251 75.4959 10.1251C75.5777 10.1251 75.6595 10.1251 75.7411 10.1251C75.8229 10.1251 75.9045 10.1251 75.9862 10.1251C76.0678 10.1251 76.1493 10.1251 76.2309 10.1251C76.3124 10.1251 76.3939 10.1251 76.4753 10.1251C76.5568 10.1251 76.6381 10.1251 76.7195 10.1251C76.8008 10.1251 76.8821 10.1251 76.9634 10.1251C77.0446 10.1251 77.1258 10.1251 77.207 10.1251C77.2881 10.1251 77.3691 10.1251 77.4503 10.1251C77.5313 10.1251 77.6123 10.1251 77.6932 10.1251C77.7742 10.1251 77.8551 10.1251 77.9359 10.1251C78.0168 10.1251 78.0975 10.1251 78.1782 10.1251C78.2591 10.1251 78.3398 10.1251 78.4204 10.1251C78.5011 10.1251 78.5816 10.1251 78.6622 10.1251C78.7426 10.1251 78.8231 10.1251 78.9035 10.1251C78.9839 10.1251 79.0643 10.1251 79.1446 10.1251C79.225 10.1251 79.3052 10.1251 79.3853 10.1251C79.4656 10.1251 79.5458 10.1251 79.6258 10.1251C79.7059 10.1251 79.7859 10.1251 79.8659 10.1251C79.946 10.1251 80.0258 10.1251 80.1057 10.1251C80.1855 10.1251 80.2653 10.1251 80.3451 10.1251C80.4249 10.1251 80.5045 10.1251 80.5841 10.1251C80.6638 10.1251 80.7434 10.1251 80.8229 10.1251C80.9023 10.1251 80.9818 10.1251 81.0612 10.1251C81.1406 10.1251 81.22 10.1251 81.2991 10.1251C81.3785 10.1251 81.4576 10.1251 81.5368 10.1251C81.616 10.1251 81.695 10.1251 81.774 10.1251C81.853 10.1251 81.932 10.1251 82.0109 10.1251C82.0898 10.1251 82.1686 10.1251 82.2475 10.1251C82.3262 10.1251 82.4049 10.1251 82.4835 10.1251C82.5622 10.1251 82.6407 10.1251 82.7193 10.1251C82.7977 10.1251 82.8763 10.1251 82.9547 10.1251C83.0329 10.1251 83.1113 10.1251 83.1896 10.1251C83.2678 10.1251 83.3459 10.1251 83.424 10.1251C83.5021 10.1251 83.5802 10.1251 83.6581 10.1251C83.7362 10.1251 83.814 10.1251 83.892 10.1251C83.9697 10.1251 84.0475 10.1251 84.1252 10.1251C84.203 10.1251 84.2806 10.1251 84.3581 10.1251C84.4357 10.1251 84.5132 10.1251 84.5907 10.1251C84.668 10.1251 84.7453 10.1251 84.8226 10.1251C84.9 10.1251 84.9771 10.1251 85.0543 10.1251C85.1313 10.1251 85.2085 10.1251 85.2855 10.1251C85.3624 10.1251 85.4394 10.1251 85.5163 10.1251C85.593 10.1251 85.6699 10.1251 85.7466 10.1251C85.8233 10.1251 85.8998 10.1251 85.9764 10.1251C86.053 10.1251 86.1294 10.1251 86.2058 10.1251C86.2822 10.1251 86.3586 10.1251 86.4348 10.1251C86.5111 10.1251 86.5872 10.1251 86.6633 10.1251C86.7394 10.1251 86.8155 10.1251 86.8914 10.1251C86.9674 10.1251 87.0431 10.1251 87.1189 10.1251C87.1947 10.1251 87.2704 10.1251 87.346 10.1251C87.4216 10.1251 87.4973 10.1251 87.5727 10.1251C87.6482 10.1251 87.7235 10.1251 87.7988 10.1251C87.8742 10.1251 87.9494 10.1251 88.0245 10.1251C88.0997 10.1251 88.1747 10.1251 88.2497 10.1251C88.3247 10.1251 88.3996 10.1251 88.4744 10.1251C88.5492 10.1251 88.624 10.1251 88.6986 10.1251C88.7733 10.1251 88.8479 10.1251 88.9223 10.1251C88.9968 10.1251 89.0712 10.1251 89.1456 10.1251C89.2199 10.1251 89.2941 10.1251 89.3683 10.1251C89.4424 10.1251 89.5165 10.1251 89.5904 10.1251C89.6644 10.1251 89.7383 10.1251 89.8121 10.1251C89.8859 10.1251 89.9596 10.1251 90.0333 10.1251C90.1069 10.1251 90.1805 10.1251 90.2539 10.1251C90.3274 10.1251 90.4007 10.1251 90.474 10.1251C90.5473 10.1251 90.6205 10.1251 90.6936 10.1251C90.7667 10.1251 90.8397 10.1251 90.9126 10.1251C90.9856 10.1251 91.0584 10.1251 91.1311 10.1251C91.2039 10.1251 91.2765 10.1251 91.3491 10.1251C91.4217 10.1251 91.4941 10.1251 91.5665 10.1251C91.6389 10.1251 91.7112 10.1251 91.7834 10.1251C91.8556 10.1251 91.9277 10.1251 91.9997 10.1251C92.0717 10.1251 92.1436 10.1251 92.2154 10.1251C92.2872 10.1251 92.3589 10.1251 92.4306 10.1251C92.5022 10.1251 92.5738 10.1251 92.6452 10.1251C92.7166 10.1251 92.788 10.1251 92.8592 10.1251C92.9305 10.1251 93.0016 10.1251 93.0727 10.1251C93.1437 10.1251 93.2147 10.1251 93.2856 10.1251C93.3564 10.1251 93.4272 10.1251 93.4978 10.1251C93.5685 10.1251 93.6391 10.1251 93.7096 10.1251C93.78 10.1251 93.8504 10.1251 93.9207 10.1251C93.9909 10.1251 94.0611 10.1251 94.1312 10.1251C94.2012 10.1251 94.2712 10.1251 94.3411 10.1251C94.411 10.1251 94.4807 10.1251 94.5504 10.1251C94.6201 10.1251 94.6896 10.1251 94.7591 10.1251C94.8286 10.1251 94.8979 10.1251 94.9672 10.1251C95.0364 10.1251 95.1056 10.1251 95.1746 10.1251C95.2437 10.1251 95.3126 10.1251 95.3815 10.1251C95.4503 10.1251 95.5191 10.1251 95.5877 10.1251C95.6563 10.1251 95.7249 10.1251 95.7933 10.1251C95.8617 10.1251 95.93 10.1251 95.9983 10.1251C96.0665 10.1251 96.1346 10.1251 96.2026 10.1251C96.2706 10.1251 96.3384 10.1251 96.4062 10.1251C96.474 10.1251 96.5417 10.1251 96.6093 10.1251C96.6768 10.1251 96.7443 10.1251 96.8116 10.1251C96.879 10.1251 96.9462 10.1251 97.0134 10.1251C97.0805 10.1251 97.1475 10.1251 97.2144 10.1251C97.2813 10.1251 97.3481 10.1251 97.4148 10.1251C97.4815 10.1251 97.5481 10.1251 97.6145 10.1251C97.681 10.1251 97.7474 10.1251 97.8136 10.1251C97.8798 10.1251 97.946 10.1251 98.012 10.1251C98.078 10.1251 98.1439 10.1251 98.2097 10.1251C98.2755 10.1251 98.3412 10.1251 98.4067 10.1251C98.4723 10.1251 98.5377 10.1251 98.603 10.1251C98.6684 10.1251 98.7336 10.1251 98.7987 10.1251C98.8638 10.1251 98.9288 10.1251 98.9936 10.1251C99.0585 10.1251 99.1232 10.1251 99.1879 10.1251C99.2525 10.1251 99.317 10.1251 99.3814 10.1251C99.4458 10.1251 99.5101 10.1251 99.5742 10.1251C99.6384 10.1251 99.7024 10.1251 99.7664 10.1251C99.8303 10.1251 99.8941 10.1251 99.9578 10.1251C100.021 10.1251 100.085 10.1251 100.148 10.1251C100.212 10.1251 100.275 10.1251 100.338 10.1251C100.402 10.1251 100.465 10.1251 100.528 10.1251C100.591 10.1251 100.653 10.1251 100.716 10.1251C100.779 10.1251 100.841 10.1251 100.904 10.1251C100.966 10.1251 101.029 10.1251 101.091 10.1251C101.153 10.1251 101.215 10.1251 101.277 10.1251C101.339 10.1251 101.401 10.1251 101.463 10.1251V13.2084C101.401 13.2084 101.339 13.2084 101.277 13.2084C101.215 13.2084 101.153 13.2084 101.091 13.2084C101.029 13.2084 100.966 13.2084 100.904 13.2084C100.841 13.2084 100.779 13.2084 100.716 13.2084C100.653 13.2084 100.591 13.2084 100.528 13.2084C100.465 13.2084 100.402 13.2084 100.338 13.2084C100.275 13.2084 100.212 13.2084 100.148 13.2084C100.085 13.2084 100.021 13.2084 99.9578 13.2084C99.8941 13.2084 99.8303 13.2084 99.7664 13.2084C99.7024 13.2084 99.6384 13.2084 99.5742 13.2084C99.5101 13.2084 99.4458 13.2084 99.3814 13.2084C99.317 13.2084 99.2525 13.2084 99.1879 13.2084C99.1232 13.2084 99.0585 13.2084 98.9936 13.2084C98.9288 13.2084 98.8638 13.2084 98.7987 13.2084C98.7336 13.2084 98.6684 13.2084 98.603 13.2084C98.5377 13.2084 98.4723 13.2084 98.4067 13.2084C98.3412 13.2084 98.2755 13.2084 98.2097 13.2084C98.1439 13.2084 98.078 13.2084 98.012 13.2084C97.946 13.2084 97.8798 13.2084 97.8136 13.2084C97.7474 13.2084 97.681 13.2084 97.6145 13.2084C97.5481 13.2084 97.4815 13.2084 97.4148 13.2084C97.3481 13.2084 97.2813 13.2084 97.2144 13.2084C97.1475 13.2084 97.0805 13.2084 97.0134 13.2084C96.9462 13.2084 96.879 13.2084 96.8116 13.2084C96.7443 13.2084 96.6768 13.2084 96.6093 13.2084C96.5417 13.2084 96.474 13.2084 96.4062 13.2084C96.3384 13.2084 96.2706 13.2084 96.2026 13.2084C96.1346 13.2084 96.0665 13.2084 95.9983 13.2084C95.93 13.2084 95.8617 13.2084 95.7933 13.2084C95.7249 13.2084 95.6563 13.2084 95.5877 13.2084C95.5191 13.2084 95.4503 13.2084 95.3815 13.2084C95.3126 13.2084 95.2437 13.2084 95.1746 13.2084C95.1056 13.2084 95.0364 13.2084 94.9672 13.2084C94.8979 13.2084 94.8286 13.2084 94.7591 13.2084C94.6896 13.2084 94.6201 13.2084 94.5504 13.2084C94.4807 13.2084 94.411 13.2084 94.3411 13.2084C94.2712 13.2084 94.2012 13.2084 94.1312 13.2084C94.0611 13.2084 93.9909 13.2084 93.9207 13.2084C93.8504 13.2084 93.78 13.2084 93.7096 13.2084C93.6391 13.2084 93.5685 13.2084 93.4978 13.2084C93.4272 13.2084 93.3564 13.2084 93.2856 13.2084C93.2147 13.2084 93.1437 13.2084 93.0727 13.2084C93.0016 13.2084 92.9305 13.2084 92.8592 13.2084C92.788 13.2084 92.7166 13.2084 92.6452 13.2084C92.5738 13.2084 92.5022 13.2084 92.4306 13.2084C92.3589 13.2084 92.2872 13.2084 92.2154 13.2084C92.1436 13.2084 92.0717 13.2084 91.9997 13.2084C91.9277 13.2084 91.8556 13.2084 91.7834 13.2084C91.7112 13.2084 91.6389 13.2084 91.5665 13.2084C91.4941 13.2084 91.4217 13.2084 91.3491 13.2084C91.2765 13.2084 91.2039 13.2084 91.1311 13.2084C91.0584 13.2084 90.9856 13.2084 90.9126 13.2084C90.8397 13.2084 90.7667 13.2084 90.6936 13.2084C90.6205 13.2084 90.5473 13.2084 90.474 13.2084C90.4007 13.2084 90.3274 13.2084 90.2539 13.2084C90.1805 13.2084 90.1069 13.2084 90.0333 13.2084C89.9596 13.2084 89.8859 13.2084 89.8121 13.2084C89.7383 13.2084 89.6644 13.2084 89.5904 13.2084C89.5165 13.2084 89.4424 13.2084 89.3683 13.2084C89.2941 13.2084 89.2199 13.2084 89.1456 13.2084C89.0712 13.2084 88.9968 13.2084 88.9223 13.2084C88.8479 13.2084 88.7733 13.2084 88.6986 13.2084C88.624 13.2084 88.5492 13.2084 88.4744 13.2084C88.3996 13.2084 88.3247 13.2084 88.2497 13.2084C88.1747 13.2084 88.0997 13.2084 88.0245 13.2084C87.9494 13.2084 87.8742 13.2084 87.7988 13.2084C87.7235 13.2084 87.6482 13.2084 87.5727 13.2084C87.4973 13.2084 87.4216 13.2084 87.346 13.2084C87.2704 13.2084 87.1947 13.2084 87.1189 13.2084C87.0431 13.2084 86.9674 13.2084 86.8914 13.2084C86.8155 13.2084 86.7394 13.2084 86.6633 13.2084C86.5872 13.2084 86.5111 13.2084 86.4348 13.2084C86.3586 13.2084 86.2822 13.2084 86.2058 13.2084C86.1294 13.2084 86.053 13.2084 85.9764 13.2084C85.8998 13.2084 85.8233 13.2084 85.7466 13.2084C85.6699 13.2084 85.593 13.2084 85.5163 13.2084C85.4394 13.2084 85.3624 13.2084 85.2855 13.2084C85.2085 13.2084 85.1313 13.2084 85.0543 13.2084C84.9771 13.2084 84.9 13.2084 84.8226 13.2084C84.7453 13.2084 84.668 13.2084 84.5907 13.2084C84.5132 13.2084 84.4357 13.2084 84.3581 13.2084C84.2806 13.2084 84.203 13.2084 84.1252 13.2084C84.0475 13.2084 83.9697 13.2084 83.892 13.2084C83.814 13.2084 83.7362 13.2084 83.6581 13.2084C83.5802 13.2084 83.5021 13.2084 83.424 13.2084C83.3459 13.2084 83.2678 13.2084 83.1896 13.2084C83.1113 13.2084 83.0329 13.2084 82.9547 13.2084C82.8763 13.2084 82.7977 13.2084 82.7193 13.2084C82.6407 13.2084 82.5622 13.2084 82.4835 13.2084C82.4049 13.2084 82.3262 13.2084 82.2475 13.2084C82.1686 13.2084 82.0898 13.2084 82.0109 13.2084C81.932 13.2084 81.853 13.2084 81.774 13.2084C81.695 13.2084 81.616 13.2084 81.5368 13.2084C81.4576 13.2084 81.3785 13.2084 81.2991 13.2084C81.22 13.2084 81.1406 13.2084 81.0612 13.2084C80.9818 13.2084 80.9023 13.2084 80.8229 13.2084C80.7434 13.2084 80.6638 13.2084 80.5841 13.2084C80.5045 13.2084 80.4249 13.2084 80.3451 13.2084C80.2653 13.2084 80.1855 13.2084 80.1057 13.2084C80.0258 13.2084 79.946 13.2084 79.8659 13.2084C79.7859 13.2084 79.7059 13.2084 79.6258 13.2084C79.5458 13.2084 79.4656 13.2084 79.3853 13.2084C79.3052 13.2084 79.225 13.2084 79.1446 13.2084C79.0643 13.2084 78.9839 13.2084 78.9035 13.2084C78.8231 13.2084 78.7426 13.2084 78.6622 13.2084C78.5816 13.2084 78.5011 13.2084 78.4204 13.2084C78.3398 13.2084 78.2591 13.2084 78.1782 13.2084C78.0975 13.2084 78.0168 13.2084 77.9359 13.2084C77.8551 13.2084 77.7742 13.2084 77.6932 13.2084C77.6123 13.2084 77.5313 13.2084 77.4503 13.2084C77.3691 13.2084 77.2881 13.2084 77.207 13.2084C77.1258 13.2084 77.0446 13.2084 76.9634 13.2084C76.8821 13.2084 76.8008 13.2084 76.7195 13.2084C76.6381 13.2084 76.5568 13.2084 76.4753 13.2084C76.3939 13.2084 76.3124 13.2084 76.2309 13.2084C76.1493 13.2084 76.0678 13.2084 75.9862 13.2084C75.9045 13.2084 75.8229 13.2084 75.7411 13.2084C75.6595 13.2084 75.5777 13.2084 75.4959 13.2084C75.414 13.2084 75.3322 13.2084 75.2503 13.2084C75.1685 13.2084 75.0865 13.2084 75.0044 13.2084C74.9225 13.2084 74.8406 13.2084 74.7585 13.2084C74.6764 13.2084 74.5943 13.2084 74.512 13.2084C74.4299 13.2084 74.3477 13.2084 74.2655 13.2084C74.1834 13.2084 74.101 13.2084 74.0187 13.2084C73.9363 13.2084 73.8541 13.2084 73.7717 13.2084C73.6893 13.2084 73.6069 13.2084 73.5243 13.2084C73.4419 13.2084 73.3594 13.2084 73.2768 13.2084C73.1943 13.2084 73.1117 13.2084 73.029 13.2084C72.9464 13.2084 72.8637 13.2084 72.781 13.2084C72.6983 13.2084 72.6156 13.2084 72.5327 13.2084C72.45 13.2084 72.3672 13.2084 72.2843 13.2084C72.2015 13.2084 72.1186 13.2084 72.0357 13.2084C71.9527 13.2084 71.8699 13.2084 71.7868 13.2084C71.7038 13.2084 71.6208 13.2084 71.5378 13.2084C71.4548 13.2084 71.3716 13.2084 71.2885 13.2084C71.2054 13.2084 71.1223 13.2084 71.0391 13.2084C70.9558 13.2084 70.8726 13.2084 70.7894 13.2084C70.7061 13.2084 70.6228 13.2084 70.5395 13.2084C70.4561 13.2084 70.3728 13.2084 70.2895 13.2084C70.206 13.2084 70.1227 13.2084 70.0392 13.2084C69.9557 13.2084 69.8724 13.2084 69.7888 13.2084C69.7053 13.2084 69.6218 13.2084 69.5382 13.2084C69.4547 13.2084 69.3711 13.2084 69.2875 13.2084C69.204 13.2084 69.1204 13.2084 69.0366 13.2084C68.953 13.2084 68.8693 13.2084 68.7855 13.2084C68.7019 13.2084 68.6181 13.2084 68.5344 13.2084C68.4506 13.2084 68.3668 13.2084 68.283 13.2084C68.1992 13.2084 68.1153 13.2084 68.0315 13.2084C67.9476 13.2084 67.8638 13.2084 67.7798 13.2084C67.6959 13.2084 67.612 13.2084 67.528 13.2084C67.4441 13.2084 67.36 13.2084 67.2761 13.2084C67.1921 13.2084 67.108 13.2084 67.0239 13.2084C66.94 13.2084 66.8559 13.2084 66.7718 13.2084C66.6877 13.2084 66.6036 13.2084 66.5194 13.2084C66.4353 13.2084 66.3512 13.2084 66.267 13.2084C66.1829 13.2084 66.0986 13.2084 66.0144 13.2084C65.9303 13.2084 65.8461 13.2084 65.7618 13.2084C65.6776 13.2084 65.5933 13.2084 65.5091 13.2084C65.4247 13.2084 65.3404 13.2084 65.2562 13.2084C65.1718 13.2084 65.0875 13.2084 65.0031 13.2084C64.9187 13.2084 64.8345 13.2084 64.7501 13.2084C64.6657 13.2084 64.5813 13.2084 64.4969 13.2084C64.4125 13.2084 64.3281 13.2084 64.2437 13.2084C64.1592 13.2084 64.0748 13.2084 63.9904 13.2084C63.9058 13.2084 63.8214 13.2084 63.7369 13.2084C63.6525 13.2084 63.5679 13.2084 63.4834 13.2084C63.399 13.2084 63.3144 13.2084 63.2299 13.2084C63.1453 13.2084 63.0607 13.2084 62.9762 13.2084C62.8916 13.2084 62.8071 13.2084 62.7225 13.2084C62.638 13.2084 62.5534 13.2084 62.4687 13.2084C62.3842 13.2084 62.2996 13.2084 62.2151 13.2084C62.1304 13.2084 62.0458 13.2084 61.9611 13.2084C61.8766 13.2084 61.7918 13.2084 61.7073 13.2084C61.6226 13.2084 61.538 13.2084 61.4533 13.2084C61.3686 13.2084 61.2841 13.2084 61.1994 13.2084C61.1147 13.2084 61.03 13.2084 60.9454 13.2084C60.8607 13.2084 60.776 13.2084 60.6913 13.2084C60.6066 13.2084 60.522 13.2084 60.4373 13.2084C60.3526 13.2084 60.2679 13.2084 60.1832 13.2084C60.0985 13.2084 60.0138 13.2084 59.9291 13.2084C59.8444 13.2084 59.7597 13.2084 59.675 13.2084C59.5903 13.2084 59.5056 13.2084 59.4208 13.2084C59.3361 13.2084 59.2514 13.2084 59.1667 13.2084C59.082 13.2084 58.9973 13.2084 58.9126 13.2084C58.8279 13.2084 58.7432 13.2084 58.6585 13.2084C58.5738 13.2084 58.4891 13.2084 58.4044 13.2084C58.3197 13.2084 58.235 13.2084 58.1503 13.2084C58.0656 13.2084 57.981 13.2084 57.8963 13.2084C57.8116 13.2084 57.7269 13.2084 57.6422 13.2084C57.5575 13.2084 57.4728 13.2084 57.3882 13.2084C57.3035 13.2084 57.2188 13.2084 57.1341 13.2084C57.0495 13.2084 56.9648 13.2084 56.8801 13.2084C56.7956 13.2084 56.7109 13.2084 56.6262 13.2084C56.5416 13.2084 56.4569 13.2084 56.3724 13.2084C56.2877 13.2084 56.2031 13.2084 56.1185 13.2084C56.0338 13.2084 55.9493 13.2084 55.8647 13.2084C55.78 13.2084 55.6955 13.2084 55.6109 13.2084C55.5264 13.2084 55.4418 13.2084 55.3573 13.2084C55.2727 13.2084 55.1882 13.2084 55.1036 13.2084C55.0191 13.2084 54.9345 13.2084 54.8501 13.2084C54.7656 13.2084 54.681 13.2084 54.5966 13.2084C54.5121 13.2084 54.4277 13.2084 54.3431 13.2084C54.2587 13.2084 54.1743 13.2084 54.0898 13.2084C54.0054 13.2084 53.921 13.2084 53.8366 13.2084C53.7522 13.2084 53.6678 13.2084 53.5834 13.2084C53.499 13.2084 53.4147 13.2084 53.3303 13.2084C53.2459 13.2084 53.1617 13.2084 53.0773 13.2084C52.993 13.2084 52.9088 13.2084 52.8244 13.2084C52.7401 13.2084 52.6559 13.2084 52.5717 13.2084C52.4874 13.2084 52.4032 13.2084 52.3189 13.2084C52.2348 13.2084 52.1506 13.2084 52.0665 13.2084C51.9822 13.2084 51.8982 13.2084 51.8139 13.2084C51.7298 13.2084 51.6457 13.2084 51.5616 13.2084C51.4775 13.2084 51.3935 13.2084 51.3094 13.2084C51.2254 13.2084 51.1413 13.2084 51.0574 13.2084C50.9733 13.2084 50.8894 13.2084 50.8054 13.2084C50.7215 13.2084 50.6376 13.2084 50.5536 13.2084C50.4697 13.2084 50.3857 13.2084 50.302 13.2084C50.218 13.2084 50.1342 13.2084 50.0505 13.2084C49.9665 13.2084 49.8827 13.2084 49.799 13.2084C49.7153 13.2084 49.6315 13.2084 49.5478 13.2084C49.4641 13.2084 49.3803 13.2084 49.2967 13.2084C49.2131 13.2084 49.1295 13.2084 49.0458 13.2084C48.9622 13.2084 48.8786 13.2084 48.7951 13.2084C48.7115 13.2084 48.628 13.2084 48.5445 13.2084C48.461 13.2084 48.3776 13.2084 48.2941 13.2084C48.2106 13.2084 48.1273 13.2084 48.0438 13.2084C47.9605 13.2084 47.8772 13.2084 47.7938 13.2084C47.7105 13.2084 47.6272 13.2084 47.544 13.2084C47.4607 13.2084 47.3775 13.2084 47.2942 13.2084C47.211 13.2084 47.1279 13.2084 47.0449 13.2084C46.9617 13.2084 46.8785 13.2084 46.7955 13.2084C46.7125 13.2084 46.6295 13.2084 46.5465 13.2084C46.4634 13.2084 46.3804 13.2084 46.2976 13.2084C46.2147 13.2084 46.1317 13.2084 46.049 13.2084C45.9661 13.2084 45.8833 13.2084 45.8004 13.2084C45.7177 13.2084 45.635 13.2084 45.5523 13.2084C45.4696 13.2084 45.3869 13.2084 45.3042 13.2084C45.2216 13.2084 45.1391 13.2084 45.0565 13.2084C44.9739 13.2084 44.8914 13.2084 44.8088 13.2084C44.7264 13.2084 44.644 13.2084 44.5616 13.2084C44.4792 13.2084 44.3968 13.2084 44.3144 13.2084C44.2322 13.2084 44.1499 13.2084 44.0677 13.2084C43.9855 13.2084 43.9032 13.2084 43.8211 13.2084C43.7389 13.2084 43.6568 13.2084 43.5747 13.2084C43.4927 13.2084 43.4106 13.2084 43.3287 13.2084C43.2466 13.2084 43.1647 13.2084 43.0829 13.2084C43.001 13.2084 42.919 13.2084 42.8372 13.2084C42.7555 13.2084 42.6737 13.2084 42.592 13.2084C42.5102 13.2084 42.4286 13.2084 42.347 13.2084C42.2654 13.2084 42.1837 13.2084 42.1022 13.2084C42.0206 13.2084 41.9391 13.2084 41.8578 13.2084C41.7763 13.2084 41.6949 13.2084 41.6135 13.2084C41.5322 13.2084 41.4509 13.2084 41.3697 13.2084C41.2884 13.2084 41.2072 13.2084 41.126 13.2084C41.0449 13.2084 40.9639 13.2084 40.8828 13.2084C40.8017 13.2084 40.7207 13.2084 40.6398 13.2084C40.5588 13.2084 40.4779 13.2084 40.3971 13.2084C40.3162 13.2084 40.2355 13.2084 40.1548 13.2084C40.0739 13.2084 39.9932 13.2084 39.9126 13.2084C39.8319 13.2084 39.7514 13.2084 39.6708 13.2084C39.5903 13.2084 39.5099 13.2084 39.4295 13.2084C39.3491 13.2084 39.2687 13.2084 39.1883 13.2084C39.108 13.2084 39.0278 13.2084 38.9475 13.2084C38.8673 13.2084 38.7872 13.2084 38.7071 13.2084C38.627 13.2084 38.5469 13.2084 38.467 13.2084C38.387 13.2084 38.3071 13.2084 38.2271 13.2084C38.1473 13.2084 38.0676 13.2084 37.9878 13.2084C37.908 13.2084 37.8284 13.2084 37.7487 13.2084C37.6691 13.2084 37.5895 13.2084 37.51 13.2084C37.4305 13.2084 37.351 13.2084 37.2717 13.2084C37.1922 13.2084 37.1129 13.2084 37.0336 13.2084C36.9544 13.2084 36.8751 13.2084 36.7961 13.2084C36.7169 13.2084 36.6377 13.2084 36.5587 13.2084C36.4797 13.2084 36.4008 13.2084 36.3218 13.2084C36.2429 13.2084 36.1641 13.2084 36.0854 13.2084C36.0065 13.2084 35.9278 13.2084 35.8492 13.2084C35.7705 13.2084 35.692 13.2084 35.6134 13.2084C35.535 13.2084 35.4564 13.2084 35.3782 13.2084C35.2998 13.2084 35.2214 13.2084 35.1431 13.2084C35.0649 13.2084 34.9868 13.2084 34.9087 13.2084C34.8304 13.2084 34.7525 13.2084 34.6744 13.2084C34.5965 13.2084 34.5185 13.2084 34.4407 13.2084C34.3629 13.2084 34.2852 13.2084 34.2074 13.2084C34.1297 13.2084 34.0521 13.2084 33.9745 13.2084C33.8968 13.2084 33.8194 13.2084 33.742 13.2084C33.6645 13.2084 33.5872 13.2084 33.5099 13.2084C33.4326 13.2084 33.3554 13.2084 33.2782 13.2084C33.2012 13.2084 33.124 13.2084 33.047 13.2084C32.9701 13.2084 32.8931 13.2084 32.8163 13.2084C32.7394 13.2084 32.6627 13.2084 32.586 13.2084C32.5093 13.2084 32.4327 13.2084 32.3561 13.2084C32.2796 13.2084 32.203 13.2084 32.1266 13.2084C32.0502 13.2084 31.974 13.2084 31.8977 13.2084C31.8215 13.2084 31.7452 13.2084 31.6691 13.2084C31.593 13.2084 31.5169 13.2084 31.441 13.2084C31.365 13.2084 31.2892 13.2084 31.2135 13.2084C31.1377 13.2084 31.0619 13.2084 30.9862 13.2084C30.9108 13.2084 30.8351 13.2084 30.7596 13.2084C30.6842 13.2084 30.6088 13.2084 30.5335 13.2084C30.4582 13.2084 30.383 13.2084 30.3078 13.2084C30.2327 13.2084 30.1575 13.2084 30.0826 13.2084C30.0076 13.2084 29.9327 13.2084 29.8578 13.2084C29.783 13.2084 29.7083 13.2084 29.6336 13.2084C29.559 13.2084 29.4844 13.2084 29.4099 13.2084C29.3353 13.2084 29.2609 13.2084 29.1867 13.2084C29.1123 13.2084 29.038 13.2084 28.9639 13.2084C28.8898 13.2084 28.8157 13.2084 28.7418 13.2084C28.6677 13.2084 28.5939 13.2084 28.5201 13.2084C28.4461 13.2084 28.3725 13.2084 28.2989 13.2084C28.2252 13.2084 28.1516 13.2084 28.0781 13.2084C28.0048 13.2084 27.9313 13.2084 27.8581 13.2084C27.7848 13.2084 27.7116 13.2084 27.6384 13.2084C27.5654 13.2084 27.4924 13.2084 27.4194 13.2084C27.3465 13.2084 27.2736 13.2084 27.2009 13.2084C27.128 13.2084 27.0555 13.2084 26.9829 13.2084C26.9104 13.2084 26.8378 13.2084 26.7654 13.2084C26.6931 13.2084 26.6207 13.2084 26.5486 13.2084C26.4764 13.2084 26.4043 13.2084 26.3322 13.2084C26.2602 13.2084 26.1883 13.2084 26.1165 13.2084C26.0447 13.2084 25.9729 13.2084 25.9013 13.2084C25.8296 13.2084 25.7581 13.2084 25.6867 13.2084C25.6152 13.2084 25.5438 13.2084 25.4725 13.2084C25.4013 13.2084 25.3301 13.2084 25.2591 13.2084C25.1881 13.2084 25.1171 13.2084 25.0462 13.2084C24.9753 13.2084 24.9046 13.2084 24.8339 13.2084C24.7632 13.2084 24.6926 13.2084 24.6222 13.2084C24.5517 13.2084 24.4812 13.2084 24.411 13.2084C24.3407 13.2084 24.2705 13.2084 24.2005 13.2084C24.1304 13.2084 24.0605 13.2084 23.9905 13.2084C23.9206 13.2084 23.851 13.2084 23.7812 13.2084C23.7115 13.2084 23.642 13.2084 23.5725 13.2084C23.5031 13.2084 23.4336 13.2084 23.3644 13.2084C23.2951 13.2084 23.2259 13.2084 23.1569 13.2084C23.0878 13.2084 23.0188 13.2084 22.9501 13.2084C22.8812 13.2084 22.8123 13.2084 22.7438 13.2084C22.6751 13.2084 22.6067 13.2084 22.5381 13.2084C22.4697 13.2084 22.4014 13.2084 22.3332 13.2084C22.2649 13.2084 22.1968 13.2084 22.1289 13.2084C22.0609 13.2084 21.993 13.2084 21.9252 13.2084C21.8574 13.2084 21.7897 13.2084 21.7221 13.2084C21.6544 13.2084 21.5871 13.2084 21.5196 13.2084C21.4523 13.2084 21.3851 13.2084 21.3179 13.2084C21.2507 13.2084 21.1837 13.2084 21.1168 13.2084C21.05 13.2084 20.9831 13.2084 20.9164 13.2084C20.8497 13.2084 20.7831 13.2084 20.7167 13.2084C20.6501 13.2084 20.5839 13.2084 20.5176 13.2084C20.4513 13.2084 20.3852 13.2084 20.3191 13.2084C20.2532 13.2084 20.1872 13.2084 20.1214 13.2084C20.0556 13.2084 19.99 13.2084 19.9243 13.2084C19.8588 13.2084 19.7934 13.2084 19.728 13.2084C19.6627 13.2084 19.5975 13.2084 19.5323 13.2084C19.4673 13.2084 19.4023 13.2084 19.3374 13.2084C19.2725 13.2084 19.2078 13.2084 19.1431 13.2084C19.0785 13.2084 19.0139 13.2084 18.9495 13.2084C18.8851 13.2084 18.8209 13.2084 18.7566 13.2084C18.6925 13.2084 18.6284 13.2084 18.5646 13.2084C18.5006 13.2084 18.4368 13.2084 18.373 13.2084C18.3094 13.2084 18.2458 13.2084 18.1824 13.2084C18.1189 13.2084 18.0556 13.2084 17.9924 13.2084C17.9292 13.2084 17.866 13.2084 17.8032 13.2084C17.7401 13.2084 17.6773 13.2084 17.6145 13.2084C17.552 13.2084 17.4892 13.2084 17.4268 13.2084C17.3644 13.2084 17.302 13.2084 17.2397 13.2084C17.1775 13.2084 17.1155 13.2084 17.0534 13.2084C16.9915 13.2084 16.9297 13.2084 16.8679 13.2084C16.8062 13.2084 16.7446 13.2084 16.6831 13.2084C16.6216 13.2084 16.5602 13.2084 16.4991 13.2084C16.4379 13.2084 16.3768 13.2084 16.3158 13.2084C16.2548 13.2084 16.1941 13.2084 16.1333 13.2084C16.0726 13.2084 16.012 13.2084 15.9516 13.2084C15.8911 13.2084 15.8308 13.2084 15.7705 13.2084C15.7104 13.2084 15.6503 13.2084 15.5903 13.2084C15.5304 13.2084 15.4706 13.2084 15.4109 13.2084C15.3513 13.2084 15.2918 13.2084 15.2323 13.2084C15.173 13.2084 15.1136 13.2084 15.0546 13.2084C14.9954 13.2084 14.9364 13.2084 14.8775 13.2084C14.8186 13.2084 14.7599 13.2084 14.7013 13.2084C14.6426 13.2084 14.5842 13.2084 14.5258 13.2084C14.4675 13.2084 14.4092 13.2084 14.3511 13.2084C14.2932 13.2084 14.2352 13.2084 14.1774 13.2084C14.1196 13.2084 14.062 13.2084 14.0043 13.2084C13.9468 13.2084 13.8895 13.2084 13.8321 13.2084C13.7749 13.2084 13.7178 13.2084 13.6609 13.2084C13.6038 13.2084 13.547 13.2084 13.4904 13.2084C13.4336 13.2084 13.3771 13.2084 13.3207 13.2084C13.2642 13.2084 13.2078 13.2084 13.1517 13.2084C13.0956 13.2084 13.0396 13.2084 12.9837 13.2084C12.9279 13.2084 12.8721 13.2084 12.8166 13.2084C12.7609 13.2084 12.7056 13.2084 12.6502 13.2084C12.5949 13.2084 12.5397 13.2084 12.4847 13.2084C12.4298 13.2084 12.3749 13.2084 12.3202 13.2084C12.2654 13.2084 12.2109 13.2084 12.1563 13.2084C12.1019 13.2084 12.0476 13.2084 11.9935 13.2084C11.9394 13.2084 11.8853 13.2084 11.8315 13.2084C11.7775 13.2084 11.7239 13.2084 11.6704 13.2084C11.6167 13.2084 11.5634 13.2084 11.51 13.2084C11.4567 13.2084 11.4036 13.2084 11.3506 13.2084C11.2976 13.2084 11.2448 13.2084 11.1921 13.2084C11.1394 13.2084 11.0869 13.2084 11.0345 13.2084C10.9821 13.2084 10.9298 13.2084 10.8777 13.2084C10.8256 13.2084 10.7738 13.2084 10.722 13.2084C10.6702 13.2084 10.6185 13.2084 10.567 13.2084C10.5155 13.2084 10.4642 13.2084 10.413 13.2084C10.3618 13.2084 10.3108 13.2084 10.2599 13.2084C10.209 13.2084 10.1583 13.2084 10.1077 13.2084C10.0571 13.2084 10.0067 13.2084 9.95641 13.2084C9.90614 13.2084 9.85602 13.2084 9.80605 13.2084C9.75609 13.2084 9.70628 13.2084 9.65663 13.2084C9.60697 13.2084 9.55746 13.2084 9.50812 13.2084C9.45877 13.2084 9.40958 13.2084 9.36054 13.2084C9.3115 13.2084 9.26261 13.2084 9.21388 13.2084C9.16515 13.2084 9.11657 13.2084 9.0683 13.2084C9.01987 13.2084 8.9716 13.2084 8.92348 13.2084C8.87537 13.2084 8.82755 13.2084 8.77975 13.2084C8.73193 13.2084 8.68427 13.2084 8.63692 13.2084C8.58942 13.2084 8.54223 13.2084 8.49503 13.2084C8.44784 13.2084 8.40095 13.2084 8.35406 13.2084C8.30733 13.2084 8.2606 13.2084 8.21416 13.2084C8.16774 13.2084 8.12132 13.2084 8.0752 13.2084C8.02908 13.2084 7.98311 13.2084 7.93729 13.2084C7.89133 13.2084 7.84567 13.2084 7.80016 13.2084C7.75466 13.2084 7.70931 13.2084 7.66427 13.2084C7.61907 13.2084 7.57403 13.2084 7.52914 13.2084C7.48425 13.2084 7.43967 13.2084 7.39508 13.2084C7.35065 13.2084 7.30623 13.2084 7.26211 13.2084C7.21783 13.2084 7.17387 13.2084 7.13005 13.2084C7.08624 13.2084 7.04243 13.2084 6.99892 13.2084C6.95541 13.2084 6.91206 13.2084 6.86902 13.2084C6.82582 13.2084 6.78278 13.2084 6.73988 13.2084C6.69714 13.2084 6.6544 13.2084 6.61198 13.2084C6.56939 13.2084 6.52711 13.2084 6.48499 13.2084C6.44272 13.2084 6.40075 13.2084 6.35893 13.2084C6.31712 13.2084 6.27546 13.2084 6.2341 13.2084C6.1926 13.2084 6.15125 13.2084 6.1102 13.2084C6.069 13.2084 6.02811 13.2084 5.98737 13.2084C5.94647 13.2084 5.90589 13.2084 5.86546 13.2084C5.82503 13.2084 5.78475 13.2084 5.74478 13.2084C5.70466 13.2084 5.66469 13.2084 5.62502 13.2084C5.58521 13.2084 5.54569 13.2084 5.50634 13.2084C5.46699 13.2084 5.42778 13.2084 5.38873 13.2084C5.34969 13.2084 5.3108 13.2084 5.27221 13.2084C5.23347 13.2084 5.19504 13.2084 5.15676 13.2084C5.11832 13.2084 5.0802 13.2084 5.04238 13.2084C5.00441 13.2084 4.96659 13.2084 4.92892 13.2084C4.89142 13.2084 4.8539 13.2084 4.8167 13.2084C4.7795 13.2084 4.74245 13.2084 4.70556 13.2084C4.66866 13.2084 4.63193 13.2084 4.5955 13.2084C4.55891 13.2084 4.52263 13.2084 4.4865 13.2084C4.45037 13.2084 4.41439 13.2084 4.37857 13.2084C4.34275 13.2084 4.30724 13.2084 4.27174 13.2084C4.23637 13.2084 4.20116 13.2084 4.16611 13.2084C4.13107 13.2084 4.09617 13.2084 4.06158 13.2084C4.02683 13.2084 3.9924 13.2084 3.95811 13.2084C3.92368 13.2084 3.88956 13.2084 3.85574 13.2084C3.82176 13.2084 3.78809 13.2084 3.75443 13.2084C3.72091 13.2084 3.68755 13.2084 3.65434 13.2084C3.62114 13.2084 3.58824 13.2084 3.55534 13.2084C3.5226 13.2084 3.49001 13.2084 3.45757 13.2084C3.42513 13.2084 3.39285 13.2084 3.36071 13.2084C3.32874 13.2084 3.29692 13.2084 3.26525 13.2084C3.23358 13.2084 3.20206 13.2084 3.17086 13.2084C3.1395 13.2084 3.10844 13.2084 3.07755 13.2084C3.04665 13.2084 3.0159 13.2084 2.98547 13.2084C2.95487 13.2084 2.92458 13.2084 2.89445 13.2084C2.86432 13.2084 2.83434 13.2084 2.80467 13.2084C2.77485 13.2084 2.74533 13.2084 2.71597 13.2084C2.68661 13.2084 2.6574 13.2084 2.62849 13.2084C2.59959 13.2084 2.57069 13.2084 2.54226 13.2084C2.51366 13.2084 2.48521 13.2084 2.45708 13.2084C2.42895 13.2084 2.40098 13.2084 2.37315 13.2084C2.34532 13.2084 2.3178 13.2084 2.29044 13.2084C2.26292 13.2084 2.23586 13.2084 2.20881 13.2084C2.18175 13.2084 2.155 13.2084 2.1284 13.2084C2.10181 13.2084 2.07552 13.2084 2.04924 13.2084C2.0231 13.2084 1.99712 13.2084 1.9713 13.2084C1.94547 13.2084 1.91994 13.2084 1.89458 13.2084C1.86922 13.2084 1.844 13.2084 1.81894 13.2084C1.79404 13.2084 1.76929 13.2084 1.7447 13.2084C1.7201 13.2084 1.69566 13.2084 1.67152 13.2084C1.64738 13.2084 1.6234 13.2084 1.59957 13.2084C1.57589 13.2084 1.55238 13.2084 1.52901 13.2084C1.50564 13.2084 1.48243 13.2084 1.45953 13.2084C1.43662 13.2084 1.41386 13.2084 1.39127 13.2084C1.36882 13.2084 1.34653 13.2084 1.3244 13.2084C1.30226 13.2084 1.28027 13.2084 1.2586 13.2084C1.23692 13.2084 1.2154 13.2084 1.19418 13.2084C1.17297 13.2084 1.15176 13.2084 1.131 13.2084C1.1101 13.2084 1.08949 13.2084 1.06904 13.2084C1.04859 13.2084 1.02831 13.2084 1.00832 13.2084C0.988335 13.2084 0.968513 13.2084 0.94883 13.2084C0.929306 13.2084 0.909935 13.2084 0.890717 13.2084C0.871498 13.2084 0.852585 13.2084 0.833832 13.2084C0.815079 13.2084 0.796486 13.2084 0.778191 13.2084C0.759895 13.2084 0.741753 13.2084 0.72377 13.2084C0.705933 13.2084 0.688255 13.2084 0.670731 13.2084C0.653358 13.2084 0.635986 13.2084 0.61908 13.2084C0.602013 13.2084 0.585098 13.2084 0.568489 13.2084C0.551888 13.2084 0.535599 13.2084 0.519302 13.2084C0.503159 13.2084 0.487175 13.2084 0.471497 13.2084C0.455811 13.2084 0.440285 13.2084 0.424911 13.2084C0.409538 13.2084 0.394478 13.2084 0.379715 13.2084C0.364807 13.2084 0.350197 13.2084 0.335747 13.2084C0.321297 13.2084 0.306999 13.2084 0.293007 13.2084C0.279015 13.2084 0.265343 13.2084 0.251816 13.2084C0.238289 13.2084 0.224907 13.2084 0.211845 13.2084C0.198624 13.2084 0.18586 13.2084 0.173103 13.2084C0.1605 13.2084 0.148041 13.2084 0.135902 13.2084C0.123604 13.2084 0.11161 13.2084 0.0999298 13.2084C0.088089 13.2084 0.0765533 13.2084 0.0651779 13.2084C0.0539551 13.2084 0.0427322 13.2084 0.0319672 13.2084C0.0210571 13.2084 0.0104523 13.2084 0 13.2084V10.1251Z" fill="white"/>
</svg>
