<svg width="67" height="12" viewBox="0 0 67 12" fill="none" xmlns="http://www.w3.org/2000/svg">
<path d="M66.5657 6.45686C66.8781 6.14444 66.8781 5.6379 66.5657 5.32548L61.4745 0.234315C61.1621 -0.0781049 60.6556 -0.0781049 60.3431 0.234315C60.0307 0.546734 60.0307 1.05327 60.3431 1.36569L64.8686 5.89117L60.3431 10.4167C60.0307 10.7291 60.0307 11.2356 60.3431 11.5481C60.6556 11.8605 61.1621 11.8605 61.4745 11.5481L66.5657 6.45686ZM0 6.69117C0.00677817 6.69117 0.0137032 6.69117 0.0207747 6.69117C0.0278462 6.69117 0.0350641 6.69117 0.0424281 6.69117C0.049792 6.69117 0.0573019 6.69117 0.0649574 6.69117C0.0726128 6.69117 0.0804138 6.69117 0.08836 6.69117C0.0963061 6.69117 0.104397 6.69117 0.112633 6.69117C0.120869 6.69117 0.12925 6.69117 0.137774 6.69117C0.146299 6.69117 0.154968 6.69117 0.163781 6.69117C0.172593 6.69117 0.18155 6.69117 0.190649 6.69117C0.199749 6.69117 0.208992 6.69117 0.218378 6.69117C0.227764 6.69117 0.237293 6.69117 0.246964 6.69117C0.256635 6.69117 0.266449 6.69117 0.276405 6.69117C0.28636 6.69117 0.296458 6.69117 0.306697 6.69117C0.316936 6.69117 0.327317 6.69117 0.337839 6.69117C0.34836 6.69117 0.359023 6.69117 0.369827 6.69117C0.38063 6.69117 0.391574 6.69117 0.402658 6.69117C0.413743 6.69117 0.424967 6.69117 0.436331 6.69117C0.447696 6.69117 0.4592 6.69117 0.470843 6.69117C0.482486 6.69117 0.494269 6.69117 0.50619 6.69117C0.518111 6.69117 0.530172 6.69117 0.54237 6.69117C0.554569 6.69117 0.566906 6.69117 0.579381 6.69117C0.591856 6.69117 0.604469 6.69117 0.617219 6.69117C0.62997 6.69117 0.642858 6.69117 0.655883 6.69117C0.668908 6.69117 0.68207 6.69117 0.695369 6.69117C0.708667 6.69117 0.722103 6.69117 0.735674 6.69117C0.749246 6.69117 0.762953 6.69117 0.776797 6.69117C0.79064 6.69117 0.804619 6.69117 0.818734 6.69117C0.832848 6.69117 0.847098 6.69117 0.861482 6.69117C0.875867 6.69117 0.890386 6.69117 0.90504 6.69117C0.919693 6.69117 0.934481 6.69117 0.949404 6.69117C0.964326 6.69117 0.979382 6.69117 0.994571 6.69117C1.00976 6.69117 1.02508 6.69117 1.04054 6.69117C1.056 6.69117 1.07158 6.69117 1.08731 6.69117C1.10303 6.69117 1.11888 6.69117 1.13487 6.69117C1.15085 6.69117 1.16697 6.69117 1.18322 6.69117C1.19947 6.69117 1.21586 6.69117 1.23237 6.69117C1.24888 6.69117 1.26553 6.69117 1.2823 6.69117C1.29908 6.69117 1.31598 6.69117 1.33302 6.69117C1.35006 6.69117 1.36722 6.69117 1.38452 6.69117C1.40182 6.69117 1.41924 6.69117 1.4368 6.69117C1.45436 6.69117 1.47204 6.69117 1.48986 6.69117C1.50767 6.69117 1.52561 6.69117 1.54369 6.69117C1.56176 6.69117 1.57996 6.69117 1.59829 6.69117C1.61662 6.69117 1.63507 6.69117 1.65366 6.69117C1.67224 6.69117 1.69096 6.69117 1.7098 6.69117C1.72864 6.69117 1.7476 6.69117 1.7667 6.69117C1.78579 6.69117 1.80501 6.69117 1.82436 6.69117C1.8437 6.69117 1.86318 6.69117 1.88278 6.69117C1.90238 6.69117 1.9221 6.69117 1.94195 6.69117C1.9618 6.69117 1.98178 6.69117 2.00188 6.69117C2.02198 6.69117 2.04221 6.69117 2.06256 6.69117C2.08291 6.69117 2.10338 6.69117 2.12398 6.69117C2.14458 6.69117 2.1653 6.69117 2.18615 6.69117C2.207 6.69117 2.22797 6.69117 2.24906 6.69117C2.27016 6.69117 2.29137 6.69117 2.31271 6.69117C2.33405 6.69117 2.35551 6.69117 2.3771 6.69117C2.39868 6.69117 2.42039 6.69117 2.44222 6.69117C2.46405 6.69117 2.486 6.69117 2.50807 6.69117C2.53015 6.69117 2.55234 6.69117 2.57465 6.69117C2.59697 6.69117 2.61941 6.69117 2.64196 6.69117C2.66452 6.69117 2.6872 6.69117 2.70999 6.69117C2.73279 6.69117 2.75571 6.69117 2.77874 6.69117C2.80178 6.69117 2.82494 6.69117 2.84821 6.69117C2.87149 6.69117 2.89488 6.69117 2.9184 6.69117C2.94191 6.69117 2.96554 6.69117 2.98929 6.69117C3.01304 6.69117 3.03691 6.69117 3.0609 6.69117C3.08489 6.69117 3.10899 6.69117 3.13321 6.69117C3.15744 6.69117 3.18178 6.69117 3.20623 6.69117C3.23069 6.69117 3.25526 6.69117 3.27995 6.69117C3.30464 6.69117 3.32945 6.69117 3.35437 6.69117C3.37929 6.69117 3.40433 6.69117 3.42949 6.69117C3.45464 6.69117 3.47991 6.69117 3.5053 6.69117C3.53068 6.69117 3.55618 6.69117 3.5818 6.69117C3.60741 6.69117 3.63314 6.69117 3.65899 6.69117C3.68483 6.69117 3.71079 6.69117 3.73686 6.69117C3.76293 6.69117 3.78912 6.69117 3.81542 6.69117C3.84172 6.69117 3.86813 6.69117 3.89466 6.69117C3.92118 6.69117 3.94782 6.69117 3.97457 6.69117C4.00132 6.69117 4.02819 6.69117 4.05516 6.69117C4.08214 6.69117 4.10923 6.69117 4.13643 6.69117C4.16363 6.69117 4.19094 6.69117 4.21836 6.69117C4.24578 6.69117 4.27332 6.69117 4.30096 6.69117C4.3286 6.69117 4.35636 6.69117 4.38422 6.69117C4.41209 6.69117 4.44007 6.69117 4.46815 6.69117C4.49624 6.69117 4.52443 6.69117 4.55274 6.69117C4.58104 6.69117 4.60945 6.69117 4.63798 6.69117C4.6665 6.69117 4.69513 6.69117 4.72387 6.69117C4.75261 6.69117 4.78146 6.69117 4.81042 6.69117C4.83937 6.69117 4.86844 6.69117 4.89761 6.69117C4.92678 6.69117 4.95606 6.69117 4.98545 6.69117C5.01484 6.69117 5.04433 6.69117 5.07393 6.69117C5.10353 6.69117 5.13324 6.69117 5.16306 6.69117C5.19287 6.69117 5.22279 6.69117 5.25282 6.69117C5.28284 6.69117 5.31297 6.69117 5.34321 6.69117C5.37345 6.69117 5.40379 6.69117 5.43424 6.69117C5.46469 6.69117 5.49524 6.69117 5.5259 6.69117C5.55655 6.69117 5.58731 6.69117 5.61818 6.69117C5.64904 6.69117 5.68001 6.69117 5.71109 6.69117C5.74216 6.69117 5.77334 6.69117 5.80462 6.69117C5.8359 6.69117 5.86728 6.69117 5.89876 6.69117C5.93025 6.69117 5.96184 6.69117 5.99353 6.69117C6.02522 6.69117 6.05701 6.69117 6.08891 6.69117C6.1208 6.69117 6.1528 6.69117 6.18489 6.69117C6.21699 6.69117 6.24919 6.69117 6.28149 6.69117C6.31379 6.69117 6.34619 6.69117 6.37869 6.69117C6.41119 6.69117 6.44379 6.69117 6.4765 6.69117C6.5092 6.69117 6.542 6.69117 6.5749 6.69117C6.6078 6.69117 6.6408 6.69117 6.6739 6.69117C6.707 6.69117 6.7402 6.69117 6.7735 6.69117C6.8068 6.69117 6.84019 6.69117 6.87369 6.69117C6.90718 6.69117 6.94077 6.69117 6.97446 6.69117C7.00815 6.69117 7.04194 6.69117 7.07583 6.69117C7.10971 6.69117 7.1437 6.69117 7.17778 6.69117C7.21186 6.69117 7.24603 6.69117 7.28031 6.69117C7.31458 6.69117 7.34895 6.69117 7.38341 6.69117C7.41788 6.69117 7.45244 6.69117 7.4871 6.69117C7.52176 6.69117 7.55651 6.69117 7.59136 6.69117C7.6262 6.69117 7.66115 6.69117 7.69618 6.69117C7.73122 6.69117 7.76635 6.69117 7.80158 6.69117C7.8368 6.69117 7.87213 6.69117 7.90754 6.69117C7.94295 6.69117 7.97846 6.69117 8.01406 6.69117C8.04966 6.69117 8.08536 6.69117 8.12115 6.69117C8.15693 6.69117 8.19281 6.69117 8.22879 6.69117C8.26476 6.69117 8.30082 6.69117 8.33698 6.69117C8.37314 6.69117 8.40939 6.69117 8.44573 6.69117C8.48207 6.69117 8.5185 6.69117 8.55502 6.69117C8.59155 6.69117 8.62816 6.69117 8.66487 6.69117C8.70157 6.69117 8.73837 6.69117 8.77525 6.69117C8.81214 6.69117 8.84911 6.69117 8.88618 6.69117C8.92325 6.69117 8.9604 6.69117 8.99765 6.69117C9.03489 6.69117 9.07222 6.69117 9.10965 6.69117C9.14707 6.69117 9.18458 6.69117 9.22218 6.69117C9.25978 6.69117 9.29747 6.69117 9.33525 6.69117C9.37302 6.69117 9.41089 6.69117 9.44884 6.69117C9.48679 6.69117 9.52483 6.69117 9.56295 6.69117C9.60108 6.69117 9.63929 6.69117 9.6776 6.69117C9.71589 6.69117 9.75428 6.69117 9.79275 6.69117C9.83123 6.69117 9.86979 6.69117 9.90843 6.69117C9.94707 6.69117 9.98581 6.69117 10.0246 6.69117C10.0634 6.69117 10.1023 6.69117 10.1413 6.69117C10.1803 6.69117 10.2194 6.69117 10.2585 6.69117C10.2977 6.69117 10.3369 6.69117 10.3763 6.69117C10.4156 6.69117 10.455 6.69117 10.4945 6.69117C10.534 6.69117 10.5735 6.69117 10.6132 6.69117C10.6529 6.69117 10.6926 6.69117 10.7324 6.69117C10.7722 6.69117 10.8121 6.69117 10.8521 6.69117C10.8921 6.69117 10.9322 6.69117 10.9723 6.69117C11.0125 6.69117 11.0527 6.69117 11.093 6.69117C11.1334 6.69117 11.1737 6.69117 11.2142 6.69117C11.2547 6.69117 11.2953 6.69117 11.3359 6.69117C11.3765 6.69117 11.4173 6.69117 11.458 6.69117C11.4988 6.69117 11.5397 6.69117 11.5807 6.69117C11.6216 6.69117 11.6627 6.69117 11.7038 6.69117C11.7449 6.69117 11.7861 6.69117 11.8274 6.69117C11.8686 6.69117 11.91 6.69117 11.9514 6.69117C11.9929 6.69117 12.0344 6.69117 12.076 6.69117C12.1175 6.69117 12.1592 6.69117 12.2009 6.69117C12.2427 6.69117 12.2845 6.69117 12.3264 6.69117C12.3683 6.69117 12.4103 6.69117 12.4523 6.69117C12.4944 6.69117 12.5365 6.69117 12.5787 6.69117C12.6209 6.69117 12.6632 6.69117 12.7055 6.69117C12.7479 6.69117 12.7903 6.69117 12.8328 6.69117C12.8753 6.69117 12.9179 6.69117 12.9605 6.69117C13.0032 6.69117 13.0459 6.69117 13.0887 6.69117C13.1315 6.69117 13.1744 6.69117 13.2173 6.69117C13.2603 6.69117 13.3033 6.69117 13.3464 6.69117C13.3895 6.69117 13.4326 6.69117 13.4759 6.69117C13.5191 6.69117 13.5624 6.69117 13.6058 6.69117C13.6492 6.69117 13.6927 6.69117 13.7362 6.69117C13.7797 6.69117 13.8233 6.69117 13.867 6.69117C13.9107 6.69117 13.9544 6.69117 13.9982 6.69117C14.0421 6.69117 14.0859 6.69117 14.1299 6.69117C14.1739 6.69117 14.2179 6.69117 14.262 6.69117C14.3061 6.69117 14.3503 6.69117 14.3945 6.69117C14.4387 6.69117 14.483 6.69117 14.5274 6.69117C14.5718 6.69117 14.6162 6.69117 14.6607 6.69117C14.7053 6.69117 14.7498 6.69117 14.7945 6.69117C14.8391 6.69117 14.8839 6.69117 14.9287 6.69117C14.9734 6.69117 15.0183 6.69117 15.0632 6.69117C15.1081 6.69117 15.1531 6.69117 15.1982 6.69117C15.2432 6.69117 15.2884 6.69117 15.3336 6.69117C15.3788 6.69117 15.424 6.69117 15.4693 6.69117C15.5147 6.69117 15.56 6.69117 15.6055 6.69117C15.651 6.69117 15.6965 6.69117 15.7421 6.69117C15.7876 6.69117 15.8333 6.69117 15.879 6.69117C15.9247 6.69117 15.9705 6.69117 16.0164 6.69117C16.0622 6.69117 16.1081 6.69117 16.1541 6.69117C16.2001 6.69117 16.2461 6.69117 16.2922 6.69117C16.3383 6.69117 16.3845 6.69117 16.4307 6.69117C16.4769 6.69117 16.5232 6.69117 16.5695 6.69117C16.6159 6.69117 16.6623 6.69117 16.7088 6.69117C16.7553 6.69117 16.8018 6.69117 16.8484 6.69117C16.895 6.69117 16.9417 6.69117 16.9884 6.69117C17.0351 6.69117 17.0819 6.69117 17.1287 6.69117C17.1756 6.69117 17.2225 6.69117 17.2695 6.69117C17.3164 6.69117 17.3635 6.69117 17.4105 6.69117C17.4576 6.69117 17.5048 6.69117 17.552 6.69117C17.5992 6.69117 17.6464 6.69117 17.6938 6.69117C17.7411 6.69117 17.7885 6.69117 17.8359 6.69117C17.8834 6.69117 17.9309 6.69117 17.9784 6.69117C18.026 6.69117 18.0736 6.69117 18.1213 6.69117C18.1689 6.69117 18.2167 6.69117 18.2644 6.69117C18.3122 6.69117 18.3601 6.69117 18.408 6.69117C18.4559 6.69117 18.5038 6.69117 18.5519 6.69117C18.5999 6.69117 18.6479 6.69117 18.6961 6.69117C18.7442 6.69117 18.7924 6.69117 18.8406 6.69117C18.8888 6.69117 18.9371 6.69117 18.9855 6.69117C19.0338 6.69117 19.0822 6.69117 19.1307 6.69117C19.1792 6.69117 19.2277 6.69117 19.2762 6.69117C19.3248 6.69117 19.3734 6.69117 19.4221 6.69117C19.4708 6.69117 19.5195 6.69117 19.5683 6.69117C19.617 6.69117 19.6659 6.69117 19.7148 6.69117C19.7637 6.69117 19.8126 6.69117 19.8616 6.69117C19.9106 6.69117 19.9596 6.69117 20.0087 6.69117C20.0578 6.69117 20.107 6.69117 20.1561 6.69117C20.2053 6.69117 20.2546 6.69117 20.3039 6.69117C20.3532 6.69117 20.4025 6.69117 20.4519 6.69117C20.5013 6.69117 20.5508 6.69117 20.6003 6.69117C20.6498 6.69117 20.6994 6.69117 20.749 6.69117C20.7986 6.69117 20.8482 6.69117 20.8979 6.69117C20.9476 6.69117 20.9974 6.69117 21.0472 6.69117C21.097 6.69117 21.1468 6.69117 21.1967 6.69117C21.2466 6.69117 21.2965 6.69117 21.3465 6.69117C21.3965 6.69117 21.4466 6.69117 21.4966 6.69117C21.5467 6.69117 21.5969 6.69117 21.647 6.69117C21.6972 6.69117 21.7474 6.69117 21.7977 6.69117C21.848 6.69117 21.8983 6.69117 21.9487 6.69117C21.999 6.69117 22.0494 6.69117 22.0999 6.69117C22.1504 6.69117 22.2009 6.69117 22.2514 6.69117C22.302 6.69117 22.3526 6.69117 22.4032 6.69117C22.4538 6.69117 22.5045 6.69117 22.5552 6.69117C22.606 6.69117 22.6567 6.69117 22.7076 6.69117C22.7584 6.69117 22.8092 6.69117 22.8601 6.69117C22.911 6.69117 22.962 6.69117 23.013 6.69117C23.0639 6.69117 23.115 6.69117 23.166 6.69117C23.2171 6.69117 23.2682 6.69117 23.3194 6.69117C23.3705 6.69117 23.4217 6.69117 23.473 6.69117C23.5242 6.69117 23.5755 6.69117 23.6268 6.69117C23.6782 6.69117 23.7295 6.69117 23.7809 6.69117C23.8323 6.69117 23.8838 6.69117 23.9353 6.69117C23.9867 6.69117 24.0383 6.69117 24.0898 6.69117C24.1414 6.69117 24.193 6.69117 24.2447 6.69117C24.2963 6.69117 24.348 6.69117 24.3997 6.69117C24.4514 6.69117 24.5032 6.69117 24.555 6.69117C24.6068 6.69117 24.6586 6.69117 24.7105 6.69117C24.7624 6.69117 24.8143 6.69117 24.8662 6.69117C24.9182 6.69117 24.9702 6.69117 25.0222 6.69117C25.0742 6.69117 25.1263 6.69117 25.1784 6.69117C25.2305 6.69117 25.2826 6.69117 25.3348 6.69117C25.387 6.69117 25.4392 6.69117 25.4914 6.69117C25.5437 6.69117 25.596 6.69117 25.6483 6.69117C25.7006 6.69117 25.7529 6.69117 25.8053 6.69117C25.8577 6.69117 25.9101 6.69117 25.9626 6.69117C26.015 6.69117 26.0675 6.69117 26.1201 6.69117C26.1726 6.69117 26.2251 6.69117 26.2777 6.69117C26.3303 6.69117 26.3829 6.69117 26.4356 6.69117C26.4882 6.69117 26.5409 6.69117 26.5937 6.69117C26.6464 6.69117 26.6991 6.69117 26.7519 6.69117C26.8047 6.69117 26.8575 6.69117 26.9104 6.69117C26.9632 6.69117 27.0161 6.69117 27.069 6.69117C27.1219 6.69117 27.1749 6.69117 27.2279 6.69117C27.2808 6.69117 27.3338 6.69117 27.3869 6.69117C27.4399 6.69117 27.493 6.69117 27.5461 6.69117C27.5992 6.69117 27.6523 6.69117 27.7055 6.69117C27.7586 6.69117 27.8118 6.69117 27.865 6.69117C27.9182 6.69117 27.9715 6.69117 28.0248 6.69117C28.078 6.69117 28.1313 6.69117 28.1847 6.69117C28.238 6.69117 28.2914 6.69117 28.3447 6.69117C28.3981 6.69117 28.4515 6.69117 28.505 6.69117C28.5584 6.69117 28.6119 6.69117 28.6654 6.69117C28.7189 6.69117 28.7724 6.69117 28.8259 6.69117C28.8795 6.69117 28.9331 6.69117 28.9867 6.69117C29.0403 6.69117 29.0939 6.69117 29.1475 6.69117C29.2012 6.69117 29.2549 6.69117 29.3086 6.69117C29.3623 6.69117 29.416 6.69117 29.4697 6.69117C29.5235 6.69117 29.5773 6.69117 29.6311 6.69117C29.6849 6.69117 29.7387 6.69117 29.7925 6.69117C29.8464 6.69117 29.9003 6.69117 29.9542 6.69117C30.008 6.69117 30.062 6.69117 30.1159 6.69117C30.1698 6.69117 30.2238 6.69117 30.2778 6.69117C30.3318 6.69117 30.3858 6.69117 30.4398 6.69117C30.4938 6.69117 30.5479 6.69117 30.602 6.69117C30.656 6.69117 30.7101 6.69117 30.7642 6.69117C30.8184 6.69117 30.8725 6.69117 30.9267 6.69117C30.9808 6.69117 31.035 6.69117 31.0892 6.69117C31.1434 6.69117 31.1976 6.69117 31.2518 6.69117C31.3061 6.69117 31.3603 6.69117 31.4146 6.69117C31.4689 6.69117 31.5232 6.69117 31.5775 6.69117C31.6318 6.69117 31.6861 6.69117 31.7405 6.69117C31.7948 6.69117 31.8492 6.69117 31.9036 6.69117C31.958 6.69117 32.0124 6.69117 32.0668 6.69117C32.1212 6.69117 32.1757 6.69117 32.2301 6.69117C32.2846 6.69117 32.3391 6.69117 32.3935 6.69117C32.448 6.69117 32.5025 6.69117 32.5571 6.69117C32.6116 6.69117 32.6661 6.69117 32.7207 6.69117C32.7752 6.69117 32.8298 6.69117 32.8844 6.69117C32.939 6.69117 32.9936 6.69117 33.0482 6.69117C33.1028 6.69117 33.1574 6.69117 33.2121 6.69117C33.2667 6.69117 33.3214 6.69117 33.376 6.69117C33.4307 6.69117 33.4854 6.69117 33.5401 6.69117C33.5948 6.69117 33.6495 6.69117 33.7042 6.69117C33.759 6.69117 33.8137 6.69117 33.8685 6.69117C33.9232 6.69117 33.978 6.69117 34.0327 6.69117C34.0875 6.69117 34.1423 6.69117 34.1971 6.69117C34.2519 6.69117 34.3067 6.69117 34.3615 6.69117C34.4164 6.69117 34.4712 6.69117 34.526 6.69117C34.5809 6.69117 34.6357 6.69117 34.6906 6.69117C34.7455 6.69117 34.8003 6.69117 34.8552 6.69117C34.9101 6.69117 34.965 6.69117 35.0199 6.69117C35.0748 6.69117 35.1297 6.69117 35.1846 6.69117C35.2396 6.69117 35.2945 6.69117 35.3494 6.69117C35.4044 6.69117 35.4593 6.69117 35.5143 6.69117C35.5692 6.69117 35.6242 6.69117 35.6792 6.69117C35.7341 6.69117 35.7891 6.69117 35.8441 6.69117C35.8991 6.69117 35.9541 6.69117 36.0091 6.69117C36.0641 6.69117 36.1191 6.69117 36.1741 6.69117C36.2291 6.69117 36.2841 6.69117 36.3392 6.69117C36.3942 6.69117 36.4492 6.69117 36.5043 6.69117C36.5593 6.69117 36.6143 6.69117 36.6694 6.69117C36.7244 6.69117 36.7795 6.69117 36.8345 6.69117C36.8896 6.69117 36.9447 6.69117 36.9997 6.69117C37.0548 6.69117 37.1099 6.69117 37.1649 6.69117C37.22 6.69117 37.2751 6.69117 37.3302 6.69117C37.3852 6.69117 37.4403 6.69117 37.4954 6.69117C37.5505 6.69117 37.6056 6.69117 37.6607 6.69117C37.7158 6.69117 37.7708 6.69117 37.8259 6.69117C37.881 6.69117 37.9361 6.69117 37.9912 6.69117C38.0463 6.69117 38.1014 6.69117 38.1565 6.69117C38.2116 6.69117 38.2667 6.69117 38.3218 6.69117C38.3769 6.69117 38.432 6.69117 38.4871 6.69117C38.5422 6.69117 38.5973 6.69117 38.6524 6.69117C38.7075 6.69117 38.7626 6.69117 38.8177 6.69117C38.8728 6.69117 38.9279 6.69117 38.983 6.69117C39.0381 6.69117 39.0932 6.69117 39.1483 6.69117C39.2034 6.69117 39.2585 6.69117 39.3136 6.69117C39.3687 6.69117 39.4237 6.69117 39.4788 6.69117C39.5339 6.69117 39.589 6.69117 39.6441 6.69117C39.6991 6.69117 39.7542 6.69117 39.8093 6.69117C39.8644 6.69117 39.9194 6.69117 39.9745 6.69117C40.0296 6.69117 40.0846 6.69117 40.1397 6.69117C40.1947 6.69117 40.2498 6.69117 40.3048 6.69117C40.3599 6.69117 40.4149 6.69117 40.47 6.69117C40.525 6.69117 40.58 6.69117 40.635 6.69117C40.6901 6.69117 40.7451 6.69117 40.8001 6.69117C40.8551 6.69117 40.9101 6.69117 40.9651 6.69117C41.0201 6.69117 41.0751 6.69117 41.1301 6.69117C41.1851 6.69117 41.2401 6.69117 41.295 6.69117C41.35 6.69117 41.405 6.69117 41.4599 6.69117C41.5149 6.69117 41.5698 6.69117 41.6248 6.69117C41.6797 6.69117 41.7346 6.69117 41.7896 6.69117C41.8445 6.69117 41.8994 6.69117 41.9543 6.69117C42.0092 6.69117 42.0641 6.69117 42.119 6.69117C42.1739 6.69117 42.2287 6.69117 42.2836 6.69117C42.3385 6.69117 42.3933 6.69117 42.4482 6.69117C42.503 6.69117 42.5578 6.69117 42.6127 6.69117C42.6675 6.69117 42.7223 6.69117 42.7771 6.69117C42.8319 6.69117 42.8867 6.69117 42.9414 6.69117C42.9962 6.69117 43.051 6.69117 43.1057 6.69117C43.1605 6.69117 43.2152 6.69117 43.2699 6.69117C43.3247 6.69117 43.3794 6.69117 43.4341 6.69117C43.4888 6.69117 43.5435 6.69117 43.5981 6.69117C43.6528 6.69117 43.7075 6.69117 43.7621 6.69117C43.8167 6.69117 43.8714 6.69117 43.926 6.69117C43.9806 6.69117 44.0352 6.69117 44.0898 6.69117C44.1444 6.69117 44.1989 6.69117 44.2535 6.69117C44.308 6.69117 44.3626 6.69117 44.4171 6.69117C44.4716 6.69117 44.5261 6.69117 44.5806 6.69117C44.6351 6.69117 44.6896 6.69117 44.744 6.69117C44.7985 6.69117 44.8529 6.69117 44.9073 6.69117C44.9618 6.69117 45.0162 6.69117 45.0705 6.69117C45.1249 6.69117 45.1793 6.69117 45.2336 6.69117C45.288 6.69117 45.3423 6.69117 45.3966 6.69117C45.451 6.69117 45.5052 6.69117 45.5595 6.69117C45.6138 6.69117 45.668 6.69117 45.7223 6.69117C45.7765 6.69117 45.8307 6.69117 45.8849 6.69117C45.9391 6.69117 45.9933 6.69117 46.0475 6.69117C46.1016 6.69117 46.1557 6.69117 46.2099 6.69117C46.264 6.69117 46.3181 6.69117 46.3721 6.69117C46.4262 6.69117 46.4803 6.69117 46.5343 6.69117C46.5883 6.69117 46.6423 6.69117 46.6963 6.69117C46.7503 6.69117 46.8042 6.69117 46.8582 6.69117C46.9121 6.69117 46.966 6.69117 47.0199 6.69117C47.0738 6.69117 47.1277 6.69117 47.1815 6.69117C47.2354 6.69117 47.2892 6.69117 47.343 6.69117C47.3968 6.69117 47.4506 6.69117 47.5043 6.69117C47.5581 6.69117 47.6118 6.69117 47.6655 6.69117C47.7192 6.69117 47.7729 6.69117 47.8265 6.69117C47.8802 6.69117 47.9338 6.69117 47.9874 6.69117C48.041 6.69117 48.0945 6.69117 48.1481 6.69117C48.2016 6.69117 48.2552 6.69117 48.3086 6.69117C48.3621 6.69117 48.4156 6.69117 48.469 6.69117C48.5225 6.69117 48.5759 6.69117 48.6293 6.69117C48.6827 6.69117 48.736 6.69117 48.7893 6.69117C48.8427 6.69117 48.896 6.69117 48.9492 6.69117C49.0025 6.69117 49.0557 6.69117 49.109 6.69117C49.1622 6.69117 49.2154 6.69117 49.2685 6.69117C49.3217 6.69117 49.3748 6.69117 49.4279 6.69117C49.481 6.69117 49.534 6.69117 49.5871 6.69117C49.6401 6.69117 49.6931 6.69117 49.7461 6.69117C49.7991 6.69117 49.852 6.69117 49.9049 6.69117C49.9578 6.69117 50.0107 6.69117 50.0636 6.69117C50.1164 6.69117 50.1692 6.69117 50.222 6.69117C50.2748 6.69117 50.3275 6.69117 50.3803 6.69117C50.433 6.69117 50.4857 6.69117 50.5383 6.69117C50.591 6.69117 50.6436 6.69117 50.6962 6.69117C50.7488 6.69117 50.8013 6.69117 50.8538 6.69117C50.9064 6.69117 50.9589 6.69117 51.0113 6.69117C51.0638 6.69117 51.1162 6.69117 51.1686 6.69117C51.2209 6.69117 51.2733 6.69117 51.3256 6.69117C51.3779 6.69117 51.4302 6.69117 51.4824 6.69117C51.5347 6.69117 51.5869 6.69117 51.639 6.69117C51.6912 6.69117 51.7434 6.69117 51.7954 6.69117C51.8475 6.69117 51.8996 6.69117 51.9516 6.69117C52.0037 6.69117 52.0556 6.69117 52.1076 6.69117C52.1595 6.69117 52.2114 6.69117 52.2633 6.69117C52.3152 6.69117 52.367 6.69117 52.4188 6.69117C52.4706 6.69117 52.5224 6.69117 52.5741 6.69117C52.6258 6.69117 52.6775 6.69117 52.7291 6.69117C52.7808 6.69117 52.8324 6.69117 52.8839 6.69117C52.9355 6.69117 52.987 6.69117 53.0385 6.69117C53.09 6.69117 53.1414 6.69117 53.1928 6.69117C53.2442 6.69117 53.2956 6.69117 53.3469 6.69117C53.3982 6.69117 53.4495 6.69117 53.5008 6.69117C53.552 6.69117 53.6032 6.69117 53.6543 6.69117C53.7055 6.69117 53.7566 6.69117 53.8077 6.69117C53.8587 6.69117 53.9098 6.69117 53.9608 6.69117C54.0117 6.69117 54.0627 6.69117 54.1136 6.69117C54.1645 6.69117 54.2153 6.69117 54.2661 6.69117C54.3169 6.69117 54.3677 6.69117 54.4184 6.69117C54.4692 6.69117 54.5198 6.69117 54.5705 6.69117C54.6211 6.69117 54.6717 6.69117 54.7222 6.69117C54.7728 6.69117 54.8233 6.69117 54.8737 6.69117C54.9242 6.69117 54.9746 6.69117 55.025 6.69117C55.0753 6.69117 55.1256 6.69117 55.1759 6.69117C55.2262 6.69117 55.2764 6.69117 55.3266 6.69117C55.3767 6.69117 55.4269 6.69117 55.477 6.69117C55.527 6.69117 55.5771 6.69117 55.6271 6.69117C55.677 6.69117 55.727 6.69117 55.7769 6.69117C55.8268 6.69117 55.8766 6.69117 55.9264 6.69117C55.9762 6.69117 56.0259 6.69117 56.0756 6.69117C56.1253 6.69117 56.175 6.69117 56.2246 6.69117C56.2742 6.69117 56.3237 6.69117 56.3732 6.69117C56.4227 6.69117 56.4722 6.69117 56.5216 6.69117C56.571 6.69117 56.6203 6.69117 56.6696 6.69117C56.7189 6.69117 56.7681 6.69117 56.8173 6.69117C56.8665 6.69117 56.9157 6.69117 56.9648 6.69117C57.0138 6.69117 57.0629 6.69117 57.1119 6.69117C57.1609 6.69117 57.2098 6.69117 57.2587 6.69117C57.3076 6.69117 57.3564 6.69117 57.4052 6.69117C57.4539 6.69117 57.5027 6.69117 57.5513 6.69117C57.6 6.69117 57.6486 6.69117 57.6972 6.69117C57.7457 6.69117 57.7942 6.69117 57.8427 6.69117C57.8911 6.69117 57.9395 6.69117 57.9879 6.69117C58.0362 6.69117 58.0845 6.69117 58.1328 6.69117C58.181 6.69117 58.2292 6.69117 58.2773 6.69117C58.3254 6.69117 58.3735 6.69117 58.4215 6.69117C58.4695 6.69117 58.5174 6.69117 58.5653 6.69117C58.6132 6.69117 58.6611 6.69117 58.7089 6.69117C58.7566 6.69117 58.8044 6.69117 58.852 6.69117C58.8997 6.69117 58.9473 6.69117 58.9949 6.69117C59.0424 6.69117 59.0899 6.69117 59.1373 6.69117C59.1848 6.69117 59.2322 6.69117 59.2795 6.69117C59.3268 6.69117 59.3741 6.69117 59.4213 6.69117C59.4685 6.69117 59.5156 6.69117 59.5627 6.69117C59.6098 6.69117 59.6568 6.69117 59.7037 6.69117C59.7507 6.69117 59.7976 6.69117 59.8444 6.69117C59.8913 6.69117 59.9381 6.69117 59.9848 6.69117C60.0315 6.69117 60.0782 6.69117 60.1247 6.69117C60.1713 6.69117 60.2179 6.69117 60.2643 6.69117C60.3108 6.69117 60.3572 6.69117 60.4036 6.69117C60.4499 6.69117 60.4962 6.69117 60.5424 6.69117C60.5886 6.69117 60.6348 6.69117 60.6809 6.69117C60.727 6.69117 60.773 6.69117 60.819 6.69117C60.865 6.69117 60.9109 6.69117 60.9567 6.69117C61.0025 6.69117 61.0483 6.69117 61.094 6.69117C61.1397 6.69117 61.1854 6.69117 61.231 6.69117C61.2765 6.69117 61.3221 6.69117 61.3675 6.69117C61.413 6.69117 61.4583 6.69117 61.5037 6.69117C61.549 6.69117 61.5942 6.69117 61.6394 6.69117C61.6846 6.69117 61.7297 6.69117 61.7748 6.69117C61.8198 6.69117 61.8648 6.69117 61.9097 6.69117C61.9546 6.69117 61.9995 6.69117 62.0443 6.69117C62.0891 6.69117 62.1338 6.69117 62.1784 6.69117C62.2231 6.69117 62.2676 6.69117 62.3121 6.69117C62.3567 6.69117 62.4011 6.69117 62.4455 6.69117C62.4898 6.69117 62.5341 6.69117 62.5784 6.69117C62.6226 6.69117 62.6668 6.69117 62.7109 6.69117C62.7549 6.69117 62.799 6.69117 62.8429 6.69117C62.8869 6.69117 62.9308 6.69117 62.9746 6.69117C63.0184 6.69117 63.0621 6.69117 63.1058 6.69117C63.1494 6.69117 63.193 6.69117 63.2366 6.69117C63.2801 6.69117 63.3235 6.69117 63.3669 6.69117C63.4103 6.69117 63.4536 6.69117 63.4968 6.69117C63.5401 6.69117 63.5832 6.69117 63.6263 6.69117C63.6694 6.69117 63.7124 6.69117 63.7554 6.69117C63.7983 6.69117 63.8412 6.69117 63.884 6.69117C63.9268 6.69117 63.9695 6.69117 64.0121 6.69117C64.0548 6.69117 64.0974 6.69117 64.1398 6.69117C64.1823 6.69117 64.2248 6.69117 64.2671 6.69117C64.3094 6.69117 64.3517 6.69117 64.3939 6.69117C64.4361 6.69117 64.4782 6.69117 64.5203 6.69117C64.5623 6.69117 64.6043 6.69117 64.6462 6.69117C64.688 6.69117 64.7299 6.69117 64.7716 6.69117C64.8133 6.69117 64.855 6.69117 64.8966 6.69117C64.9381 6.69117 64.9796 6.69117 65.0211 6.69117C65.0625 6.69117 65.1038 6.69117 65.1451 6.69117C65.1864 6.69117 65.2276 6.69117 65.2687 6.69117C65.3098 6.69117 65.3508 6.69117 65.3918 6.69117C65.4327 6.69117 65.4736 6.69117 65.5144 6.69117C65.5552 6.69117 65.5959 6.69117 65.6365 6.69117C65.6771 6.69117 65.7177 6.69117 65.7582 6.69117C65.7986 6.69117 65.839 6.69117 65.8793 6.69117C65.9196 6.69117 65.9599 6.69117 66 6.69117V5.09117C65.9599 5.09117 65.9196 5.09117 65.8793 5.09117C65.839 5.09117 65.7986 5.09117 65.7582 5.09117C65.7177 5.09117 65.6771 5.09117 65.6365 5.09117C65.5959 5.09117 65.5552 5.09117 65.5144 5.09117C65.4736 5.09117 65.4327 5.09117 65.3918 5.09117C65.3508 5.09117 65.3098 5.09117 65.2687 5.09117C65.2276 5.09117 65.1864 5.09117 65.1451 5.09117C65.1038 5.09117 65.0625 5.09117 65.0211 5.09117C64.9796 5.09117 64.9381 5.09117 64.8966 5.09117C64.855 5.09117 64.8133 5.09117 64.7716 5.09117C64.7299 5.09117 64.688 5.09117 64.6462 5.09117C64.6043 5.09117 64.5623 5.09117 64.5203 5.09117C64.4782 5.09117 64.4361 5.09117 64.3939 5.09117C64.3517 5.09117 64.3094 5.09117 64.2671 5.09117C64.2248 5.09117 64.1823 5.09117 64.1398 5.09117C64.0974 5.09117 64.0548 5.09117 64.0121 5.09117C63.9695 5.09117 63.9268 5.09117 63.884 5.09117C63.8412 5.09117 63.7983 5.09117 63.7554 5.09117C63.7124 5.09117 63.6694 5.09117 63.6263 5.09117C63.5832 5.09117 63.5401 5.09117 63.4968 5.09117C63.4536 5.09117 63.4103 5.09117 63.3669 5.09117C63.3235 5.09117 63.2801 5.09117 63.2366 5.09117C63.193 5.09117 63.1494 5.09117 63.1058 5.09117C63.0621 5.09117 63.0184 5.09117 62.9746 5.09117C62.9308 5.09117 62.8869 5.09117 62.8429 5.09117C62.799 5.09117 62.7549 5.09117 62.7109 5.09117C62.6668 5.09117 62.6226 5.09117 62.5784 5.09117C62.5341 5.09117 62.4898 5.09117 62.4455 5.09117C62.4011 5.09117 62.3567 5.09117 62.3121 5.09117C62.2676 5.09117 62.2231 5.09117 62.1784 5.09117C62.1338 5.09117 62.0891 5.09117 62.0443 5.09117C61.9995 5.09117 61.9546 5.09117 61.9097 5.09117C61.8648 5.09117 61.8198 5.09117 61.7748 5.09117C61.7297 5.09117 61.6846 5.09117 61.6394 5.09117C61.5942 5.09117 61.549 5.09117 61.5037 5.09117C61.4583 5.09117 61.413 5.09117 61.3675 5.09117C61.3221 5.09117 61.2765 5.09117 61.231 5.09117C61.1854 5.09117 61.1397 5.09117 61.094 5.09117C61.0483 5.09117 61.0025 5.09117 60.9567 5.09117C60.9109 5.09117 60.865 5.09117 60.819 5.09117C60.773 5.09117 60.727 5.09117 60.6809 5.09117C60.6348 5.09117 60.5886 5.09117 60.5424 5.09117C60.4962 5.09117 60.4499 5.09117 60.4036 5.09117C60.3572 5.09117 60.3108 5.09117 60.2643 5.09117C60.2179 5.09117 60.1713 5.09117 60.1247 5.09117C60.0782 5.09117 60.0315 5.09117 59.9848 5.09117C59.9381 5.09117 59.8913 5.09117 59.8444 5.09117C59.7976 5.09117 59.7507 5.09117 59.7037 5.09117C59.6568 5.09117 59.6098 5.09117 59.5627 5.09117C59.5156 5.09117 59.4685 5.09117 59.4213 5.09117C59.3741 5.09117 59.3268 5.09117 59.2795 5.09117C59.2322 5.09117 59.1848 5.09117 59.1373 5.09117C59.0899 5.09117 59.0424 5.09117 58.9949 5.09117C58.9473 5.09117 58.8997 5.09117 58.852 5.09117C58.8044 5.09117 58.7566 5.09117 58.7089 5.09117C58.6611 5.09117 58.6132 5.09117 58.5653 5.09117C58.5174 5.09117 58.4695 5.09117 58.4215 5.09117C58.3735 5.09117 58.3254 5.09117 58.2773 5.09117C58.2292 5.09117 58.181 5.09117 58.1328 5.09117C58.0845 5.09117 58.0362 5.09117 57.9879 5.09117C57.9395 5.09117 57.8911 5.09117 57.8427 5.09117C57.7942 5.09117 57.7457 5.09117 57.6972 5.09117C57.6486 5.09117 57.6 5.09117 57.5513 5.09117C57.5027 5.09117 57.4539 5.09117 57.4052 5.09117C57.3564 5.09117 57.3076 5.09117 57.2587 5.09117C57.2098 5.09117 57.1609 5.09117 57.1119 5.09117C57.0629 5.09117 57.0138 5.09117 56.9648 5.09117C56.9157 5.09117 56.8665 5.09117 56.8173 5.09117C56.7681 5.09117 56.7189 5.09117 56.6696 5.09117C56.6203 5.09117 56.571 5.09117 56.5216 5.09117C56.4722 5.09117 56.4227 5.09117 56.3732 5.09117C56.3237 5.09117 56.2742 5.09117 56.2246 5.09117C56.175 5.09117 56.1253 5.09117 56.0756 5.09117C56.0259 5.09117 55.9762 5.09117 55.9264 5.09117C55.8766 5.09117 55.8268 5.09117 55.7769 5.09117C55.727 5.09117 55.677 5.09117 55.6271 5.09117C55.5771 5.09117 55.527 5.09117 55.477 5.09117C55.4269 5.09117 55.3767 5.09117 55.3266 5.09117C55.2764 5.09117 55.2262 5.09117 55.1759 5.09117C55.1256 5.09117 55.0753 5.09117 55.025 5.09117C54.9746 5.09117 54.9242 5.09117 54.8737 5.09117C54.8233 5.09117 54.7728 5.09117 54.7222 5.09117C54.6717 5.09117 54.6211 5.09117 54.5705 5.09117C54.5198 5.09117 54.4692 5.09117 54.4184 5.09117C54.3677 5.09117 54.3169 5.09117 54.2661 5.09117C54.2153 5.09117 54.1645 5.09117 54.1136 5.09117C54.0627 5.09117 54.0117 5.09117 53.9608 5.09117C53.9098 5.09117 53.8587 5.09117 53.8077 5.09117C53.7566 5.09117 53.7055 5.09117 53.6543 5.09117C53.6032 5.09117 53.552 5.09117 53.5008 5.09117C53.4495 5.09117 53.3982 5.09117 53.3469 5.09117C53.2956 5.09117 53.2442 5.09117 53.1928 5.09117C53.1414 5.09117 53.09 5.09117 53.0385 5.09117C52.987 5.09117 52.9355 5.09117 52.8839 5.09117C52.8324 5.09117 52.7808 5.09117 52.7291 5.09117C52.6775 5.09117 52.6258 5.09117 52.5741 5.09117C52.5224 5.09117 52.4706 5.09117 52.4188 5.09117C52.367 5.09117 52.3152 5.09117 52.2633 5.09117C52.2114 5.09117 52.1595 5.09117 52.1076 5.09117C52.0556 5.09117 52.0037 5.09117 51.9516 5.09117C51.8996 5.09117 51.8475 5.09117 51.7954 5.09117C51.7434 5.09117 51.6912 5.09117 51.639 5.09117C51.5869 5.09117 51.5347 5.09117 51.4824 5.09117C51.4302 5.09117 51.3779 5.09117 51.3256 5.09117C51.2733 5.09117 51.2209 5.09117 51.1686 5.09117C51.1162 5.09117 51.0638 5.09117 51.0113 5.09117C50.9589 5.09117 50.9064 5.09117 50.8538 5.09117C50.8013 5.09117 50.7488 5.09117 50.6962 5.09117C50.6436 5.09117 50.591 5.09117 50.5383 5.09117C50.4857 5.09117 50.433 5.09117 50.3803 5.09117C50.3275 5.09117 50.2748 5.09117 50.222 5.09117C50.1692 5.09117 50.1164 5.09117 50.0636 5.09117C50.0107 5.09117 49.9578 5.09117 49.9049 5.09117C49.852 5.09117 49.7991 5.09117 49.7461 5.09117C49.6931 5.09117 49.6401 5.09117 49.5871 5.09117C49.534 5.09117 49.481 5.09117 49.4279 5.09117C49.3748 5.09117 49.3217 5.09117 49.2685 5.09117C49.2154 5.09117 49.1622 5.09117 49.109 5.09117C49.0557 5.09117 49.0025 5.09117 48.9492 5.09117C48.896 5.09117 48.8427 5.09117 48.7893 5.09117C48.736 5.09117 48.6827 5.09117 48.6293 5.09117C48.5759 5.09117 48.5225 5.09117 48.469 5.09117C48.4156 5.09117 48.3621 5.09117 48.3086 5.09117C48.2552 5.09117 48.2016 5.09117 48.1481 5.09117C48.0945 5.09117 48.041 5.09117 47.9874 5.09117C47.9338 5.09117 47.8802 5.09117 47.8265 5.09117C47.7729 5.09117 47.7192 5.09117 47.6655 5.09117C47.6118 5.09117 47.5581 5.09117 47.5043 5.09117C47.4506 5.09117 47.3968 5.09117 47.343 5.09117C47.2892 5.09117 47.2354 5.09117 47.1815 5.09117C47.1277 5.09117 47.0738 5.09117 47.0199 5.09117C46.966 5.09117 46.9121 5.09117 46.8582 5.09117C46.8042 5.09117 46.7503 5.09117 46.6963 5.09117C46.6423 5.09117 46.5883 5.09117 46.5343 5.09117C46.4803 5.09117 46.4262 5.09117 46.3721 5.09117C46.3181 5.09117 46.264 5.09117 46.2099 5.09117C46.1557 5.09117 46.1016 5.09117 46.0475 5.09117C45.9933 5.09117 45.9391 5.09117 45.8849 5.09117C45.8307 5.09117 45.7765 5.09117 45.7223 5.09117C45.668 5.09117 45.6138 5.09117 45.5595 5.09117C45.5052 5.09117 45.451 5.09117 45.3966 5.09117C45.3423 5.09117 45.288 5.09117 45.2336 5.09117C45.1793 5.09117 45.1249 5.09117 45.0705 5.09117C45.0162 5.09117 44.9618 5.09117 44.9073 5.09117C44.8529 5.09117 44.7985 5.09117 44.744 5.09117C44.6896 5.09117 44.6351 5.09117 44.5806 5.09117C44.5261 5.09117 44.4716 5.09117 44.4171 5.09117C44.3626 5.09117 44.308 5.09117 44.2535 5.09117C44.1989 5.09117 44.1444 5.09117 44.0898 5.09117C44.0352 5.09117 43.9806 5.09117 43.926 5.09117C43.8714 5.09117 43.8167 5.09117 43.7621 5.09117C43.7075 5.09117 43.6528 5.09117 43.5981 5.09117C43.5435 5.09117 43.4888 5.09117 43.4341 5.09117C43.3794 5.09117 43.3247 5.09117 43.2699 5.09117C43.2152 5.09117 43.1605 5.09117 43.1057 5.09117C43.051 5.09117 42.9962 5.09117 42.9414 5.09117C42.8867 5.09117 42.8319 5.09117 42.7771 5.09117C42.7223 5.09117 42.6675 5.09117 42.6127 5.09117C42.5578 5.09117 42.503 5.09117 42.4482 5.09117C42.3933 5.09117 42.3385 5.09117 42.2836 5.09117C42.2287 5.09117 42.1739 5.09117 42.119 5.09117C42.0641 5.09117 42.0092 5.09117 41.9543 5.09117C41.8994 5.09117 41.8445 5.09117 41.7896 5.09117C41.7346 5.09117 41.6797 5.09117 41.6248 5.09117C41.5698 5.09117 41.5149 5.09117 41.4599 5.09117C41.405 5.09117 41.35 5.09117 41.295 5.09117C41.2401 5.09117 41.1851 5.09117 41.1301 5.09117C41.0751 5.09117 41.0201 5.09117 40.9651 5.09117C40.9101 5.09117 40.8551 5.09117 40.8001 5.09117C40.7451 5.09117 40.6901 5.09117 40.635 5.09117C40.58 5.09117 40.525 5.09117 40.47 5.09117C40.4149 5.09117 40.3599 5.09117 40.3048 5.09117C40.2498 5.09117 40.1947 5.09117 40.1397 5.09117C40.0846 5.09117 40.0296 5.09117 39.9745 5.09117C39.9194 5.09117 39.8644 5.09117 39.8093 5.09117C39.7542 5.09117 39.6991 5.09117 39.6441 5.09117C39.589 5.09117 39.5339 5.09117 39.4788 5.09117C39.4237 5.09117 39.3687 5.09117 39.3136 5.09117C39.2585 5.09117 39.2034 5.09117 39.1483 5.09117C39.0932 5.09117 39.0381 5.09117 38.983 5.09117C38.9279 5.09117 38.8728 5.09117 38.8177 5.09117C38.7626 5.09117 38.7075 5.09117 38.6524 5.09117C38.5973 5.09117 38.5422 5.09117 38.4871 5.09117C38.432 5.09117 38.3769 5.09117 38.3218 5.09117C38.2667 5.09117 38.2116 5.09117 38.1565 5.09117C38.1014 5.09117 38.0463 5.09117 37.9912 5.09117C37.9361 5.09117 37.881 5.09117 37.8259 5.09117C37.7708 5.09117 37.7158 5.09117 37.6607 5.09117C37.6056 5.09117 37.5505 5.09117 37.4954 5.09117C37.4403 5.09117 37.3852 5.09117 37.3302 5.09117C37.2751 5.09117 37.22 5.09117 37.1649 5.09117C37.1099 5.09117 37.0548 5.09117 36.9997 5.09117C36.9447 5.09117 36.8896 5.09117 36.8345 5.09117C36.7795 5.09117 36.7244 5.09117 36.6694 5.09117C36.6143 5.09117 36.5593 5.09117 36.5043 5.09117C36.4492 5.09117 36.3942 5.09117 36.3392 5.09117C36.2841 5.09117 36.2291 5.09117 36.1741 5.09117C36.1191 5.09117 36.0641 5.09117 36.0091 5.09117C35.9541 5.09117 35.8991 5.09117 35.8441 5.09117C35.7891 5.09117 35.7341 5.09117 35.6792 5.09117C35.6242 5.09117 35.5692 5.09117 35.5143 5.09117C35.4593 5.09117 35.4044 5.09117 35.3494 5.09117C35.2945 5.09117 35.2396 5.09117 35.1846 5.09117C35.1297 5.09117 35.0748 5.09117 35.0199 5.09117C34.965 5.09117 34.9101 5.09117 34.8552 5.09117C34.8003 5.09117 34.7455 5.09117 34.6906 5.09117C34.6357 5.09117 34.5809 5.09117 34.526 5.09117C34.4712 5.09117 34.4164 5.09117 34.3615 5.09117C34.3067 5.09117 34.2519 5.09117 34.1971 5.09117C34.1423 5.09117 34.0875 5.09117 34.0327 5.09117C33.978 5.09117 33.9232 5.09117 33.8685 5.09117C33.8137 5.09117 33.759 5.09117 33.7042 5.09117C33.6495 5.09117 33.5948 5.09117 33.5401 5.09117C33.4854 5.09117 33.4307 5.09117 33.376 5.09117C33.3214 5.09117 33.2667 5.09117 33.2121 5.09117C33.1574 5.09117 33.1028 5.09117 33.0482 5.09117C32.9936 5.09117 32.939 5.09117 32.8844 5.09117C32.8298 5.09117 32.7752 5.09117 32.7207 5.09117C32.6661 5.09117 32.6116 5.09117 32.5571 5.09117C32.5025 5.09117 32.448 5.09117 32.3935 5.09117C32.3391 5.09117 32.2846 5.09117 32.2301 5.09117C32.1757 5.09117 32.1212 5.09117 32.0668 5.09117C32.0124 5.09117 31.958 5.09117 31.9036 5.09117C31.8492 5.09117 31.7948 5.09117 31.7405 5.09117C31.6861 5.09117 31.6318 5.09117 31.5775 5.09117C31.5232 5.09117 31.4689 5.09117 31.4146 5.09117C31.3603 5.09117 31.3061 5.09117 31.2518 5.09117C31.1976 5.09117 31.1434 5.09117 31.0892 5.09117C31.035 5.09117 30.9808 5.09117 30.9267 5.09117C30.8725 5.09117 30.8184 5.09117 30.7642 5.09117C30.7101 5.09117 30.656 5.09117 30.602 5.09117C30.5479 5.09117 30.4938 5.09117 30.4398 5.09117C30.3858 5.09117 30.3318 5.09117 30.2778 5.09117C30.2238 5.09117 30.1698 5.09117 30.1159 5.09117C30.062 5.09117 30.008 5.09117 29.9542 5.09117C29.9003 5.09117 29.8464 5.09117 29.7925 5.09117C29.7387 5.09117 29.6849 5.09117 29.6311 5.09117C29.5773 5.09117 29.5235 5.09117 29.4697 5.09117C29.416 5.09117 29.3623 5.09117 29.3086 5.09117C29.2549 5.09117 29.2012 5.09117 29.1475 5.09117C29.0939 5.09117 29.0403 5.09117 28.9867 5.09117C28.9331 5.09117 28.8795 5.09117 28.8259 5.09117C28.7724 5.09117 28.7189 5.09117 28.6654 5.09117C28.6119 5.09117 28.5584 5.09117 28.505 5.09117C28.4515 5.09117 28.3981 5.09117 28.3447 5.09117C28.2914 5.09117 28.238 5.09117 28.1847 5.09117C28.1313 5.09117 28.078 5.09117 28.0248 5.09117C27.9715 5.09117 27.9182 5.09117 27.865 5.09117C27.8118 5.09117 27.7586 5.09117 27.7055 5.09117C27.6523 5.09117 27.5992 5.09117 27.5461 5.09117C27.493 5.09117 27.4399 5.09117 27.3869 5.09117C27.3338 5.09117 27.2808 5.09117 27.2279 5.09117C27.1749 5.09117 27.1219 5.09117 27.069 5.09117C27.0161 5.09117 26.9632 5.09117 26.9104 5.09117C26.8575 5.09117 26.8047 5.09117 26.7519 5.09117C26.6991 5.09117 26.6464 5.09117 26.5937 5.09117C26.5409 5.09117 26.4882 5.09117 26.4356 5.09117C26.3829 5.09117 26.3303 5.09117 26.2777 5.09117C26.2251 5.09117 26.1726 5.09117 26.1201 5.09117C26.0675 5.09117 26.015 5.09117 25.9626 5.09117C25.9101 5.09117 25.8577 5.09117 25.8053 5.09117C25.7529 5.09117 25.7006 5.09117 25.6483 5.09117C25.596 5.09117 25.5437 5.09117 25.4914 5.09117C25.4392 5.09117 25.387 5.09117 25.3348 5.09117C25.2826 5.09117 25.2305 5.09117 25.1784 5.09117C25.1263 5.09117 25.0742 5.09117 25.0222 5.09117C24.9702 5.09117 24.9182 5.09117 24.8662 5.09117C24.8143 5.09117 24.7624 5.09117 24.7105 5.09117C24.6586 5.09117 24.6068 5.09117 24.555 5.09117C24.5032 5.09117 24.4514 5.09117 24.3997 5.09117C24.348 5.09117 24.2963 5.09117 24.2447 5.09117C24.193 5.09117 24.1414 5.09117 24.0898 5.09117C24.0383 5.09117 23.9867 5.09117 23.9353 5.09117C23.8838 5.09117 23.8323 5.09117 23.7809 5.09117C23.7295 5.09117 23.6782 5.09117 23.6268 5.09117C23.5755 5.09117 23.5242 5.09117 23.473 5.09117C23.4217 5.09117 23.3705 5.09117 23.3194 5.09117C23.2682 5.09117 23.2171 5.09117 23.166 5.09117C23.115 5.09117 23.0639 5.09117 23.013 5.09117C22.962 5.09117 22.911 5.09117 22.8601 5.09117C22.8092 5.09117 22.7584 5.09117 22.7076 5.09117C22.6567 5.09117 22.606 5.09117 22.5552 5.09117C22.5045 5.09117 22.4538 5.09117 22.4032 5.09117C22.3526 5.09117 22.302 5.09117 22.2514 5.09117C22.2009 5.09117 22.1504 5.09117 22.0999 5.09117C22.0494 5.09117 21.999 5.09117 21.9487 5.09117C21.8983 5.09117 21.848 5.09117 21.7977 5.09117C21.7474 5.09117 21.6972 5.09117 21.647 5.09117C21.5969 5.09117 21.5467 5.09117 21.4966 5.09117C21.4466 5.09117 21.3965 5.09117 21.3465 5.09117C21.2965 5.09117 21.2466 5.09117 21.1967 5.09117C21.1468 5.09117 21.097 5.09117 21.0472 5.09117C20.9974 5.09117 20.9476 5.09117 20.8979 5.09117C20.8482 5.09117 20.7986 5.09117 20.749 5.09117C20.6994 5.09117 20.6498 5.09117 20.6003 5.09117C20.5508 5.09117 20.5013 5.09117 20.4519 5.09117C20.4025 5.09117 20.3532 5.09117 20.3039 5.09117C20.2546 5.09117 20.2053 5.09117 20.1561 5.09117C20.107 5.09117 20.0578 5.09117 20.0087 5.09117C19.9596 5.09117 19.9106 5.09117 19.8616 5.09117C19.8126 5.09117 19.7637 5.09117 19.7148 5.09117C19.6659 5.09117 19.617 5.09117 19.5683 5.09117C19.5195 5.09117 19.4708 5.09117 19.4221 5.09117C19.3734 5.09117 19.3248 5.09117 19.2762 5.09117C19.2277 5.09117 19.1792 5.09117 19.1307 5.09117C19.0822 5.09117 19.0338 5.09117 18.9855 5.09117C18.9371 5.09117 18.8888 5.09117 18.8406 5.09117C18.7924 5.09117 18.7442 5.09117 18.6961 5.09117C18.6479 5.09117 18.5999 5.09117 18.5519 5.09117C18.5038 5.09117 18.4559 5.09117 18.408 5.09117C18.3601 5.09117 18.3122 5.09117 18.2644 5.09117C18.2167 5.09117 18.1689 5.09117 18.1213 5.09117C18.0736 5.09117 18.026 5.09117 17.9784 5.09117C17.9309 5.09117 17.8834 5.09117 17.8359 5.09117C17.7885 5.09117 17.7411 5.09117 17.6938 5.09117C17.6464 5.09117 17.5992 5.09117 17.552 5.09117C17.5048 5.09117 17.4576 5.09117 17.4105 5.09117C17.3635 5.09117 17.3164 5.09117 17.2695 5.09117C17.2225 5.09117 17.1756 5.09117 17.1287 5.09117C17.0819 5.09117 17.0351 5.09117 16.9884 5.09117C16.9417 5.09117 16.895 5.09117 16.8484 5.09117C16.8018 5.09117 16.7553 5.09117 16.7088 5.09117C16.6623 5.09117 16.6159 5.09117 16.5695 5.09117C16.5232 5.09117 16.4769 5.09117 16.4307 5.09117C16.3845 5.09117 16.3383 5.09117 16.2922 5.09117C16.2461 5.09117 16.2001 5.09117 16.1541 5.09117C16.1081 5.09117 16.0622 5.09117 16.0164 5.09117C15.9705 5.09117 15.9247 5.09117 15.879 5.09117C15.8333 5.09117 15.7876 5.09117 15.7421 5.09117C15.6965 5.09117 15.651 5.09117 15.6055 5.09117C15.56 5.09117 15.5147 5.09117 15.4693 5.09117C15.424 5.09117 15.3788 5.09117 15.3336 5.09117C15.2884 5.09117 15.2432 5.09117 15.1982 5.09117C15.1531 5.09117 15.1081 5.09117 15.0632 5.09117C15.0183 5.09117 14.9734 5.09117 14.9287 5.09117C14.8839 5.09117 14.8391 5.09117 14.7945 5.09117C14.7498 5.09117 14.7053 5.09117 14.6607 5.09117C14.6162 5.09117 14.5718 5.09117 14.5274 5.09117C14.483 5.09117 14.4387 5.09117 14.3945 5.09117C14.3503 5.09117 14.3061 5.09117 14.262 5.09117C14.2179 5.09117 14.1739 5.09117 14.1299 5.09117C14.0859 5.09117 14.0421 5.09117 13.9982 5.09117C13.9544 5.09117 13.9107 5.09117 13.867 5.09117C13.8233 5.09117 13.7797 5.09117 13.7362 5.09117C13.6927 5.09117 13.6492 5.09117 13.6058 5.09117C13.5624 5.09117 13.5191 5.09117 13.4759 5.09117C13.4326 5.09117 13.3895 5.09117 13.3464 5.09117C13.3033 5.09117 13.2603 5.09117 13.2173 5.09117C13.1744 5.09117 13.1315 5.09117 13.0887 5.09117C13.0459 5.09117 13.0032 5.09117 12.9605 5.09117C12.9179 5.09117 12.8753 5.09117 12.8328 5.09117C12.7903 5.09117 12.7479 5.09117 12.7055 5.09117C12.6632 5.09117 12.6209 5.09117 12.5787 5.09117C12.5365 5.09117 12.4944 5.09117 12.4523 5.09117C12.4103 5.09117 12.3683 5.09117 12.3264 5.09117C12.2845 5.09117 12.2427 5.09117 12.2009 5.09117C12.1592 5.09117 12.1175 5.09117 12.076 5.09117C12.0344 5.09117 11.9929 5.09117 11.9514 5.09117C11.91 5.09117 11.8686 5.09117 11.8274 5.09117C11.7861 5.09117 11.7449 5.09117 11.7038 5.09117C11.6627 5.09117 11.6216 5.09117 11.5807 5.09117C11.5397 5.09117 11.4988 5.09117 11.458 5.09117C11.4173 5.09117 11.3765 5.09117 11.3359 5.09117C11.2953 5.09117 11.2547 5.09117 11.2142 5.09117C11.1737 5.09117 11.1334 5.09117 11.093 5.09117C11.0527 5.09117 11.0125 5.09117 10.9723 5.09117C10.9322 5.09117 10.8921 5.09117 10.8521 5.09117C10.8121 5.09117 10.7722 5.09117 10.7324 5.09117C10.6926 5.09117 10.6529 5.09117 10.6132 5.09117C10.5735 5.09117 10.534 5.09117 10.4945 5.09117C10.455 5.09117 10.4156 5.09117 10.3763 5.09117C10.3369 5.09117 10.2977 5.09117 10.2585 5.09117C10.2194 5.09117 10.1803 5.09117 10.1413 5.09117C10.1023 5.09117 10.0634 5.09117 10.0246 5.09117C9.98581 5.09117 9.94707 5.09117 9.90843 5.09117C9.86979 5.09117 9.83123 5.09117 9.79275 5.09117C9.75428 5.09117 9.71589 5.09117 9.6776 5.09117C9.63929 5.09117 9.60108 5.09117 9.56295 5.09117C9.52483 5.09117 9.48679 5.09117 9.44884 5.09117C9.41089 5.09117 9.37302 5.09117 9.33525 5.09117C9.29747 5.09117 9.25978 5.09117 9.22218 5.09117C9.18458 5.09117 9.14707 5.09117 9.10965 5.09117C9.07222 5.09117 9.03489 5.09117 8.99765 5.09117C8.9604 5.09117 8.92325 5.09117 8.88618 5.09117C8.84911 5.09117 8.81214 5.09117 8.77525 5.09117C8.73837 5.09117 8.70157 5.09117 8.66487 5.09117C8.62816 5.09117 8.59155 5.09117 8.55502 5.09117C8.5185 5.09117 8.48207 5.09117 8.44573 5.09117C8.40939 5.09117 8.37314 5.09117 8.33698 5.09117C8.30082 5.09117 8.26476 5.09117 8.22879 5.09117C8.19281 5.09117 8.15693 5.09117 8.12115 5.09117C8.08536 5.09117 8.04966 5.09117 8.01406 5.09117C7.97846 5.09117 7.94295 5.09117 7.90754 5.09117C7.87213 5.09117 7.8368 5.09117 7.80158 5.09117C7.76635 5.09117 7.73122 5.09117 7.69618 5.09117C7.66115 5.09117 7.6262 5.09117 7.59136 5.09117C7.55651 5.09117 7.52176 5.09117 7.4871 5.09117C7.45244 5.09117 7.41788 5.09117 7.38341 5.09117C7.34895 5.09117 7.31458 5.09117 7.28031 5.09117C7.24603 5.09117 7.21186 5.09117 7.17778 5.09117C7.1437 5.09117 7.10971 5.09117 7.07583 5.09117C7.04194 5.09117 7.00815 5.09117 6.97446 5.09117C6.94077 5.09117 6.90718 5.09117 6.87369 5.09117C6.84019 5.09117 6.8068 5.09117 6.7735 5.09117C6.7402 5.09117 6.707 5.09117 6.6739 5.09117C6.6408 5.09117 6.6078 5.09117 6.5749 5.09117C6.542 5.09117 6.5092 5.09117 6.4765 5.09117C6.44379 5.09117 6.41119 5.09117 6.37869 5.09117C6.34619 5.09117 6.31379 5.09117 6.28149 5.09117C6.24919 5.09117 6.21699 5.09117 6.18489 5.09117C6.1528 5.09117 6.1208 5.09117 6.08891 5.09117C6.05701 5.09117 6.02522 5.09117 5.99353 5.09117C5.96184 5.09117 5.93025 5.09117 5.89876 5.09117C5.86728 5.09117 5.8359 5.09117 5.80462 5.09117C5.77334 5.09117 5.74216 5.09117 5.71109 5.09117C5.68001 5.09117 5.64904 5.09117 5.61818 5.09117C5.58731 5.09117 5.55655 5.09117 5.5259 5.09117C5.49524 5.09117 5.46469 5.09117 5.43424 5.09117C5.40379 5.09117 5.37345 5.09117 5.34321 5.09117C5.31297 5.09117 5.28284 5.09117 5.25282 5.09117C5.22279 5.09117 5.19287 5.09117 5.16306 5.09117C5.13324 5.09117 5.10353 5.09117 5.07393 5.09117C5.04433 5.09117 5.01484 5.09117 4.98545 5.09117C4.95606 5.09117 4.92678 5.09117 4.89761 5.09117C4.86844 5.09117 4.83937 5.09117 4.81042 5.09117C4.78146 5.09117 4.75261 5.09117 4.72387 5.09117C4.69513 5.09117 4.6665 5.09117 4.63798 5.09117C4.60945 5.09117 4.58104 5.09117 4.55274 5.09117C4.52443 5.09117 4.49624 5.09117 4.46815 5.09117C4.44007 5.09117 4.41209 5.09117 4.38422 5.09117C4.35636 5.09117 4.3286 5.09117 4.30096 5.09117C4.27332 5.09117 4.24578 5.09117 4.21836 5.09117C4.19094 5.09117 4.16363 5.09117 4.13643 5.09117C4.10923 5.09117 4.08214 5.09117 4.05516 5.09117C4.02819 5.09117 4.00132 5.09117 3.97457 5.09117C3.94782 5.09117 3.92118 5.09117 3.89466 5.09117C3.86813 5.09117 3.84172 5.09117 3.81542 5.09117C3.78912 5.09117 3.76293 5.09117 3.73686 5.09117C3.71079 5.09117 3.68483 5.09117 3.65899 5.09117C3.63314 5.09117 3.60741 5.09117 3.5818 5.09117C3.55618 5.09117 3.53068 5.09117 3.5053 5.09117C3.47991 5.09117 3.45464 5.09117 3.42949 5.09117C3.40433 5.09117 3.37929 5.09117 3.35437 5.09117C3.32945 5.09117 3.30464 5.09117 3.27995 5.09117C3.25526 5.09117 3.23069 5.09117 3.20623 5.09117C3.18178 5.09117 3.15744 5.09117 3.13321 5.09117C3.10899 5.09117 3.08489 5.09117 3.0609 5.09117C3.03691 5.09117 3.01304 5.09117 2.98929 5.09117C2.96554 5.09117 2.94191 5.09117 2.9184 5.09117C2.89488 5.09117 2.87149 5.09117 2.84821 5.09117C2.82494 5.09117 2.80178 5.09117 2.77874 5.09117C2.75571 5.09117 2.73279 5.09117 2.70999 5.09117C2.6872 5.09117 2.66452 5.09117 2.64196 5.09117C2.61941 5.09117 2.59697 5.09117 2.57465 5.09117C2.55234 5.09117 2.53015 5.09117 2.50807 5.09117C2.486 5.09117 2.46405 5.09117 2.44222 5.09117C2.42039 5.09117 2.39868 5.09117 2.3771 5.09117C2.35551 5.09117 2.33405 5.09117 2.31271 5.09117C2.29137 5.09117 2.27016 5.09117 2.24906 5.09117C2.22797 5.09117 2.207 5.09117 2.18615 5.09117C2.1653 5.09117 2.14458 5.09117 2.12398 5.09117C2.10338 5.09117 2.08291 5.09117 2.06256 5.09117C2.04221 5.09117 2.02198 5.09117 2.00188 5.09117C1.98178 5.09117 1.9618 5.09117 1.94195 5.09117C1.9221 5.09117 1.90238 5.09117 1.88278 5.09117C1.86318 5.09117 1.8437 5.09117 1.82436 5.09117C1.80501 5.09117 1.78579 5.09117 1.7667 5.09117C1.7476 5.09117 1.72864 5.09117 1.7098 5.09117C1.69096 5.09117 1.67224 5.09117 1.65366 5.09117C1.63507 5.09117 1.61662 5.09117 1.59829 5.09117C1.57996 5.09117 1.56176 5.09117 1.54369 5.09117C1.52561 5.09117 1.50767 5.09117 1.48986 5.09117C1.47204 5.09117 1.45436 5.09117 1.4368 5.09117C1.41924 5.09117 1.40182 5.09117 1.38452 5.09117C1.36722 5.09117 1.35006 5.09117 1.33302 5.09117C1.31598 5.09117 1.29908 5.09117 1.2823 5.09117C1.26553 5.09117 1.24888 5.09117 1.23237 5.09117C1.21586 5.09117 1.19947 5.09117 1.18322 5.09117C1.16697 5.09117 1.15085 5.09117 1.13487 5.09117C1.11888 5.09117 1.10303 5.09117 1.08731 5.09117C1.07158 5.09117 1.056 5.09117 1.04054 5.09117C1.02508 5.09117 1.00976 5.09117 0.994571 5.09117C0.979382 5.09117 0.964326 5.09117 0.949404 5.09117C0.934481 5.09117 0.919693 5.09117 0.90504 5.09117C0.890386 5.09117 0.875867 5.09117 0.861482 5.09117C0.847098 5.09117 0.832848 5.09117 0.818734 5.09117C0.804619 5.09117 0.79064 5.09117 0.776797 5.09117C0.762953 5.09117 0.749246 5.09117 0.735674 5.09117C0.722103 5.09117 0.708667 5.09117 0.695369 5.09117C0.68207 5.09117 0.668908 5.09117 0.655883 5.09117C0.642858 5.09117 0.62997 5.09117 0.617219 5.09117C0.604469 5.09117 0.591856 5.09117 0.579381 5.09117C0.566906 5.09117 0.554569 5.09117 0.54237 5.09117C0.530172 5.09117 0.518111 5.09117 0.50619 5.09117C0.494269 5.09117 0.482486 5.09117 0.470843 5.09117C0.4592 5.09117 0.447696 5.09117 0.436331 5.09117C0.424967 5.09117 0.413743 5.09117 0.402658 5.09117C0.391574 5.09117 0.38063 5.09117 0.369827 5.09117C0.359023 5.09117 0.34836 5.09117 0.337839 5.09117C0.327317 5.09117 0.316936 5.09117 0.306697 5.09117C0.296458 5.09117 0.28636 5.09117 0.276405 5.09117C0.266449 5.09117 0.256635 5.09117 0.246964 5.09117C0.237293 5.09117 0.227764 5.09117 0.218378 5.09117C0.208992 5.09117 0.199749 5.09117 0.190649 5.09117C0.18155 5.09117 0.172593 5.09117 0.163781 5.09117C0.154968 5.09117 0.146299 5.09117 0.137774 5.09117C0.12925 5.09117 0.120869 5.09117 0.112633 5.09117C0.104397 5.09117 0.0963061 5.09117 0.08836 5.09117C0.0804138 5.09117 0.0726128 5.09117 0.0649574 5.09117C0.0573019 5.09117 0.049792 5.09117 0.0424281 5.09117C0.0350641 5.09117 0.0278462 5.09117 0.0207747 5.09117C0.0137032 5.09117 0.00677817 5.09117 0 5.09117V6.69117Z" fill="black"/>
</svg>
