<svg width="57" height="46" viewBox="-20 -20 97 86" fill="none" xmlns="http://www.w3.org/2000/svg">
<style>
    .group .letter1{
        transform-origin: center;
        animation: letter1Anim infinite 3s;
    }
    .media .letter1{
        transform-origin: center;
        animation: letter1Anim2 infinite 3s;
    }
    @keyframes letter1Anim{
        0%{
            transform: scale(1) translate(0px,0px);
        }
        10%{
            transform: scale(1.2) translate(5px,5px);
        }
        50%{
            transform: scale(1) translate(0px,0px);
        }
    }
    @keyframes letter1Anim2{
        0%{
            transform: scale(1) translate(0px,0px);
        }
        10%{
            transform: scale(0.9) translate(-5px,-5px);
        }
        50%{
            transform: scale(1) translate(0px,0px);
        }
    }
    .group .letter2{
        transform-origin: center;
        animation: letter2Anim infinite 3s;
    }
    .media .letter2{
        transform-origin: center;
        animation: letter2Anim2 infinite 3s;
    }
    @keyframes letter2Anim{
        10%{
            transform: scale(1) translate(0px,0px);
        }
        20%{
            transform: scale(1.2) translate(5px,5px);
        }
        60%{
            transform: scale(1) translate(0px,0px);
        }
    }
    @keyframes letter2Anim2{
        10%{
            transform: scale(1) translate(0px,0px);
        }
        20%{
            transform: scale(0.9) translate(-5px,-5px);
        }
        60%{
            transform: scale(1) translate(0px,0px);
        }
    }
    .group .letter3{
        transform-origin: center;
        animation: letter3Anim infinite 3s;
    }
    .media .letter3{
        transform-origin: center;
        animation: letter3Anim2 infinite 3s;
    }
    @keyframes letter3Anim{
        20%{
            transform: scale(1) translate(0px,0px);
        }
        30%{
            transform: scale(1.2) translate(5px,5px);
        }
        70%{
            transform: scale(1) translate(0px,0px);
        }
    }
    @keyframes letter3Anim2{
        20%{
            transform: scale(1) translate(0px,0px);
        }
        30%{
            transform: scale(0.9) translate(-5px,-5px);
        }
        70%{
            transform: scale(1) translate(0px,0px);
        }
    }
    .group .letter4{
        transform-origin: center;
        animation: letter4Anim infinite 3s;
    }
    .media .letter4{
        transform-origin: center;
        animation: letter4Anim2 infinite 3s;
    }
    @keyframes letter4Anim{
        30%{
            transform: scale(1) translate(0px,0px);
        }
        40%{
            transform: scale(1.2) translate(5px,5px);
        }
        80%{
            transform: scale(1) translate(0px,0px);
        }
    }
    @keyframes letter4Anim2{
        30%{
            transform: scale(1) translate(0px,0px);
        }
        40%{
            transform: scale(0.9) translate(-5px,-5px);
        }
        80%{
            transform: scale(1) translate(0px,0px);
        }
    }
    .group .letter5{
        transform-origin: center;
        animation: letter5Anim infinite 3s;
    }
    .media .letter5{
        transform-origin: center;
        animation: letter5Anim2 infinite 3s;
    }
    @keyframes letter5Anim{
        40%{
            transform: scale(1) translate(0px,0px);
        }
        50%{
            transform: scale(1.2) translate(5px,5px);
        }
        90%{
            transform: scale(1) translate(0px,0px);
        }
    }
    @keyframes letter5Anim2{
        40%{
            transform: scale(1) translate(0px,0px);
        }
        50%{
            transform: scale(0.9) translate(-5px,-5px);
        }
        90%{
            transform: scale(1) translate(0px,0px);
        }
    }
    .buying{
        animation: buyingAnim 3s infinite;
    }
    @keyframes buyingAnim{
        0%{
            opacity: 1
        }
        10%{
            opacity: 0.2
        }
        100%{
            opacity: 1
        }

    }
</style>
<g class='group'>
<path class='letter5' d="M18.5267 42.4076L18.4624 42.4438C18.3939 42.9935 18.1625 43.5481 17.7684 44.1075C17.3742 44.6669 16.8387 45.1371 16.1618 45.518C15.6478 45.8074 15.1679 45.9665 14.7224 45.9954C14.2768 46.0244 13.887 45.9159 13.5528 45.6699C13.2187 45.424 12.9573 45.031 12.7688 44.4909C12.5803 43.9508 12.4861 43.2564 12.4861 42.4076C12.4861 41.5589 12.5846 40.7512 12.7817 39.9844C12.9788 39.2177 13.2529 38.5136 13.6042 37.8723C13.9641 37.2261 14.3925 36.6474 14.8895 36.1362C15.3864 35.6251 15.9391 35.1983 16.5474 34.8559C17.3528 34.4026 18.0468 34.2097 18.6295 34.2772C19.2121 34.3351 19.6705 34.6606 20.0047 35.2537L18.411 37.1778C18.2739 36.8596 18.0597 36.6474 17.7684 36.5413C17.4771 36.4256 17.0701 36.5148 16.5474 36.8089C15.9391 37.1513 15.455 37.6215 15.0951 38.2195C14.7352 38.8174 14.5553 39.5408 14.5553 40.3895V42.0098C14.5553 42.8489 14.7352 43.3697 15.0951 43.5722C15.455 43.7651 15.9391 43.6904 16.5474 43.348C16.7873 43.213 17.0144 43.0562 17.2286 42.8778C17.4428 42.6897 17.6313 42.4872 17.7941 42.2702C17.9569 42.0435 18.0811 41.8145 18.1668 41.583C18.261 41.3467 18.3082 41.1032 18.3082 40.8524V40.3461L16.6374 41.2864V39.4491L20.1718 37.4599V43.0876L18.5267 44.0135V42.4076Z" fill="white"/>
<path class='letter4' d="M24.0242 40.9193L22.0707 42.0188V31.9209L26.3248 29.5266C26.736 29.2952 27.1088 29.1626 27.4429 29.1288C27.7771 29.0951 28.0598 29.1577 28.2912 29.3169C28.5311 29.4615 28.7153 29.6954 28.8438 30.0185C28.9723 30.3416 29.0366 30.7443 29.0366 31.2265C29.0366 31.9113 28.8995 32.5864 28.6253 33.2519C28.3597 33.9125 27.9527 34.5129 27.4044 35.053L29.1651 38.026L26.9931 39.2484L25.4251 36.4274L24.0242 37.2158V40.9193ZM26.0806 34.2067C26.3719 34.0427 26.599 33.833 26.7618 33.5774C26.9331 33.3073 27.0188 33.0084 27.0188 32.6804V32.0439C27.0188 31.716 26.9331 31.5183 26.7618 31.4507C26.599 31.3688 26.3719 31.4098 26.0806 31.5737L24.0242 32.7311V35.3641L26.0806 34.2067Z" fill="white"/>
<path class='letter3' d="M34.204 35.3636C33.6128 35.6963 33.073 35.8892 32.5846 35.9423C32.0962 35.9953 31.6807 35.9013 31.338 35.6602C30.9952 35.4094 30.7296 35.014 30.5411 34.4739C30.3526 33.9241 30.2584 33.2201 30.2584 32.3617C30.2584 31.5033 30.3526 30.698 30.5411 29.9457C30.7296 29.1838 30.9952 28.4894 31.338 27.8625C31.6807 27.226 32.0962 26.6593 32.5846 26.1626C33.073 25.6659 33.6128 25.2512 34.204 24.9185C34.7952 24.5857 35.335 24.3928 35.8234 24.3398C36.3118 24.2868 36.7273 24.3856 37.0701 24.6364C37.4128 24.8775 37.6784 25.2729 37.8669 25.8227C38.0554 26.3628 38.1497 27.062 38.1497 27.9204C38.1497 28.7787 38.0554 29.5889 37.8669 30.3508C37.6784 31.1031 37.4128 31.7975 37.0701 32.434C36.7273 33.0609 36.3118 33.6227 35.8234 34.1194C35.335 34.6161 34.7952 35.0309 34.204 35.3636ZM34.204 33.4106C34.7952 33.0778 35.2536 32.6028 35.5792 31.9856C35.9134 31.3635 36.0804 30.6474 36.0804 29.8372V28.3327C36.0804 27.5225 35.9134 26.9945 35.5792 26.7485C35.2536 26.4978 34.7952 26.5388 34.204 26.8715C33.6128 27.2043 33.1501 27.6817 32.816 28.3037C32.4904 28.921 32.3276 29.6347 32.3276 30.4448V31.9494C32.3276 32.7596 32.4904 33.29 32.816 33.5408C33.1501 33.7867 33.6128 33.7433 34.204 33.4106Z" fill="white"/>
<path class='letter2' d="M41.6309 20.9121V27.1039C41.6309 27.8176 41.7552 28.283 42.0036 28.5C42.2521 28.7074 42.6677 28.6471 43.2503 28.3192C43.8329 27.9913 44.2485 27.5838 44.497 27.0967C44.7455 26.6 44.8697 25.9948 44.8697 25.2811V19.0893L46.7718 18.0187V23.9791C46.7718 24.7217 46.7076 25.4041 46.579 26.0262C46.4591 26.6338 46.2577 27.1956 45.975 27.7116C45.6922 28.2179 45.3281 28.6833 44.8825 29.1076C44.437 29.5223 43.8929 29.9105 43.2503 30.2722C42.6077 30.6339 42.0636 30.8581 41.6181 30.9449C41.1725 31.0221 40.8084 30.9666 40.5256 30.7785C40.2429 30.5808 40.0372 30.2481 39.9087 29.7803C39.7888 29.2981 39.7288 28.6857 39.7288 27.943V21.9827L41.6309 20.9121Z" fill="white"/>
<path class='letter1' d="M48.704 27.0292L48.704 16.9313L52.9452 14.5442C53.3651 14.3079 53.7421 14.1777 54.0762 14.1536C54.4104 14.1199 54.6931 14.1777 54.9245 14.3272C55.1644 14.4719 55.3486 14.7106 55.4771 15.0433C55.6056 15.3664 55.6699 15.7643 55.6699 16.2369C55.6699 16.7191 55.6056 17.1941 55.4771 17.6618C55.3486 18.1296 55.1644 18.5709 54.9245 18.9856C54.6931 19.3955 54.4104 19.7764 54.0762 20.1285C53.7421 20.4708 53.3651 20.7602 52.9452 20.9965L50.6575 22.284V25.9297L48.704 27.0292ZM50.6575 20.3744L52.7139 19.217C53.0052 19.0531 53.2323 18.8433 53.3951 18.5877C53.5664 18.3177 53.6521 18.0187 53.6521 17.6908V17.0542C53.6521 16.7263 53.5664 16.5286 53.3951 16.4611C53.2323 16.3791 53.0052 16.4201 52.7139 16.5841L50.6575 17.7414V20.3744Z" fill="white"/>
</g>
<g class='buying'>
<path d="M0 33.5884L4.35692 31.1362C5.10235 30.7167 5.89062 30.5093 6.72173 30.5141C7.56142 30.5141 8.32827 30.7095 9.02229 31.1001C9.36502 31.293 9.60921 31.4834 9.75487 31.6715C9.9091 31.8547 9.98621 32.0332 9.98621 32.2068C9.99478 32.3756 9.9348 32.5395 9.80628 32.6987C9.67776 32.8481 9.50211 32.9904 9.27934 33.1254L9.35645 33.1688C9.57065 33.0483 9.83198 32.9446 10.1404 32.8578C10.4575 32.7662 10.8002 32.7131 11.1686 32.6987C11.5285 32.6794 11.9055 32.7083 12.2996 32.7855C12.7023 32.8578 13.0965 33.0025 13.482 33.2195C13.8333 33.4172 14.1075 33.639 14.3046 33.8849C14.5016 34.1212 14.613 34.3624 14.6387 34.6083C14.6644 34.8542 14.6045 35.0953 14.4588 35.3316C14.3046 35.5631 14.0604 35.7729 13.7262 35.9609L8.97088 38.6373L0 33.5884ZM9.27934 36.612L11.5285 35.3461C11.7855 35.2014 11.9183 35.0495 11.9269 34.8904C11.9355 34.7216 11.8112 34.5649 11.5542 34.4202L11.1172 34.1743C10.8602 34.0296 10.586 33.9621 10.2947 33.9717C10.0033 33.9717 9.72917 34.0441 9.47212 34.1887L7.22297 35.4546L9.27934 36.612ZM5.62929 34.5577L7.56998 33.4654C7.82703 33.3207 7.95555 33.1664 7.95555 33.0025C7.95555 32.8385 7.82703 32.6842 7.56998 32.5395L7.18442 32.3225C6.92737 32.1778 6.65319 32.1055 6.36187 32.1055C6.07055 32.1055 5.79637 32.1778 5.53933 32.3225L3.59863 33.4148L5.62929 34.5577Z" fill="#4DE580"/>
<path d="M10.4231 27.7221L15.9239 30.818C16.5579 31.1749 17.1577 31.3726 17.7232 31.4112C18.2801 31.4449 18.8499 31.2978 19.4325 30.9699C20.0152 30.642 20.2765 30.3213 20.2165 30.0079C20.148 29.6896 19.7967 29.352 19.1626 28.9952L13.6619 25.8993L15.564 24.8287L20.8591 27.8089C21.5189 28.1802 22.0287 28.5395 22.3885 28.8867C22.7484 29.2242 22.9455 29.5618 22.9798 29.8994C23.0055 30.2321 22.8726 30.5673 22.5813 30.9048C22.2814 31.2376 21.8102 31.5848 21.1676 31.9464C20.525 32.3081 19.9081 32.5733 19.3169 32.7421C18.7171 32.9061 18.1216 32.9808 17.5304 32.9664C16.9306 32.9471 16.3266 32.8386 15.7182 32.6408C15.1099 32.4335 14.4758 32.1441 13.8161 31.7728L8.52095 28.7926L10.4231 27.7221Z" fill="#4DE580"/>
<path d="M28.6648 27.5533L25.1561 25.5786L16.6222 24.2331L18.8071 23.0034L24.3079 23.9293L24.3336 23.9149L22.6114 20.8623L24.732 19.6688L27.1096 24.4646L30.6312 26.4466L28.6648 27.5533Z" fill="#4DE580"/>
<path d="M34.4665 24.288L32.9113 23.4128L34.068 22.7617L28.2074 19.4633L27.0507 20.1143L25.4956 19.239L29.7625 16.8375L31.3177 17.7128L30.161 18.3638L36.0216 21.6623L37.1783 21.0112L38.7334 21.8865L34.4665 24.288Z" fill="#4DE580"/>
<path d="M38.8573 17.0427L36.1969 16.5146L36.1583 16.5363L42.1989 19.9361L40.361 20.9704L31.3902 15.9215L33.5236 14.7207L40.2197 15.7262L42.8801 16.2542L42.9186 16.2325L36.8781 12.8328L38.7159 11.7984L47.6868 16.8474L45.5533 18.0481L38.8573 17.0427Z" fill="#4DE580"/>
<path d="M53.9283 11.7287L53.864 11.7649C54.2496 12.0591 54.3953 12.4014 54.301 12.7921C54.2068 13.1827 53.8212 13.5684 53.1443 13.9494C52.6302 14.2387 52.0519 14.4533 51.4093 14.5932C50.7666 14.733 50.0855 14.7885 49.3658 14.7596C48.646 14.7306 47.9049 14.6077 47.1423 14.3907C46.3797 14.1736 45.6215 13.853 44.8675 13.4286C44.1135 13.0042 43.5437 12.5726 43.1581 12.1338C42.7725 11.695 42.5583 11.2658 42.5155 10.8463C42.4812 10.4219 42.6097 10.012 42.9011 9.61657C43.1924 9.22114 43.6422 8.85223 44.2505 8.50985C45.056 8.05655 45.9256 7.7648 46.8596 7.6346C47.7849 7.49957 48.7617 7.53333 49.7899 7.73587L49.1087 9.14639C48.6203 9.02583 48.1105 8.98002 47.5793 9.00896C47.0395 9.03307 46.5083 9.1922 45.9856 9.48636C45.3773 9.82875 45.0688 10.2001 45.0602 10.6003C45.0517 11.0006 45.4244 11.4129 46.1784 11.8372L47.6178 12.6474C48.3633 13.0669 49.0959 13.2767 49.8156 13.2767C50.5267 13.2719 51.1865 13.0983 51.7948 12.7559C52.0347 12.6209 52.2361 12.4786 52.3989 12.3291C52.5531 12.1748 52.6559 12.0205 52.7073 11.8662C52.7502 11.707 52.733 11.5575 52.6559 11.4177C52.5874 11.273 52.4417 11.138 52.219 11.0126L51.7691 10.7595L50.0983 11.6998L48.4661 10.7812L52.0005 8.79195L57 11.6058L55.3549 12.5317L53.9283 11.7287Z" fill="#4DE580"/>
</g> 
<g class='media'>
<path class='letter1' d="M10.1432 20.7938L10.1047 20.8155L9.44919 22.66L7.70128 27.2171L5.99193 24.6203L5.31076 23.4123L5.27221 23.434V30.1611L3.43433 31.1955L3.43433 21.0976L5.50355 19.933L7.70128 23.4268L7.72699 23.4123L9.89902 17.4591L11.9811 16.2873L11.9811 26.3852L10.1432 27.4196V20.7938Z" fill="white"/>
<path class='letter2' d="M13.9647 25.2689V15.1709L20.0695 11.735V13.6881L15.9182 16.0245V18.0933L19.4783 16.0896V18.0282L15.9182 20.0318V22.2163L20.0695 19.8799V21.833L13.9647 25.2689Z" fill="white"/>
<path class='letter3' d="M21.7714 10.7772L25.1515 8.87478C25.7428 8.54204 26.2825 8.34433 26.7709 8.28163C27.2593 8.21894 27.6749 8.30334 28.0176 8.53481C28.3603 8.75663 28.6259 9.13277 28.8144 9.66323C29.0029 10.184 29.0972 10.864 29.0972 11.7031C29.0972 12.5421 29.0029 13.333 28.8144 14.0756C28.6259 14.8086 28.3603 15.4838 28.0176 16.101C27.6749 16.7086 27.2593 17.2559 26.7709 17.743C26.2825 18.2301 25.7428 18.64 25.1515 18.9727L21.7714 20.8751V10.7772ZM25.1515 17.0197C25.7342 16.6917 26.1926 16.2505 26.5267 15.6959C26.8609 15.1414 27.028 14.459 27.028 13.6489V12.0864C27.028 11.2763 26.8609 10.782 26.5267 10.6036C26.1926 10.4251 25.7342 10.4999 25.1515 10.8278L23.7249 11.6307V17.8226L25.1515 17.0197Z" fill="white"/>
<path class='letter4' d="M30.3858 16.0268V14.2763L31.5425 13.6252V7.02832L30.3858 7.67934V5.92884L34.6528 3.52733V5.27783L33.4961 5.92884V12.5258L34.6528 11.8747V13.6252L30.3858 16.0268Z" fill="white"/>
<path class='letter5' d="M41.8069 9.5988L41.1643 7.55897L38.1697 9.24436L37.5271 12.0075L35.5478 13.1215L38.5038 1.35989L40.9201 0L43.8375 8.45592L41.8069 9.5988ZM39.6863 2.69085L39.622 2.72702L38.6324 7.11773L40.6887 5.96037L39.6863 2.69085Z" fill="white"/>
</g>
</svg>
