<svg width="72" height="73" viewBox="0 0 72 73" fill="none" xmlns="http://www.w3.org/2000/svg">
<g filter="url(#filter0_ii_381_25193)">
<path d="M45.9746 0.780601C47.873 -0.825032 50.7884 0.442889 50.9085 2.92631L51.879 23.0047C51.9267 23.99 52.4556 24.8889 53.2938 25.409L70.3845 36.0138C72.4968 37.3245 72.19 40.4882 69.8652 41.3685L51.0712 48.4857C50.1474 48.8356 49.4551 49.6177 49.2199 50.5771L44.4362 70.0943C43.8443 72.5095 40.7397 73.1974 39.183 71.2582L26.5982 55.5815C25.9799 54.8113 25.0221 54.3948 24.0372 54.4677L3.9889 55.9525C1.50902 56.1361 -0.104846 53.3963 1.25808 51.3164L12.2719 34.5086C12.8133 33.6824 12.9133 32.6426 12.5393 31.7284L4.92957 13.1284C3.98827 10.8276 6.0931 8.44591 8.49215 9.09718L27.9031 14.3667C28.8551 14.6252 29.8733 14.3991 30.6265 13.7621L45.9746 0.780601Z" fill="url(#paint0_linear_381_25193)"/>
</g>
<defs>
<filter id="filter0_ii_381_25193" x="0.76123" y="-14.2345" width="71.042" height="86.6164" filterUnits="userSpaceOnUse" color-interpolation-filters="sRGB">
<feFlood flood-opacity="0" result="BackgroundImageFix"/>
<feBlend mode="normal" in="SourceGraphic" in2="BackgroundImageFix" result="shape"/>
<feColorMatrix in="SourceAlpha" type="matrix" values="0 0 0 0 0 0 0 0 0 0 0 0 0 0 0 0 0 0 127 0" result="hardAlpha"/>
<feOffset dy="-14.3007"/>
<feGaussianBlur stdDeviation="14.3007"/>
<feComposite in2="hardAlpha" operator="arithmetic" k2="-1" k3="1"/>
<feColorMatrix type="matrix" values="0 0 0 0 0.290196 0 0 0 0 0.937255 0 0 0 0 0.509804 0 0 0 0.57 0"/>
<feBlend mode="normal" in2="shape" result="effect1_innerShadow_381_25193"/>
<feColorMatrix in="SourceAlpha" type="matrix" values="0 0 0 0 0 0 0 0 0 0 0 0 0 0 0 0 0 0 127 0" result="hardAlpha"/>
<feOffset dy="-14.3007"/>
<feGaussianBlur stdDeviation="7.15037"/>
<feComposite in2="hardAlpha" operator="arithmetic" k2="-1" k3="1"/>
<feColorMatrix type="matrix" values="0 0 0 0 0.0612978 0 0 0 0 0.172363 0 0 0 0 0.0989928 0 0 0 0.72 0"/>
<feBlend mode="normal" in2="effect1_innerShadow_381_25193" result="effect2_innerShadow_381_25193"/>
</filter>
<linearGradient id="paint0_linear_381_25193" x1="32.7242" y1="-1.73984" x2="23.8096" y2="62.1443" gradientUnits="userSpaceOnUse">
<stop offset="0.0001" stop-color="#4AEF82"/>
<stop offset="1" stop-color="#41CE71"/>
</linearGradient>
</defs>
</svg>
